# Original SpaceSurvival generated source; centimeters; X forward; Z up
mtllib Palette.mtl
o SM_Asteroid
v 0.000000 0.000000 104.000000
v 26.389333 0.000000 89.873813
v 26.252751 7.708503 93.183236
v 21.011970 13.503573 85.063770
v 16.303457 18.815193 84.788220
v 9.900434 21.678925 81.166494
v 4.165767 28.973548 99.689537
v -3.258084 22.660474 77.968090
v -8.981842 19.667491 73.635629
v -14.825053 17.109024 77.099592
v -19.039839 12.236162 77.079899
v -22.294877 6.546367 79.134897
v -22.700079 0.000000 77.309368
v -20.394217 -5.988282 72.388569
v -19.533291 -12.553284 79.077565
v -15.120167 -17.449603 78.634366
v -10.558476 -23.119838 86.561312
v -3.145519 -21.877564 75.274325
v 2.977643 -20.709961 71.256944
v 9.185175 -20.112728 75.302606
v 16.486187 -19.026074 85.738530
v 20.011571 -12.860656 81.013809
v 25.807776 -7.577847 91.603810
v 52.819475 0.000000 82.188708
v 44.228902 12.986777 71.726961
v 34.192825 21.974395 63.244994
v 33.738961 38.936837 80.167959
v 21.601370 47.300403 80.912792
v 6.514922 45.312279 71.232324
v -7.160554 49.802744 78.291477
v -18.319748 40.114652 68.620735
v -35.856414 41.380508 85.199290
v -44.882070 28.843955 83.016429
v -50.495716 14.826880 81.889988
v -55.429351 0.000000 86.249754
v -41.214456 -12.101656 66.838368
v -40.682409 -26.144997 75.248498
v -33.777281 -38.981061 80.259012
v -21.930610 -48.021337 82.146031
v -6.500683 -45.213244 71.076639
v 5.880878 -40.902403 64.299861
v 20.671776 -45.264876 77.430787
v 26.676732 -30.786589 63.387225
v 43.012638 -27.642544 79.558621
v 37.464806 -11.000660 60.757481
v 65.405588 0.000000 56.674264
v 63.342219 18.598954 57.203488
v 48.213233 30.984763 49.660421
v 43.238464 49.899847 57.212687
v 27.628242 60.497411 57.629135
v 9.014164 62.694884 54.884067
v -10.828654 75.314946 65.931864
v -31.305259 68.548956 65.298944
v -49.737098 57.399671 65.811612
v -50.758067 32.620229 52.281641
v -52.810405 15.506534 47.692352
v -63.521940 0.000000 55.042074
v -54.847187 -16.104587 49.531742
v -60.123771 -38.639201 61.928470
v -39.797754 -45.929057 52.659976
v -23.894168 -52.320931 49.840314
v -8.720364 -60.651464 53.095226
v 9.132393 -63.517192 55.603928
v 29.992492 -65.674396 62.560671
v 42.935127 -49.549777 56.811314
v 51.903358 -33.356263 53.461310
v 67.927764 -19.945391 61.344631
v 66.812883 0.000000 30.512421
v 68.683501 20.167296 32.690916
v 71.930994 46.227243 39.048614
v 57.224517 66.040613 39.907052
v 28.432011 62.257421 31.256609
v 9.596043 66.741945 30.793458
v -11.415975 79.399851 36.633574
v -35.144775 76.956322 38.636256
v -43.196319 49.851209 30.124112
v -65.792151 42.282048 35.716068
v -70.515480 20.705213 33.562873
v -67.970761 0.000000 31.041206
v -67.620325 -19.855119 32.184881
v -62.096133 -39.906762 33.709640
v -51.791762 -59.770879 36.118374
v -28.563979 -62.546389 31.401686
v -11.890490 -82.700175 38.156280
v 12.960967 -90.145509 41.591415
v 35.477622 -77.685157 39.002171
v 44.184874 -50.992062 30.813507
v 70.976615 -45.613901 38.530518
v 80.543934 -23.649833 38.336062
v 71.544916 0.000000 10.286606
v 80.071810 23.511205 11.998617
v 77.341621 49.704442 13.218425
v 66.378123 76.604437 14.573684
v 41.828589 91.591835 14.477193
v 12.709661 88.397632 12.840357
v -12.796749 89.003343 12.928341
v -42.216949 92.442223 14.611607
v -51.038923 58.902057 11.205878
v -73.520411 47.248699 12.565343
v -70.250715 20.627471 10.526943
v -95.801928 0.000000 13.774238
v -88.245433 -25.911197 13.223419
v -65.564971 -42.136048 11.205682
v -50.757997 -58.577851 11.144199
v -36.496586 -79.916375 12.631746
v -13.530835 -94.109021 13.669975
v 10.754916 -74.802081 10.865511
v 33.860793 -74.144794 11.719478
v 57.305788 -66.134405 12.581803
v 66.913677 -43.002809 11.436189
v 95.260721 -27.971071 14.274647
v 94.232155 0.000000 -13.548539
v 97.416191 28.603974 -14.597641
v 77.033275 49.506280 -13.165725
v 60.801242 70.168374 -13.349249
v 33.361617 73.051751 -11.546709
v 12.417469 86.365391 -12.545160
v -12.077309 83.999527 -12.201502
v -35.900942 78.612098 -12.425589
v -47.965813 55.355499 -10.531159
v -82.594331 53.080153 -14.116163
v -73.073320 21.456263 -10.949905
v -85.784457 0.000000 -12.333943
v -96.645458 -28.377667 -14.482148
v -73.621969 -47.313967 -12.582700
v -64.685063 -74.650542 -14.201963
v -33.033193 -72.332603 -11.433039
v -12.246812 -85.178451 -12.372749
v 11.851932 -82.431994 -11.973808
v 33.872411 -74.170234 -11.723499
v 54.332494 -62.703040 -11.928999
v 71.817757 -46.154470 -12.274343
v 93.962635 -27.589919 -14.080132
v 93.756341 0.000000 -42.817086
v 65.482790 19.227482 -31.167491
v 71.446684 45.915995 -38.785700
v 52.969803 61.130411 -36.939913
v 32.202924 70.514567 -35.402145
v 9.489539 66.001197 -30.451691
v -10.819639 75.252242 -34.719946
v -31.040147 67.968441 -34.123851
v -49.886296 57.571854 -34.789546
v -69.629231 44.747990 -37.799074
v -73.093424 21.462166 -34.789883
v -74.102954 0.000000 -33.841685
v -70.500688 -20.700870 -33.555833
v -79.027602 -50.787956 -42.901093
v -50.358570 -58.116888 -35.118899
v -38.970977 -85.334537 -42.842575
v -10.006773 -69.598632 -32.111479
v 12.070951 -83.955309 -38.735375
v 33.911643 -74.256141 -37.280618
v 56.420906 -65.113197 -39.346632
v 67.693394 -43.503902 -36.748181
v 87.246951 -25.618016 -41.526461
v 68.623500 0.000000 -59.462601
v 53.292179 15.647996 -48.127435
v 59.663613 38.343476 -61.454500
v 45.344295 52.330106 -59.999101
v 25.068804 54.893024 -52.290461
v 10.258628 71.350324 -62.461173
v -10.620275 73.865632 -64.663112
v -25.388716 55.593534 -52.957758
v -37.984105 43.835994 -50.260173
v -51.658317 33.198785 -53.208914
v -65.888513 19.346613 -59.503012
v -65.154901 0.000000 -56.457043
v -53.884900 -15.822034 -48.662713
v -54.924108 -35.297581 -56.572731
v -44.300294 -51.125265 -58.617690
v -28.418480 -62.227791 -59.277475
v -8.961688 -62.329911 -54.564564
v 10.446651 -72.658051 -63.605977
v 29.404087 -64.385970 -61.333332
v 39.725890 -45.846121 -52.564886
v 52.823893 -33.947855 -54.409476
v 73.681411 -21.634814 -66.540671
v 42.750279 0.000000 -66.520733
v 44.777082 13.147737 -72.615955
v 37.171701 23.888802 -68.754893
v 32.099173 37.044421 -76.271619
v 21.885152 47.921799 -81.975760
v 5.843771 40.644321 -63.894149
v -6.008386 41.789239 -65.693995
v -16.628823 36.412042 -62.286995
v -26.918087 31.065128 -63.960715
v -40.324992 25.915299 -74.587398
v -45.464707 13.349642 -73.731092
v -55.283797 0.000000 -86.023268
v -44.870205 -13.175081 -72.766976
v -40.394043 -25.959675 -74.715119
v -25.790914 -29.764301 -61.282412
v -17.790446 -38.955643 -66.638117
v -6.301528 -43.828090 -68.899133
v 6.139889 -42.703863 -67.131812
v 21.834179 -47.810183 -81.784828
v 30.215519 -34.870568 -71.795822
v 34.730525 -22.319953 -64.239554
v 46.215918 -13.570218 -74.949348
v 21.692708 0.000000 -73.878579
v 21.072794 6.187531 -74.797158
v 21.676252 13.930481 -87.753017
v 13.791362 15.916081 -71.723749
v 11.260372 24.656776 -92.315648
v 3.449823 23.994049 -82.556533
v -2.969417 20.652750 -71.060098
v -10.951051 23.979457 -89.779748
v -18.960033 21.881045 -98.604084
v -22.665748 14.566392 -91.758841
v -26.741316 7.851959 -94.917380
v -28.751975 0.000000 -97.920233
v -21.811355 -6.404392 -77.418653
v -20.752777 -13.337000 -84.014467
v -17.659810 -20.380507 -91.842104
v -9.913026 -21.706499 -81.269728
v -4.127263 -28.705748 -98.768117
v 3.429884 -23.855364 -82.079358
v 8.508019 -18.629962 -69.751091
v 13.845135 -15.978137 -72.003399
v 20.303352 -13.048172 -82.195040
v 19.626715 -5.762923 -69.664347
v 0.000000 0.000000 -94.000000
vt 0.05 0.05
vt 0.95 0.05
vt 0.05 0.95
vn -0.228775 -0.034368 0.972873
vn 0.479360 0.102866 0.871569
vn 0.450690 0.484597 0.749696
vn -0.228775 -0.034368 0.972873
vn 0.450690 0.484597 0.749696
vn 0.398709 0.464883 0.790515
vn -0.228775 -0.034368 0.972873
vn 0.398709 0.464883 0.790515
vn 0.044464 0.348643 0.936200
vn -0.228775 -0.034368 0.972873
vn 0.044464 0.348643 0.936200
vn 0.266756 0.401711 0.876054
vn -0.228775 -0.034368 0.972873
vn 0.266756 0.401711 0.876054
vn 0.262217 0.474072 0.840534
vn -0.228775 -0.034368 0.972873
vn 0.262217 0.474072 0.840534
vn -0.800257 0.084248 0.593710
vn -0.228775 -0.034368 0.972873
vn -0.800257 0.084248 0.593710
vn -0.048792 0.474987 0.878639
vn -0.228775 -0.034368 0.972873
vn -0.048792 0.474987 0.878639
vn 0.021366 0.260383 0.965269
vn -0.228775 -0.034368 0.972873
vn 0.021366 0.260383 0.965269
vn -0.156224 0.236060 0.959099
vn -0.228775 -0.034368 0.972873
vn -0.156224 0.236060 0.959099
vn -0.171074 0.145445 0.974464
vn -0.228775 -0.034368 0.972873
vn -0.171074 0.145445 0.974464
vn -0.216990 -0.567317 0.794397
vn -0.228775 -0.034368 0.972873
vn -0.216990 -0.567317 0.794397
vn -0.580606 0.036403 0.813370
vn -0.228775 -0.034368 0.972873
vn -0.580606 0.036403 0.813370
vn -0.476507 0.144412 0.867229
vn -0.228775 -0.034368 0.972873
vn -0.476507 0.144412 0.867229
vn -0.487399 -0.035997 0.872437
vn -0.228775 -0.034368 0.972873
vn -0.487399 -0.035997 0.872437
vn 0.163839 -0.327614 0.930498
vn -0.228775 -0.034368 0.972873
vn 0.163839 -0.327614 0.930498
vn 0.648364 -0.414238 0.638773
vn -0.228775 -0.034368 0.972873
vn 0.648364 -0.414238 0.638773
vn -0.105078 -0.559764 0.821963
vn -0.228775 -0.034368 0.972873
vn -0.105078 -0.559764 0.821963
vn -0.243285 -0.629948 0.737549
vn -0.228775 -0.034368 0.972873
vn -0.243285 -0.629948 0.737549
vn 0.034345 -0.628897 0.776730
vn -0.228775 -0.034368 0.972873
vn 0.034345 -0.628897 0.776730
vn 0.579119 -0.169887 0.797346
vn -0.228775 -0.034368 0.972873
vn 0.579119 -0.169887 0.797346
vn 0.364912 -0.603792 0.708713
vn -0.228775 -0.034368 0.972873
vn 0.364912 -0.603792 0.708713
vn 0.479360 0.102866 0.871569
vn 0.479360 0.102866 0.871569
vn 0.602340 -0.034783 0.797481
vn 0.367287 0.636306 0.678391
vn 0.479360 0.102866 0.871569
vn 0.367287 0.636306 0.678391
vn 0.450690 0.484597 0.749696
vn 0.450690 0.484597 0.749696
vn 0.367287 0.636306 0.678391
vn 0.684655 0.373793 0.625720
vn 0.450690 0.484597 0.749696
vn 0.684655 0.373793 0.625720
vn 0.398709 0.464883 0.790515
vn 0.398709 0.464883 0.790515
vn 0.684655 0.373793 0.625720
vn 0.619996 0.212254 0.755350
vn 0.398709 0.464883 0.790515
vn 0.619996 0.212254 0.755350
vn 0.044464 0.348643 0.936200
vn 0.044464 0.348643 0.936200
vn 0.619996 0.212254 0.755350
vn -0.147846 0.534036 0.832435
vn 0.044464 0.348643 0.936200
vn -0.147846 0.534036 0.832435
vn 0.266756 0.401711 0.876054
vn 0.266756 0.401711 0.876054
vn -0.147846 0.534036 0.832435
vn 0.337737 0.592514 0.731342
vn 0.266756 0.401711 0.876054
vn 0.337737 0.592514 0.731342
vn 0.262217 0.474072 0.840534
vn 0.262217 0.474072 0.840534
vn 0.337737 0.592514 0.731342
vn -0.283074 0.269621 0.920420
vn 0.262217 0.474072 0.840534
vn -0.283074 0.269621 0.920420
vn -0.800257 0.084248 0.593710
vn -0.800257 0.084248 0.593710
vn -0.283074 0.269621 0.920420
vn -0.157910 0.227072 0.960990
vn -0.800257 0.084248 0.593710
vn -0.157910 0.227072 0.960990
vn -0.048792 0.474987 0.878639
vn -0.048792 0.474987 0.878639
vn -0.157910 0.227072 0.960990
vn -0.015707 0.386620 0.922105
vn -0.048792 0.474987 0.878639
vn -0.015707 0.386620 0.922105
vn 0.021366 0.260383 0.965269
vn 0.021366 0.260383 0.965269
vn -0.015707 0.386620 0.922105
vn -0.560921 0.113912 0.819995
vn 0.021366 0.260383 0.965269
vn -0.560921 0.113912 0.819995
vn -0.156224 0.236060 0.959099
vn -0.156224 0.236060 0.959099
vn -0.560921 0.113912 0.819995
vn -0.509036 0.391205 0.766708
vn -0.156224 0.236060 0.959099
vn -0.509036 0.391205 0.766708
vn -0.171074 0.145445 0.974464
vn -0.171074 0.145445 0.974464
vn -0.509036 0.391205 0.766708
vn -0.339467 -0.460030 0.820448
vn -0.171074 0.145445 0.974464
vn -0.339467 -0.460030 0.820448
vn -0.216990 -0.567317 0.794397
vn -0.216990 -0.567317 0.794397
vn -0.339467 -0.460030 0.820448
vn -0.435397 -0.241819 0.867152
vn -0.216990 -0.567317 0.794397
vn -0.435397 -0.241819 0.867152
vn -0.580606 0.036403 0.813370
vn -0.580606 0.036403 0.813370
vn -0.435397 -0.241819 0.867152
vn -0.555688 0.105038 0.824729
vn -0.580606 0.036403 0.813370
vn -0.555688 0.105038 0.824729
vn -0.476507 0.144412 0.867229
vn -0.476507 0.144412 0.867229
vn -0.555688 0.105038 0.824729
vn -0.458696 -0.379820 0.803327
vn -0.476507 0.144412 0.867229
vn -0.458696 -0.379820 0.803327
vn -0.487399 -0.035997 0.872437
vn -0.487399 -0.035997 0.872437
vn -0.458696 -0.379820 0.803327
vn -0.212466 -0.586605 0.781507
vn -0.487399 -0.035997 0.872437
vn -0.212466 -0.586605 0.781507
vn 0.163839 -0.327614 0.930498
vn 0.163839 -0.327614 0.930498
vn -0.212466 -0.586605 0.781507
vn 0.502615 -0.451820 0.737046
vn 0.163839 -0.327614 0.930498
vn 0.502615 -0.451820 0.737046
vn 0.648364 -0.414238 0.638773
vn 0.648364 -0.414238 0.638773
vn 0.502615 -0.451820 0.737046
vn 0.000013 -0.408817 0.912617
vn 0.648364 -0.414238 0.638773
vn 0.000013 -0.408817 0.912617
vn -0.105078 -0.559764 0.821963
vn -0.105078 -0.559764 0.821963
vn 0.000013 -0.408817 0.912617
vn 0.037215 -0.161479 0.986174
vn -0.105078 -0.559764 0.821963
vn 0.037215 -0.161479 0.986174
vn -0.243285 -0.629948 0.737549
vn -0.243285 -0.629948 0.737549
vn 0.037215 -0.161479 0.986174
vn 0.293315 -0.524836 0.799070
vn -0.243285 -0.629948 0.737549
vn 0.293315 -0.524836 0.799070
vn 0.034345 -0.628897 0.776730
vn 0.034345 -0.628897 0.776730
vn 0.293315 -0.524836 0.799070
vn 0.406373 -0.231904 0.883788
vn 0.034345 -0.628897 0.776730
vn 0.406373 -0.231904 0.883788
vn 0.579119 -0.169887 0.797346
vn 0.579119 -0.169887 0.797346
vn 0.406373 -0.231904 0.883788
vn 0.536510 -0.289659 0.792626
vn 0.579119 -0.169887 0.797346
vn 0.536510 -0.289659 0.792626
vn 0.364912 -0.603792 0.708713
vn 0.364912 -0.603792 0.708713
vn 0.536510 -0.289659 0.792626
vn 0.602340 -0.034783 0.797481
vn 0.364912 -0.603792 0.708713
vn 0.602340 -0.034783 0.797481
vn 0.479360 0.102866 0.871569
vn 0.602340 -0.034783 0.797481
vn 0.907937 -0.093885 0.408456
vn 0.689341 0.402417 0.602387
vn 0.602340 -0.034783 0.797481
vn 0.689341 0.402417 0.602387
vn 0.367287 0.636306 0.678391
vn 0.367287 0.636306 0.678391
vn 0.689341 0.402417 0.602387
vn 0.422639 0.391530 0.817362
vn 0.367287 0.636306 0.678391
vn 0.422639 0.391530 0.817362
vn 0.684655 0.373793 0.625720
vn 0.684655 0.373793 0.625720
vn 0.422639 0.391530 0.817362
vn 0.694984 0.421708 0.582374
vn 0.684655 0.373793 0.625720
vn 0.694984 0.421708 0.582374
vn 0.619996 0.212254 0.755350
vn 0.619996 0.212254 0.755350
vn 0.694984 0.421708 0.582374
vn 0.334484 0.883654 0.327532
vn 0.619996 0.212254 0.755350
vn 0.334484 0.883654 0.327532
vn -0.147846 0.534036 0.832435
vn -0.147846 0.534036 0.832435
vn 0.334484 0.883654 0.327532
vn 0.266074 0.874819 0.404842
vn -0.147846 0.534036 0.832435
vn 0.266074 0.874819 0.404842
vn 0.337737 0.592514 0.731342
vn 0.337737 0.592514 0.731342
vn 0.266074 0.874819 0.404842
vn 0.233482 0.797008 0.557014
vn 0.337737 0.592514 0.731342
vn 0.233482 0.797008 0.557014
vn -0.283074 0.269621 0.920420
vn -0.283074 0.269621 0.920420
vn 0.233482 0.797008 0.557014
vn -0.558638 0.505858 0.657291
vn -0.283074 0.269621 0.920420
vn -0.558638 0.505858 0.657291
vn -0.157910 0.227072 0.960990
vn -0.157910 0.227072 0.960990
vn -0.558638 0.505858 0.657291
vn -0.599813 0.606949 0.521381
vn -0.157910 0.227072 0.960990
vn -0.599813 0.606949 0.521381
vn -0.015707 0.386620 0.922105
vn -0.015707 0.386620 0.922105
vn -0.599813 0.606949 0.521381
vn -0.857609 0.015933 0.514056
vn -0.015707 0.386620 0.922105
vn -0.857609 0.015933 0.514056
vn -0.560921 0.113912 0.819995
vn -0.560921 0.113912 0.819995
vn -0.857609 0.015933 0.514056
vn -0.894810 0.249206 0.370421
vn -0.560921 0.113912 0.819995
vn -0.894810 0.249206 0.370421
vn -0.509036 0.391205 0.766708
vn -0.509036 0.391205 0.766708
vn -0.894810 0.249206 0.370421
vn -0.956389 0.098435 0.275009
vn -0.509036 0.391205 0.766708
vn -0.956389 0.098435 0.275009
vn -0.339467 -0.460030 0.820448
vn -0.339467 -0.460030 0.820448
vn -0.956389 0.098435 0.275009
vn -0.837544 -0.282993 0.467370
vn -0.339467 -0.460030 0.820448
vn -0.837544 -0.282993 0.467370
vn -0.435397 -0.241819 0.867152
vn -0.435397 -0.241819 0.867152
vn -0.837544 -0.282993 0.467370
vn -0.764775 -0.215671 0.607129
vn -0.435397 -0.241819 0.867152
vn -0.764775 -0.215671 0.607129
vn -0.555688 0.105038 0.824729
vn -0.555688 0.105038 0.824729
vn -0.764775 -0.215671 0.607129
vn -0.246749 -0.798639 0.548899
vn -0.555688 0.105038 0.824729
vn -0.246749 -0.798639 0.548899
vn -0.458696 -0.379820 0.803327
vn -0.458696 -0.379820 0.803327
vn -0.246749 -0.798639 0.548899
vn -0.502890 -0.759939 0.411819
vn -0.458696 -0.379820 0.803327
vn -0.502890 -0.759939 0.411819
vn -0.212466 -0.586605 0.781507
vn -0.212466 -0.586605 0.781507
vn -0.502890 -0.759939 0.411819
vn -0.201753 -0.688556 0.696553
vn -0.212466 -0.586605 0.781507
vn -0.201753 -0.688556 0.696553
vn 0.502615 -0.451820 0.737046
vn 0.502615 -0.451820 0.737046
vn -0.201753 -0.688556 0.696553
vn -0.019898 -0.574157 0.818504
vn 0.502615 -0.451820 0.737046
vn -0.019898 -0.574157 0.818504
vn 0.000013 -0.408817 0.912617
vn 0.000013 -0.408817 0.912617
vn -0.019898 -0.574157 0.818504
vn 0.276090 -0.689434 0.669668
vn 0.000013 -0.408817 0.912617
vn 0.276090 -0.689434 0.669668
vn 0.037215 -0.161479 0.986174
vn 0.037215 -0.161479 0.986174
vn 0.276090 -0.689434 0.669668
vn 0.657808 -0.335835 0.674169
vn 0.037215 -0.161479 0.986174
vn 0.657808 -0.335835 0.674169
vn 0.293315 -0.524836 0.799070
vn 0.293315 -0.524836 0.799070
vn 0.657808 -0.335835 0.674169
vn 0.461689 -0.567227 0.681980
vn 0.293315 -0.524836 0.799070
vn 0.461689 -0.567227 0.681980
vn 0.406373 -0.231904 0.883788
vn 0.406373 -0.231904 0.883788
vn 0.461689 -0.567227 0.681980
vn 0.741861 0.024361 0.670111
vn 0.406373 -0.231904 0.883788
vn 0.741861 0.024361 0.670111
vn 0.536510 -0.289659 0.792626
vn 0.536510 -0.289659 0.792626
vn 0.741861 0.024361 0.670111
vn 0.907937 -0.093885 0.408456
vn 0.536510 -0.289659 0.792626
vn 0.907937 -0.093885 0.408456
vn 0.602340 -0.034783 0.797481
vn 0.907937 -0.093885 0.408456
vn 0.964869 0.117823 0.234829
vn 0.959823 -0.066946 0.272504
vn 0.907937 -0.093885 0.408456
vn 0.959823 -0.066946 0.272504
vn 0.689341 0.402417 0.602387
vn 0.689341 0.402417 0.602387
vn 0.959823 -0.066946 0.272504
vn 0.778539 0.252732 0.574460
vn 0.689341 0.402417 0.602387
vn 0.778539 0.252732 0.574460
vn 0.422639 0.391530 0.817362
vn 0.422639 0.391530 0.817362
vn 0.778539 0.252732 0.574460
vn 0.339483 0.557378 0.757682
vn 0.422639 0.391530 0.817362
vn 0.339483 0.557378 0.757682
vn 0.694984 0.421708 0.582374
vn 0.694984 0.421708 0.582374
vn 0.339483 0.557378 0.757682
vn 0.046205 0.816015 0.576181
vn 0.694984 0.421708 0.582374
vn 0.046205 0.816015 0.576181
vn 0.334484 0.883654 0.327532
vn 0.334484 0.883654 0.327532
vn 0.046205 0.816015 0.576181
vn 0.281885 0.871535 0.401207
vn 0.334484 0.883654 0.327532
vn 0.281885 0.871535 0.401207
vn 0.266074 0.874819 0.404842
vn 0.266074 0.874819 0.404842
vn 0.281885 0.871535 0.401207
vn 0.294333 0.913221 0.281770
vn 0.266074 0.874819 0.404842
vn 0.294333 0.913221 0.281770
vn 0.233482 0.797008 0.557014
vn 0.233482 0.797008 0.557014
vn 0.294333 0.913221 0.281770
vn -0.637053 0.653014 0.409555
vn 0.233482 0.797008 0.557014
vn -0.637053 0.653014 0.409555
vn -0.558638 0.505858 0.657291
vn -0.558638 0.505858 0.657291
vn -0.637053 0.653014 0.409555
vn -0.651090 0.737438 0.179631
vn -0.558638 0.505858 0.657291
vn -0.651090 0.737438 0.179631
vn -0.599813 0.606949 0.521381
vn -0.599813 0.606949 0.521381
vn -0.651090 0.737438 0.179631
vn -0.867144 0.369576 0.333878
vn -0.599813 0.606949 0.521381
vn -0.867144 0.369576 0.333878
vn -0.857609 0.015933 0.514056
vn -0.857609 0.015933 0.514056
vn -0.867144 0.369576 0.333878
vn -0.801390 0.119862 0.586010
vn -0.857609 0.015933 0.514056
vn -0.801390 0.119862 0.586010
vn -0.894810 0.249206 0.370421
vn -0.894810 0.249206 0.370421
vn -0.801390 0.119862 0.586010
vn -0.764544 0.023303 0.644150
vn -0.894810 0.249206 0.370421
vn -0.764544 0.023303 0.644150
vn -0.956389 0.098435 0.275009
vn -0.956389 0.098435 0.275009
vn -0.764544 0.023303 0.644150
vn -0.800479 -0.284611 0.527476
vn -0.956389 0.098435 0.275009
vn -0.800479 -0.284611 0.527476
vn -0.837544 -0.282993 0.467370
vn -0.837544 -0.282993 0.467370
vn -0.800479 -0.284611 0.527476
vn -0.931960 -0.311251 0.185937
vn -0.837544 -0.282993 0.467370
vn -0.931960 -0.311251 0.185937
vn -0.764775 -0.215671 0.607129
vn -0.764775 -0.215671 0.607129
vn -0.931960 -0.311251 0.185937
vn -0.510888 -0.768105 0.386015
vn -0.764775 -0.215671 0.607129
vn -0.510888 -0.768105 0.386015
vn -0.246749 -0.798639 0.548899
vn -0.246749 -0.798639 0.548899
vn -0.510888 -0.768105 0.386015
vn -0.377041 -0.712397 0.591887
vn -0.246749 -0.798639 0.548899
vn -0.377041 -0.712397 0.591887
vn -0.502890 -0.759939 0.411819
vn -0.502890 -0.759939 0.411819
vn -0.377041 -0.712397 0.591887
vn -0.393863 -0.782326 0.482533
vn -0.502890 -0.759939 0.411819
vn -0.393863 -0.782326 0.482533
vn -0.201753 -0.688556 0.696553
vn -0.201753 -0.688556 0.696553
vn -0.393863 -0.782326 0.482533
vn 0.037492 -0.936021 0.349940
vn -0.201753 -0.688556 0.696553
vn 0.037492 -0.936021 0.349940
vn -0.019898 -0.574157 0.818504
vn -0.019898 -0.574157 0.818504
vn 0.037492 -0.936021 0.349940
vn 0.556701 -0.722490 0.409990
vn -0.019898 -0.574157 0.818504
vn 0.556701 -0.722490 0.409990
vn 0.276090 -0.689434 0.669668
vn 0.276090 -0.689434 0.669668
vn 0.556701 -0.722490 0.409990
vn 0.717463 -0.614693 0.327718
vn 0.276090 -0.689434 0.669668
vn 0.717463 -0.614693 0.327718
vn 0.657808 -0.335835 0.674169
vn 0.657808 -0.335835 0.674169
vn 0.717463 -0.614693 0.327718
vn 0.561915 -0.721008 0.405461
vn 0.657808 -0.335835 0.674169
vn 0.561915 -0.721008 0.405461
vn 0.461689 -0.567227 0.681980
vn 0.461689 -0.567227 0.681980
vn 0.561915 -0.721008 0.405461
vn 0.839609 0.081154 0.537095
vn 0.461689 -0.567227 0.681980
vn 0.839609 0.081154 0.537095
vn 0.741861 0.024361 0.670111
vn 0.741861 0.024361 0.670111
vn 0.839609 0.081154 0.537095
vn 0.964869 0.117823 0.234829
vn 0.741861 0.024361 0.670111
vn 0.964869 0.117823 0.234829
vn 0.907937 -0.093885 0.408456
vn 0.964869 0.117823 0.234829
vn 0.865147 0.194463 0.462282
vn 0.921892 -0.010737 0.387298
vn 0.964869 0.117823 0.234829
vn 0.921892 -0.010737 0.387298
vn 0.959823 -0.066946 0.272504
vn 0.959823 -0.066946 0.272504
vn 0.921892 -0.010737 0.387298
vn 0.964109 0.241654 0.109985
vn 0.959823 -0.066946 0.272504
vn 0.964109 0.241654 0.109985
vn 0.778539 0.252732 0.574460
vn 0.778539 0.252732 0.574460
vn 0.964109 0.241654 0.109985
vn 0.689987 0.723687 0.013954
vn 0.778539 0.252732 0.574460
vn 0.689987 0.723687 0.013954
vn 0.339483 0.557378 0.757682
vn 0.339483 0.557378 0.757682
vn 0.689987 0.723687 0.013954
vn 0.185447 0.966046 0.179904
vn 0.339483 0.557378 0.757682
vn 0.185447 0.966046 0.179904
vn 0.046205 0.816015 0.576181
vn 0.046205 0.816015 0.576181
vn 0.185447 0.966046 0.179904
vn -0.026543 0.919009 0.393342
vn 0.046205 0.816015 0.576181
vn -0.026543 0.919009 0.393342
vn 0.281885 0.871535 0.401207
vn 0.281885 0.871535 0.401207
vn -0.026543 0.919009 0.393342
vn 0.111726 0.987301 0.112933
vn 0.281885 0.871535 0.401207
vn 0.111726 0.987301 0.112933
vn 0.294333 0.913221 0.281770
vn 0.294333 0.913221 0.281770
vn 0.111726 0.987301 0.112933
vn -0.579378 0.812223 0.067928
vn 0.294333 0.913221 0.281770
vn -0.579378 0.812223 0.067928
vn -0.637053 0.653014 0.409555
vn -0.637053 0.653014 0.409555
vn -0.579378 0.812223 0.067928
vn -0.718391 0.642430 0.266830
vn -0.637053 0.653014 0.409555
vn -0.718391 0.642430 0.266830
vn -0.651090 0.737438 0.179631
vn -0.651090 0.737438 0.179631
vn -0.718391 0.642430 0.266830
vn -0.820781 0.426696 0.379801
vn -0.651090 0.737438 0.179631
vn -0.820781 0.426696 0.379801
vn -0.867144 0.369576 0.333878
vn -0.867144 0.369576 0.333878
vn -0.820781 0.426696 0.379801
vn -0.930138 0.363527 0.051878
vn -0.867144 0.369576 0.333878
vn -0.930138 0.363527 0.051878
vn -0.801390 0.119862 0.586010
vn -0.801390 0.119862 0.586010
vn -0.930138 0.363527 0.051878
vn -0.908048 0.282133 0.309595
vn -0.801390 0.119862 0.586010
vn -0.908048 0.282133 0.309595
vn -0.764544 0.023303 0.644150
vn -0.764544 0.023303 0.644150
vn -0.908048 0.282133 0.309595
vn -0.672233 -0.470943 0.571240
vn -0.764544 0.023303 0.644150
vn -0.672233 -0.470943 0.571240
vn -0.800479 -0.284611 0.527476
vn -0.800479 -0.284611 0.527476
vn -0.672233 -0.470943 0.571240
vn -0.718355 -0.558156 0.415244
vn -0.800479 -0.284611 0.527476
vn -0.718355 -0.558156 0.415244
vn -0.931960 -0.311251 0.185937
vn -0.931960 -0.311251 0.185937
vn -0.718355 -0.558156 0.415244
vn -0.713695 -0.677542 0.177696
vn -0.931960 -0.311251 0.185937
vn -0.713695 -0.677542 0.177696
vn -0.510888 -0.768105 0.386015
vn -0.510888 -0.768105 0.386015
vn -0.713695 -0.677542 0.177696
vn -0.588643 -0.804453 0.079723
vn -0.510888 -0.768105 0.386015
vn -0.588643 -0.804453 0.079723
vn -0.377041 -0.712397 0.591887
vn -0.377041 -0.712397 0.591887
vn -0.588643 -0.804453 0.079723
vn -0.071854 -0.973676 0.216316
vn -0.377041 -0.712397 0.591887
vn -0.071854 -0.973676 0.216316
vn -0.393863 -0.782326 0.482533
vn -0.393863 -0.782326 0.482533
vn -0.071854 -0.973676 0.216316
vn 0.268110 -0.963384 0.002789
vn -0.393863 -0.782326 0.482533
vn 0.268110 -0.963384 0.002789
vn 0.037492 -0.936021 0.349940
vn 0.037492 -0.936021 0.349940
vn 0.268110 -0.963384 0.002789
vn 0.287704 -0.945228 -0.154175
vn 0.037492 -0.936021 0.349940
vn 0.287704 -0.945228 -0.154175
vn 0.556701 -0.722490 0.409990
vn 0.556701 -0.722490 0.409990
vn 0.287704 -0.945228 -0.154175
vn 0.732623 -0.647607 0.209450
vn 0.556701 -0.722490 0.409990
vn 0.732623 -0.647607 0.209450
vn 0.717463 -0.614693 0.327718
vn 0.717463 -0.614693 0.327718
vn 0.732623 -0.647607 0.209450
vn 0.633212 -0.757868 0.157094
vn 0.717463 -0.614693 0.327718
vn 0.633212 -0.757868 0.157094
vn 0.561915 -0.721008 0.405461
vn 0.561915 -0.721008 0.405461
vn 0.633212 -0.757868 0.157094
vn 0.939461 -0.203792 0.275468
vn 0.561915 -0.721008 0.405461
vn 0.939461 -0.203792 0.275468
vn 0.839609 0.081154 0.537095
vn 0.839609 0.081154 0.537095
vn 0.939461 -0.203792 0.275468
vn 0.865147 0.194463 0.462282
vn 0.839609 0.081154 0.537095
vn 0.865147 0.194463 0.462282
vn 0.964869 0.117823 0.234829
vn 0.865147 0.194463 0.462282
vn 0.958940 0.275536 0.067187
vn 0.991406 0.116513 -0.059484
vn 0.865147 0.194463 0.462282
vn 0.991406 0.116513 -0.059484
vn 0.921892 -0.010737 0.387298
vn 0.921892 -0.010737 0.387298
vn 0.991406 0.116513 -0.059484
vn 0.798081 0.597381 -0.078761
vn 0.921892 -0.010737 0.387298
vn 0.798081 0.597381 -0.078761
vn 0.964109 0.241654 0.109985
vn 0.964109 0.241654 0.109985
vn 0.798081 0.597381 -0.078761
vn 0.535372 0.797771 -0.277376
vn 0.964109 0.241654 0.109985
vn 0.535372 0.797771 -0.277376
vn 0.689987 0.723687 0.013954
vn 0.689987 0.723687 0.013954
vn 0.535372 0.797771 -0.277376
vn 0.221910 0.874291 -0.431707
vn 0.689987 0.723687 0.013954
vn 0.221910 0.874291 -0.431707
vn 0.185447 0.966046 0.179904
vn 0.185447 0.966046 0.179904
vn 0.221910 0.874291 -0.431707
vn 0.175741 0.864543 -0.470830
vn 0.185447 0.966046 0.179904
vn 0.175741 0.864543 -0.470830
vn -0.026543 0.919009 0.393342
vn -0.026543 0.919009 0.393342
vn 0.175741 0.864543 -0.470830
vn -0.152445 0.947520 -0.281009
vn -0.026543 0.919009 0.393342
vn -0.152445 0.947520 -0.281009
vn 0.111726 0.987301 0.112933
vn 0.111726 0.987301 0.112933
vn -0.152445 0.947520 -0.281009
vn -0.458648 0.817157 -0.349136
vn 0.111726 0.987301 0.112933
vn -0.458648 0.817157 -0.349136
vn -0.579378 0.812223 0.067928
vn -0.579378 0.812223 0.067928
vn -0.458648 0.817157 -0.349136
vn -0.636987 0.752797 -0.165965
vn -0.579378 0.812223 0.067928
vn -0.636987 0.752797 -0.165965
vn -0.718391 0.642430 0.266830
vn -0.718391 0.642430 0.266830
vn -0.636987 0.752797 -0.165965
vn -0.812440 0.573545 -0.104816
vn -0.718391 0.642430 0.266830
vn -0.812440 0.573545 -0.104816
vn -0.820781 0.426696 0.379801
vn -0.820781 0.426696 0.379801
vn -0.812440 0.573545 -0.104816
vn -0.997742 0.064618 0.018302
vn -0.820781 0.426696 0.379801
vn -0.997742 0.064618 0.018302
vn -0.930138 0.363527 0.051878
vn -0.930138 0.363527 0.051878
vn -0.997742 0.064618 0.018302
vn -0.836021 0.401546 -0.373939
vn -0.930138 0.363527 0.051878
vn -0.836021 0.401546 -0.373939
vn -0.908048 0.282133 0.309595
vn -0.908048 0.282133 0.309595
vn -0.836021 0.401546 -0.373939
vn -0.961136 -0.161726 -0.223748
vn -0.908048 0.282133 0.309595
vn -0.961136 -0.161726 -0.223748
vn -0.672233 -0.470943 0.571240
vn -0.672233 -0.470943 0.571240
vn -0.961136 -0.161726 -0.223748
vn -0.697562 -0.705189 0.126950
vn -0.672233 -0.470943 0.571240
vn -0.697562 -0.705189 0.126950
vn -0.718355 -0.558156 0.415244
vn -0.718355 -0.558156 0.415244
vn -0.697562 -0.705189 0.126950
vn -0.693231 -0.705061 0.149398
vn -0.718355 -0.558156 0.415244
vn -0.693231 -0.705061 0.149398
vn -0.713695 -0.677542 0.177696
vn -0.713695 -0.677542 0.177696
vn -0.693231 -0.705061 0.149398
vn -0.271693 -0.962383 0.001110
vn -0.713695 -0.677542 0.177696
vn -0.271693 -0.962383 0.001110
vn -0.588643 -0.804453 0.079723
vn -0.588643 -0.804453 0.079723
vn -0.271693 -0.962383 0.001110
vn -0.321941 -0.873500 -0.365175
vn -0.588643 -0.804453 0.079723
vn -0.321941 -0.873500 -0.365175
vn -0.071854 -0.973676 0.216316
vn -0.071854 -0.973676 0.216316
vn -0.321941 -0.873500 -0.365175
vn 0.334586 -0.939951 0.067418
vn -0.071854 -0.973676 0.216316
vn 0.334586 -0.939951 0.067418
vn 0.268110 -0.963384 0.002789
vn 0.268110 -0.963384 0.002789
vn 0.334586 -0.939951 0.067418
vn 0.350619 -0.933577 0.074157
vn 0.268110 -0.963384 0.002789
vn 0.350619 -0.933577 0.074157
vn 0.287704 -0.945228 -0.154175
vn 0.287704 -0.945228 -0.154175
vn 0.350619 -0.933577 0.074157
vn 0.609559 -0.790805 -0.055366
vn 0.287704 -0.945228 -0.154175
vn 0.609559 -0.790805 -0.055366
vn 0.732623 -0.647607 0.209450
vn 0.732623 -0.647607 0.209450
vn 0.609559 -0.790805 -0.055366
vn 0.715178 -0.696984 -0.052286
vn 0.732623 -0.647607 0.209450
vn 0.715178 -0.696984 -0.052286
vn 0.633212 -0.757868 0.157094
vn 0.633212 -0.757868 0.157094
vn 0.715178 -0.696984 -0.052286
vn 0.868174 -0.492691 -0.059407
vn 0.633212 -0.757868 0.157094
vn 0.868174 -0.492691 -0.059407
vn 0.939461 -0.203792 0.275468
vn 0.939461 -0.203792 0.275468
vn 0.868174 -0.492691 -0.059407
vn 0.958940 0.275536 0.067187
vn 0.939461 -0.203792 0.275468
vn 0.958940 0.275536 0.067187
vn 0.865147 0.194463 0.462282
vn 0.958940 0.275536 0.067187
vn 0.797277 0.413650 -0.439595
vn 0.770113 0.096207 -0.630611
vn 0.958940 0.275536 0.067187
vn 0.770113 0.096207 -0.630611
vn 0.991406 0.116513 -0.059484
vn 0.991406 0.116513 -0.059484
vn 0.770113 0.096207 -0.630611
vn 0.747306 0.424866 -0.510903
vn 0.991406 0.116513 -0.059484
vn 0.747306 0.424866 -0.510903
vn 0.798081 0.597381 -0.078761
vn 0.798081 0.597381 -0.078761
vn 0.747306 0.424866 -0.510903
vn 0.424398 0.779420 -0.460858
vn 0.798081 0.597381 -0.078761
vn 0.424398 0.779420 -0.460858
vn 0.535372 0.797771 -0.277376
vn 0.535372 0.797771 -0.277376
vn 0.424398 0.779420 -0.460858
vn 0.204845 0.915811 -0.345440
vn 0.535372 0.797771 -0.277376
vn 0.204845 0.915811 -0.345440
vn 0.221910 0.874291 -0.431707
vn 0.221910 0.874291 -0.431707
vn 0.204845 0.915811 -0.345440
vn 0.183386 0.953999 -0.237181
vn 0.221910 0.874291 -0.431707
vn 0.183386 0.953999 -0.237181
vn 0.175741 0.864543 -0.470830
vn 0.175741 0.864543 -0.470830
vn 0.183386 0.953999 -0.237181
vn -0.129929 0.904006 -0.407298
vn 0.175741 0.864543 -0.470830
vn -0.129929 0.904006 -0.407298
vn -0.152445 0.947520 -0.281009
vn -0.152445 0.947520 -0.281009
vn -0.129929 0.904006 -0.407298
vn -0.367099 0.754190 -0.544459
vn -0.152445 0.947520 -0.281009
vn -0.367099 0.754190 -0.544459
vn -0.458648 0.817157 -0.349136
vn -0.458648 0.817157 -0.349136
vn -0.367099 0.754190 -0.544459
vn -0.508768 0.720945 -0.470525
vn -0.458648 0.817157 -0.349136
vn -0.508768 0.720945 -0.470525
vn -0.636987 0.752797 -0.165965
vn -0.636987 0.752797 -0.165965
vn -0.508768 0.720945 -0.470525
vn -0.588236 0.629926 -0.507122
vn -0.636987 0.752797 -0.165965
vn -0.588236 0.629926 -0.507122
vn -0.812440 0.573545 -0.104816
vn -0.812440 0.573545 -0.104816
vn -0.588236 0.629926 -0.507122
vn -0.969664 -0.021197 -0.243519
vn -0.812440 0.573545 -0.104816
vn -0.969664 -0.021197 -0.243519
vn -0.997742 0.064618 0.018302
vn -0.997742 0.064618 0.018302
vn -0.969664 -0.021197 -0.243519
vn -0.904705 -0.067621 -0.420638
vn -0.997742 0.064618 0.018302
vn -0.904705 -0.067621 -0.420638
vn -0.836021 0.401546 -0.373939
vn -0.836021 0.401546 -0.373939
vn -0.904705 -0.067621 -0.420638
vn -0.702677 0.188434 -0.686103
vn -0.836021 0.401546 -0.373939
vn -0.702677 0.188434 -0.686103
vn -0.961136 -0.161726 -0.223748
vn -0.961136 -0.161726 -0.223748
vn -0.702677 0.188434 -0.686103
vn -0.672770 -0.497115 -0.547957
vn -0.961136 -0.161726 -0.223748
vn -0.672770 -0.497115 -0.547957
vn -0.697562 -0.705189 0.126950
vn -0.697562 -0.705189 0.126950
vn -0.672770 -0.497115 -0.547957
vn -0.630187 -0.607618 -0.483389
vn -0.697562 -0.705189 0.126950
vn -0.630187 -0.607618 -0.483389
vn -0.693231 -0.705061 0.149398
vn -0.693231 -0.705061 0.149398
vn -0.630187 -0.607618 -0.483389
vn -0.100815 -0.903782 -0.415949
vn -0.693231 -0.705061 0.149398
vn -0.100815 -0.903782 -0.415949
vn -0.271693 -0.962383 0.001110
vn -0.271693 -0.962383 0.001110
vn -0.100815 -0.903782 -0.415949
vn -0.249228 -0.909040 -0.333964
vn -0.271693 -0.962383 0.001110
vn -0.249228 -0.909040 -0.333964
vn -0.321941 -0.873500 -0.365175
vn -0.321941 -0.873500 -0.365175
vn -0.249228 -0.909040 -0.333964
vn 0.032277 -0.953143 -0.300795
vn -0.321941 -0.873500 -0.365175
vn 0.032277 -0.953143 -0.300795
vn 0.334586 -0.939951 0.067418
vn 0.334586 -0.939951 0.067418
vn 0.032277 -0.953143 -0.300795
vn 0.474519 -0.832659 -0.285499
vn 0.334586 -0.939951 0.067418
vn 0.474519 -0.832659 -0.285499
vn 0.350619 -0.933577 0.074157
vn 0.350619 -0.933577 0.074157
vn 0.474519 -0.832659 -0.285499
vn 0.560995 -0.693582 -0.451916
vn 0.350619 -0.933577 0.074157
vn 0.560995 -0.693582 -0.451916
vn 0.609559 -0.790805 -0.055366
vn 0.609559 -0.790805 -0.055366
vn 0.560995 -0.693582 -0.451916
vn 0.645712 -0.676237 -0.354626
vn 0.609559 -0.790805 -0.055366
vn 0.645712 -0.676237 -0.354626
vn 0.715178 -0.696984 -0.052286
vn 0.715178 -0.696984 -0.052286
vn 0.645712 -0.676237 -0.354626
vn 0.785966 -0.440592 -0.433747
vn 0.715178 -0.696984 -0.052286
vn 0.785966 -0.440592 -0.433747
vn 0.868174 -0.492691 -0.059407
vn 0.868174 -0.492691 -0.059407
vn 0.785966 -0.440592 -0.433747
vn 0.797277 0.413650 -0.439595
vn 0.868174 -0.492691 -0.059407
vn 0.797277 0.413650 -0.439595
vn 0.958940 0.275536 0.067187
vn 0.797277 0.413650 -0.439595
vn 0.562299 0.317051 -0.763740
vn 0.710826 0.415029 -0.567871
vn 0.797277 0.413650 -0.439595
vn 0.710826 0.415029 -0.567871
vn 0.770113 0.096207 -0.630611
vn 0.770113 0.096207 -0.630611
vn 0.710826 0.415029 -0.567871
vn 0.709090 -0.093699 -0.698865
vn 0.770113 0.096207 -0.630611
vn 0.709090 -0.093699 -0.698865
vn 0.747306 0.424866 -0.510903
vn 0.747306 0.424866 -0.510903
vn 0.709090 -0.093699 -0.698865
vn 0.398052 0.726602 -0.560004
vn 0.747306 0.424866 -0.510903
vn 0.398052 0.726602 -0.560004
vn 0.424398 0.779420 -0.460858
vn 0.424398 0.779420 -0.460858
vn 0.398052 0.726602 -0.560004
vn 0.212182 0.769160 -0.602803
vn 0.424398 0.779420 -0.460858
vn 0.212182 0.769160 -0.602803
vn 0.204845 0.915811 -0.345440
vn 0.204845 0.915811 -0.345440
vn 0.212182 0.769160 -0.602803
vn 0.360120 0.555470 -0.749511
vn 0.204845 0.915811 -0.345440
vn 0.360120 0.555470 -0.749511
vn 0.183386 0.953999 -0.237181
vn 0.183386 0.953999 -0.237181
vn 0.360120 0.555470 -0.749511
vn -0.291481 0.676173 -0.676631
vn 0.183386 0.953999 -0.237181
vn -0.291481 0.676173 -0.676631
vn -0.129929 0.904006 -0.407298
vn -0.129929 0.904006 -0.407298
vn -0.291481 0.676173 -0.676631
vn -0.545888 0.511680 -0.663468
vn -0.129929 0.904006 -0.407298
vn -0.545888 0.511680 -0.663468
vn -0.367099 0.754190 -0.544459
vn -0.367099 0.754190 -0.544459
vn -0.545888 0.511680 -0.663468
vn -0.356573 0.634790 -0.685490
vn -0.367099 0.754190 -0.544459
vn -0.356573 0.634790 -0.685490
vn -0.508768 0.720945 -0.470525
vn -0.508768 0.720945 -0.470525
vn -0.356573 0.634790 -0.685490
vn -0.413122 0.595574 -0.688928
vn -0.508768 0.720945 -0.470525
vn -0.413122 0.595574 -0.688928
vn -0.588236 0.629926 -0.507122
vn -0.588236 0.629926 -0.507122
vn -0.413122 0.595574 -0.688928
vn -0.717202 0.379381 -0.584543
vn -0.588236 0.629926 -0.507122
vn -0.717202 0.379381 -0.584543
vn -0.969664 -0.021197 -0.243519
vn -0.969664 -0.021197 -0.243519
vn -0.717202 0.379381 -0.584543
vn -0.867165 -0.384359 -0.316692
vn -0.969664 -0.021197 -0.243519
vn -0.867165 -0.384359 -0.316692
vn -0.904705 -0.067621 -0.420638
vn -0.904705 -0.067621 -0.420638
vn -0.867165 -0.384359 -0.316692
vn -0.819078 -0.205887 -0.535464
vn -0.904705 -0.067621 -0.420638
vn -0.819078 -0.205887 -0.535464
vn -0.702677 0.188434 -0.686103
vn -0.702677 0.188434 -0.686103
vn -0.819078 -0.205887 -0.535464
vn -0.532407 -0.022644 -0.846186
vn -0.702677 0.188434 -0.686103
vn -0.532407 -0.022644 -0.846186
vn -0.672770 -0.497115 -0.547957
vn -0.672770 -0.497115 -0.547957
vn -0.532407 -0.022644 -0.846186
vn -0.355876 -0.358407 -0.863074
vn -0.672770 -0.497115 -0.547957
vn -0.355876 -0.358407 -0.863074
vn -0.630187 -0.607618 -0.483389
vn -0.630187 -0.607618 -0.483389
vn -0.355876 -0.358407 -0.863074
vn -0.260357 -0.475603 -0.840248
vn -0.630187 -0.607618 -0.483389
vn -0.260357 -0.475603 -0.840248
vn -0.100815 -0.903782 -0.415949
vn -0.100815 -0.903782 -0.415949
vn -0.260357 -0.475603 -0.840248
vn 0.003765 -0.703717 -0.710470
vn -0.100815 -0.903782 -0.415949
vn 0.003765 -0.703717 -0.710470
vn -0.249228 -0.909040 -0.333964
vn -0.249228 -0.909040 -0.333964
vn 0.003765 -0.703717 -0.710470
vn -0.317099 -0.688386 -0.652359
vn -0.249228 -0.909040 -0.333964
vn -0.317099 -0.688386 -0.652359
vn 0.032277 -0.953143 -0.300795
vn 0.032277 -0.953143 -0.300795
vn -0.317099 -0.688386 -0.652359
vn 0.670909 -0.547317 -0.500326
vn 0.032277 -0.953143 -0.300795
vn 0.670909 -0.547317 -0.500326
vn 0.474519 -0.832659 -0.285499
vn 0.474519 -0.832659 -0.285499
vn 0.670909 -0.547317 -0.500326
vn 0.589753 -0.347997 -0.728759
vn 0.474519 -0.832659 -0.285499
vn 0.589753 -0.347997 -0.728759
vn 0.560995 -0.693582 -0.451916
vn 0.560995 -0.693582 -0.451916
vn 0.589753 -0.347997 -0.728759
vn 0.212503 -0.583027 -0.784169
vn 0.560995 -0.693582 -0.451916
vn 0.212503 -0.583027 -0.784169
vn 0.645712 -0.676237 -0.354626
vn 0.645712 -0.676237 -0.354626
vn 0.212503 -0.583027 -0.784169
vn 0.494604 -0.224488 -0.839626
vn 0.645712 -0.676237 -0.354626
vn 0.494604 -0.224488 -0.839626
vn 0.785966 -0.440592 -0.433747
vn 0.785966 -0.440592 -0.433747
vn 0.494604 -0.224488 -0.839626
vn 0.562299 0.317051 -0.763740
vn 0.785966 -0.440592 -0.433747
vn 0.562299 0.317051 -0.763740
vn 0.797277 0.413650 -0.439595
vn 0.562299 0.317051 -0.763740
vn 0.311825 0.089550 -0.945910
vn 0.579714 0.059599 -0.812638
vn 0.562299 0.317051 -0.763740
vn 0.579714 0.059599 -0.812638
vn 0.710826 0.415029 -0.567871
vn 0.710826 0.415029 -0.567871
vn 0.579714 0.059599 -0.812638
vn 0.503743 0.205280 -0.839109
vn 0.710826 0.415029 -0.567871
vn 0.503743 0.205280 -0.839109
vn 0.709090 -0.093699 -0.698865
vn 0.709090 -0.093699 -0.698865
vn 0.503743 0.205280 -0.839109
vn 0.558426 -0.102301 -0.823222
vn 0.709090 -0.093699 -0.698865
vn 0.558426 -0.102301 -0.823222
vn 0.398052 0.726602 -0.560004
vn 0.398052 0.726602 -0.560004
vn 0.558426 -0.102301 -0.823222
vn -0.157048 0.741985 -0.651762
vn 0.398052 0.726602 -0.560004
vn -0.157048 0.741985 -0.651762
vn 0.212182 0.769160 -0.602803
vn 0.212182 0.769160 -0.602803
vn -0.157048 0.741985 -0.651762
vn -0.276103 0.483637 -0.830580
vn 0.212182 0.769160 -0.602803
vn -0.276103 0.483637 -0.830580
vn 0.360120 0.555470 -0.749511
vn 0.360120 0.555470 -0.749511
vn -0.276103 0.483637 -0.830580
vn 0.108699 0.262901 -0.958680
vn 0.360120 0.555470 -0.749511
vn 0.108699 0.262901 -0.958680
vn -0.291481 0.676173 -0.676631
vn -0.291481 0.676173 -0.676631
vn 0.108699 0.262901 -0.958680
vn -0.346568 0.582752 -0.735045
vn -0.291481 0.676173 -0.676631
vn -0.346568 0.582752 -0.735045
vn -0.545888 0.511680 -0.663468
vn -0.545888 0.511680 -0.663468
vn -0.346568 0.582752 -0.735045
vn -0.325984 0.682907 -0.653738
vn -0.545888 0.511680 -0.663468
vn -0.325984 0.682907 -0.653738
vn -0.356573 0.634790 -0.685490
vn -0.356573 0.634790 -0.685490
vn -0.325984 0.682907 -0.653738
vn -0.387036 0.646653 -0.657300
vn -0.356573 0.634790 -0.685490
vn -0.387036 0.646653 -0.657300
vn -0.413122 0.595574 -0.688928
vn -0.413122 0.595574 -0.688928
vn -0.387036 0.646653 -0.657300
vn -0.512699 0.539974 -0.667508
vn -0.413122 0.595574 -0.688928
vn -0.512699 0.539974 -0.667508
vn -0.717202 0.379381 -0.584543
vn -0.717202 0.379381 -0.584543
vn -0.512699 0.539974 -0.667508
vn -0.592924 -0.266577 -0.759854
vn -0.717202 0.379381 -0.584543
vn -0.592924 -0.266577 -0.759854
vn -0.867165 -0.384359 -0.316692
vn -0.867165 -0.384359 -0.316692
vn -0.592924 -0.266577 -0.759854
vn -0.622989 -0.364288 -0.692227
vn -0.867165 -0.384359 -0.316692
vn -0.622989 -0.364288 -0.692227
vn -0.819078 -0.205887 -0.535464
vn -0.819078 -0.205887 -0.535464
vn -0.622989 -0.364288 -0.692227
vn -0.605594 -0.331756 -0.723321
vn -0.819078 -0.205887 -0.535464
vn -0.605594 -0.331756 -0.723321
vn -0.532407 -0.022644 -0.846186
vn -0.532407 -0.022644 -0.846186
vn -0.605594 -0.331756 -0.723321
vn -0.205567 -0.619415 -0.757672
vn -0.532407 -0.022644 -0.846186
vn -0.205567 -0.619415 -0.757672
vn -0.355876 -0.358407 -0.863074
vn -0.355876 -0.358407 -0.863074
vn -0.205567 -0.619415 -0.757672
vn -0.548237 -0.208640 -0.809880
vn -0.355876 -0.358407 -0.863074
vn -0.548237 -0.208640 -0.809880
vn -0.260357 -0.475603 -0.840248
vn -0.260357 -0.475603 -0.840248
vn -0.548237 -0.208640 -0.809880
vn 0.123799 -0.645372 -0.753770
vn -0.260357 -0.475603 -0.840248
vn 0.123799 -0.645372 -0.753770
vn 0.003765 -0.703717 -0.710470
vn 0.003765 -0.703717 -0.710470
vn 0.123799 -0.645372 -0.753770
vn -0.134615 -0.377030 -0.916366
vn 0.003765 -0.703717 -0.710470
vn -0.134615 -0.377030 -0.916366
vn -0.317099 -0.688386 -0.652359
vn -0.317099 -0.688386 -0.652359
vn -0.134615 -0.377030 -0.916366
vn -0.042677 -0.120738 -0.991767
vn -0.317099 -0.688386 -0.652359
vn -0.042677 -0.120738 -0.991767
vn 0.670909 -0.547317 -0.500326
vn 0.670909 -0.547317 -0.500326
vn -0.042677 -0.120738 -0.991767
vn 0.672202 -0.117355 -0.731007
vn 0.670909 -0.547317 -0.500326
vn 0.672202 -0.117355 -0.731007
vn 0.589753 -0.347997 -0.728759
vn 0.589753 -0.347997 -0.728759
vn 0.672202 -0.117355 -0.731007
vn 0.505273 -0.231241 -0.831401
vn 0.589753 -0.347997 -0.728759
vn 0.505273 -0.231241 -0.831401
vn 0.212503 -0.583027 -0.784169
vn 0.212503 -0.583027 -0.784169
vn 0.505273 -0.231241 -0.831401
vn -0.008572 -0.286337 -0.958091
vn 0.212503 -0.583027 -0.784169
vn -0.008572 -0.286337 -0.958091
vn 0.494604 -0.224488 -0.839626
vn 0.494604 -0.224488 -0.839626
vn -0.008572 -0.286337 -0.958091
vn 0.311825 0.089550 -0.945910
vn 0.494604 -0.224488 -0.839626
vn 0.311825 0.089550 -0.945910
vn 0.562299 0.317051 -0.763740
vn 0.311825 0.089550 -0.945910
vn 0.360426 -0.165292 -0.918026
vn 0.457995 -0.468759 -0.755318
vn 0.311825 0.089550 -0.945910
vn 0.457995 -0.468759 -0.755318
vn 0.579714 0.059599 -0.812638
vn 0.579714 0.059599 -0.812638
vn 0.457995 -0.468759 -0.755318
vn 0.253846 0.335695 -0.907122
vn 0.579714 0.059599 -0.812638
vn 0.253846 0.335695 -0.907122
vn 0.503743 0.205280 -0.839109
vn 0.503743 0.205280 -0.839109
vn 0.253846 0.335695 -0.907122
vn 0.452411 0.133753 -0.881722
vn 0.503743 0.205280 -0.839109
vn 0.452411 0.133753 -0.881722
vn 0.558426 -0.102301 -0.823222
vn 0.558426 -0.102301 -0.823222
vn 0.452411 0.133753 -0.881722
vn 0.268417 -0.009768 -0.963253
vn 0.558426 -0.102301 -0.823222
vn 0.268417 -0.009768 -0.963253
vn -0.157048 0.741985 -0.651762
vn -0.157048 0.741985 -0.651762
vn 0.268417 -0.009768 -0.963253
vn -0.771444 0.456705 -0.443053
vn -0.157048 0.741985 -0.651762
vn -0.771444 0.456705 -0.443053
vn -0.276103 0.483637 -0.830580
vn -0.276103 0.483637 -0.830580
vn -0.771444 0.456705 -0.443053
vn 0.086178 0.595544 -0.798687
vn -0.276103 0.483637 -0.830580
vn 0.086178 0.595544 -0.798687
vn 0.108699 0.262901 -0.958680
vn 0.108699 0.262901 -0.958680
vn 0.086178 0.595544 -0.798687
vn 0.512519 0.676898 -0.528331
vn 0.108699 0.262901 -0.958680
vn 0.512519 0.676898 -0.528331
vn -0.346568 0.582752 -0.735045
vn -0.346568 0.582752 -0.735045
vn 0.512519 0.676898 -0.528331
vn -0.292348 0.591564 -0.751389
vn -0.346568 0.582752 -0.735045
vn -0.292348 0.591564 -0.751389
vn -0.325984 0.682907 -0.653738
vn -0.325984 0.682907 -0.653738
vn -0.292348 0.591564 -0.751389
vn -0.389508 0.388849 -0.834913
vn -0.325984 0.682907 -0.653738
vn -0.389508 0.388849 -0.834913
vn -0.387036 0.646653 -0.657300
vn -0.387036 0.646653 -0.657300
vn -0.389508 0.388849 -0.834913
vn -0.308148 0.412450 -0.857281
vn -0.387036 0.646653 -0.657300
vn -0.308148 0.412450 -0.857281
vn -0.512699 0.539974 -0.667508
vn -0.512699 0.539974 -0.667508
vn -0.308148 0.412450 -0.857281
vn -0.288043 -0.142619 -0.946938
vn -0.512699 0.539974 -0.667508
vn -0.288043 -0.142619 -0.946938
vn -0.592924 -0.266577 -0.759854
vn -0.592924 -0.266577 -0.759854
vn -0.288043 -0.142619 -0.946938
vn -0.303694 -0.467428 -0.830230
vn -0.592924 -0.266577 -0.759854
vn -0.303694 -0.467428 -0.830230
vn -0.622989 -0.364288 -0.692227
vn -0.622989 -0.364288 -0.692227
vn -0.303694 -0.467428 -0.830230
vn -0.534100 0.420108 -0.733652
vn -0.622989 -0.364288 -0.692227
vn -0.534100 0.420108 -0.733652
vn -0.605594 -0.331756 -0.723321
vn -0.605594 -0.331756 -0.723321
vn -0.534100 0.420108 -0.733652
vn -0.140926 -0.551050 -0.822486
vn -0.605594 -0.331756 -0.723321
vn -0.140926 -0.551050 -0.822486
vn -0.205567 -0.619415 -0.757672
vn -0.205567 -0.619415 -0.757672
vn -0.140926 -0.551050 -0.822486
vn -0.558141 -0.464592 -0.687483
vn -0.205567 -0.619415 -0.757672
vn -0.558141 -0.464592 -0.687483
vn -0.548237 -0.208640 -0.809880
vn -0.548237 -0.208640 -0.809880
vn -0.558141 -0.464592 -0.687483
vn -0.244326 -0.505872 -0.827284
vn -0.548237 -0.208640 -0.809880
vn -0.244326 -0.505872 -0.827284
vn 0.123799 -0.645372 -0.753770
vn 0.123799 -0.645372 -0.753770
vn -0.244326 -0.505872 -0.827284
vn 0.832855 -0.304947 -0.461908
vn 0.123799 -0.645372 -0.753770
vn 0.832855 -0.304947 -0.461908
vn -0.134615 -0.377030 -0.916366
vn -0.134615 -0.377030 -0.916366
vn 0.832855 -0.304947 -0.461908
vn 0.268497 -0.252882 -0.929494
vn -0.134615 -0.377030 -0.916366
vn 0.268497 -0.252882 -0.929494
vn -0.042677 -0.120738 -0.991767
vn -0.042677 -0.120738 -0.991767
vn 0.268497 -0.252882 -0.929494
vn -0.217689 -0.433607 -0.874412
vn -0.042677 -0.120738 -0.991767
vn -0.217689 -0.433607 -0.874412
vn 0.672202 -0.117355 -0.731007
vn 0.672202 -0.117355 -0.731007
vn -0.217689 -0.433607 -0.874412
vn 0.491613 -0.023766 -0.870489
vn 0.672202 -0.117355 -0.731007
vn 0.491613 -0.023766 -0.870489
vn 0.505273 -0.231241 -0.831401
vn 0.505273 -0.231241 -0.831401
vn 0.491613 -0.023766 -0.870489
vn 0.416755 -0.121244 -0.900897
vn 0.505273 -0.231241 -0.831401
vn 0.416755 -0.121244 -0.900897
vn -0.008572 -0.286337 -0.958091
vn -0.008572 -0.286337 -0.958091
vn 0.416755 -0.121244 -0.900897
vn 0.360426 -0.165292 -0.918026
vn -0.008572 -0.286337 -0.958091
vn 0.360426 -0.165292 -0.918026
vn 0.311825 0.089550 -0.945910
vn 0.236896 -0.056603 -0.969885
vn 0.457995 -0.468759 -0.755318
vn 0.360426 -0.165292 -0.918026
vn 0.236896 -0.056603 -0.969885
vn 0.253846 0.335695 -0.907122
vn 0.457995 -0.468759 -0.755318
vn 0.236896 -0.056603 -0.969885
vn 0.452411 0.133753 -0.881722
vn 0.253846 0.335695 -0.907122
vn 0.236896 -0.056603 -0.969885
vn 0.268417 -0.009768 -0.963253
vn 0.452411 0.133753 -0.881722
vn 0.236896 -0.056603 -0.969885
vn -0.771444 0.456705 -0.443053
vn 0.268417 -0.009768 -0.963253
vn 0.236896 -0.056603 -0.969885
vn 0.086178 0.595544 -0.798687
vn -0.771444 0.456705 -0.443053
vn 0.236896 -0.056603 -0.969885
vn 0.512519 0.676898 -0.528331
vn 0.086178 0.595544 -0.798687
vn 0.236896 -0.056603 -0.969885
vn -0.292348 0.591564 -0.751389
vn 0.512519 0.676898 -0.528331
vn 0.236896 -0.056603 -0.969885
vn -0.389508 0.388849 -0.834913
vn -0.292348 0.591564 -0.751389
vn 0.236896 -0.056603 -0.969885
vn -0.308148 0.412450 -0.857281
vn -0.389508 0.388849 -0.834913
vn 0.236896 -0.056603 -0.969885
vn -0.288043 -0.142619 -0.946938
vn -0.308148 0.412450 -0.857281
vn 0.236896 -0.056603 -0.969885
vn -0.303694 -0.467428 -0.830230
vn -0.288043 -0.142619 -0.946938
vn 0.236896 -0.056603 -0.969885
vn -0.534100 0.420108 -0.733652
vn -0.303694 -0.467428 -0.830230
vn 0.236896 -0.056603 -0.969885
vn -0.140926 -0.551050 -0.822486
vn -0.534100 0.420108 -0.733652
vn 0.236896 -0.056603 -0.969885
vn -0.558141 -0.464592 -0.687483
vn -0.140926 -0.551050 -0.822486
vn 0.236896 -0.056603 -0.969885
vn -0.244326 -0.505872 -0.827284
vn -0.558141 -0.464592 -0.687483
vn 0.236896 -0.056603 -0.969885
vn 0.832855 -0.304947 -0.461908
vn -0.244326 -0.505872 -0.827284
vn 0.236896 -0.056603 -0.969885
vn 0.268497 -0.252882 -0.929494
vn 0.832855 -0.304947 -0.461908
vn 0.236896 -0.056603 -0.969885
vn -0.217689 -0.433607 -0.874412
vn 0.268497 -0.252882 -0.929494
vn 0.236896 -0.056603 -0.969885
vn 0.491613 -0.023766 -0.870489
vn -0.217689 -0.433607 -0.874412
vn 0.236896 -0.056603 -0.969885
vn 0.416755 -0.121244 -0.900897
vn 0.491613 -0.023766 -0.870489
vn 0.236896 -0.056603 -0.969885
vn 0.360426 -0.165292 -0.918026
vn 0.416755 -0.121244 -0.900897
usemtl M_Rock
f 1/1/1 2/2/2 3/3/3
f 1/1/4 3/2/5 4/3/6
f 1/1/7 4/2/8 5/3/9
f 1/1/10 5/2/11 6/3/12
f 1/1/13 6/2/14 7/3/15
f 1/1/16 7/2/17 8/3/18
f 1/1/19 8/2/20 9/3/21
f 1/1/22 9/2/23 10/3/24
f 1/1/25 10/2/26 11/3/27
f 1/1/28 11/2/29 12/3/30
f 1/1/31 12/2/32 13/3/33
f 1/1/34 13/2/35 14/3/36
f 1/1/37 14/2/38 15/3/39
f 1/1/40 15/2/41 16/3/42
f 1/1/43 16/2/44 17/3/45
f 1/1/46 17/2/47 18/3/48
f 1/1/49 18/2/50 19/3/51
f 1/1/52 19/2/53 20/3/54
f 1/1/55 20/2/56 21/3/57
f 1/1/58 21/2/59 22/3/60
f 1/1/61 22/2/62 23/3/63
f 1/1/64 23/2/65 2/3/66
f 2/1/67 24/2/68 25/3/69
f 2/1/70 25/2/71 3/3/72
f 3/1/73 25/2/74 26/3/75
f 3/1/76 26/2/77 4/3/78
f 4/1/79 26/2/80 27/3/81
f 4/1/82 27/2/83 5/3/84
f 5/1/85 27/2/86 28/3/87
f 5/1/88 28/2/89 6/3/90
f 6/1/91 28/2/92 29/3/93
f 6/1/94 29/2/95 7/3/96
f 7/1/97 29/2/98 30/3/99
f 7/1/100 30/2/101 8/3/102
f 8/1/103 30/2/104 31/3/105
f 8/1/106 31/2/107 9/3/108
f 9/1/109 31/2/110 32/3/111
f 9/1/112 32/2/113 10/3/114
f 10/1/115 32/2/116 33/3/117
f 10/1/118 33/2/119 11/3/120
f 11/1/121 33/2/122 34/3/123
f 11/1/124 34/2/125 12/3/126
f 12/1/127 34/2/128 35/3/129
f 12/1/130 35/2/131 13/3/132
f 13/1/133 35/2/134 36/3/135
f 13/1/136 36/2/137 14/3/138
f 14/1/139 36/2/140 37/3/141
f 14/1/142 37/2/143 15/3/144
f 15/1/145 37/2/146 38/3/147
f 15/1/148 38/2/149 16/3/150
f 16/1/151 38/2/152 39/3/153
f 16/1/154 39/2/155 17/3/156
f 17/1/157 39/2/158 40/3/159
f 17/1/160 40/2/161 18/3/162
f 18/1/163 40/2/164 41/3/165
f 18/1/166 41/2/167 19/3/168
f 19/1/169 41/2/170 42/3/171
f 19/1/172 42/2/173 20/3/174
f 20/1/175 42/2/176 43/3/177
f 20/1/178 43/2/179 21/3/180
f 21/1/181 43/2/182 44/3/183
f 21/1/184 44/2/185 22/3/186
f 22/1/187 44/2/188 45/3/189
f 22/1/190 45/2/191 23/3/192
f 23/1/193 45/2/194 24/3/195
f 23/1/196 24/2/197 2/3/198
f 24/1/199 46/2/200 47/3/201
f 24/1/202 47/2/203 25/3/204
f 25/1/205 47/2/206 48/3/207
f 25/1/208 48/2/209 26/3/210
f 26/1/211 48/2/212 49/3/213
f 26/1/214 49/2/215 27/3/216
f 27/1/217 49/2/218 50/3/219
f 27/1/220 50/2/221 28/3/222
f 28/1/223 50/2/224 51/3/225
f 28/1/226 51/2/227 29/3/228
f 29/1/229 51/2/230 52/3/231
f 29/1/232 52/2/233 30/3/234
f 30/1/235 52/2/236 53/3/237
f 30/1/238 53/2/239 31/3/240
f 31/1/241 53/2/242 54/3/243
f 31/1/244 54/2/245 32/3/246
f 32/1/247 54/2/248 55/3/249
f 32/1/250 55/2/251 33/3/252
f 33/1/253 55/2/254 56/3/255
f 33/1/256 56/2/257 34/3/258
f 34/1/259 56/2/260 57/3/261
f 34/1/262 57/2/263 35/3/264
f 35/1/265 57/2/266 58/3/267
f 35/1/268 58/2/269 36/3/270
f 36/1/271 58/2/272 59/3/273
f 36/1/274 59/2/275 37/3/276
f 37/1/277 59/2/278 60/3/279
f 37/1/280 60/2/281 38/3/282
f 38/1/283 60/2/284 61/3/285
f 38/1/286 61/2/287 39/3/288
f 39/1/289 61/2/290 62/3/291
f 39/1/292 62/2/293 40/3/294
f 40/1/295 62/2/296 63/3/297
f 40/1/298 63/2/299 41/3/300
f 41/1/301 63/2/302 64/3/303
f 41/1/304 64/2/305 42/3/306
f 42/1/307 64/2/308 65/3/309
f 42/1/310 65/2/311 43/3/312
f 43/1/313 65/2/314 66/3/315
f 43/1/316 66/2/317 44/3/318
f 44/1/319 66/2/320 67/3/321
f 44/1/322 67/2/323 45/3/324
f 45/1/325 67/2/326 46/3/327
f 45/1/328 46/2/329 24/3/330
f 46/1/331 68/2/332 69/3/333
f 46/1/334 69/2/335 47/3/336
f 47/1/337 69/2/338 70/3/339
f 47/1/340 70/2/341 48/3/342
f 48/1/343 70/2/344 71/3/345
f 48/1/346 71/2/347 49/3/348
f 49/1/349 71/2/350 72/3/351
f 49/1/352 72/2/353 50/3/354
f 50/1/355 72/2/356 73/3/357
f 50/1/358 73/2/359 51/3/360
f 51/1/361 73/2/362 74/3/363
f 51/1/364 74/2/365 52/3/366
f 52/1/367 74/2/368 75/3/369
f 52/1/370 75/2/371 53/3/372
f 53/1/373 75/2/374 76/3/375
f 53/1/376 76/2/377 54/3/378
f 54/1/379 76/2/380 77/3/381
f 54/1/382 77/2/383 55/3/384
f 55/1/385 77/2/386 78/3/387
f 55/1/388 78/2/389 56/3/390
f 56/1/391 78/2/392 79/3/393
f 56/1/394 79/2/395 57/3/396
f 57/1/397 79/2/398 80/3/399
f 57/1/400 80/2/401 58/3/402
f 58/1/403 80/2/404 81/3/405
f 58/1/406 81/2/407 59/3/408
f 59/1/409 81/2/410 82/3/411
f 59/1/412 82/2/413 60/3/414
f 60/1/415 82/2/416 83/3/417
f 60/1/418 83/2/419 61/3/420
f 61/1/421 83/2/422 84/3/423
f 61/1/424 84/2/425 62/3/426
f 62/1/427 84/2/428 85/3/429
f 62/1/430 85/2/431 63/3/432
f 63/1/433 85/2/434 86/3/435
f 63/1/436 86/2/437 64/3/438
f 64/1/439 86/2/440 87/3/441
f 64/1/442 87/2/443 65/3/444
f 65/1/445 87/2/446 88/3/447
f 65/1/448 88/2/449 66/3/450
f 66/1/451 88/2/452 89/3/453
f 66/1/454 89/2/455 67/3/456
f 67/1/457 89/2/458 68/3/459
f 67/1/460 68/2/461 46/3/462
f 68/1/463 90/2/464 91/3/465
f 68/1/466 91/2/467 69/3/468
f 69/1/469 91/2/470 92/3/471
f 69/1/472 92/2/473 70/3/474
f 70/1/475 92/2/476 93/3/477
f 70/1/478 93/2/479 71/3/480
f 71/1/481 93/2/482 94/3/483
f 71/1/484 94/2/485 72/3/486
f 72/1/487 94/2/488 95/3/489
f 72/1/490 95/2/491 73/3/492
f 73/1/493 95/2/494 96/3/495
f 73/1/496 96/2/497 74/3/498
f 74/1/499 96/2/500 97/3/501
f 74/1/502 97/2/503 75/3/504
f 75/1/505 97/2/506 98/3/507
f 75/1/508 98/2/509 76/3/510
f 76/1/511 98/2/512 99/3/513
f 76/1/514 99/2/515 77/3/516
f 77/1/517 99/2/518 100/3/519
f 77/1/520 100/2/521 78/3/522
f 78/1/523 100/2/524 101/3/525
f 78/1/526 101/2/527 79/3/528
f 79/1/529 101/2/530 102/3/531
f 79/1/532 102/2/533 80/3/534
f 80/1/535 102/2/536 103/3/537
f 80/1/538 103/2/539 81/3/540
f 81/1/541 103/2/542 104/3/543
f 81/1/544 104/2/545 82/3/546
f 82/1/547 104/2/548 105/3/549
f 82/1/550 105/2/551 83/3/552
f 83/1/553 105/2/554 106/3/555
f 83/1/556 106/2/557 84/3/558
f 84/1/559 106/2/560 107/3/561
f 84/1/562 107/2/563 85/3/564
f 85/1/565 107/2/566 108/3/567
f 85/1/568 108/2/569 86/3/570
f 86/1/571 108/2/572 109/3/573
f 86/1/574 109/2/575 87/3/576
f 87/1/577 109/2/578 110/3/579
f 87/1/580 110/2/581 88/3/582
f 88/1/583 110/2/584 111/3/585
f 88/1/586 111/2/587 89/3/588
f 89/1/589 111/2/590 90/3/591
f 89/1/592 90/2/593 68/3/594
f 90/1/595 112/2/596 113/3/597
f 90/1/598 113/2/599 91/3/600
f 91/1/601 113/2/602 114/3/603
f 91/1/604 114/2/605 92/3/606
f 92/1/607 114/2/608 115/3/609
f 92/1/610 115/2/611 93/3/612
f 93/1/613 115/2/614 116/3/615
f 93/1/616 116/2/617 94/3/618
f 94/1/619 116/2/620 117/3/621
f 94/1/622 117/2/623 95/3/624
f 95/1/625 117/2/626 118/3/627
f 95/1/628 118/2/629 96/3/630
f 96/1/631 118/2/632 119/3/633
f 96/1/634 119/2/635 97/3/636
f 97/1/637 119/2/638 120/3/639
f 97/1/640 120/2/641 98/3/642
f 98/1/643 120/2/644 121/3/645
f 98/1/646 121/2/647 99/3/648
f 99/1/649 121/2/650 122/3/651
f 99/1/652 122/2/653 100/3/654
f 100/1/655 122/2/656 123/3/657
f 100/1/658 123/2/659 101/3/660
f 101/1/661 123/2/662 124/3/663
f 101/1/664 124/2/665 102/3/666
f 102/1/667 124/2/668 125/3/669
f 102/1/670 125/2/671 103/3/672
f 103/1/673 125/2/674 126/3/675
f 103/1/676 126/2/677 104/3/678
f 104/1/679 126/2/680 127/3/681
f 104/1/682 127/2/683 105/3/684
f 105/1/685 127/2/686 128/3/687
f 105/1/688 128/2/689 106/3/690
f 106/1/691 128/2/692 129/3/693
f 106/1/694 129/2/695 107/3/696
f 107/1/697 129/2/698 130/3/699
f 107/1/700 130/2/701 108/3/702
f 108/1/703 130/2/704 131/3/705
f 108/1/706 131/2/707 109/3/708
f 109/1/709 131/2/710 132/3/711
f 109/1/712 132/2/713 110/3/714
f 110/1/715 132/2/716 133/3/717
f 110/1/718 133/2/719 111/3/720
f 111/1/721 133/2/722 112/3/723
f 111/1/724 112/2/725 90/3/726
f 112/1/727 134/2/728 135/3/729
f 112/1/730 135/2/731 113/3/732
f 113/1/733 135/2/734 136/3/735
f 113/1/736 136/2/737 114/3/738
f 114/1/739 136/2/740 137/3/741
f 114/1/742 137/2/743 115/3/744
f 115/1/745 137/2/746 138/3/747
f 115/1/748 138/2/749 116/3/750
f 116/1/751 138/2/752 139/3/753
f 116/1/754 139/2/755 117/3/756
f 117/1/757 139/2/758 140/3/759
f 117/1/760 140/2/761 118/3/762
f 118/1/763 140/2/764 141/3/765
f 118/1/766 141/2/767 119/3/768
f 119/1/769 141/2/770 142/3/771
f 119/1/772 142/2/773 120/3/774
f 120/1/775 142/2/776 143/3/777
f 120/1/778 143/2/779 121/3/780
f 121/1/781 143/2/782 144/3/783
f 121/1/784 144/2/785 122/3/786
f 122/1/787 144/2/788 145/3/789
f 122/1/790 145/2/791 123/3/792
f 123/1/793 145/2/794 146/3/795
f 123/1/796 146/2/797 124/3/798
f 124/1/799 146/2/800 147/3/801
f 124/1/802 147/2/803 125/3/804
f 125/1/805 147/2/806 148/3/807
f 125/1/808 148/2/809 126/3/810
f 126/1/811 148/2/812 149/3/813
f 126/1/814 149/2/815 127/3/816
f 127/1/817 149/2/818 150/3/819
f 127/1/820 150/2/821 128/3/822
f 128/1/823 150/2/824 151/3/825
f 128/1/826 151/2/827 129/3/828
f 129/1/829 151/2/830 152/3/831
f 129/1/832 152/2/833 130/3/834
f 130/1/835 152/2/836 153/3/837
f 130/1/838 153/2/839 131/3/840
f 131/1/841 153/2/842 154/3/843
f 131/1/844 154/2/845 132/3/846
f 132/1/847 154/2/848 155/3/849
f 132/1/850 155/2/851 133/3/852
f 133/1/853 155/2/854 134/3/855
f 133/1/856 134/2/857 112/3/858
f 134/1/859 156/2/860 157/3/861
f 134/1/862 157/2/863 135/3/864
f 135/1/865 157/2/866 158/3/867
f 135/1/868 158/2/869 136/3/870
f 136/1/871 158/2/872 159/3/873
f 136/1/874 159/2/875 137/3/876
f 137/1/877 159/2/878 160/3/879
f 137/1/880 160/2/881 138/3/882
f 138/1/883 160/2/884 161/3/885
f 138/1/886 161/2/887 139/3/888
f 139/1/889 161/2/890 162/3/891
f 139/1/892 162/2/893 140/3/894
f 140/1/895 162/2/896 163/3/897
f 140/1/898 163/2/899 141/3/900
f 141/1/901 163/2/902 164/3/903
f 141/1/904 164/2/905 142/3/906
f 142/1/907 164/2/908 165/3/909
f 142/1/910 165/2/911 143/3/912
f 143/1/913 165/2/914 166/3/915
f 143/1/916 166/2/917 144/3/918
f 144/1/919 166/2/920 167/3/921
f 144/1/922 167/2/923 145/3/924
f 145/1/925 167/2/926 168/3/927
f 145/1/928 168/2/929 146/3/930
f 146/1/931 168/2/932 169/3/933
f 146/1/934 169/2/935 147/3/936
f 147/1/937 169/2/938 170/3/939
f 147/1/940 170/2/941 148/3/942
f 148/1/943 170/2/944 171/3/945
f 148/1/946 171/2/947 149/3/948
f 149/1/949 171/2/950 172/3/951
f 149/1/952 172/2/953 150/3/954
f 150/1/955 172/2/956 173/3/957
f 150/1/958 173/2/959 151/3/960
f 151/1/961 173/2/962 174/3/963
f 151/1/964 174/2/965 152/3/966
f 152/1/967 174/2/968 175/3/969
f 152/1/970 175/2/971 153/3/972
f 153/1/973 175/2/974 176/3/975
f 153/1/976 176/2/977 154/3/978
f 154/1/979 176/2/980 177/3/981
f 154/1/982 177/2/983 155/3/984
f 155/1/985 177/2/986 156/3/987
f 155/1/988 156/2/989 134/3/990
f 156/1/991 178/2/992 179/3/993
f 156/1/994 179/2/995 157/3/996
f 157/1/997 179/2/998 180/3/999
f 157/1/1000 180/2/1001 158/3/1002
f 158/1/1003 180/2/1004 181/3/1005
f 158/1/1006 181/2/1007 159/3/1008
f 159/1/1009 181/2/1010 182/3/1011
f 159/1/1012 182/2/1013 160/3/1014
f 160/1/1015 182/2/1016 183/3/1017
f 160/1/1018 183/2/1019 161/3/1020
f 161/1/1021 183/2/1022 184/3/1023
f 161/1/1024 184/2/1025 162/3/1026
f 162/1/1027 184/2/1028 185/3/1029
f 162/1/1030 185/2/1031 163/3/1032
f 163/1/1033 185/2/1034 186/3/1035
f 163/1/1036 186/2/1037 164/3/1038
f 164/1/1039 186/2/1040 187/3/1041
f 164/1/1042 187/2/1043 165/3/1044
f 165/1/1045 187/2/1046 188/3/1047
f 165/1/1048 188/2/1049 166/3/1050
f 166/1/1051 188/2/1052 189/3/1053
f 166/1/1054 189/2/1055 167/3/1056
f 167/1/1057 189/2/1058 190/3/1059
f 167/1/1060 190/2/1061 168/3/1062
f 168/1/1063 190/2/1064 191/3/1065
f 168/1/1066 191/2/1067 169/3/1068
f 169/1/1069 191/2/1070 192/3/1071
f 169/1/1072 192/2/1073 170/3/1074
f 170/1/1075 192/2/1076 193/3/1077
f 170/1/1078 193/2/1079 171/3/1080
f 171/1/1081 193/2/1082 194/3/1083
f 171/1/1084 194/2/1085 172/3/1086
f 172/1/1087 194/2/1088 195/3/1089
f 172/1/1090 195/2/1091 173/3/1092
f 173/1/1093 195/2/1094 196/3/1095
f 173/1/1096 196/2/1097 174/3/1098
f 174/1/1099 196/2/1100 197/3/1101
f 174/1/1102 197/2/1103 175/3/1104
f 175/1/1105 197/2/1106 198/3/1107
f 175/1/1108 198/2/1109 176/3/1110
f 176/1/1111 198/2/1112 199/3/1113
f 176/1/1114 199/2/1115 177/3/1116
f 177/1/1117 199/2/1118 178/3/1119
f 177/1/1120 178/2/1121 156/3/1122
f 178/1/1123 200/2/1124 201/3/1125
f 178/1/1126 201/2/1127 179/3/1128
f 179/1/1129 201/2/1130 202/3/1131
f 179/1/1132 202/2/1133 180/3/1134
f 180/1/1135 202/2/1136 203/3/1137
f 180/1/1138 203/2/1139 181/3/1140
f 181/1/1141 203/2/1142 204/3/1143
f 181/1/1144 204/2/1145 182/3/1146
f 182/1/1147 204/2/1148 205/3/1149
f 182/1/1150 205/2/1151 183/3/1152
f 183/1/1153 205/2/1154 206/3/1155
f 183/1/1156 206/2/1157 184/3/1158
f 184/1/1159 206/2/1160 207/3/1161
f 184/1/1162 207/2/1163 185/3/1164
f 185/1/1165 207/2/1166 208/3/1167
f 185/1/1168 208/2/1169 186/3/1170
f 186/1/1171 208/2/1172 209/3/1173
f 186/1/1174 209/2/1175 187/3/1176
f 187/1/1177 209/2/1178 210/3/1179
f 187/1/1180 210/2/1181 188/3/1182
f 188/1/1183 210/2/1184 211/3/1185
f 188/1/1186 211/2/1187 189/3/1188
f 189/1/1189 211/2/1190 212/3/1191
f 189/1/1192 212/2/1193 190/3/1194
f 190/1/1195 212/2/1196 213/3/1197
f 190/1/1198 213/2/1199 191/3/1200
f 191/1/1201 213/2/1202 214/3/1203
f 191/1/1204 214/2/1205 192/3/1206
f 192/1/1207 214/2/1208 215/3/1209
f 192/1/1210 215/2/1211 193/3/1212
f 193/1/1213 215/2/1214 216/3/1215
f 193/1/1216 216/2/1217 194/3/1218
f 194/1/1219 216/2/1220 217/3/1221
f 194/1/1222 217/2/1223 195/3/1224
f 195/1/1225 217/2/1226 218/3/1227
f 195/1/1228 218/2/1229 196/3/1230
f 196/1/1231 218/2/1232 219/3/1233
f 196/1/1234 219/2/1235 197/3/1236
f 197/1/1237 219/2/1238 220/3/1239
f 197/1/1240 220/2/1241 198/3/1242
f 198/1/1243 220/2/1244 221/3/1245
f 198/1/1246 221/2/1247 199/3/1248
f 199/1/1249 221/2/1250 200/3/1251
f 199/1/1252 200/2/1253 178/3/1254
f 222/1/1255 201/2/1256 200/3/1257
f 222/1/1258 202/2/1259 201/3/1260
f 222/1/1261 203/2/1262 202/3/1263
f 222/1/1264 204/2/1265 203/3/1266
f 222/1/1267 205/2/1268 204/3/1269
f 222/1/1270 206/2/1271 205/3/1272
f 222/1/1273 207/2/1274 206/3/1275
f 222/1/1276 208/2/1277 207/3/1278
f 222/1/1279 209/2/1280 208/3/1281
f 222/1/1282 210/2/1283 209/3/1284
f 222/1/1285 211/2/1286 210/3/1287
f 222/1/1288 212/2/1289 211/3/1290
f 222/1/1291 213/2/1292 212/3/1293
f 222/1/1294 214/2/1295 213/3/1296
f 222/1/1297 215/2/1298 214/3/1299
f 222/1/1300 216/2/1301 215/3/1302
f 222/1/1303 217/2/1304 216/3/1305
f 222/1/1306 218/2/1307 217/3/1308
f 222/1/1309 219/2/1310 218/3/1311
f 222/1/1312 220/2/1313 219/3/1314
f 222/1/1315 221/2/1316 220/3/1317
f 222/1/1318 200/2/1319 221/3/1320
