# Original SpaceSurvival generated source; centimeters; X forward; Z up
mtllib Palette.mtl
o SM_AsteroidSmall
v 0.000000 0.000000 104.000000
v 21.771837 0.000000 74.148066
v 25.429728 7.466842 90.261943
v 21.880625 14.061824 88.580389
v 16.112224 18.594498 83.793687
v 9.235593 20.223129 75.715950
v 3.903793 27.151479 93.420331
v -3.923322 27.287306 93.887671
v -10.345813 22.654170 84.817835
v -16.265628 18.771535 84.591484
v -18.854928 12.117327 76.331316
v -19.490583 5.722951 69.181151
v -23.629894 0.000000 80.476028
v -24.526603 -7.201660 87.056333
v -17.589935 -11.304365 71.210184
v -17.969876 -20.738343 93.454647
v -9.296408 -20.356295 76.214529
v -3.185375 -22.154769 76.228108
v 2.941138 -20.456062 70.383351
v 12.162603 -26.632387 99.712389
v 17.644791 -20.363174 91.763997
v 23.701151 -15.231805 95.950511
v 24.790675 -7.279199 87.993645
v 39.515568 0.000000 61.487424
v 42.809490 12.570000 69.425070
v 39.988184 25.698845 73.964419
v 26.803258 30.932609 63.687868
v 23.012164 50.389610 86.197236
v 6.446927 44.839359 70.488880
v -5.920935 41.181009 64.737839
v -22.045853 48.273684 82.577701
v -26.905985 31.051162 63.931960
v -46.252151 29.724452 85.550608
v -44.871145 13.175357 72.768500
v -48.476068 0.000000 75.430234
v -43.041754 -12.638199 69.801738
v -39.801183 -25.578667 73.618531
v -27.608768 -31.862217 65.601859
v -16.437420 -35.992930 61.570055
v -7.671680 -53.357708 83.879992
v 6.118035 -42.551871 66.892877
v 21.778141 -47.687476 81.574924
v 27.854089 -32.145333 66.184773
v 46.846324 -30.106305 86.649625
v 52.188934 -15.324054 84.635916
v 72.667860 0.000000 62.967059
v 69.909940 20.527411 63.134707
v 57.591543 37.011838 59.320234
v 47.190844 54.461137 62.442435
v 23.834840 52.191020 49.716563
v 9.383303 65.262309 57.131630
v -10.590297 73.657130 64.480586
v -24.624502 53.920139 51.363701
v -50.253907 57.996100 66.495448
v -63.833226 41.023123 65.749269
v -61.714368 18.120974 55.733399
v -63.246458 0.000000 54.803368
v -62.682453 -18.405229 56.607663
v -53.624538 -34.462398 55.234154
v -51.389039 -59.306112 67.997443
v -26.488247 -58.001170 55.251245
v -7.836277 -54.502501 47.712329
v 8.064901 -56.092616 49.104340
v 29.818618 -65.293667 62.197993
v 51.357058 -59.269205 67.955127
v 55.867216 -35.903679 57.544148
v 63.615686 -18.679251 57.450452
v 81.515569 0.000000 37.226913
v 83.736467 24.587245 39.855595
v 60.533652 38.902616 32.861428
v 54.495900 62.891622 38.004178
v 33.936022 74.309522 37.307419
v 11.899932 82.765845 38.186579
v -10.069159 70.032540 32.311676
v -29.263734 64.078640 32.170960
v -49.526593 57.156735 34.538698
v -77.798260 49.997906 42.233730
v -72.521170 21.294137 34.517510
v -82.878000 0.000000 37.849114
v -71.404019 -20.966112 33.985786
v -57.625534 -37.033682 31.282721
v -44.140418 -50.940758 30.782504
v -37.046189 -81.119839 40.726568
v -12.539522 -87.214290 40.239007
v 10.873631 -75.627768 34.893207
v 35.470070 -77.668619 38.993868
v 55.773051 -64.365532 38.894833
v 77.103406 -49.551350 41.856521
v 89.604493 -26.310253 42.648567
v 84.159043 0.000000 12.100244
v 98.440607 28.904770 14.751148
v 85.572095 54.993846 14.625091
v 58.918740 67.995851 12.935935
v 41.226165 90.272709 14.268689
v 12.355266 85.932760 12.482318
v -11.835292 82.316267 11.956997
v -32.858195 71.949411 11.372471
v -64.843261 74.833113 14.236696
v -64.278201 41.309092 10.985761
v -70.487506 20.696999 10.562426
v -96.773869 0.000000 13.913982
v -91.900621 -26.984457 13.771143
v -72.828413 -46.803979 12.447074
v -64.031289 -73.896047 14.058424
v -30.291941 -66.330098 10.484271
v -11.305259 -78.629801 11.421513
v 11.449046 -79.629865 11.566779
v 35.125887 -76.914964 12.157337
v 50.209297 -57.944617 11.023729
v 61.804342 -39.719239 10.562955
v 78.655072 -23.095213 11.786321
v 99.746926 0.000000 -14.341443
v 98.268514 28.854239 -14.725360
v 79.827674 51.302131 -13.643315
v 56.605034 65.325692 -12.427948
v 32.924077 72.093673 -11.395273
v 14.464724 100.604368 -14.613468
v -12.511755 87.021171 -12.640417
v -39.192453 85.819502 -13.564806
v -47.257048 54.537540 -10.375546
v -65.605149 42.161869 -11.212549
v -93.856213 27.558671 -14.064184
v -96.455116 0.000000 -13.868152
v -95.168781 -27.944075 -14.260870
v -75.977526 -48.827791 -12.985288
v -55.507962 -64.059603 -12.187080
v -37.252060 -81.570633 -12.893221
v -13.970969 -97.170224 -14.114636
v 11.530648 -80.197416 -11.649220
v 36.636205 -80.222099 -12.680069
v 52.394537 -60.466519 -11.503510
v 80.424761 -51.685855 -13.745363
v 68.691334 -20.169596 -10.293273
v 85.441333 0.000000 -39.019749
v 89.484239 26.274943 -42.591331
v 55.672111 35.778293 -30.222282
v 54.205877 62.556917 -37.801923
v 34.992522 76.622935 -38.468878
v 12.848818 89.365491 -41.231530
v -11.741345 81.662851 -37.677679
v -30.317006 66.384984 -33.328870
v -50.620724 58.419429 -35.301719
v -78.573025 50.495817 -42.654321
v -88.133373 25.878293 -41.948367
v -69.380551 0.000000 -31.685036
v -65.489332 -19.229403 -31.170604
v -57.396959 -36.886786 -31.158636
v -43.371712 -50.053624 -30.246427
v -32.610358 -71.406723 -35.850056
v -9.904073 -68.884344 -31.781920
v 12.913665 -89.816515 -41.439624
v 35.131149 -76.926486 -38.621277
v 45.300980 -52.280118 -31.591854
v 68.286988 -43.885383 -37.070421
v 71.897330 -21.110961 -34.220584
v 66.357636 0.000000 -57.499219
v 57.305684 16.826467 -51.751976
v 49.154828 31.589890 -50.630279
v 38.546705 44.485269 -51.004600
v 26.400014 57.807967 -55.067202
v 10.187465 70.855378 -62.027889
v -9.636996 67.026781 -58.676277
v -23.068336 50.512611 -48.117730
v -46.891818 54.116042 -62.046767
v -63.554690 40.844119 -65.462372
v -70.175774 20.605466 -63.374778
v -73.536864 0.000000 -63.720055
v -52.391345 -15.383487 -47.313905
v -55.213514 -35.483571 -56.870824
v -36.639095 -42.283769 -48.480470
v -30.279020 -66.301805 -63.158334
v -8.347242 -58.056347 -50.823420
v 10.192671 -70.891582 -62.059582
v 25.145172 -55.060246 -52.449754
v 46.667834 -53.857551 -61.750393
v 52.156445 -33.518912 -53.721993
v 53.182343 -15.615745 -48.028244
v 45.653804 0.000000 -71.038706
v 42.485501 12.474869 -68.899649
v 45.856432 29.470139 -84.818664
v 28.833685 33.275847 -68.512415
v 19.786379 43.326127 -74.114335
v 6.892289 47.936920 -75.358343
v -7.874390 54.767586 -86.096364
v -16.878867 36.959563 -63.223592
v -32.302217 37.278745 -76.754075
v -40.143334 25.798554 -74.251394
v -49.543052 14.547153 -80.345032
v -55.657654 0.000000 -86.605001
v -42.497878 -12.478503 -68.919721
v -42.926578 -27.587237 -79.399440
v -31.448059 -36.292995 -74.724491
v -20.200025 -44.231885 -75.663738
v -5.696663 -39.621162 -62.285710
v 7.545627 -52.480985 -82.501756
v 23.190999 -50.781205 -86.867105
v 29.515704 -34.062938 -70.132975
v 37.376390 -24.020347 -69.133496
v 53.836480 -15.807817 -87.307776
v 21.254861 0.000000 -72.387410
v 20.121423 5.908183 -71.420299
v 17.620781 11.324189 -71.335059
v 18.091367 20.878551 -94.086476
v 11.272577 24.683501 -92.415707
v 3.461694 24.076608 -82.840593
v -3.684084 25.623369 -88.162548
v -8.500663 18.613856 -69.690790
v -17.089586 19.722433 -88.876583
v -20.421690 13.124223 -82.674113
v -23.938939 7.029107 -84.970438
v -23.795372 0.000000 -81.039595
v -22.936266 -6.734695 -81.411485
v -18.774759 -12.065805 -76.006763
v -13.571909 -15.662817 -70.582451
v -10.051667 -22.010081 -82.406350
v -3.203802 -22.282931 -76.669074
v 3.790304 -26.362143 -90.704455
v 11.487484 -25.154081 -94.177573
v 17.556657 -20.261463 -91.305649
v 20.522981 -13.189319 -83.084174
v 21.508309 -6.315409 -76.343002
v 0.000000 0.000000 -94.000000
vt 0.05 0.05
vt 0.95 0.05
vt 0.05 0.95
vn -0.111484 0.084716 0.990149
vn 0.731379 -0.174668 0.659224
vn 0.634935 -0.231060 0.737204
vn -0.111484 0.084716 0.990149
vn 0.634935 -0.231060 0.737204
vn 0.167822 0.666860 0.726039
vn -0.111484 0.084716 0.990149
vn 0.167822 0.666860 0.726039
vn -0.006934 0.634159 0.773171
vn -0.111484 0.084716 0.990149
vn -0.006934 0.634159 0.773171
vn 0.044989 0.432100 0.900703
vn -0.111484 0.084716 0.990149
vn 0.044989 0.432100 0.900703
vn 0.439206 0.595575 0.672598
vn -0.111484 0.084716 0.990149
vn 0.439206 0.595575 0.672598
vn -0.233406 0.515676 0.824379
vn -0.111484 0.084716 0.990149
vn -0.233406 0.515676 0.824379
vn -0.706074 0.143415 0.693463
vn -0.111484 0.084716 0.990149
vn -0.706074 0.143415 0.693463
vn -0.455089 0.307524 0.835657
vn -0.111484 0.084716 0.990149
vn -0.455089 0.307524 0.835657
vn -0.477186 -0.589089 0.652125
vn -0.111484 0.084716 0.990149
vn -0.477186 -0.589089 0.652125
vn -0.377173 0.262639 0.888122
vn -0.111484 0.084716 0.990149
vn -0.377173 0.262639 0.888122
vn -0.441525 0.604308 0.663225
vn -0.111484 0.084716 0.990149
vn -0.441525 0.604308 0.663225
vn -0.450566 -0.175940 0.875235
vn -0.111484 0.084716 0.990149
vn -0.450566 -0.175940 0.875235
vn -0.313076 -0.479544 0.819769
vn -0.111484 0.084716 0.990149
vn -0.313076 -0.479544 0.819769
vn -0.270590 -0.634964 0.723603
vn -0.111484 0.084716 0.990149
vn -0.270590 -0.634964 0.723603
vn 0.081276 -0.565590 0.820672
vn -0.111484 0.084716 0.990149
vn 0.081276 -0.565590 0.820672
vn 0.467869 -0.279310 0.838501
vn -0.111484 0.084716 0.990149
vn 0.467869 -0.279310 0.838501
vn -0.366946 -0.595393 0.714743
vn -0.111484 0.084716 0.990149
vn -0.366946 -0.595393 0.714743
vn 0.350800 -0.399112 0.847142
vn -0.111484 0.084716 0.990149
vn 0.350800 -0.399112 0.847142
vn 0.309236 -0.531051 0.788897
vn -0.111484 0.084716 0.990149
vn 0.309236 -0.531051 0.788897
vn 0.265791 0.010182 0.963977
vn -0.111484 0.084716 0.990149
vn 0.265791 0.010182 0.963977
vn 0.386681 0.772435 0.503807
vn -0.111484 0.084716 0.990149
vn 0.386681 0.772435 0.503807
vn 0.731379 -0.174668 0.659224
vn 0.731379 -0.174668 0.659224
vn 0.313983 0.334973 0.888373
vn 0.558680 -0.336857 0.757895
vn 0.731379 -0.174668 0.659224
vn 0.558680 -0.336857 0.757895
vn 0.634935 -0.231060 0.737204
vn 0.634935 -0.231060 0.737204
vn 0.558680 -0.336857 0.757895
vn 0.370827 0.340698 0.863952
vn 0.634935 -0.231060 0.737204
vn 0.370827 0.340698 0.863952
vn 0.167822 0.666860 0.726039
vn 0.167822 0.666860 0.726039
vn 0.370827 0.340698 0.863952
vn 0.259651 0.602381 0.754797
vn 0.167822 0.666860 0.726039
vn 0.259651 0.602381 0.754797
vn -0.006934 0.634159 0.773171
vn -0.006934 0.634159 0.773171
vn 0.259651 0.602381 0.754797
vn 0.165180 0.479118 0.862068
vn -0.006934 0.634159 0.773171
vn 0.165180 0.479118 0.862068
vn 0.044989 0.432100 0.900703
vn 0.044989 0.432100 0.900703
vn 0.165180 0.479118 0.862068
vn -0.195660 0.431253 0.880760
vn 0.044989 0.432100 0.900703
vn -0.195660 0.431253 0.880760
vn 0.439206 0.595575 0.672598
vn 0.439206 0.595575 0.672598
vn -0.195660 0.431253 0.880760
vn -0.068355 0.708133 0.702762
vn 0.439206 0.595575 0.672598
vn -0.068355 0.708133 0.702762
vn -0.233406 0.515676 0.824379
vn -0.233406 0.515676 0.824379
vn -0.068355 0.708133 0.702762
vn -0.241798 0.495507 0.834270
vn -0.233406 0.515676 0.824379
vn -0.241798 0.495507 0.834270
vn -0.706074 0.143415 0.693463
vn -0.706074 0.143415 0.693463
vn -0.241798 0.495507 0.834270
vn -0.300808 0.388505 0.870964
vn -0.706074 0.143415 0.693463
vn -0.300808 0.388505 0.870964
vn -0.455089 0.307524 0.835657
vn -0.455089 0.307524 0.835657
vn -0.300808 0.388505 0.870964
vn -0.370259 -0.092968 0.924265
vn -0.455089 0.307524 0.835657
vn -0.370259 -0.092968 0.924265
vn -0.477186 -0.589089 0.652125
vn -0.477186 -0.589089 0.652125
vn -0.370259 -0.092968 0.924265
vn -0.451517 -0.268593 0.850876
vn -0.477186 -0.589089 0.652125
vn -0.451517 -0.268593 0.850876
vn -0.377173 0.262639 0.888122
vn -0.377173 0.262639 0.888122
vn -0.451517 -0.268593 0.850876
vn -0.436619 0.092745 0.894853
vn -0.377173 0.262639 0.888122
vn -0.436619 0.092745 0.894853
vn -0.441525 0.604308 0.663225
vn -0.441525 0.604308 0.663225
vn -0.436619 0.092745 0.894853
vn -0.582113 -0.133688 0.802043
vn -0.441525 0.604308 0.663225
vn -0.582113 -0.133688 0.802043
vn -0.450566 -0.175940 0.875235
vn -0.450566 -0.175940 0.875235
vn -0.582113 -0.133688 0.802043
vn -0.237411 -0.282611 0.929391
vn -0.450566 -0.175940 0.875235
vn -0.237411 -0.282611 0.929391
vn -0.313076 -0.479544 0.819769
vn -0.313076 -0.479544 0.819769
vn -0.237411 -0.282611 0.929391
vn 0.074260 -0.415366 0.906618
vn -0.313076 -0.479544 0.819769
vn 0.074260 -0.415366 0.906618
vn -0.270590 -0.634964 0.723603
vn -0.270590 -0.634964 0.723603
vn 0.074260 -0.415366 0.906618
vn -0.173271 -0.669336 0.722472
vn -0.270590 -0.634964 0.723603
vn -0.173271 -0.669336 0.722472
vn 0.081276 -0.565590 0.820672
vn 0.081276 -0.565590 0.820672
vn -0.173271 -0.669336 0.722472
vn -0.095484 -0.519920 0.848862
vn 0.081276 -0.565590 0.820672
vn -0.095484 -0.519920 0.848862
vn 0.467869 -0.279310 0.838501
vn 0.467869 -0.279310 0.838501
vn -0.095484 -0.519920 0.848862
vn 0.104387 -0.509872 0.853893
vn 0.467869 -0.279310 0.838501
vn 0.104387 -0.509872 0.853893
vn -0.366946 -0.595393 0.714743
vn -0.366946 -0.595393 0.714743
vn 0.104387 -0.509872 0.853893
vn -0.198654 -0.462093 0.864296
vn -0.366946 -0.595393 0.714743
vn -0.198654 -0.462093 0.864296
vn 0.350800 -0.399112 0.847142
vn 0.350800 -0.399112 0.847142
vn -0.198654 -0.462093 0.864296
vn 0.583983 -0.310341 0.750102
vn 0.350800 -0.399112 0.847142
vn 0.583983 -0.310341 0.750102
vn 0.309236 -0.531051 0.788897
vn 0.309236 -0.531051 0.788897
vn 0.583983 -0.310341 0.750102
vn 0.369866 -0.674861 0.638562
vn 0.309236 -0.531051 0.788897
vn 0.369866 -0.674861 0.638562
vn 0.265791 0.010182 0.963977
vn 0.265791 0.010182 0.963977
vn 0.369866 -0.674861 0.638562
vn 0.568550 0.349572 0.744681
vn 0.265791 0.010182 0.963977
vn 0.568550 0.349572 0.744681
vn 0.386681 0.772435 0.503807
vn 0.386681 0.772435 0.503807
vn 0.568550 0.349572 0.744681
vn 0.313983 0.334973 0.888373
vn 0.386681 0.772435 0.503807
vn 0.313983 0.334973 0.888373
vn 0.731379 -0.174668 0.659224
vn 0.313983 0.334973 0.888373
vn 0.733051 -0.038366 0.679090
vn 0.527225 0.277887 0.803003
vn 0.313983 0.334973 0.888373
vn 0.527225 0.277887 0.803003
vn 0.558680 -0.336857 0.757895
vn 0.558680 -0.336857 0.757895
vn 0.527225 0.277887 0.803003
vn 0.743614 0.310754 0.592005
vn 0.558680 -0.336857 0.757895
vn 0.743614 0.310754 0.592005
vn 0.370827 0.340698 0.863952
vn 0.370827 0.340698 0.863952
vn 0.743614 0.310754 0.592005
vn 0.097469 0.593285 0.799070
vn 0.370827 0.340698 0.863952
vn 0.097469 0.593285 0.799070
vn 0.259651 0.602381 0.754797
vn 0.259651 0.602381 0.754797
vn 0.097469 0.593285 0.799070
vn 0.379998 0.634931 0.672655
vn 0.259651 0.602381 0.754797
vn 0.379998 0.634931 0.672655
vn 0.165180 0.479118 0.862068
vn 0.165180 0.479118 0.862068
vn 0.379998 0.634931 0.672655
vn 0.221682 0.822404 0.523936
vn 0.165180 0.479118 0.862068
vn 0.221682 0.822404 0.523936
vn -0.195660 0.431253 0.880760
vn -0.195660 0.431253 0.880760
vn 0.221682 0.822404 0.523936
vn -0.346307 0.648509 0.677870
vn -0.195660 0.431253 0.880760
vn -0.346307 0.648509 0.677870
vn -0.068355 0.708133 0.702762
vn -0.068355 0.708133 0.702762
vn -0.346307 0.648509 0.677870
vn -0.182486 0.882798 0.432859
vn -0.068355 0.708133 0.702762
vn -0.182486 0.882798 0.432859
vn -0.241798 0.495507 0.834270
vn -0.241798 0.495507 0.834270
vn -0.182486 0.882798 0.432859
vn -0.274297 0.741990 0.611729
vn -0.241798 0.495507 0.834270
vn -0.274297 0.741990 0.611729
vn -0.300808 0.388505 0.870964
vn -0.300808 0.388505 0.870964
vn -0.274297 0.741990 0.611729
vn -0.664597 0.117560 0.737896
vn -0.300808 0.388505 0.870964
vn -0.664597 0.117560 0.737896
vn -0.370259 -0.092968 0.924265
vn -0.370259 -0.092968 0.924265
vn -0.664597 0.117560 0.737896
vn -0.793077 -0.098211 0.601152
vn -0.370259 -0.092968 0.924265
vn -0.793077 -0.098211 0.601152
vn -0.451517 -0.268593 0.850876
vn -0.451517 -0.268593 0.850876
vn -0.793077 -0.098211 0.601152
vn -0.775443 -0.007731 0.631371
vn -0.451517 -0.268593 0.850876
vn -0.775443 -0.007731 0.631371
vn -0.436619 0.092745 0.894853
vn -0.436619 0.092745 0.894853
vn -0.775443 -0.007731 0.631371
vn -0.749122 -0.352905 0.560602
vn -0.436619 0.092745 0.894853
vn -0.749122 -0.352905 0.560602
vn -0.582113 -0.133688 0.802043
vn -0.582113 -0.133688 0.802043
vn -0.749122 -0.352905 0.560602
vn -0.868419 -0.291760 0.400905
vn -0.582113 -0.133688 0.802043
vn -0.868419 -0.291760 0.400905
vn -0.237411 -0.282611 0.929391
vn -0.237411 -0.282611 0.929391
vn -0.868419 -0.291760 0.400905
vn -0.450503 -0.471294 0.758241
vn -0.237411 -0.282611 0.929391
vn -0.450503 -0.471294 0.758241
vn 0.074260 -0.415366 0.906618
vn 0.074260 -0.415366 0.906618
vn -0.450503 -0.471294 0.758241
vn 0.297695 -0.420056 0.857281
vn 0.074260 -0.415366 0.906618
vn 0.297695 -0.420056 0.857281
vn -0.173271 -0.669336 0.722472
vn -0.173271 -0.669336 0.722472
vn 0.297695 -0.420056 0.857281
vn 0.002380 -0.651564 0.758590
vn -0.173271 -0.669336 0.722472
vn 0.002380 -0.651564 0.758590
vn -0.095484 -0.519920 0.848862
vn -0.095484 -0.519920 0.848862
vn 0.002380 -0.651564 0.758590
vn -0.136256 -0.819704 0.556344
vn -0.095484 -0.519920 0.848862
vn -0.136256 -0.819704 0.556344
vn 0.104387 -0.509872 0.853893
vn 0.104387 -0.509872 0.853893
vn -0.136256 -0.819704 0.556344
vn -0.181158 -0.861798 0.473800
vn 0.104387 -0.509872 0.853893
vn -0.181158 -0.861798 0.473800
vn -0.198654 -0.462093 0.864296
vn -0.198654 -0.462093 0.864296
vn -0.181158 -0.861798 0.473800
vn 0.520199 -0.340369 0.783289
vn -0.198654 -0.462093 0.864296
vn 0.520199 -0.340369 0.783289
vn 0.583983 -0.310341 0.750102
vn 0.583983 -0.310341 0.750102
vn 0.520199 -0.340369 0.783289
vn 0.546432 -0.268485 0.793302
vn 0.583983 -0.310341 0.750102
vn 0.546432 -0.268485 0.793302
vn 0.369866 -0.674861 0.638562
vn 0.369866 -0.674861 0.638562
vn 0.546432 -0.268485 0.793302
vn 0.784815 -0.270916 0.557378
vn 0.369866 -0.674861 0.638562
vn 0.784815 -0.270916 0.557378
vn 0.568550 0.349572 0.744681
vn 0.568550 0.349572 0.744681
vn 0.784815 -0.270916 0.557378
vn 0.733051 -0.038366 0.679090
vn 0.568550 0.349572 0.744681
vn 0.733051 -0.038366 0.679090
vn 0.313983 0.334973 0.888373
vn 0.733051 -0.038366 0.679090
vn 0.919939 -0.100235 0.379033
vn 0.755877 0.323513 0.569201
vn 0.733051 -0.038366 0.679090
vn 0.755877 0.323513 0.569201
vn 0.527225 0.277887 0.803003
vn 0.527225 0.277887 0.803003
vn 0.755877 0.323513 0.569201
vn 0.667755 0.583783 0.461844
vn 0.527225 0.277887 0.803003
vn 0.667755 0.583783 0.461844
vn 0.743614 0.310754 0.592005
vn 0.743614 0.310754 0.592005
vn 0.667755 0.583783 0.461844
vn 0.772693 0.525344 0.356314
vn 0.743614 0.310754 0.592005
vn 0.772693 0.525344 0.356314
vn 0.097469 0.593285 0.799070
vn 0.097469 0.593285 0.799070
vn 0.772693 0.525344 0.356314
vn 0.141824 0.788137 0.598937
vn 0.097469 0.593285 0.799070
vn 0.141824 0.788137 0.598937
vn 0.379998 0.634931 0.672655
vn 0.379998 0.634931 0.672655
vn 0.141824 0.788137 0.598937
vn 0.009462 0.841193 0.540652
vn 0.379998 0.634931 0.672655
vn 0.009462 0.841193 0.540652
vn 0.221682 0.822404 0.523936
vn 0.221682 0.822404 0.523936
vn 0.009462 0.841193 0.540652
vn -0.306967 0.900185 0.308930
vn 0.221682 0.822404 0.523936
vn -0.306967 0.900185 0.308930
vn -0.346307 0.648509 0.677870
vn -0.346307 0.648509 0.677870
vn -0.306967 0.900185 0.308930
vn -0.312259 0.858047 0.407738
vn -0.346307 0.648509 0.677870
vn -0.312259 0.858047 0.407738
vn -0.182486 0.882798 0.432859
vn -0.182486 0.882798 0.432859
vn -0.312259 0.858047 0.407738
vn -0.342834 0.896604 0.280295
vn -0.182486 0.882798 0.432859
vn -0.342834 0.896604 0.280295
vn -0.274297 0.741990 0.611729
vn -0.274297 0.741990 0.611729
vn -0.342834 0.896604 0.280295
vn -0.876125 0.481941 0.011765
vn -0.274297 0.741990 0.611729
vn -0.876125 0.481941 0.011765
vn -0.664597 0.117560 0.737896
vn -0.664597 0.117560 0.737896
vn -0.876125 0.481941 0.011765
vn -0.934979 0.187565 0.301056
vn -0.664597 0.117560 0.737896
vn -0.934979 0.187565 0.301056
vn -0.793077 -0.098211 0.601152
vn -0.793077 -0.098211 0.601152
vn -0.934979 0.187565 0.301056
vn -0.764403 -0.023789 0.644299
vn -0.793077 -0.098211 0.601152
vn -0.764403 -0.023789 0.644299
vn -0.775443 -0.007731 0.631371
vn -0.775443 -0.007731 0.631371
vn -0.764403 -0.023789 0.644299
vn -0.659322 -0.453598 0.599619
vn -0.775443 -0.007731 0.631371
vn -0.659322 -0.453598 0.599619
vn -0.749122 -0.352905 0.560602
vn -0.749122 -0.352905 0.560602
vn -0.659322 -0.453598 0.599619
vn -0.673116 -0.518949 0.526884
vn -0.749122 -0.352905 0.560602
vn -0.673116 -0.518949 0.526884
vn -0.868419 -0.291760 0.400905
vn -0.868419 -0.291760 0.400905
vn -0.673116 -0.518949 0.526884
vn -0.794373 -0.571806 0.204963
vn -0.868419 -0.291760 0.400905
vn -0.794373 -0.571806 0.204963
vn -0.450503 -0.471294 0.758241
vn -0.450503 -0.471294 0.758241
vn -0.794373 -0.571806 0.204963
vn -0.545423 -0.836768 0.048304
vn -0.450503 -0.471294 0.758241
vn -0.545423 -0.836768 0.048304
vn 0.297695 -0.420056 0.857281
vn 0.297695 -0.420056 0.857281
vn -0.545423 -0.836768 0.048304
vn 0.184442 -0.844968 0.502007
vn 0.297695 -0.420056 0.857281
vn 0.184442 -0.844968 0.502007
vn 0.002380 -0.651564 0.758590
vn 0.002380 -0.651564 0.758590
vn 0.184442 -0.844968 0.502007
vn 0.101375 -0.834273 0.541952
vn 0.002380 -0.651564 0.758590
vn 0.101375 -0.834273 0.541952
vn -0.136256 -0.819704 0.556344
vn -0.136256 -0.819704 0.556344
vn 0.101375 -0.834273 0.541952
vn 0.208636 -0.943379 0.257889
vn -0.136256 -0.819704 0.556344
vn 0.208636 -0.943379 0.257889
vn -0.181158 -0.861798 0.473800
vn -0.181158 -0.861798 0.473800
vn 0.208636 -0.943379 0.257889
vn 0.566829 -0.823512 -0.023080
vn -0.181158 -0.861798 0.473800
vn 0.566829 -0.823512 -0.023080
vn 0.520199 -0.340369 0.783289
vn 0.520199 -0.340369 0.783289
vn 0.566829 -0.823512 -0.023080
vn 0.808504 -0.578828 0.106205
vn 0.520199 -0.340369 0.783289
vn 0.808504 -0.578828 0.106205
vn 0.546432 -0.268485 0.793302
vn 0.546432 -0.268485 0.793302
vn 0.808504 -0.578828 0.106205
vn 0.902034 -0.104736 0.418766
vn 0.546432 -0.268485 0.793302
vn 0.902034 -0.104736 0.418766
vn 0.784815 -0.270916 0.557378
vn 0.784815 -0.270916 0.557378
vn 0.902034 -0.104736 0.418766
vn 0.919939 -0.100235 0.379033
vn 0.784815 -0.270916 0.557378
vn 0.919939 -0.100235 0.379033
vn 0.733051 -0.038366 0.679090
vn 0.919939 -0.100235 0.379033
vn 0.972873 -0.172690 0.153935
vn 0.982854 0.082458 0.164920
vn 0.919939 -0.100235 0.379033
vn 0.982854 0.082458 0.164920
vn 0.755877 0.323513 0.569201
vn 0.755877 0.323513 0.569201
vn 0.982854 0.082458 0.164920
vn 0.592914 0.746900 0.300987
vn 0.755877 0.323513 0.569201
vn 0.592914 0.746900 0.300987
vn 0.667755 0.583783 0.461844
vn 0.667755 0.583783 0.461844
vn 0.592914 0.746900 0.300987
vn 0.658567 0.747587 0.086041
vn 0.667755 0.583783 0.461844
vn 0.658567 0.747587 0.086041
vn 0.772693 0.525344 0.356314
vn 0.772693 0.525344 0.356314
vn 0.658567 0.747587 0.086041
vn 0.476270 0.864272 0.161865
vn 0.772693 0.525344 0.356314
vn 0.476270 0.864272 0.161865
vn 0.141824 0.788137 0.598937
vn 0.141824 0.788137 0.598937
vn 0.476270 0.864272 0.161865
vn -0.111534 0.941179 0.318970
vn 0.141824 0.788137 0.598937
vn -0.111534 0.941179 0.318970
vn 0.009462 0.841193 0.540652
vn 0.009462 0.841193 0.540652
vn -0.111534 0.941179 0.318970
vn -0.288140 0.893685 0.343952
vn 0.009462 0.841193 0.540652
vn -0.288140 0.893685 0.343952
vn -0.306967 0.900185 0.308930
vn -0.306967 0.900185 0.308930
vn -0.288140 0.893685 0.343952
vn -0.365520 0.882029 0.297356
vn -0.306967 0.900185 0.308930
vn -0.365520 0.882029 0.297356
vn -0.312259 0.858047 0.407738
vn -0.312259 0.858047 0.407738
vn -0.365520 0.882029 0.297356
vn -0.604613 0.792147 0.083344
vn -0.312259 0.858047 0.407738
vn -0.604613 0.792147 0.083344
vn -0.342834 0.896604 0.280295
vn -0.342834 0.896604 0.280295
vn -0.604613 0.792147 0.083344
vn -0.884227 0.451497 0.119556
vn -0.342834 0.896604 0.280295
vn -0.884227 0.451497 0.119556
vn -0.876125 0.481941 0.011765
vn -0.876125 0.481941 0.011765
vn -0.884227 0.451497 0.119556
vn -0.905946 0.391504 0.161206
vn -0.876125 0.481941 0.011765
vn -0.905946 0.391504 0.161206
vn -0.934979 0.187565 0.301056
vn -0.934979 0.187565 0.301056
vn -0.905946 0.391504 0.161206
vn -0.930986 0.313418 0.187176
vn -0.934979 0.187565 0.301056
vn -0.930986 0.313418 0.187176
vn -0.764403 -0.023789 0.644299
vn -0.764403 -0.023789 0.644299
vn -0.930986 0.313418 0.187176
vn -0.780240 -0.478606 0.402693
vn -0.764403 -0.023789 0.644299
vn -0.780240 -0.478606 0.402693
vn -0.659322 -0.453598 0.599619
vn -0.659322 -0.453598 0.599619
vn -0.780240 -0.478606 0.402693
vn -0.733309 -0.576131 0.361014
vn -0.659322 -0.453598 0.599619
vn -0.733309 -0.576131 0.361014
vn -0.673116 -0.518949 0.526884
vn -0.673116 -0.518949 0.526884
vn -0.733309 -0.576131 0.361014
vn -0.503025 -0.734880 0.454881
vn -0.673116 -0.518949 0.526884
vn -0.503025 -0.734880 0.454881
vn -0.794373 -0.571806 0.204963
vn -0.794373 -0.571806 0.204963
vn -0.503025 -0.734880 0.454881
vn -0.385835 -0.866087 0.317843
vn -0.794373 -0.571806 0.204963
vn -0.385835 -0.866087 0.317843
vn -0.545423 -0.836768 0.048304
vn -0.545423 -0.836768 0.048304
vn -0.385835 -0.866087 0.317843
vn -0.157650 -0.987484 0.004593
vn -0.545423 -0.836768 0.048304
vn -0.157650 -0.987484 0.004593
vn 0.184442 -0.844968 0.502007
vn 0.184442 -0.844968 0.502007
vn -0.157650 -0.987484 0.004593
vn 0.103051 -0.993885 0.039658
vn 0.184442 -0.844968 0.502007
vn 0.103051 -0.993885 0.039658
vn 0.101375 -0.834273 0.541952
vn 0.101375 -0.834273 0.541952
vn 0.103051 -0.993885 0.039658
vn 0.454272 -0.885566 0.097007
vn 0.101375 -0.834273 0.541952
vn 0.454272 -0.885566 0.097007
vn 0.208636 -0.943379 0.257889
vn 0.208636 -0.943379 0.257889
vn 0.454272 -0.885566 0.097007
vn 0.700628 -0.710567 0.064921
vn 0.208636 -0.943379 0.257889
vn 0.700628 -0.710567 0.064921
vn 0.566829 -0.823512 -0.023080
vn 0.566829 -0.823512 -0.023080
vn 0.700628 -0.710567 0.064921
vn 0.841987 -0.531093 -0.094864
vn 0.566829 -0.823512 -0.023080
vn 0.841987 -0.531093 -0.094864
vn 0.808504 -0.578828 0.106205
vn 0.808504 -0.578828 0.106205
vn 0.841987 -0.531093 -0.094864
vn 0.803851 -0.536347 -0.257207
vn 0.808504 -0.578828 0.106205
vn 0.803851 -0.536347 -0.257207
vn 0.902034 -0.104736 0.418766
vn 0.902034 -0.104736 0.418766
vn 0.803851 -0.536347 -0.257207
vn 0.972873 -0.172690 0.153935
vn 0.902034 -0.104736 0.418766
vn 0.972873 -0.172690 0.153935
vn 0.919939 -0.100235 0.379033
vn 0.972873 -0.172690 0.153935
vn 0.914522 -0.396006 -0.082640
vn 0.914487 0.359409 -0.185847
vn 0.972873 -0.172690 0.153935
vn 0.914487 0.359409 -0.185847
vn 0.982854 0.082458 0.164920
vn 0.982854 0.082458 0.164920
vn 0.914487 0.359409 -0.185847
vn 0.705954 0.565259 -0.426745
vn 0.982854 0.082458 0.164920
vn 0.705954 0.565259 -0.426745
vn 0.592914 0.746900 0.300987
vn 0.592914 0.746900 0.300987
vn 0.705954 0.565259 -0.426745
vn 0.436987 0.894196 -0.097244
vn 0.592914 0.746900 0.300987
vn 0.436987 0.894196 -0.097244
vn 0.658567 0.747587 0.086041
vn 0.658567 0.747587 0.086041
vn 0.436987 0.894196 -0.097244
vn 0.591699 0.778256 -0.210262
vn 0.658567 0.747587 0.086041
vn 0.591699 0.778256 -0.210262
vn 0.476270 0.864272 0.161865
vn 0.476270 0.864272 0.161865
vn 0.591699 0.778256 -0.210262
vn 0.053993 0.992801 -0.106914
vn 0.476270 0.864272 0.161865
vn 0.053993 0.992801 -0.106914
vn -0.111534 0.941179 0.318970
vn -0.111534 0.941179 0.318970
vn 0.053993 0.992801 -0.106914
vn -0.315061 0.947579 -0.053201
vn -0.111534 0.941179 0.318970
vn -0.315061 0.947579 -0.053201
vn -0.288140 0.893685 0.343952
vn -0.288140 0.893685 0.343952
vn -0.315061 0.947579 -0.053201
vn -0.561638 0.826377 -0.040799
vn -0.288140 0.893685 0.343952
vn -0.561638 0.826377 -0.040799
vn -0.365520 0.882029 0.297356
vn -0.365520 0.882029 0.297356
vn -0.561638 0.826377 -0.040799
vn -0.645644 0.762191 -0.046998
vn -0.365520 0.882029 0.297356
vn -0.645644 0.762191 -0.046998
vn -0.604613 0.792147 0.083344
vn -0.604613 0.792147 0.083344
vn -0.645644 0.762191 -0.046998
vn -0.727817 0.685530 0.018195
vn -0.604613 0.792147 0.083344
vn -0.727817 0.685530 0.018195
vn -0.884227 0.451497 0.119556
vn -0.884227 0.451497 0.119556
vn -0.727817 0.685530 0.018195
vn -0.923537 0.372423 0.091546
vn -0.884227 0.451497 0.119556
vn -0.923537 0.372423 0.091546
vn -0.905946 0.391504 0.161206
vn -0.905946 0.391504 0.161206
vn -0.923537 0.372423 0.091546
vn -0.891863 0.162667 -0.422043
vn -0.905946 0.391504 0.161206
vn -0.891863 0.162667 -0.422043
vn -0.930986 0.313418 0.187176
vn -0.930986 0.313418 0.187176
vn -0.891863 0.162667 -0.422043
vn -0.827679 -0.316481 -0.463452
vn -0.930986 0.313418 0.187176
vn -0.827679 -0.316481 -0.463452
vn -0.780240 -0.478606 0.402693
vn -0.780240 -0.478606 0.402693
vn -0.827679 -0.316481 -0.463452
vn -0.625741 -0.697377 -0.349447
vn -0.780240 -0.478606 0.402693
vn -0.625741 -0.697377 -0.349447
vn -0.733309 -0.576131 0.361014
vn -0.733309 -0.576131 0.361014
vn -0.625741 -0.697377 -0.349447
vn -0.693185 -0.566744 -0.445304
vn -0.733309 -0.576131 0.361014
vn -0.693185 -0.566744 -0.445304
vn -0.503025 -0.734880 0.454881
vn -0.503025 -0.734880 0.454881
vn -0.693185 -0.566744 -0.445304
vn -0.356130 -0.909549 -0.214225
vn -0.503025 -0.734880 0.454881
vn -0.356130 -0.909549 -0.214225
vn -0.385835 -0.866087 0.317843
vn -0.385835 -0.866087 0.317843
vn -0.356130 -0.909549 -0.214225
vn -0.236283 -0.966485 0.100380
vn -0.385835 -0.866087 0.317843
vn -0.236283 -0.966485 0.100380
vn -0.157650 -0.987484 0.004593
vn -0.157650 -0.987484 0.004593
vn -0.236283 -0.966485 0.100380
vn 0.241108 -0.954344 0.176334
vn -0.157650 -0.987484 0.004593
vn 0.241108 -0.954344 0.176334
vn 0.103051 -0.993885 0.039658
vn 0.103051 -0.993885 0.039658
vn 0.241108 -0.954344 0.176334
vn 0.486427 -0.870284 -0.077424
vn 0.103051 -0.993885 0.039658
vn 0.486427 -0.870284 -0.077424
vn 0.454272 -0.885566 0.097007
vn 0.454272 -0.885566 0.097007
vn 0.486427 -0.870284 -0.077424
vn 0.552534 -0.816711 -0.166399
vn 0.454272 -0.885566 0.097007
vn 0.552534 -0.816711 -0.166399
vn 0.700628 -0.710567 0.064921
vn 0.700628 -0.710567 0.064921
vn 0.552534 -0.816711 -0.166399
vn 0.906521 -0.402963 0.125859
vn 0.700628 -0.710567 0.064921
vn 0.906521 -0.402963 0.125859
vn 0.841987 -0.531093 -0.094864
vn 0.841987 -0.531093 -0.094864
vn 0.906521 -0.402963 0.125859
vn 0.886788 -0.459364 -0.050903
vn 0.841987 -0.531093 -0.094864
vn 0.886788 -0.459364 -0.050903
vn 0.803851 -0.536347 -0.257207
vn 0.803851 -0.536347 -0.257207
vn 0.886788 -0.459364 -0.050903
vn 0.914522 -0.396006 -0.082640
vn 0.803851 -0.536347 -0.257207
vn 0.914522 -0.396006 -0.082640
vn 0.972873 -0.172690 0.153935
vn 0.914522 -0.396006 -0.082640
vn 0.748030 -0.344337 -0.567348
vn 0.606453 0.396592 -0.689151
vn 0.914522 -0.396006 -0.082640
vn 0.606453 0.396592 -0.689151
vn 0.914487 0.359409 -0.185847
vn 0.914487 0.359409 -0.185847
vn 0.606453 0.396592 -0.689151
vn 0.584993 0.517684 -0.624329
vn 0.914487 0.359409 -0.185847
vn 0.584993 0.517684 -0.624329
vn 0.705954 0.565259 -0.426745
vn 0.705954 0.565259 -0.426745
vn 0.584993 0.517684 -0.624329
vn 0.652684 0.392597 -0.647975
vn 0.705954 0.565259 -0.426745
vn 0.652684 0.392597 -0.647975
vn 0.436987 0.894196 -0.097244
vn 0.436987 0.894196 -0.097244
vn 0.652684 0.392597 -0.647975
vn 0.523339 0.773409 -0.357707
vn 0.436987 0.894196 -0.097244
vn 0.523339 0.773409 -0.357707
vn 0.591699 0.778256 -0.210262
vn 0.591699 0.778256 -0.210262
vn 0.523339 0.773409 -0.357707
vn 0.169733 0.876883 -0.449741
vn 0.591699 0.778256 -0.210262
vn 0.169733 0.876883 -0.449741
vn 0.053993 0.992801 -0.106914
vn 0.053993 0.992801 -0.106914
vn 0.169733 0.876883 -0.449741
vn -0.545608 0.723782 -0.422435
vn 0.053993 0.992801 -0.106914
vn -0.545608 0.723782 -0.422435
vn -0.315061 0.947579 -0.053201
vn -0.315061 0.947579 -0.053201
vn -0.545608 0.723782 -0.422435
vn -0.239961 0.780556 -0.577193
vn -0.315061 0.947579 -0.053201
vn -0.239961 0.780556 -0.577193
vn -0.561638 0.826377 -0.040799
vn -0.561638 0.826377 -0.040799
vn -0.239961 0.780556 -0.577193
vn -0.477809 0.846293 -0.235557
vn -0.561638 0.826377 -0.040799
vn -0.477809 0.846293 -0.235557
vn -0.645644 0.762191 -0.046998
vn -0.645644 0.762191 -0.046998
vn -0.477809 0.846293 -0.235557
vn -0.693994 0.705723 -0.142573
vn -0.645644 0.762191 -0.046998
vn -0.693994 0.705723 -0.142573
vn -0.727817 0.685530 0.018195
vn -0.727817 0.685530 0.018195
vn -0.693994 0.705723 -0.142573
vn -0.967724 0.098538 -0.231950
vn -0.727817 0.685530 0.018195
vn -0.967724 0.098538 -0.231950
vn -0.923537 0.372423 0.091546
vn -0.923537 0.372423 0.091546
vn -0.967724 0.098538 -0.231950
vn -0.791798 -0.427643 -0.436093
vn -0.923537 0.372423 0.091546
vn -0.791798 -0.427643 -0.436093
vn -0.891863 0.162667 -0.422043
vn -0.891863 0.162667 -0.422043
vn -0.791798 -0.427643 -0.436093
vn -0.706931 -0.102878 -0.699760
vn -0.891863 0.162667 -0.422043
vn -0.706931 -0.102878 -0.699760
vn -0.827679 -0.316481 -0.463452
vn -0.827679 -0.316481 -0.463452
vn -0.706931 -0.102878 -0.699760
vn -0.575406 -0.588383 -0.568079
vn -0.827679 -0.316481 -0.463452
vn -0.575406 -0.588383 -0.568079
vn -0.625741 -0.697377 -0.349447
vn -0.625741 -0.697377 -0.349447
vn -0.575406 -0.588383 -0.568079
vn -0.711307 -0.424536 -0.560189
vn -0.625741 -0.697377 -0.349447
vn -0.711307 -0.424536 -0.560189
vn -0.693185 -0.566744 -0.445304
vn -0.693185 -0.566744 -0.445304
vn -0.711307 -0.424536 -0.560189
vn -0.317301 -0.828069 -0.462193
vn -0.693185 -0.566744 -0.445304
vn -0.317301 -0.828069 -0.462193
vn -0.356130 -0.909549 -0.214225
vn -0.356130 -0.909549 -0.214225
vn -0.317301 -0.828069 -0.462193
vn -0.374488 -0.706934 -0.600002
vn -0.356130 -0.909549 -0.214225
vn -0.374488 -0.706934 -0.600002
vn -0.236283 -0.966485 0.100380
vn -0.236283 -0.966485 0.100380
vn -0.374488 -0.706934 -0.600002
vn 0.187167 -0.856522 -0.480977
vn -0.236283 -0.966485 0.100380
vn 0.187167 -0.856522 -0.480977
vn 0.241108 -0.954344 0.176334
vn 0.241108 -0.954344 0.176334
vn 0.187167 -0.856522 -0.480977
vn 0.517245 -0.791480 -0.325601
vn 0.241108 -0.954344 0.176334
vn 0.517245 -0.791480 -0.325601
vn 0.486427 -0.870284 -0.077424
vn 0.486427 -0.870284 -0.077424
vn 0.517245 -0.791480 -0.325601
vn 0.736365 -0.613678 -0.284894
vn 0.486427 -0.870284 -0.077424
vn 0.736365 -0.613678 -0.284894
vn 0.552534 -0.816711 -0.166399
vn 0.552534 -0.816711 -0.166399
vn 0.736365 -0.613678 -0.284894
vn 0.559702 -0.484588 -0.672241
vn 0.552534 -0.816711 -0.166399
vn 0.559702 -0.484588 -0.672241
vn 0.906521 -0.402963 0.125859
vn 0.906521 -0.402963 0.125859
vn 0.559702 -0.484588 -0.672241
vn 0.834597 -0.289325 -0.468763
vn 0.906521 -0.402963 0.125859
vn 0.834597 -0.289325 -0.468763
vn 0.886788 -0.459364 -0.050903
vn 0.886788 -0.459364 -0.050903
vn 0.834597 -0.289325 -0.468763
vn 0.748030 -0.344337 -0.567348
vn 0.886788 -0.459364 -0.050903
vn 0.748030 -0.344337 -0.567348
vn 0.914522 -0.396006 -0.082640
vn 0.748030 -0.344337 -0.567348
vn 0.599995 -0.113136 -0.791963
vn 0.647847 0.197291 -0.735779
vn 0.748030 -0.344337 -0.567348
vn 0.647847 0.197291 -0.735779
vn 0.606453 0.396592 -0.689151
vn 0.606453 0.396592 -0.689151
vn 0.647847 0.197291 -0.735779
vn 0.528914 0.711803 -0.462154
vn 0.606453 0.396592 -0.689151
vn 0.528914 0.711803 -0.462154
vn 0.584993 0.517684 -0.624329
vn 0.584993 0.517684 -0.624329
vn 0.528914 0.711803 -0.462154
vn 0.692032 0.326710 -0.643702
vn 0.584993 0.517684 -0.624329
vn 0.692032 0.326710 -0.643702
vn 0.652684 0.392597 -0.647975
vn 0.652684 0.392597 -0.647975
vn 0.692032 0.326710 -0.643702
vn 0.524417 0.434160 -0.732456
vn 0.652684 0.392597 -0.647975
vn 0.524417 0.434160 -0.732456
vn 0.523339 0.773409 -0.357707
vn 0.523339 0.773409 -0.357707
vn 0.524417 0.434160 -0.732456
vn 0.336573 0.613816 -0.714107
vn 0.523339 0.773409 -0.357707
vn 0.336573 0.613816 -0.714107
vn 0.169733 0.876883 -0.449741
vn 0.169733 0.876883 -0.449741
vn 0.336573 0.613816 -0.714107
vn -0.615438 0.611140 -0.497739
vn 0.169733 0.876883 -0.449741
vn -0.615438 0.611140 -0.497739
vn -0.545608 0.723782 -0.422435
vn -0.545608 0.723782 -0.422435
vn -0.615438 0.611140 -0.497739
vn -0.180016 0.713280 -0.677367
vn -0.545608 0.723782 -0.422435
vn -0.180016 0.713280 -0.677367
vn -0.239961 0.780556 -0.577193
vn -0.239961 0.780556 -0.577193
vn -0.180016 0.713280 -0.677367
vn -0.152709 0.757180 -0.635105
vn -0.239961 0.780556 -0.577193
vn -0.152709 0.757180 -0.635105
vn -0.477809 0.846293 -0.235557
vn -0.477809 0.846293 -0.235557
vn -0.152709 0.757180 -0.635105
vn -0.422379 0.538462 -0.729147
vn -0.477809 0.846293 -0.235557
vn -0.422379 0.538462 -0.729147
vn -0.693994 0.705723 -0.142573
vn -0.693994 0.705723 -0.142573
vn -0.422379 0.538462 -0.729147
vn -0.691973 0.228291 -0.684877
vn -0.693994 0.705723 -0.142573
vn -0.691973 0.228291 -0.684877
vn -0.967724 0.098538 -0.231950
vn -0.967724 0.098538 -0.231950
vn -0.691973 0.228291 -0.684877
vn -0.756630 -0.559421 -0.338465
vn -0.967724 0.098538 -0.231950
vn -0.756630 -0.559421 -0.338465
vn -0.791798 -0.427643 -0.436093
vn -0.791798 -0.427643 -0.436093
vn -0.756630 -0.559421 -0.338465
vn -0.881117 -0.177778 -0.438211
vn -0.791798 -0.427643 -0.436093
vn -0.881117 -0.177778 -0.438211
vn -0.706931 -0.102878 -0.699760
vn -0.706931 -0.102878 -0.699760
vn -0.881117 -0.177778 -0.438211
vn -0.753554 -0.524043 -0.396908
vn -0.706931 -0.102878 -0.699760
vn -0.753554 -0.524043 -0.396908
vn -0.575406 -0.588383 -0.568079
vn -0.575406 -0.588383 -0.568079
vn -0.753554 -0.524043 -0.396908
vn -0.673378 -0.629811 -0.387171
vn -0.575406 -0.588383 -0.568079
vn -0.673378 -0.629811 -0.387171
vn -0.711307 -0.424536 -0.560189
vn -0.711307 -0.424536 -0.560189
vn -0.673378 -0.629811 -0.387171
vn -0.307435 -0.671657 -0.674063
vn -0.711307 -0.424536 -0.560189
vn -0.307435 -0.671657 -0.674063
vn -0.317301 -0.828069 -0.462193
vn -0.317301 -0.828069 -0.462193
vn -0.307435 -0.671657 -0.674063
vn -0.232584 -0.791721 -0.564874
vn -0.317301 -0.828069 -0.462193
vn -0.232584 -0.791721 -0.564874
vn -0.374488 -0.706934 -0.600002
vn -0.374488 -0.706934 -0.600002
vn -0.232584 -0.791721 -0.564874
vn -0.142849 -0.806717 -0.573412
vn -0.374488 -0.706934 -0.600002
vn -0.142849 -0.806717 -0.573412
vn 0.187167 -0.856522 -0.480977
vn 0.187167 -0.856522 -0.480977
vn -0.142849 -0.806717 -0.573412
vn 0.466659 -0.609049 -0.641318
vn 0.187167 -0.856522 -0.480977
vn 0.466659 -0.609049 -0.641318
vn 0.517245 -0.791480 -0.325601
vn 0.517245 -0.791480 -0.325601
vn 0.466659 -0.609049 -0.641318
vn 0.546694 -0.453900 -0.703634
vn 0.517245 -0.791480 -0.325601
vn 0.546694 -0.453900 -0.703634
vn 0.736365 -0.613678 -0.284894
vn 0.736365 -0.613678 -0.284894
vn 0.546694 -0.453900 -0.703634
vn 0.769230 -0.389357 -0.506642
vn 0.736365 -0.613678 -0.284894
vn 0.769230 -0.389357 -0.506642
vn 0.559702 -0.484588 -0.672241
vn 0.559702 -0.484588 -0.672241
vn 0.769230 -0.389357 -0.506642
vn 0.814317 -0.168030 -0.555565
vn 0.559702 -0.484588 -0.672241
vn 0.814317 -0.168030 -0.555565
vn 0.834597 -0.289325 -0.468763
vn 0.834597 -0.289325 -0.468763
vn 0.814317 -0.168030 -0.555565
vn 0.599995 -0.113136 -0.791963
vn 0.834597 -0.289325 -0.468763
vn 0.599995 -0.113136 -0.791963
vn 0.748030 -0.344337 -0.567348
vn 0.599995 -0.113136 -0.791963
vn 0.423805 0.238778 -0.873713
vn 0.407392 -0.042928 -0.912244
vn 0.599995 -0.113136 -0.791963
vn 0.407392 -0.042928 -0.912244
vn 0.647847 0.197291 -0.735779
vn 0.647847 0.197291 -0.735779
vn 0.407392 -0.042928 -0.912244
vn 0.694456 0.094865 -0.713254
vn 0.647847 0.197291 -0.735779
vn 0.694456 0.094865 -0.713254
vn 0.528914 0.711803 -0.462154
vn 0.528914 0.711803 -0.462154
vn 0.694456 0.094865 -0.713254
vn 0.445499 0.714986 -0.538819
vn 0.528914 0.711803 -0.462154
vn 0.445499 0.714986 -0.538819
vn 0.692032 0.326710 -0.643702
vn 0.692032 0.326710 -0.643702
vn 0.445499 0.714986 -0.538819
vn 0.399323 0.530076 -0.748037
vn 0.692032 0.326710 -0.643702
vn 0.399323 0.530076 -0.748037
vn 0.524417 0.434160 -0.732456
vn 0.524417 0.434160 -0.732456
vn 0.399323 0.530076 -0.748037
vn 0.515404 0.333028 -0.789589
vn 0.524417 0.434160 -0.732456
vn 0.515404 0.333028 -0.789589
vn 0.336573 0.613816 -0.714107
vn 0.336573 0.613816 -0.714107
vn 0.515404 0.333028 -0.789589
vn -0.482370 0.357100 -0.799875
vn 0.336573 0.613816 -0.714107
vn -0.482370 0.357100 -0.799875
vn -0.615438 0.611140 -0.497739
vn -0.615438 0.611140 -0.497739
vn -0.482370 0.357100 -0.799875
vn -0.244546 0.647074 -0.722145
vn -0.615438 0.611140 -0.497739
vn -0.244546 0.647074 -0.722145
vn -0.180016 0.713280 -0.677367
vn -0.180016 0.713280 -0.677367
vn -0.244546 0.647074 -0.722145
vn -0.083651 0.513616 -0.853933
vn -0.180016 0.713280 -0.677367
vn -0.083651 0.513616 -0.853933
vn -0.152709 0.757180 -0.635105
vn -0.152709 0.757180 -0.635105
vn -0.083651 0.513616 -0.853933
vn -0.205223 0.347356 -0.915002
vn -0.152709 0.757180 -0.635105
vn -0.205223 0.347356 -0.915002
vn -0.422379 0.538462 -0.729147
vn -0.422379 0.538462 -0.729147
vn -0.205223 0.347356 -0.915002
vn -0.227265 0.271123 -0.935330
vn -0.422379 0.538462 -0.729147
vn -0.227265 0.271123 -0.935330
vn -0.691973 0.228291 -0.684877
vn -0.691973 0.228291 -0.684877
vn -0.227265 0.271123 -0.935330
vn -0.317734 -0.149712 -0.936286
vn -0.691973 0.228291 -0.684877
vn -0.317734 -0.149712 -0.936286
vn -0.756630 -0.559421 -0.338465
vn -0.756630 -0.559421 -0.338465
vn -0.317734 -0.149712 -0.936286
vn -0.495318 -0.564781 -0.660062
vn -0.756630 -0.559421 -0.338465
vn -0.495318 -0.564781 -0.660062
vn -0.881117 -0.177778 -0.438211
vn -0.881117 -0.177778 -0.438211
vn -0.495318 -0.564781 -0.660062
vn -0.406321 -0.057418 -0.911924
vn -0.881117 -0.177778 -0.438211
vn -0.406321 -0.057418 -0.911924
vn -0.753554 -0.524043 -0.396908
vn -0.753554 -0.524043 -0.396908
vn -0.406321 -0.057418 -0.911924
vn -0.382445 -0.488828 -0.784081
vn -0.753554 -0.524043 -0.396908
vn -0.382445 -0.488828 -0.784081
vn -0.673378 -0.629811 -0.387171
vn -0.673378 -0.629811 -0.387171
vn -0.382445 -0.488828 -0.784081
vn 0.053726 -0.573723 -0.817285
vn -0.673378 -0.629811 -0.387171
vn 0.053726 -0.573723 -0.817285
vn -0.307435 -0.671657 -0.674063
vn -0.307435 -0.671657 -0.674063
vn 0.053726 -0.573723 -0.817285
vn -0.206339 -0.586858 -0.782957
vn -0.307435 -0.671657 -0.674063
vn -0.206339 -0.586858 -0.782957
vn -0.232584 -0.791721 -0.564874
vn -0.232584 -0.791721 -0.564874
vn -0.206339 -0.586858 -0.782957
vn -0.566550 -0.447679 -0.691813
vn -0.232584 -0.791721 -0.564874
vn -0.566550 -0.447679 -0.691813
vn -0.142849 -0.806717 -0.573412
vn -0.142849 -0.806717 -0.573412
vn -0.566550 -0.447679 -0.691813
vn 0.598978 -0.427677 -0.676991
vn -0.142849 -0.806717 -0.573412
vn 0.598978 -0.427677 -0.676991
vn 0.466659 -0.609049 -0.641318
vn 0.466659 -0.609049 -0.641318
vn 0.598978 -0.427677 -0.676991
vn 0.664552 -0.219690 -0.714218
vn 0.466659 -0.609049 -0.641318
vn 0.664552 -0.219690 -0.714218
vn 0.546694 -0.453900 -0.703634
vn 0.546694 -0.453900 -0.703634
vn 0.664552 -0.219690 -0.714218
vn 0.375365 -0.311147 -0.873091
vn 0.546694 -0.453900 -0.703634
vn 0.375365 -0.311147 -0.873091
vn 0.769230 -0.389357 -0.506642
vn 0.769230 -0.389357 -0.506642
vn 0.375365 -0.311147 -0.873091
vn 0.446370 0.041288 -0.893895
vn 0.769230 -0.389357 -0.506642
vn 0.446370 0.041288 -0.893895
vn 0.814317 -0.168030 -0.555565
vn 0.814317 -0.168030 -0.555565
vn 0.446370 0.041288 -0.893895
vn 0.423805 0.238778 -0.873713
vn 0.814317 -0.168030 -0.555565
vn 0.423805 0.238778 -0.873713
vn 0.599995 -0.113136 -0.791963
vn 0.423805 0.238778 -0.873713
vn 0.285175 0.458929 -0.841463
vn 0.333045 0.207869 -0.919713
vn 0.423805 0.238778 -0.873713
vn 0.333045 0.207869 -0.919713
vn 0.407392 -0.042928 -0.912244
vn 0.407392 -0.042928 -0.912244
vn 0.333045 0.207869 -0.919713
vn 0.492439 -0.449699 -0.745168
vn 0.407392 -0.042928 -0.912244
vn 0.492439 -0.449699 -0.745168
vn 0.694456 0.094865 -0.713254
vn 0.694456 0.094865 -0.713254
vn 0.492439 -0.449699 -0.745168
vn 0.405693 0.129908 -0.904731
vn 0.694456 0.094865 -0.713254
vn 0.405693 0.129908 -0.904731
vn 0.445499 0.714986 -0.538819
vn 0.445499 0.714986 -0.538819
vn 0.405693 0.129908 -0.904731
vn -0.113432 0.585592 -0.802630
vn 0.445499 0.714986 -0.538819
vn -0.113432 0.585592 -0.802630
vn 0.399323 0.530076 -0.748037
vn 0.399323 0.530076 -0.748037
vn -0.113432 0.585592 -0.802630
vn 0.025223 0.448491 -0.893431
vn 0.399323 0.530076 -0.748037
vn 0.025223 0.448491 -0.893431
vn 0.515404 0.333028 -0.789589
vn 0.515404 0.333028 -0.789589
vn 0.025223 0.448491 -0.893431
vn -0.020327 0.127478 -0.991633
vn 0.515404 0.333028 -0.789589
vn -0.020327 0.127478 -0.991633
vn -0.482370 0.357100 -0.799875
vn -0.482370 0.357100 -0.799875
vn -0.020327 0.127478 -0.991633
vn -0.563810 0.340545 -0.752428
vn -0.482370 0.357100 -0.799875
vn -0.563810 0.340545 -0.752428
vn -0.244546 0.647074 -0.722145
vn -0.244546 0.647074 -0.722145
vn -0.563810 0.340545 -0.752428
vn 0.207403 0.468359 -0.858851
vn -0.244546 0.647074 -0.722145
vn 0.207403 0.468359 -0.858851
vn -0.083651 0.513616 -0.853933
vn -0.083651 0.513616 -0.853933
vn 0.207403 0.468359 -0.858851
vn -0.451503 0.074320 -0.889169
vn -0.083651 0.513616 -0.853933
vn -0.451503 0.074320 -0.889169
vn -0.205223 0.347356 -0.915002
vn -0.205223 0.347356 -0.915002
vn -0.451503 0.074320 -0.889169
vn -0.238357 0.095344 -0.966486
vn -0.205223 0.347356 -0.915002
vn -0.238357 0.095344 -0.966486
vn -0.227265 0.271123 -0.935330
vn -0.227265 0.271123 -0.935330
vn -0.238357 0.095344 -0.966486
vn -0.190428 -0.115953 -0.974829
vn -0.227265 0.271123 -0.935330
vn -0.190428 -0.115953 -0.974829
vn -0.317734 -0.149712 -0.936286
vn -0.317734 -0.149712 -0.936286
vn -0.190428 -0.115953 -0.974829
vn -0.160117 -0.525777 -0.835417
vn -0.317734 -0.149712 -0.936286
vn -0.160117 -0.525777 -0.835417
vn -0.495318 -0.564781 -0.660062
vn -0.495318 -0.564781 -0.660062
vn -0.160117 -0.525777 -0.835417
vn -0.028760 -0.564563 -0.824889
vn -0.495318 -0.564781 -0.660062
vn -0.028760 -0.564563 -0.824889
vn -0.406321 -0.057418 -0.911924
vn -0.406321 -0.057418 -0.911924
vn -0.028760 -0.564563 -0.824889
vn -0.227219 -0.181293 -0.956820
vn -0.406321 -0.057418 -0.911924
vn -0.227219 -0.181293 -0.956820
vn -0.382445 -0.488828 -0.784081
vn -0.382445 -0.488828 -0.784081
vn -0.227219 -0.181293 -0.956820
vn -0.196307 -0.121730 -0.972957
vn -0.382445 -0.488828 -0.784081
vn -0.196307 -0.121730 -0.972957
vn 0.053726 -0.573723 -0.817285
vn 0.053726 -0.573723 -0.817285
vn -0.196307 -0.121730 -0.972957
vn -0.021156 -0.591927 -0.805714
vn 0.053726 -0.573723 -0.817285
vn -0.021156 -0.591927 -0.805714
vn -0.206339 -0.586858 -0.782957
vn -0.206339 -0.586858 -0.782957
vn -0.021156 -0.591927 -0.805714
vn -0.729504 -0.240887 -0.640154
vn -0.206339 -0.586858 -0.782957
vn -0.729504 -0.240887 -0.640154
vn -0.566550 -0.447679 -0.691813
vn -0.566550 -0.447679 -0.691813
vn -0.729504 -0.240887 -0.640154
vn -0.036575 -0.162374 -0.986051
vn -0.566550 -0.447679 -0.691813
vn -0.036575 -0.162374 -0.986051
vn 0.598978 -0.427677 -0.676991
vn 0.598978 -0.427677 -0.676991
vn -0.036575 -0.162374 -0.986051
vn 0.683946 0.169538 -0.709559
vn 0.598978 -0.427677 -0.676991
vn 0.683946 0.169538 -0.709559
vn 0.664552 -0.219690 -0.714218
vn 0.664552 -0.219690 -0.714218
vn 0.683946 0.169538 -0.709559
vn 0.720577 0.257653 -0.643727
vn 0.664552 -0.219690 -0.714218
vn 0.720577 0.257653 -0.643727
vn 0.375365 -0.311147 -0.873091
vn 0.375365 -0.311147 -0.873091
vn 0.720577 0.257653 -0.643727
vn 0.385762 0.325426 -0.863299
vn 0.375365 -0.311147 -0.873091
vn 0.385762 0.325426 -0.863299
vn 0.446370 0.041288 -0.893895
vn 0.446370 0.041288 -0.893895
vn 0.385762 0.325426 -0.863299
vn 0.285175 0.458929 -0.841463
vn 0.446370 0.041288 -0.893895
vn 0.285175 0.458929 -0.841463
vn 0.423805 0.238778 -0.873713
vn 0.017699 0.011242 -0.999780
vn 0.333045 0.207869 -0.919713
vn 0.285175 0.458929 -0.841463
vn 0.017699 0.011242 -0.999780
vn 0.492439 -0.449699 -0.745168
vn 0.333045 0.207869 -0.919713
vn 0.017699 0.011242 -0.999780
vn 0.405693 0.129908 -0.904731
vn 0.492439 -0.449699 -0.745168
vn 0.017699 0.011242 -0.999780
vn -0.113432 0.585592 -0.802630
vn 0.405693 0.129908 -0.904731
vn 0.017699 0.011242 -0.999780
vn 0.025223 0.448491 -0.893431
vn -0.113432 0.585592 -0.802630
vn 0.017699 0.011242 -0.999780
vn -0.020327 0.127478 -0.991633
vn 0.025223 0.448491 -0.893431
vn 0.017699 0.011242 -0.999780
vn -0.563810 0.340545 -0.752428
vn -0.020327 0.127478 -0.991633
vn 0.017699 0.011242 -0.999780
vn 0.207403 0.468359 -0.858851
vn -0.563810 0.340545 -0.752428
vn 0.017699 0.011242 -0.999780
vn -0.451503 0.074320 -0.889169
vn 0.207403 0.468359 -0.858851
vn 0.017699 0.011242 -0.999780
vn -0.238357 0.095344 -0.966486
vn -0.451503 0.074320 -0.889169
vn 0.017699 0.011242 -0.999780
vn -0.190428 -0.115953 -0.974829
vn -0.238357 0.095344 -0.966486
vn 0.017699 0.011242 -0.999780
vn -0.160117 -0.525777 -0.835417
vn -0.190428 -0.115953 -0.974829
vn 0.017699 0.011242 -0.999780
vn -0.028760 -0.564563 -0.824889
vn -0.160117 -0.525777 -0.835417
vn 0.017699 0.011242 -0.999780
vn -0.227219 -0.181293 -0.956820
vn -0.028760 -0.564563 -0.824889
vn 0.017699 0.011242 -0.999780
vn -0.196307 -0.121730 -0.972957
vn -0.227219 -0.181293 -0.956820
vn 0.017699 0.011242 -0.999780
vn -0.021156 -0.591927 -0.805714
vn -0.196307 -0.121730 -0.972957
vn 0.017699 0.011242 -0.999780
vn -0.729504 -0.240887 -0.640154
vn -0.021156 -0.591927 -0.805714
vn 0.017699 0.011242 -0.999780
vn -0.036575 -0.162374 -0.986051
vn -0.729504 -0.240887 -0.640154
vn 0.017699 0.011242 -0.999780
vn 0.683946 0.169538 -0.709559
vn -0.036575 -0.162374 -0.986051
vn 0.017699 0.011242 -0.999780
vn 0.720577 0.257653 -0.643727
vn 0.683946 0.169538 -0.709559
vn 0.017699 0.011242 -0.999780
vn 0.385762 0.325426 -0.863299
vn 0.720577 0.257653 -0.643727
vn 0.017699 0.011242 -0.999780
vn 0.285175 0.458929 -0.841463
vn 0.385762 0.325426 -0.863299
usemtl M_Rock
f 1/1/1 2/2/2 3/3/3
f 1/1/4 3/2/5 4/3/6
f 1/1/7 4/2/8 5/3/9
f 1/1/10 5/2/11 6/3/12
f 1/1/13 6/2/14 7/3/15
f 1/1/16 7/2/17 8/3/18
f 1/1/19 8/2/20 9/3/21
f 1/1/22 9/2/23 10/3/24
f 1/1/25 10/2/26 11/3/27
f 1/1/28 11/2/29 12/3/30
f 1/1/31 12/2/32 13/3/33
f 1/1/34 13/2/35 14/3/36
f 1/1/37 14/2/38 15/3/39
f 1/1/40 15/2/41 16/3/42
f 1/1/43 16/2/44 17/3/45
f 1/1/46 17/2/47 18/3/48
f 1/1/49 18/2/50 19/3/51
f 1/1/52 19/2/53 20/3/54
f 1/1/55 20/2/56 21/3/57
f 1/1/58 21/2/59 22/3/60
f 1/1/61 22/2/62 23/3/63
f 1/1/64 23/2/65 2/3/66
f 2/1/67 24/2/68 25/3/69
f 2/1/70 25/2/71 3/3/72
f 3/1/73 25/2/74 26/3/75
f 3/1/76 26/2/77 4/3/78
f 4/1/79 26/2/80 27/3/81
f 4/1/82 27/2/83 5/3/84
f 5/1/85 27/2/86 28/3/87
f 5/1/88 28/2/89 6/3/90
f 6/1/91 28/2/92 29/3/93
f 6/1/94 29/2/95 7/3/96
f 7/1/97 29/2/98 30/3/99
f 7/1/100 30/2/101 8/3/102
f 8/1/103 30/2/104 31/3/105
f 8/1/106 31/2/107 9/3/108
f 9/1/109 31/2/110 32/3/111
f 9/1/112 32/2/113 10/3/114
f 10/1/115 32/2/116 33/3/117
f 10/1/118 33/2/119 11/3/120
f 11/1/121 33/2/122 34/3/123
f 11/1/124 34/2/125 12/3/126
f 12/1/127 34/2/128 35/3/129
f 12/1/130 35/2/131 13/3/132
f 13/1/133 35/2/134 36/3/135
f 13/1/136 36/2/137 14/3/138
f 14/1/139 36/2/140 37/3/141
f 14/1/142 37/2/143 15/3/144
f 15/1/145 37/2/146 38/3/147
f 15/1/148 38/2/149 16/3/150
f 16/1/151 38/2/152 39/3/153
f 16/1/154 39/2/155 17/3/156
f 17/1/157 39/2/158 40/3/159
f 17/1/160 40/2/161 18/3/162
f 18/1/163 40/2/164 41/3/165
f 18/1/166 41/2/167 19/3/168
f 19/1/169 41/2/170 42/3/171
f 19/1/172 42/2/173 20/3/174
f 20/1/175 42/2/176 43/3/177
f 20/1/178 43/2/179 21/3/180
f 21/1/181 43/2/182 44/3/183
f 21/1/184 44/2/185 22/3/186
f 22/1/187 44/2/188 45/3/189
f 22/1/190 45/2/191 23/3/192
f 23/1/193 45/2/194 24/3/195
f 23/1/196 24/2/197 2/3/198
f 24/1/199 46/2/200 47/3/201
f 24/1/202 47/2/203 25/3/204
f 25/1/205 47/2/206 48/3/207
f 25/1/208 48/2/209 26/3/210
f 26/1/211 48/2/212 49/3/213
f 26/1/214 49/2/215 27/3/216
f 27/1/217 49/2/218 50/3/219
f 27/1/220 50/2/221 28/3/222
f 28/1/223 50/2/224 51/3/225
f 28/1/226 51/2/227 29/3/228
f 29/1/229 51/2/230 52/3/231
f 29/1/232 52/2/233 30/3/234
f 30/1/235 52/2/236 53/3/237
f 30/1/238 53/2/239 31/3/240
f 31/1/241 53/2/242 54/3/243
f 31/1/244 54/2/245 32/3/246
f 32/1/247 54/2/248 55/3/249
f 32/1/250 55/2/251 33/3/252
f 33/1/253 55/2/254 56/3/255
f 33/1/256 56/2/257 34/3/258
f 34/1/259 56/2/260 57/3/261
f 34/1/262 57/2/263 35/3/264
f 35/1/265 57/2/266 58/3/267
f 35/1/268 58/2/269 36/3/270
f 36/1/271 58/2/272 59/3/273
f 36/1/274 59/2/275 37/3/276
f 37/1/277 59/2/278 60/3/279
f 37/1/280 60/2/281 38/3/282
f 38/1/283 60/2/284 61/3/285
f 38/1/286 61/2/287 39/3/288
f 39/1/289 61/2/290 62/3/291
f 39/1/292 62/2/293 40/3/294
f 40/1/295 62/2/296 63/3/297
f 40/1/298 63/2/299 41/3/300
f 41/1/301 63/2/302 64/3/303
f 41/1/304 64/2/305 42/3/306
f 42/1/307 64/2/308 65/3/309
f 42/1/310 65/2/311 43/3/312
f 43/1/313 65/2/314 66/3/315
f 43/1/316 66/2/317 44/3/318
f 44/1/319 66/2/320 67/3/321
f 44/1/322 67/2/323 45/3/324
f 45/1/325 67/2/326 46/3/327
f 45/1/328 46/2/329 24/3/330
f 46/1/331 68/2/332 69/3/333
f 46/1/334 69/2/335 47/3/336
f 47/1/337 69/2/338 70/3/339
f 47/1/340 70/2/341 48/3/342
f 48/1/343 70/2/344 71/3/345
f 48/1/346 71/2/347 49/3/348
f 49/1/349 71/2/350 72/3/351
f 49/1/352 72/2/353 50/3/354
f 50/1/355 72/2/356 73/3/357
f 50/1/358 73/2/359 51/3/360
f 51/1/361 73/2/362 74/3/363
f 51/1/364 74/2/365 52/3/366
f 52/1/367 74/2/368 75/3/369
f 52/1/370 75/2/371 53/3/372
f 53/1/373 75/2/374 76/3/375
f 53/1/376 76/2/377 54/3/378
f 54/1/379 76/2/380 77/3/381
f 54/1/382 77/2/383 55/3/384
f 55/1/385 77/2/386 78/3/387
f 55/1/388 78/2/389 56/3/390
f 56/1/391 78/2/392 79/3/393
f 56/1/394 79/2/395 57/3/396
f 57/1/397 79/2/398 80/3/399
f 57/1/400 80/2/401 58/3/402
f 58/1/403 80/2/404 81/3/405
f 58/1/406 81/2/407 59/3/408
f 59/1/409 81/2/410 82/3/411
f 59/1/412 82/2/413 60/3/414
f 60/1/415 82/2/416 83/3/417
f 60/1/418 83/2/419 61/3/420
f 61/1/421 83/2/422 84/3/423
f 61/1/424 84/2/425 62/3/426
f 62/1/427 84/2/428 85/3/429
f 62/1/430 85/2/431 63/3/432
f 63/1/433 85/2/434 86/3/435
f 63/1/436 86/2/437 64/3/438
f 64/1/439 86/2/440 87/3/441
f 64/1/442 87/2/443 65/3/444
f 65/1/445 87/2/446 88/3/447
f 65/1/448 88/2/449 66/3/450
f 66/1/451 88/2/452 89/3/453
f 66/1/454 89/2/455 67/3/456
f 67/1/457 89/2/458 68/3/459
f 67/1/460 68/2/461 46/3/462
f 68/1/463 90/2/464 91/3/465
f 68/1/466 91/2/467 69/3/468
f 69/1/469 91/2/470 92/3/471
f 69/1/472 92/2/473 70/3/474
f 70/1/475 92/2/476 93/3/477
f 70/1/478 93/2/479 71/3/480
f 71/1/481 93/2/482 94/3/483
f 71/1/484 94/2/485 72/3/486
f 72/1/487 94/2/488 95/3/489
f 72/1/490 95/2/491 73/3/492
f 73/1/493 95/2/494 96/3/495
f 73/1/496 96/2/497 74/3/498
f 74/1/499 96/2/500 97/3/501
f 74/1/502 97/2/503 75/3/504
f 75/1/505 97/2/506 98/3/507
f 75/1/508 98/2/509 76/3/510
f 76/1/511 98/2/512 99/3/513
f 76/1/514 99/2/515 77/3/516
f 77/1/517 99/2/518 100/3/519
f 77/1/520 100/2/521 78/3/522
f 78/1/523 100/2/524 101/3/525
f 78/1/526 101/2/527 79/3/528
f 79/1/529 101/2/530 102/3/531
f 79/1/532 102/2/533 80/3/534
f 80/1/535 102/2/536 103/3/537
f 80/1/538 103/2/539 81/3/540
f 81/1/541 103/2/542 104/3/543
f 81/1/544 104/2/545 82/3/546
f 82/1/547 104/2/548 105/3/549
f 82/1/550 105/2/551 83/3/552
f 83/1/553 105/2/554 106/3/555
f 83/1/556 106/2/557 84/3/558
f 84/1/559 106/2/560 107/3/561
f 84/1/562 107/2/563 85/3/564
f 85/1/565 107/2/566 108/3/567
f 85/1/568 108/2/569 86/3/570
f 86/1/571 108/2/572 109/3/573
f 86/1/574 109/2/575 87/3/576
f 87/1/577 109/2/578 110/3/579
f 87/1/580 110/2/581 88/3/582
f 88/1/583 110/2/584 111/3/585
f 88/1/586 111/2/587 89/3/588
f 89/1/589 111/2/590 90/3/591
f 89/1/592 90/2/593 68/3/594
f 90/1/595 112/2/596 113/3/597
f 90/1/598 113/2/599 91/3/600
f 91/1/601 113/2/602 114/3/603
f 91/1/604 114/2/605 92/3/606
f 92/1/607 114/2/608 115/3/609
f 92/1/610 115/2/611 93/3/612
f 93/1/613 115/2/614 116/3/615
f 93/1/616 116/2/617 94/3/618
f 94/1/619 116/2/620 117/3/621
f 94/1/622 117/2/623 95/3/624
f 95/1/625 117/2/626 118/3/627
f 95/1/628 118/2/629 96/3/630
f 96/1/631 118/2/632 119/3/633
f 96/1/634 119/2/635 97/3/636
f 97/1/637 119/2/638 120/3/639
f 97/1/640 120/2/641 98/3/642
f 98/1/643 120/2/644 121/3/645
f 98/1/646 121/2/647 99/3/648
f 99/1/649 121/2/650 122/3/651
f 99/1/652 122/2/653 100/3/654
f 100/1/655 122/2/656 123/3/657
f 100/1/658 123/2/659 101/3/660
f 101/1/661 123/2/662 124/3/663
f 101/1/664 124/2/665 102/3/666
f 102/1/667 124/2/668 125/3/669
f 102/1/670 125/2/671 103/3/672
f 103/1/673 125/2/674 126/3/675
f 103/1/676 126/2/677 104/3/678
f 104/1/679 126/2/680 127/3/681
f 104/1/682 127/2/683 105/3/684
f 105/1/685 127/2/686 128/3/687
f 105/1/688 128/2/689 106/3/690
f 106/1/691 128/2/692 129/3/693
f 106/1/694 129/2/695 107/3/696
f 107/1/697 129/2/698 130/3/699
f 107/1/700 130/2/701 108/3/702
f 108/1/703 130/2/704 131/3/705
f 108/1/706 131/2/707 109/3/708
f 109/1/709 131/2/710 132/3/711
f 109/1/712 132/2/713 110/3/714
f 110/1/715 132/2/716 133/3/717
f 110/1/718 133/2/719 111/3/720
f 111/1/721 133/2/722 112/3/723
f 111/1/724 112/2/725 90/3/726
f 112/1/727 134/2/728 135/3/729
f 112/1/730 135/2/731 113/3/732
f 113/1/733 135/2/734 136/3/735
f 113/1/736 136/2/737 114/3/738
f 114/1/739 136/2/740 137/3/741
f 114/1/742 137/2/743 115/3/744
f 115/1/745 137/2/746 138/3/747
f 115/1/748 138/2/749 116/3/750
f 116/1/751 138/2/752 139/3/753
f 116/1/754 139/2/755 117/3/756
f 117/1/757 139/2/758 140/3/759
f 117/1/760 140/2/761 118/3/762
f 118/1/763 140/2/764 141/3/765
f 118/1/766 141/2/767 119/3/768
f 119/1/769 141/2/770 142/3/771
f 119/1/772 142/2/773 120/3/774
f 120/1/775 142/2/776 143/3/777
f 120/1/778 143/2/779 121/3/780
f 121/1/781 143/2/782 144/3/783
f 121/1/784 144/2/785 122/3/786
f 122/1/787 144/2/788 145/3/789
f 122/1/790 145/2/791 123/3/792
f 123/1/793 145/2/794 146/3/795
f 123/1/796 146/2/797 124/3/798
f 124/1/799 146/2/800 147/3/801
f 124/1/802 147/2/803 125/3/804
f 125/1/805 147/2/806 148/3/807
f 125/1/808 148/2/809 126/3/810
f 126/1/811 148/2/812 149/3/813
f 126/1/814 149/2/815 127/3/816
f 127/1/817 149/2/818 150/3/819
f 127/1/820 150/2/821 128/3/822
f 128/1/823 150/2/824 151/3/825
f 128/1/826 151/2/827 129/3/828
f 129/1/829 151/2/830 152/3/831
f 129/1/832 152/2/833 130/3/834
f 130/1/835 152/2/836 153/3/837
f 130/1/838 153/2/839 131/3/840
f 131/1/841 153/2/842 154/3/843
f 131/1/844 154/2/845 132/3/846
f 132/1/847 154/2/848 155/3/849
f 132/1/850 155/2/851 133/3/852
f 133/1/853 155/2/854 134/3/855
f 133/1/856 134/2/857 112/3/858
f 134/1/859 156/2/860 157/3/861
f 134/1/862 157/2/863 135/3/864
f 135/1/865 157/2/866 158/3/867
f 135/1/868 158/2/869 136/3/870
f 136/1/871 158/2/872 159/3/873
f 136/1/874 159/2/875 137/3/876
f 137/1/877 159/2/878 160/3/879
f 137/1/880 160/2/881 138/3/882
f 138/1/883 160/2/884 161/3/885
f 138/1/886 161/2/887 139/3/888
f 139/1/889 161/2/890 162/3/891
f 139/1/892 162/2/893 140/3/894
f 140/1/895 162/2/896 163/3/897
f 140/1/898 163/2/899 141/3/900
f 141/1/901 163/2/902 164/3/903
f 141/1/904 164/2/905 142/3/906
f 142/1/907 164/2/908 165/3/909
f 142/1/910 165/2/911 143/3/912
f 143/1/913 165/2/914 166/3/915
f 143/1/916 166/2/917 144/3/918
f 144/1/919 166/2/920 167/3/921
f 144/1/922 167/2/923 145/3/924
f 145/1/925 167/2/926 168/3/927
f 145/1/928 168/2/929 146/3/930
f 146/1/931 168/2/932 169/3/933
f 146/1/934 169/2/935 147/3/936
f 147/1/937 169/2/938 170/3/939
f 147/1/940 170/2/941 148/3/942
f 148/1/943 170/2/944 171/3/945
f 148/1/946 171/2/947 149/3/948
f 149/1/949 171/2/950 172/3/951
f 149/1/952 172/2/953 150/3/954
f 150/1/955 172/2/956 173/3/957
f 150/1/958 173/2/959 151/3/960
f 151/1/961 173/2/962 174/3/963
f 151/1/964 174/2/965 152/3/966
f 152/1/967 174/2/968 175/3/969
f 152/1/970 175/2/971 153/3/972
f 153/1/973 175/2/974 176/3/975
f 153/1/976 176/2/977 154/3/978
f 154/1/979 176/2/980 177/3/981
f 154/1/982 177/2/983 155/3/984
f 155/1/985 177/2/986 156/3/987
f 155/1/988 156/2/989 134/3/990
f 156/1/991 178/2/992 179/3/993
f 156/1/994 179/2/995 157/3/996
f 157/1/997 179/2/998 180/3/999
f 157/1/1000 180/2/1001 158/3/1002
f 158/1/1003 180/2/1004 181/3/1005
f 158/1/1006 181/2/1007 159/3/1008
f 159/1/1009 181/2/1010 182/3/1011
f 159/1/1012 182/2/1013 160/3/1014
f 160/1/1015 182/2/1016 183/3/1017
f 160/1/1018 183/2/1019 161/3/1020
f 161/1/1021 183/2/1022 184/3/1023
f 161/1/1024 184/2/1025 162/3/1026
f 162/1/1027 184/2/1028 185/3/1029
f 162/1/1030 185/2/1031 163/3/1032
f 163/1/1033 185/2/1034 186/3/1035
f 163/1/1036 186/2/1037 164/3/1038
f 164/1/1039 186/2/1040 187/3/1041
f 164/1/1042 187/2/1043 165/3/1044
f 165/1/1045 187/2/1046 188/3/1047
f 165/1/1048 188/2/1049 166/3/1050
f 166/1/1051 188/2/1052 189/3/1053
f 166/1/1054 189/2/1055 167/3/1056
f 167/1/1057 189/2/1058 190/3/1059
f 167/1/1060 190/2/1061 168/3/1062
f 168/1/1063 190/2/1064 191/3/1065
f 168/1/1066 191/2/1067 169/3/1068
f 169/1/1069 191/2/1070 192/3/1071
f 169/1/1072 192/2/1073 170/3/1074
f 170/1/1075 192/2/1076 193/3/1077
f 170/1/1078 193/2/1079 171/3/1080
f 171/1/1081 193/2/1082 194/3/1083
f 171/1/1084 194/2/1085 172/3/1086
f 172/1/1087 194/2/1088 195/3/1089
f 172/1/1090 195/2/1091 173/3/1092
f 173/1/1093 195/2/1094 196/3/1095
f 173/1/1096 196/2/1097 174/3/1098
f 174/1/1099 196/2/1100 197/3/1101
f 174/1/1102 197/2/1103 175/3/1104
f 175/1/1105 197/2/1106 198/3/1107
f 175/1/1108 198/2/1109 176/3/1110
f 176/1/1111 198/2/1112 199/3/1113
f 176/1/1114 199/2/1115 177/3/1116
f 177/1/1117 199/2/1118 178/3/1119
f 177/1/1120 178/2/1121 156/3/1122
f 178/1/1123 200/2/1124 201/3/1125
f 178/1/1126 201/2/1127 179/3/1128
f 179/1/1129 201/2/1130 202/3/1131
f 179/1/1132 202/2/1133 180/3/1134
f 180/1/1135 202/2/1136 203/3/1137
f 180/1/1138 203/2/1139 181/3/1140
f 181/1/1141 203/2/1142 204/3/1143
f 181/1/1144 204/2/1145 182/3/1146
f 182/1/1147 204/2/1148 205/3/1149
f 182/1/1150 205/2/1151 183/3/1152
f 183/1/1153 205/2/1154 206/3/1155
f 183/1/1156 206/2/1157 184/3/1158
f 184/1/1159 206/2/1160 207/3/1161
f 184/1/1162 207/2/1163 185/3/1164
f 185/1/1165 207/2/1166 208/3/1167
f 185/1/1168 208/2/1169 186/3/1170
f 186/1/1171 208/2/1172 209/3/1173
f 186/1/1174 209/2/1175 187/3/1176
f 187/1/1177 209/2/1178 210/3/1179
f 187/1/1180 210/2/1181 188/3/1182
f 188/1/1183 210/2/1184 211/3/1185
f 188/1/1186 211/2/1187 189/3/1188
f 189/1/1189 211/2/1190 212/3/1191
f 189/1/1192 212/2/1193 190/3/1194
f 190/1/1195 212/2/1196 213/3/1197
f 190/1/1198 213/2/1199 191/3/1200
f 191/1/1201 213/2/1202 214/3/1203
f 191/1/1204 214/2/1205 192/3/1206
f 192/1/1207 214/2/1208 215/3/1209
f 192/1/1210 215/2/1211 193/3/1212
f 193/1/1213 215/2/1214 216/3/1215
f 193/1/1216 216/2/1217 194/3/1218
f 194/1/1219 216/2/1220 217/3/1221
f 194/1/1222 217/2/1223 195/3/1224
f 195/1/1225 217/2/1226 218/3/1227
f 195/1/1228 218/2/1229 196/3/1230
f 196/1/1231 218/2/1232 219/3/1233
f 196/1/1234 219/2/1235 197/3/1236
f 197/1/1237 219/2/1238 220/3/1239
f 197/1/1240 220/2/1241 198/3/1242
f 198/1/1243 220/2/1244 221/3/1245
f 198/1/1246 221/2/1247 199/3/1248
f 199/1/1249 221/2/1250 200/3/1251
f 199/1/1252 200/2/1253 178/3/1254
f 222/1/1255 201/2/1256 200/3/1257
f 222/1/1258 202/2/1259 201/3/1260
f 222/1/1261 203/2/1262 202/3/1263
f 222/1/1264 204/2/1265 203/3/1266
f 222/1/1267 205/2/1268 204/3/1269
f 222/1/1270 206/2/1271 205/3/1272
f 222/1/1273 207/2/1274 206/3/1275
f 222/1/1276 208/2/1277 207/3/1278
f 222/1/1279 209/2/1280 208/3/1281
f 222/1/1282 210/2/1283 209/3/1284
f 222/1/1285 211/2/1286 210/3/1287
f 222/1/1288 212/2/1289 211/3/1290
f 222/1/1291 213/2/1292 212/3/1293
f 222/1/1294 214/2/1295 213/3/1296
f 222/1/1297 215/2/1298 214/3/1299
f 222/1/1300 216/2/1301 215/3/1302
f 222/1/1303 217/2/1304 216/3/1305
f 222/1/1306 218/2/1307 217/3/1308
f 222/1/1309 219/2/1310 218/3/1311
f 222/1/1312 220/2/1313 219/3/1314
f 222/1/1315 221/2/1316 220/3/1317
f 222/1/1318 200/2/1319 221/3/1320
