# Original SpaceSurvival generated source; centimeters; X forward; Z up
mtllib Palette.mtl
o SM_AsteroidMedium
v 0.000000 0.000000 104.000000
v 28.622813 0.000000 97.480349
v 27.668749 8.124278 98.209273
v 23.833070 15.316584 96.484567
v 13.776954 15.899452 71.648815
v 10.643818 23.306710 87.260965
v 3.430501 23.859660 82.094139
v -3.566940 24.808609 85.359197
v -8.914591 19.520232 73.084286
v -14.417207 16.638343 74.978532
v -20.436380 13.133664 82.733581
v -21.375114 6.276300 75.870231
v -24.387067 0.000000 83.054724
v -19.677310 -5.777780 69.843934
v -17.715147 -11.384833 71.717082
v -17.475471 -20.167768 90.883426
v -10.004225 -21.906198 82.017409
v -3.544545 -24.652855 84.823291
v 3.828833 -26.630120 91.626485
v 9.771082 -21.395686 80.106038
v 13.623476 -15.722330 70.850635
v 23.003874 -14.783692 93.127693
v 24.559137 -7.211213 87.171809
v 50.308362 0.000000 78.281339
v 47.657637 13.993545 77.287415
v 46.874941 30.124695 86.702556
v 29.601429 34.161871 70.336670
v 21.631005 47.365295 81.023796
v 6.447510 44.843420 70.495264
v -6.948214 48.325892 75.969818
v -20.917674 45.803317 78.351853
v -29.053069 33.529030 69.033699
v -33.994565 21.846980 62.878281
v -45.218724 13.277415 73.332176
v -51.346415 0.000000 79.896581
v -47.153309 -13.845461 76.469534
v -39.259012 -25.230235 72.615701
v -32.768977 -37.817415 77.863155
v -17.478726 -38.273072 65.470501
v -5.979354 -41.587319 65.376570
v 6.336047 -44.068173 69.276551
v 22.034096 -48.247939 82.533661
v 27.707324 -31.975956 65.836040
v 34.410304 -22.114160 63.647256
v 38.986158 -11.447369 63.224691
v 55.355529 0.000000 47.965839
v 58.604120 17.207722 52.924576
v 57.429927 36.907973 59.153767
v 48.630532 56.122626 64.347416
v 25.927775 56.773907 54.082168
v 9.016168 62.708826 54.896272
v -8.736803 60.765802 53.195319
v -25.666394 56.201562 53.536959
v -47.948257 55.335239 63.444637
v -56.945141 36.596420 58.654429
v -58.206259 17.090900 52.565273
v -57.004733 0.000000 49.394882
v -70.397613 -20.670604 63.575118
v -60.162681 -38.664208 61.968548
v -48.755680 -56.267054 64.513010
v -24.995686 -54.732918 52.137945
v -9.621312 -66.917697 58.580782
v 10.905990 -75.852830 66.402735
v 28.558833 -62.535121 59.570234
v 50.607059 -58.403660 66.962736
v 49.178821 -31.605309 50.654992
v 74.834227 -21.973312 67.581763
v 67.121230 0.000000 30.653239
v 74.465314 21.864989 35.442854
v 55.668736 35.776124 30.220449
v 58.320884 67.305888 40.671632
v 35.516667 77.770653 39.045094
v 13.354429 92.882091 42.854022
v -12.655286 88.019444 40.610490
v -38.680208 84.697841 42.522919
v -53.155753 61.345009 37.069590
v -79.295516 50.960134 43.046534
v -83.759881 24.594120 39.866739
v -75.569099 0.000000 34.511251
v -90.054460 -26.442375 42.862736
v -64.328369 -41.341333 34.921436
v -46.574041 -53.749308 32.479657
v -28.124490 -61.584042 30.918536
v -11.250943 -78.252024 36.103989
v 10.135305 -70.492596 32.523937
v 38.495805 -84.294055 42.320197
v 61.006513 -70.405269 42.544528
v 60.384722 -38.806904 32.780580
v 65.731319 -19.300457 31.285781
v 88.021890 0.000000 12.655637
v 73.537110 21.592444 11.019404
v 74.439847 47.839585 12.722484
v 63.530239 73.317804 13.948415
v 32.935229 72.118093 11.399133
v 12.043511 83.764456 12.167357
v -14.203243 98.785722 14.349298
v -35.456694 77.639330 12.271831
v -53.780003 62.065432 11.807697
v -83.730825 53.810534 14.310401
v -93.111388 27.339970 13.952574
v -99.621384 0.000000 14.323393
v -89.281737 -26.215483 13.378708
v -70.948511 -45.595840 12.125781
v -61.044907 -70.449578 13.402747
v -40.524186 -88.735591 14.025729
v -13.025114 -90.591660 13.159055
v 11.217122 -78.016795 11.332470
v 33.490375 -73.333692 11.591273
v 55.166419 -63.665441 12.112092
v 80.515621 -51.744248 13.760892
v 85.311007 -25.049572 12.783701
v 88.686021 0.000000 -12.751125
v 93.499940 27.454059 -14.010798
v 62.843407 40.387005 -10.740541
v 59.763359 68.970593 -13.121376
v 33.980498 74.406912 -11.760909
v 12.663789 88.078589 -12.794014
v -13.907894 96.731530 -14.050912
v -32.873254 71.982385 -11.377683
v -66.406675 76.637389 -14.579953
v -62.047465 39.875484 -10.604507
v -85.460856 25.093571 -12.806155
v -88.428745 0.000000 -12.714134
v -75.524718 -22.176058 -11.317243
v -74.898157 -48.134123 -12.800813
v -56.433989 -65.128295 -12.390394
v -35.521200 -77.780579 -12.294157
v -13.380629 -93.064322 -13.518226
v 10.160141 -70.665336 -10.264620
v 34.568325 -75.694072 -11.964360
v 62.965183 -72.665694 -13.824354
v 63.733842 -40.959253 -10.892725
v 94.741418 -27.818590 -14.196831
v 71.419664 0.000000 -32.616268
v 81.863850 24.037395 -38.964295
v 59.337012 38.133582 -32.211818
v 51.454063 59.381154 -35.882871
v 32.316459 70.763175 -35.526960
v 9.659555 67.183683 -30.997268
v -12.218840 84.983902 -39.209948
v -33.013257 72.288949 -36.292981
v -56.022910 64.653885 -39.069079
v -68.298614 43.892854 -37.076732
v -78.365549 23.010201 -37.299228
v -80.808117 0.000000 -36.903831
v -71.157701 -20.893786 -33.868547
v -77.104774 -49.552230 -41.857263
v -44.535887 -51.397154 -31.058296
v -37.807021 -82.785828 -41.562985
v -12.897625 -89.704953 -41.388151
v 11.382877 -79.169647 -36.527362
v 36.601837 -80.146844 -40.238072
v 55.724727 -64.309763 -38.861133
v 69.913317 -44.930561 -37.953293
v 70.985438 -20.843205 -33.786556
v 62.144353 0.000000 -53.848389
v 60.316966 17.710659 -54.471424
v 51.923587 33.369263 -53.482146
v 50.832521 58.663856 -67.261064
v 26.032982 57.004279 -54.301617
v 9.077762 63.137224 -55.271298
v -9.187930 63.903456 -55.942069
v -30.807197 67.458352 -64.260047
v -43.199906 49.855350 -57.161668
v -57.041960 36.658642 -58.754154
v -58.138118 17.070892 -52.503737
v -61.138808 0.000000 -52.977079
v -54.277052 -15.937180 -49.016860
v -50.196042 -32.259038 -51.702746
v -39.812806 -45.946428 -52.679892
v -31.166624 -68.245387 -65.009767
v -9.473286 -65.888152 -57.679503
v 8.123846 -56.502590 -49.463237
v 27.253074 -59.675909 -56.846581
v 37.548747 -43.333564 -49.684113
v 57.291684 -36.819130 -59.011374
v 62.469261 -18.342630 -56.415132
v 53.774893 0.000000 -83.675367
v 41.653216 12.230488 -67.549915
v 45.130293 29.003478 -83.475556
v 28.296394 32.655780 -67.235744
v 23.232441 50.871950 -87.022335
v 7.101193 49.389879 -77.642440
v -5.644849 39.260790 -61.719195
v -21.971586 48.111062 -82.299517
v -28.614116 33.022451 -67.990692
v -38.018915 24.433273 -70.321947
v -39.782602 11.681226 -64.516300
v -53.414178 0.000000 -83.114083
v -38.849539 -11.407254 -63.003133
v -43.491566 -27.950332 -80.444474
v -29.974536 -34.592459 -71.223219
v -21.053581 -46.100911 -78.860922
v -6.261330 -43.548508 -68.459621
v 5.732494 -39.870369 -62.677471
v 22.747728 -49.810577 -85.206733
v 32.909159 -37.979194 -78.196245
v 35.216331 -22.632161 -65.138128
v 53.553861 -15.724832 -86.849448
v 28.505184 0.000000 -97.079741
v 21.042625 6.178672 -74.690074
v 17.209472 11.059856 -69.669933
v 16.890928 19.493170 -87.843436
v 8.947731 19.592798 -73.355977
v 3.825858 26.609425 -91.555282
v -3.488402 24.262370 -83.479746
v -11.082139 24.266499 -90.854441
v -16.647650 19.212413 -86.578241
v -22.909865 14.723276 -92.747110
v -26.570360 7.801762 -94.310576
v -25.720186 0.000000 -87.594908
v -24.578812 -7.216990 -87.241647
v -19.543601 -12.559910 -79.119303
v -14.075331 -16.243798 -73.200564
v -8.772973 -19.210131 -71.923258
v -3.986306 -27.725365 -95.394905
v 3.151239 -21.917351 -75.411222
v 10.024135 -21.949794 -82.180633
v 15.153731 -17.488338 -78.808922
v 21.764128 -13.986956 -88.108767
v 24.076651 -7.069542 -85.459242
v 0.000000 0.000000 -94.000000
vt 0.05 0.05
vt 0.95 0.05
vt 0.05 0.95
vn -0.177394 0.070233 0.981631
vn 0.493055 -0.358081 0.792890
vn 0.428152 0.055037 0.902030
vn -0.177394 0.070233 0.981631
vn 0.428152 0.055037 0.902030
vn -0.277443 0.678672 0.680021
vn -0.177394 0.070233 0.981631
vn -0.277443 0.678672 0.680021
vn 0.480908 0.256219 0.838498
vn -0.177394 0.070233 0.981631
vn 0.480908 0.256219 0.838498
vn 0.124416 0.352153 0.927636
vn -0.177394 0.070233 0.981631
vn 0.124416 0.352153 0.927636
vn 0.083651 0.554983 0.827645
vn -0.177394 0.070233 0.981631
vn 0.083651 0.554983 0.827645
vn -0.209128 0.294745 0.932411
vn -0.177394 0.070233 0.981631
vn -0.209128 0.294745 0.932411
vn -0.565808 0.136462 0.813166
vn -0.177394 0.070233 0.981631
vn -0.565808 0.136462 0.813166
vn -0.140341 0.657592 0.740187
vn -0.177394 0.070233 0.981631
vn -0.140341 0.657592 0.740187
vn -0.355930 0.491580 0.794772
vn -0.177394 0.070233 0.981631
vn -0.355930 0.491580 0.794772
vn -0.409843 0.246188 0.878305
vn -0.177394 0.070233 0.981631
vn -0.409843 0.246188 0.878305
vn -0.175959 -0.156266 0.971915
vn -0.177394 0.070233 0.981631
vn -0.175959 -0.156266 0.971915
vn -0.170064 -0.464533 0.869073
vn -0.177394 0.070233 0.981631
vn -0.170064 -0.464533 0.869073
vn -0.645297 0.352079 0.677962
vn -0.177394 0.070233 0.981631
vn -0.645297 0.352079 0.677962
vn -0.133874 -0.478624 0.867754
vn -0.177394 0.070233 0.981631
vn -0.133874 -0.478624 0.867754
vn -0.072010 -0.718900 0.691373
vn -0.177394 0.070233 0.981631
vn -0.072010 -0.718900 0.691373
vn -0.538586 -0.575605 0.615308
vn -0.177394 0.070233 0.981631
vn -0.538586 -0.575605 0.615308
vn -0.072522 -0.487002 0.870385
vn -0.177394 0.070233 0.981631
vn -0.072522 -0.487002 0.870385
vn 0.819663 0.232102 0.523719
vn -0.177394 0.070233 0.981631
vn 0.819663 0.232102 0.523719
vn 0.427935 -0.476786 0.767820
vn -0.177394 0.070233 0.981631
vn 0.427935 -0.476786 0.767820
vn 0.540164 -0.523832 0.658652
vn -0.177394 0.070233 0.981631
vn 0.540164 -0.523832 0.658652
vn 0.594058 -0.485010 0.641763
vn -0.177394 0.070233 0.981631
vn 0.594058 -0.485010 0.641763
vn 0.493055 -0.358081 0.792890
vn 0.493055 -0.358081 0.792890
vn 0.771577 -0.456761 0.442761
vn 0.834801 -0.023905 0.550032
vn 0.493055 -0.358081 0.792890
vn 0.834801 -0.023905 0.550032
vn 0.428152 0.055037 0.902030
vn 0.428152 0.055037 0.902030
vn 0.834801 -0.023905 0.550032
vn 0.459286 0.365098 0.809790
vn 0.428152 0.055037 0.902030
vn 0.459286 0.365098 0.809790
vn -0.277443 0.678672 0.680021
vn -0.277443 0.678672 0.680021
vn 0.459286 0.365098 0.809790
vn -0.105658 0.601578 0.791796
vn -0.277443 0.678672 0.680021
vn -0.105658 0.601578 0.791796
vn 0.480908 0.256219 0.838498
vn 0.480908 0.256219 0.838498
vn -0.105658 0.601578 0.791796
vn 0.403799 0.418581 0.813472
vn 0.480908 0.256219 0.838498
vn 0.403799 0.418581 0.813472
vn 0.124416 0.352153 0.927636
vn 0.124416 0.352153 0.927636
vn 0.403799 0.418581 0.813472
vn -0.167688 0.636453 0.752867
vn 0.124416 0.352153 0.927636
vn -0.167688 0.636453 0.752867
vn 0.083651 0.554983 0.827645
vn 0.083651 0.554983 0.827645
vn -0.167688 0.636453 0.752867
vn 0.187409 0.684328 0.704679
vn 0.083651 0.554983 0.827645
vn 0.187409 0.684328 0.704679
vn -0.209128 0.294745 0.932411
vn -0.209128 0.294745 0.932411
vn 0.187409 0.684328 0.704679
vn -0.365312 0.269570 0.890999
vn -0.209128 0.294745 0.932411
vn -0.365312 0.269570 0.890999
vn -0.565808 0.136462 0.813166
vn -0.565808 0.136462 0.813166
vn -0.365312 0.269570 0.890999
vn -0.375679 -0.138318 0.916370
vn -0.565808 0.136462 0.813166
vn -0.375679 -0.138318 0.916370
vn -0.140341 0.657592 0.740187
vn -0.140341 0.657592 0.740187
vn -0.375679 -0.138318 0.916370
vn -0.380668 0.402572 0.832482
vn -0.140341 0.657592 0.740187
vn -0.380668 0.402572 0.832482
vn -0.355930 0.491580 0.794772
vn -0.355930 0.491580 0.794772
vn -0.380668 0.402572 0.832482
vn -0.563088 0.414644 0.714844
vn -0.355930 0.491580 0.794772
vn -0.563088 0.414644 0.714844
vn -0.409843 0.246188 0.878305
vn -0.409843 0.246188 0.878305
vn -0.563088 0.414644 0.714844
vn -0.476270 0.366775 0.799152
vn -0.409843 0.246188 0.878305
vn -0.476270 0.366775 0.799152
vn -0.175959 -0.156266 0.971915
vn -0.175959 -0.156266 0.971915
vn -0.476270 0.366775 0.799152
vn -0.080781 -0.411132 0.907990
vn -0.175959 -0.156266 0.971915
vn -0.080781 -0.411132 0.907990
vn -0.170064 -0.464533 0.869073
vn -0.170064 -0.464533 0.869073
vn -0.080781 -0.411132 0.907990
vn -0.221103 -0.019178 0.975062
vn -0.170064 -0.464533 0.869073
vn -0.221103 -0.019178 0.975062
vn -0.645297 0.352079 0.677962
vn -0.645297 0.352079 0.677962
vn -0.221103 -0.019178 0.975062
vn -0.102387 -0.339121 0.935155
vn -0.645297 0.352079 0.677962
vn -0.102387 -0.339121 0.935155
vn -0.133874 -0.478624 0.867754
vn -0.133874 -0.478624 0.867754
vn -0.102387 -0.339121 0.935155
vn 0.090022 -0.637649 0.765049
vn -0.133874 -0.478624 0.867754
vn 0.090022 -0.637649 0.765049
vn -0.072010 -0.718900 0.691373
vn -0.072010 -0.718900 0.691373
vn 0.090022 -0.637649 0.765049
vn -0.324572 -0.441526 0.836485
vn -0.072010 -0.718900 0.691373
vn -0.324572 -0.441526 0.836485
vn -0.538586 -0.575605 0.615308
vn -0.538586 -0.575605 0.615308
vn -0.324572 -0.441526 0.836485
vn -0.377271 -0.574446 0.726415
vn -0.538586 -0.575605 0.615308
vn -0.377271 -0.574446 0.726415
vn -0.072522 -0.487002 0.870385
vn -0.072522 -0.487002 0.870385
vn -0.377271 -0.574446 0.726415
vn 0.257598 -0.305211 0.916782
vn -0.072522 -0.487002 0.870385
vn 0.257598 -0.305211 0.916782
vn 0.819663 0.232102 0.523719
vn 0.819663 0.232102 0.523719
vn 0.257598 -0.305211 0.916782
vn 0.589973 0.275319 0.759033
vn 0.819663 0.232102 0.523719
vn 0.589973 0.275319 0.759033
vn 0.427935 -0.476786 0.767820
vn 0.427935 -0.476786 0.767820
vn 0.589973 0.275319 0.759033
vn 0.287863 -0.488098 0.823951
vn 0.427935 -0.476786 0.767820
vn 0.287863 -0.488098 0.823951
vn 0.540164 -0.523832 0.658652
vn 0.540164 -0.523832 0.658652
vn 0.287863 -0.488098 0.823951
vn 0.650509 -0.228656 0.724262
vn 0.540164 -0.523832 0.658652
vn 0.650509 -0.228656 0.724262
vn 0.594058 -0.485010 0.641763
vn 0.594058 -0.485010 0.641763
vn 0.650509 -0.228656 0.724262
vn 0.771577 -0.456761 0.442761
vn 0.594058 -0.485010 0.641763
vn 0.771577 -0.456761 0.442761
vn 0.493055 -0.358081 0.792890
vn 0.771577 -0.456761 0.442761
vn 0.840668 -0.039774 0.540088
vn 0.918610 0.075674 0.387851
vn 0.771577 -0.456761 0.442761
vn 0.918610 0.075674 0.387851
vn 0.834801 -0.023905 0.550032
vn 0.834801 -0.023905 0.550032
vn 0.918610 0.075674 0.387851
vn 0.964741 0.060452 0.256164
vn 0.834801 -0.023905 0.550032
vn 0.964741 0.060452 0.256164
vn 0.459286 0.365098 0.809790
vn 0.459286 0.365098 0.809790
vn 0.964741 0.060452 0.256164
vn 0.192838 0.646525 0.738119
vn 0.459286 0.365098 0.809790
vn 0.192838 0.646525 0.738119
vn -0.105658 0.601578 0.791796
vn -0.105658 0.601578 0.791796
vn 0.192838 0.646525 0.738119
vn 0.229090 0.610812 0.757909
vn -0.105658 0.601578 0.791796
vn 0.229090 0.610812 0.757909
vn 0.403799 0.418581 0.813472
vn 0.403799 0.418581 0.813472
vn 0.229090 0.610812 0.757909
vn -0.082030 0.591218 0.802330
vn 0.403799 0.418581 0.813472
vn -0.082030 0.591218 0.802330
vn -0.167688 0.636453 0.752867
vn -0.167688 0.636453 0.752867
vn -0.082030 0.591218 0.802330
vn -0.029466 0.621593 0.782786
vn -0.167688 0.636453 0.752867
vn -0.029466 0.621593 0.782786
vn 0.187409 0.684328 0.704679
vn 0.187409 0.684328 0.704679
vn -0.029466 0.621593 0.782786
vn -0.132662 0.775808 0.616865
vn 0.187409 0.684328 0.704679
vn -0.132662 0.775808 0.616865
vn -0.365312 0.269570 0.890999
vn -0.365312 0.269570 0.890999
vn -0.132662 0.775808 0.616865
vn -0.344126 0.560427 0.753325
vn -0.365312 0.269570 0.890999
vn -0.344126 0.560427 0.753325
vn -0.375679 -0.138318 0.916370
vn -0.375679 -0.138318 0.916370
vn -0.344126 0.560427 0.753325
vn -0.450077 -0.139124 0.882086
vn -0.375679 -0.138318 0.916370
vn -0.450077 -0.139124 0.882086
vn -0.380668 0.402572 0.832482
vn -0.380668 0.402572 0.832482
vn -0.450077 -0.139124 0.882086
vn -0.595703 -0.057178 0.801167
vn -0.380668 0.402572 0.832482
vn -0.595703 -0.057178 0.801167
vn -0.563088 0.414644 0.714844
vn -0.563088 0.414644 0.714844
vn -0.595703 -0.057178 0.801167
vn -0.793384 0.358408 0.492022
vn -0.563088 0.414644 0.714844
vn -0.793384 0.358408 0.492022
vn -0.476270 0.366775 0.799152
vn -0.476270 0.366775 0.799152
vn -0.793384 0.358408 0.492022
vn -0.738584 -0.143937 0.658617
vn -0.476270 0.366775 0.799152
vn -0.738584 -0.143937 0.658617
vn -0.080781 -0.411132 0.907990
vn -0.080781 -0.411132 0.907990
vn -0.738584 -0.143937 0.658617
vn -0.624716 -0.532046 0.571539
vn -0.080781 -0.411132 0.907990
vn -0.624716 -0.532046 0.571539
vn -0.221103 -0.019178 0.975062
vn -0.221103 -0.019178 0.975062
vn -0.624716 -0.532046 0.571539
vn -0.388548 -0.747881 0.538242
vn -0.221103 -0.019178 0.975062
vn -0.388548 -0.747881 0.538242
vn -0.102387 -0.339121 0.935155
vn -0.102387 -0.339121 0.935155
vn -0.388548 -0.747881 0.538242
vn -0.191654 -0.794885 0.575697
vn -0.102387 -0.339121 0.935155
vn -0.191654 -0.794885 0.575697
vn 0.090022 -0.637649 0.765049
vn 0.090022 -0.637649 0.765049
vn -0.191654 -0.794885 0.575697
vn -0.352486 -0.656101 0.667297
vn 0.090022 -0.637649 0.765049
vn -0.352486 -0.656101 0.667297
vn -0.324572 -0.441526 0.836485
vn -0.324572 -0.441526 0.836485
vn -0.352486 -0.656101 0.667297
vn -0.133474 -0.609012 0.781850
vn -0.324572 -0.441526 0.836485
vn -0.133474 -0.609012 0.781850
vn -0.377271 -0.574446 0.726415
vn -0.377271 -0.574446 0.726415
vn -0.133474 -0.609012 0.781850
vn 0.141886 -0.660583 0.737223
vn -0.377271 -0.574446 0.726415
vn 0.141886 -0.660583 0.737223
vn 0.257598 -0.305211 0.916782
vn 0.257598 -0.305211 0.916782
vn 0.141886 -0.660583 0.737223
vn 0.670504 -0.083597 0.737181
vn 0.257598 -0.305211 0.916782
vn 0.670504 -0.083597 0.737181
vn 0.589973 0.275319 0.759033
vn 0.589973 0.275319 0.759033
vn 0.670504 -0.083597 0.737181
vn 0.701333 -0.297716 0.647686
vn 0.589973 0.275319 0.759033
vn 0.701333 -0.297716 0.647686
vn 0.287863 -0.488098 0.823951
vn 0.287863 -0.488098 0.823951
vn 0.701333 -0.297716 0.647686
vn 0.662730 -0.072224 0.745368
vn 0.287863 -0.488098 0.823951
vn 0.662730 -0.072224 0.745368
vn 0.650509 -0.228656 0.724262
vn 0.650509 -0.228656 0.724262
vn 0.662730 -0.072224 0.745368
vn 0.840668 -0.039774 0.540088
vn 0.650509 -0.228656 0.724262
vn 0.840668 -0.039774 0.540088
vn 0.771577 -0.456761 0.442761
vn 0.840668 -0.039774 0.540088
vn 0.905726 0.089162 0.414380
vn 0.869030 0.072572 0.489408
vn 0.840668 -0.039774 0.540088
vn 0.869030 0.072572 0.489408
vn 0.918610 0.075674 0.387851
vn 0.918610 0.075674 0.387851
vn 0.869030 0.072572 0.489408
vn 0.855204 0.297066 0.424709
vn 0.918610 0.075674 0.387851
vn 0.855204 0.297066 0.424709
vn 0.964741 0.060452 0.256164
vn 0.964741 0.060452 0.256164
vn 0.855204 0.297066 0.424709
vn 0.769303 0.594313 0.234446
vn 0.964741 0.060452 0.256164
vn 0.769303 0.594313 0.234446
vn 0.192838 0.646525 0.738119
vn 0.192838 0.646525 0.738119
vn 0.769303 0.594313 0.234446
vn 0.372484 0.888067 0.269430
vn 0.192838 0.646525 0.738119
vn 0.372484 0.888067 0.269430
vn 0.229090 0.610812 0.757909
vn 0.229090 0.610812 0.757909
vn 0.372484 0.888067 0.269430
vn 0.259605 0.799694 0.541383
vn 0.229090 0.610812 0.757909
vn 0.259605 0.799694 0.541383
vn -0.082030 0.591218 0.802330
vn -0.082030 0.591218 0.802330
vn 0.259605 0.799694 0.541383
vn -0.255721 0.735675 0.627207
vn -0.082030 0.591218 0.802330
vn -0.255721 0.735675 0.627207
vn -0.029466 0.621593 0.782786
vn -0.029466 0.621593 0.782786
vn -0.255721 0.735675 0.627207
vn -0.493714 0.700631 0.515135
vn -0.029466 0.621593 0.782786
vn -0.493714 0.700631 0.515135
vn -0.132662 0.775808 0.616865
vn -0.132662 0.775808 0.616865
vn -0.493714 0.700631 0.515135
vn -0.424781 0.853809 0.300951
vn -0.132662 0.775808 0.616865
vn -0.424781 0.853809 0.300951
vn -0.344126 0.560427 0.753325
vn -0.344126 0.560427 0.753325
vn -0.424781 0.853809 0.300951
vn -0.720221 0.464777 0.515038
vn -0.344126 0.560427 0.753325
vn -0.720221 0.464777 0.515038
vn -0.450077 -0.139124 0.882086
vn -0.450077 -0.139124 0.882086
vn -0.720221 0.464777 0.515038
vn -0.713885 -0.105666 0.692245
vn -0.450077 -0.139124 0.882086
vn -0.713885 -0.105666 0.692245
vn -0.595703 -0.057178 0.801167
vn -0.595703 -0.057178 0.801167
vn -0.713885 -0.105666 0.692245
vn -0.714115 -0.032038 0.699295
vn -0.595703 -0.057178 0.801167
vn -0.714115 -0.032038 0.699295
vn -0.793384 0.358408 0.492022
vn -0.793384 0.358408 0.492022
vn -0.714115 -0.032038 0.699295
vn -0.872523 -0.173892 0.456580
vn -0.793384 0.358408 0.492022
vn -0.872523 -0.173892 0.456580
vn -0.738584 -0.143937 0.658617
vn -0.738584 -0.143937 0.658617
vn -0.872523 -0.173892 0.456580
vn -0.593522 -0.700654 0.395999
vn -0.738584 -0.143937 0.658617
vn -0.593522 -0.700654 0.395999
vn -0.624716 -0.532046 0.571539
vn -0.624716 -0.532046 0.571539
vn -0.593522 -0.700654 0.395999
vn -0.510035 -0.733912 0.448595
vn -0.624716 -0.532046 0.571539
vn -0.510035 -0.733912 0.448595
vn -0.388548 -0.747881 0.538242
vn -0.388548 -0.747881 0.538242
vn -0.510035 -0.733912 0.448595
vn -0.341285 -0.794915 0.501631
vn -0.388548 -0.747881 0.538242
vn -0.341285 -0.794915 0.501631
vn -0.191654 -0.794885 0.575697
vn -0.191654 -0.794885 0.575697
vn -0.341285 -0.794915 0.501631
vn -0.181219 -0.880577 0.437885
vn -0.191654 -0.794885 0.575697
vn -0.181219 -0.880577 0.437885
vn -0.352486 -0.656101 0.667297
vn -0.352486 -0.656101 0.667297
vn -0.181219 -0.880577 0.437885
vn -0.029907 -0.994833 0.097022
vn -0.352486 -0.656101 0.667297
vn -0.029907 -0.994833 0.097022
vn -0.133474 -0.609012 0.781850
vn -0.133474 -0.609012 0.781850
vn -0.029907 -0.994833 0.097022
vn 0.225517 -0.967165 0.117190
vn -0.133474 -0.609012 0.781850
vn 0.225517 -0.967165 0.117190
vn 0.141886 -0.660583 0.737223
vn 0.141886 -0.660583 0.737223
vn 0.225517 -0.967165 0.117190
vn 0.672470 -0.630980 0.386844
vn 0.141886 -0.660583 0.737223
vn 0.672470 -0.630980 0.386844
vn 0.670504 -0.083597 0.737181
vn 0.670504 -0.083597 0.737181
vn 0.672470 -0.630980 0.386844
vn 0.801579 0.042094 0.596405
vn 0.670504 -0.083597 0.737181
vn 0.801579 0.042094 0.596405
vn 0.701333 -0.297716 0.647686
vn 0.701333 -0.297716 0.647686
vn 0.801579 0.042094 0.596405
vn 0.838041 -0.268703 0.474853
vn 0.701333 -0.297716 0.647686
vn 0.838041 -0.268703 0.474853
vn 0.662730 -0.072224 0.745368
vn 0.662730 -0.072224 0.745368
vn 0.838041 -0.268703 0.474853
vn 0.905726 0.089162 0.414380
vn 0.662730 -0.072224 0.745368
vn 0.905726 0.089162 0.414380
vn 0.840668 -0.039774 0.540088
vn 0.905726 0.089162 0.414380
vn 0.842652 0.101426 0.528821
vn 0.922836 0.280816 0.263660
vn 0.905726 0.089162 0.414380
vn 0.922836 0.280816 0.263660
vn 0.869030 0.072572 0.489408
vn 0.869030 0.072572 0.489408
vn 0.922836 0.280816 0.263660
vn 0.960103 0.267924 0.080117
vn 0.869030 0.072572 0.489408
vn 0.960103 0.267924 0.080117
vn 0.855204 0.297066 0.424709
vn 0.855204 0.297066 0.424709
vn 0.960103 0.267924 0.080117
vn 0.587871 0.783585 0.201001
vn 0.855204 0.297066 0.424709
vn 0.587871 0.783585 0.201001
vn 0.769303 0.594313 0.234446
vn 0.769303 0.594313 0.234446
vn 0.587871 0.783585 0.201001
vn 0.316504 0.948298 0.023600
vn 0.769303 0.594313 0.234446
vn 0.316504 0.948298 0.023600
vn 0.372484 0.888067 0.269430
vn 0.372484 0.888067 0.269430
vn 0.316504 0.948298 0.023600
vn 0.462563 0.882788 -0.081979
vn 0.372484 0.888067 0.269430
vn 0.462563 0.882788 -0.081979
vn 0.259605 0.799694 0.541383
vn 0.259605 0.799694 0.541383
vn 0.462563 0.882788 -0.081979
vn -0.292760 0.956071 0.014790
vn 0.259605 0.799694 0.541383
vn -0.292760 0.956071 0.014790
vn -0.255721 0.735675 0.627207
vn -0.255721 0.735675 0.627207
vn -0.292760 0.956071 0.014790
vn -0.474896 0.880019 -0.006340
vn -0.255721 0.735675 0.627207
vn -0.474896 0.880019 -0.006340
vn -0.493714 0.700631 0.515135
vn -0.493714 0.700631 0.515135
vn -0.474896 0.880019 -0.006340
vn -0.700274 0.712826 0.038662
vn -0.493714 0.700631 0.515135
vn -0.700274 0.712826 0.038662
vn -0.424781 0.853809 0.300951
vn -0.424781 0.853809 0.300951
vn -0.700274 0.712826 0.038662
vn -0.593062 0.768269 -0.240915
vn -0.424781 0.853809 0.300951
vn -0.593062 0.768269 -0.240915
vn -0.720221 0.464777 0.515038
vn -0.720221 0.464777 0.515038
vn -0.593062 0.768269 -0.240915
vn -0.973021 0.230428 -0.011531
vn -0.720221 0.464777 0.515038
vn -0.973021 0.230428 -0.011531
vn -0.713885 -0.105666 0.692245
vn -0.713885 -0.105666 0.692245
vn -0.973021 0.230428 -0.011531
vn -0.970599 -0.206015 0.124479
vn -0.713885 -0.105666 0.692245
vn -0.970599 -0.206015 0.124479
vn -0.714115 -0.032038 0.699295
vn -0.714115 -0.032038 0.699295
vn -0.970599 -0.206015 0.124479
vn -0.953347 -0.300996 -0.023036
vn -0.714115 -0.032038 0.699295
vn -0.953347 -0.300996 -0.023036
vn -0.872523 -0.173892 0.456580
vn -0.872523 -0.173892 0.456580
vn -0.953347 -0.300996 -0.023036
vn -0.755672 -0.643249 0.123251
vn -0.872523 -0.173892 0.456580
vn -0.755672 -0.643249 0.123251
vn -0.593522 -0.700654 0.395999
vn -0.593522 -0.700654 0.395999
vn -0.755672 -0.643249 0.123251
vn -0.729321 -0.658518 0.185593
vn -0.593522 -0.700654 0.395999
vn -0.729321 -0.658518 0.185593
vn -0.510035 -0.733912 0.448595
vn -0.510035 -0.733912 0.448595
vn -0.729321 -0.658518 0.185593
vn -0.385072 -0.841650 0.378609
vn -0.510035 -0.733912 0.448595
vn -0.385072 -0.841650 0.378609
vn -0.341285 -0.794915 0.501631
vn -0.341285 -0.794915 0.501631
vn -0.385072 -0.841650 0.378609
vn 0.160432 -0.938583 0.305488
vn -0.341285 -0.794915 0.501631
vn 0.160432 -0.938583 0.305488
vn -0.181219 -0.880577 0.437885
vn -0.181219 -0.880577 0.437885
vn 0.160432 -0.938583 0.305488
vn 0.254714 -0.961907 0.099279
vn -0.181219 -0.880577 0.437885
vn 0.254714 -0.961907 0.099279
vn -0.029907 -0.994833 0.097022
vn -0.029907 -0.994833 0.097022
vn 0.254714 -0.961907 0.099279
vn 0.163921 -0.984792 0.057566
vn -0.029907 -0.994833 0.097022
vn 0.163921 -0.984792 0.057566
vn 0.225517 -0.967165 0.117190
vn 0.225517 -0.967165 0.117190
vn 0.163921 -0.984792 0.057566
vn 0.581165 -0.799545 -0.151577
vn 0.225517 -0.967165 0.117190
vn 0.581165 -0.799545 -0.151577
vn 0.672470 -0.630980 0.386844
vn 0.672470 -0.630980 0.386844
vn 0.581165 -0.799545 -0.151577
vn 0.812545 -0.577041 0.082428
vn 0.672470 -0.630980 0.386844
vn 0.812545 -0.577041 0.082428
vn 0.801579 0.042094 0.596405
vn 0.801579 0.042094 0.596405
vn 0.812545 -0.577041 0.082428
vn 0.856307 -0.063323 0.512571
vn 0.801579 0.042094 0.596405
vn 0.856307 -0.063323 0.512571
vn 0.838041 -0.268703 0.474853
vn 0.838041 -0.268703 0.474853
vn 0.856307 -0.063323 0.512571
vn 0.842652 0.101426 0.528821
vn 0.838041 -0.268703 0.474853
vn 0.842652 0.101426 0.528821
vn 0.905726 0.089162 0.414380
vn 0.842652 0.101426 0.528821
vn 0.967319 -0.096474 -0.234494
vn 0.810236 0.583348 0.056766
vn 0.842652 0.101426 0.528821
vn 0.810236 0.583348 0.056766
vn 0.922836 0.280816 0.263660
vn 0.922836 0.280816 0.263660
vn 0.810236 0.583348 0.056766
vn 0.876551 0.426364 -0.223319
vn 0.922836 0.280816 0.263660
vn 0.876551 0.426364 -0.223319
vn 0.960103 0.267924 0.080117
vn 0.960103 0.267924 0.080117
vn 0.876551 0.426364 -0.223319
vn 0.691963 0.626557 -0.358628
vn 0.960103 0.267924 0.080117
vn 0.691963 0.626557 -0.358628
vn 0.587871 0.783585 0.201001
vn 0.587871 0.783585 0.201001
vn 0.691963 0.626557 -0.358628
vn 0.198487 0.963286 -0.180786
vn 0.587871 0.783585 0.201001
vn 0.198487 0.963286 -0.180786
vn 0.316504 0.948298 0.023600
vn 0.316504 0.948298 0.023600
vn 0.198487 0.963286 -0.180786
vn 0.486854 0.839614 -0.240877
vn 0.316504 0.948298 0.023600
vn 0.486854 0.839614 -0.240877
vn 0.462563 0.882788 -0.081979
vn 0.462563 0.882788 -0.081979
vn 0.486854 0.839614 -0.240877
vn -0.210899 0.966491 -0.146348
vn 0.462563 0.882788 -0.081979
vn -0.210899 0.966491 -0.146348
vn -0.292760 0.956071 0.014790
vn -0.292760 0.956071 0.014790
vn -0.210899 0.966491 -0.146348
vn -0.424998 0.890688 -0.161402
vn -0.292760 0.956071 0.014790
vn -0.424998 0.890688 -0.161402
vn -0.474896 0.880019 -0.006340
vn -0.474896 0.880019 -0.006340
vn -0.424998 0.890688 -0.161402
vn -0.723452 0.689916 0.025159
vn -0.474896 0.880019 -0.006340
vn -0.723452 0.689916 0.025159
vn -0.700274 0.712826 0.038662
vn -0.700274 0.712826 0.038662
vn -0.723452 0.689916 0.025159
vn -0.833742 0.534942 -0.136790
vn -0.700274 0.712826 0.038662
vn -0.833742 0.534942 -0.136790
vn -0.593062 0.768269 -0.240915
vn -0.593062 0.768269 -0.240915
vn -0.833742 0.534942 -0.136790
vn -0.842558 0.389253 -0.372260
vn -0.593062 0.768269 -0.240915
vn -0.842558 0.389253 -0.372260
vn -0.973021 0.230428 -0.011531
vn -0.973021 0.230428 -0.011531
vn -0.842558 0.389253 -0.372260
vn -0.935065 -0.175251 -0.308124
vn -0.973021 0.230428 -0.011531
vn -0.935065 -0.175251 -0.308124
vn -0.970599 -0.206015 0.124479
vn -0.970599 -0.206015 0.124479
vn -0.935065 -0.175251 -0.308124
vn -0.939315 -0.190255 -0.285466
vn -0.970599 -0.206015 0.124479
vn -0.939315 -0.190255 -0.285466
vn -0.953347 -0.300996 -0.023036
vn -0.953347 -0.300996 -0.023036
vn -0.939315 -0.190255 -0.285466
vn -0.781177 -0.607933 -0.142054
vn -0.953347 -0.300996 -0.023036
vn -0.781177 -0.607933 -0.142054
vn -0.755672 -0.643249 0.123251
vn -0.755672 -0.643249 0.123251
vn -0.781177 -0.607933 -0.142054
vn -0.737366 -0.623797 -0.259169
vn -0.755672 -0.643249 0.123251
vn -0.737366 -0.623797 -0.259169
vn -0.729321 -0.658518 0.185593
vn -0.729321 -0.658518 0.185593
vn -0.737366 -0.623797 -0.259169
vn -0.517213 -0.844131 -0.141190
vn -0.729321 -0.658518 0.185593
vn -0.517213 -0.844131 -0.141190
vn -0.385072 -0.841650 0.378609
vn -0.385072 -0.841650 0.378609
vn -0.517213 -0.844131 -0.141190
vn 0.116779 -0.992280 -0.041740
vn -0.385072 -0.841650 0.378609
vn 0.116779 -0.992280 -0.041740
vn 0.160432 -0.938583 0.305488
vn 0.160432 -0.938583 0.305488
vn 0.116779 -0.992280 -0.041740
vn 0.254318 -0.966700 0.028513
vn 0.160432 -0.938583 0.305488
vn 0.254318 -0.966700 0.028513
vn 0.254714 -0.961907 0.099279
vn 0.254714 -0.961907 0.099279
vn 0.254318 -0.966700 0.028513
vn 0.109398 -0.993744 -0.022463
vn 0.254714 -0.961907 0.099279
vn 0.109398 -0.993744 -0.022463
vn 0.163921 -0.984792 0.057566
vn 0.163921 -0.984792 0.057566
vn 0.109398 -0.993744 -0.022463
vn 0.687882 -0.722854 0.065582
vn 0.163921 -0.984792 0.057566
vn 0.687882 -0.722854 0.065582
vn 0.581165 -0.799545 -0.151577
vn 0.581165 -0.799545 -0.151577
vn 0.687882 -0.722854 0.065582
vn 0.822468 -0.531730 -0.202016
vn 0.581165 -0.799545 -0.151577
vn 0.822468 -0.531730 -0.202016
vn 0.812545 -0.577041 0.082428
vn 0.812545 -0.577041 0.082428
vn 0.822468 -0.531730 -0.202016
vn 0.854894 -0.294331 -0.427230
vn 0.812545 -0.577041 0.082428
vn 0.854894 -0.294331 -0.427230
vn 0.856307 -0.063323 0.512571
vn 0.856307 -0.063323 0.512571
vn 0.854894 -0.294331 -0.427230
vn 0.967319 -0.096474 -0.234494
vn 0.856307 -0.063323 0.512571
vn 0.967319 -0.096474 -0.234494
vn 0.842652 0.101426 0.528821
vn 0.967319 -0.096474 -0.234494
vn 0.788184 -0.101550 -0.607004
vn 0.735927 0.195069 -0.648351
vn 0.967319 -0.096474 -0.234494
vn 0.735927 0.195069 -0.648351
vn 0.810236 0.583348 0.056766
vn 0.810236 0.583348 0.056766
vn 0.735927 0.195069 -0.648351
vn 0.765184 0.593085 -0.250486
vn 0.810236 0.583348 0.056766
vn 0.765184 0.593085 -0.250486
vn 0.876551 0.426364 -0.223319
vn 0.876551 0.426364 -0.223319
vn 0.765184 0.593085 -0.250486
vn 0.703447 0.625225 -0.338018
vn 0.876551 0.426364 -0.223319
vn 0.703447 0.625225 -0.338018
vn 0.691963 0.626557 -0.358628
vn 0.691963 0.626557 -0.358628
vn 0.703447 0.625225 -0.338018
vn 0.171022 0.904407 -0.390896
vn 0.691963 0.626557 -0.358628
vn 0.171022 0.904407 -0.390896
vn 0.198487 0.963286 -0.180786
vn 0.198487 0.963286 -0.180786
vn 0.171022 0.904407 -0.390896
vn 0.254777 0.855570 -0.450654
vn 0.198487 0.963286 -0.180786
vn 0.254777 0.855570 -0.450654
vn 0.486854 0.839614 -0.240877
vn 0.486854 0.839614 -0.240877
vn 0.254777 0.855570 -0.450654
vn 0.174378 0.806127 -0.565466
vn 0.486854 0.839614 -0.240877
vn 0.174378 0.806127 -0.565466
vn -0.210899 0.966491 -0.146348
vn -0.210899 0.966491 -0.146348
vn 0.174378 0.806127 -0.565466
vn -0.565029 0.786202 -0.250258
vn -0.210899 0.966491 -0.146348
vn -0.565029 0.786202 -0.250258
vn -0.424998 0.890688 -0.161402
vn -0.424998 0.890688 -0.161402
vn -0.565029 0.786202 -0.250258
vn -0.422071 0.733783 -0.532370
vn -0.424998 0.890688 -0.161402
vn -0.422071 0.733783 -0.532370
vn -0.723452 0.689916 0.025159
vn -0.723452 0.689916 0.025159
vn -0.422071 0.733783 -0.532370
vn -0.907245 0.245540 -0.341492
vn -0.723452 0.689916 0.025159
vn -0.907245 0.245540 -0.341492
vn -0.833742 0.534942 -0.136790
vn -0.833742 0.534942 -0.136790
vn -0.907245 0.245540 -0.341492
vn -0.787941 0.346638 -0.508912
vn -0.833742 0.534942 -0.136790
vn -0.787941 0.346638 -0.508912
vn -0.842558 0.389253 -0.372260
vn -0.842558 0.389253 -0.372260
vn -0.787941 0.346638 -0.508912
vn -0.814818 -0.173321 -0.553201
vn -0.842558 0.389253 -0.372260
vn -0.814818 -0.173321 -0.553201
vn -0.935065 -0.175251 -0.308124
vn -0.935065 -0.175251 -0.308124
vn -0.814818 -0.173321 -0.553201
vn -0.822615 -0.145338 -0.549710
vn -0.935065 -0.175251 -0.308124
vn -0.822615 -0.145338 -0.549710
vn -0.939315 -0.190255 -0.285466
vn -0.939315 -0.190255 -0.285466
vn -0.822615 -0.145338 -0.549710
vn -0.734208 -0.412220 -0.539457
vn -0.939315 -0.190255 -0.285466
vn -0.734208 -0.412220 -0.539457
vn -0.781177 -0.607933 -0.142054
vn -0.781177 -0.607933 -0.142054
vn -0.734208 -0.412220 -0.539457
vn -0.685105 -0.593302 -0.422640
vn -0.781177 -0.607933 -0.142054
vn -0.685105 -0.593302 -0.422640
vn -0.737366 -0.623797 -0.259169
vn -0.737366 -0.623797 -0.259169
vn -0.685105 -0.593302 -0.422640
vn -0.549723 -0.734035 -0.398744
vn -0.737366 -0.623797 -0.259169
vn -0.549723 -0.734035 -0.398744
vn -0.517213 -0.844131 -0.141190
vn -0.517213 -0.844131 -0.141190
vn -0.549723 -0.734035 -0.398744
vn 0.075183 -0.870293 -0.486763
vn -0.517213 -0.844131 -0.141190
vn 0.075183 -0.870293 -0.486763
vn 0.116779 -0.992280 -0.041740
vn 0.116779 -0.992280 -0.041740
vn 0.075183 -0.870293 -0.486763
vn 0.193873 -0.893783 -0.404432
vn 0.116779 -0.992280 -0.041740
vn 0.193873 -0.893783 -0.404432
vn 0.254318 -0.966700 0.028513
vn 0.254318 -0.966700 0.028513
vn 0.193873 -0.893783 -0.404432
vn 0.303033 -0.868987 -0.391192
vn 0.254318 -0.966700 0.028513
vn 0.303033 -0.868987 -0.391192
vn 0.109398 -0.993744 -0.022463
vn 0.109398 -0.993744 -0.022463
vn 0.303033 -0.868987 -0.391192
vn 0.436501 -0.696848 -0.569095
vn 0.109398 -0.993744 -0.022463
vn 0.436501 -0.696848 -0.569095
vn 0.687882 -0.722854 0.065582
vn 0.687882 -0.722854 0.065582
vn 0.436501 -0.696848 -0.569095
vn 0.938056 -0.230196 -0.258963
vn 0.687882 -0.722854 0.065582
vn 0.938056 -0.230196 -0.258963
vn 0.822468 -0.531730 -0.202016
vn 0.822468 -0.531730 -0.202016
vn 0.938056 -0.230196 -0.258963
vn 0.893993 -0.140280 -0.425556
vn 0.822468 -0.531730 -0.202016
vn 0.893993 -0.140280 -0.425556
vn 0.854894 -0.294331 -0.427230
vn 0.854894 -0.294331 -0.427230
vn 0.893993 -0.140280 -0.425556
vn 0.788184 -0.101550 -0.607004
vn 0.854894 -0.294331 -0.427230
vn 0.788184 -0.101550 -0.607004
vn 0.967319 -0.096474 -0.234494
vn 0.788184 -0.101550 -0.607004
vn 0.881651 0.185730 -0.433816
vn 0.751440 -0.032585 -0.658996
vn 0.788184 -0.101550 -0.607004
vn 0.751440 -0.032585 -0.658996
vn 0.735927 0.195069 -0.648351
vn 0.735927 0.195069 -0.648351
vn 0.751440 -0.032585 -0.658996
vn 0.692827 0.445031 -0.567396
vn 0.735927 0.195069 -0.648351
vn 0.692827 0.445031 -0.567396
vn 0.765184 0.593085 -0.250486
vn 0.765184 0.593085 -0.250486
vn 0.692827 0.445031 -0.567396
vn 0.761641 0.356902 -0.540855
vn 0.765184 0.593085 -0.250486
vn 0.761641 0.356902 -0.540855
vn 0.703447 0.625225 -0.338018
vn 0.703447 0.625225 -0.338018
vn 0.761641 0.356902 -0.540855
vn 0.105126 0.918712 -0.380678
vn 0.703447 0.625225 -0.338018
vn 0.105126 0.918712 -0.380678
vn 0.171022 0.904407 -0.390896
vn 0.171022 0.904407 -0.390896
vn 0.105126 0.918712 -0.380678
vn -0.051863 0.842670 -0.535926
vn 0.171022 0.904407 -0.390896
vn -0.051863 0.842670 -0.535926
vn 0.254777 0.855570 -0.450654
vn 0.254777 0.855570 -0.450654
vn -0.051863 0.842670 -0.535926
vn 0.422748 0.621195 -0.659849
vn 0.254777 0.855570 -0.450654
vn 0.422748 0.621195 -0.659849
vn 0.174378 0.806127 -0.565466
vn 0.174378 0.806127 -0.565466
vn 0.422748 0.621195 -0.659849
vn -0.467107 0.605065 -0.644754
vn 0.174378 0.806127 -0.565466
vn -0.467107 0.605065 -0.644754
vn -0.565029 0.786202 -0.250258
vn -0.565029 0.786202 -0.250258
vn -0.467107 0.605065 -0.644754
vn -0.438481 0.480872 -0.759274
vn -0.565029 0.786202 -0.250258
vn -0.438481 0.480872 -0.759274
vn -0.422071 0.733783 -0.532370
vn -0.422071 0.733783 -0.532370
vn -0.438481 0.480872 -0.759274
vn -0.647665 0.139332 -0.749077
vn -0.422071 0.733783 -0.532370
vn -0.647665 0.139332 -0.749077
vn -0.907245 0.245540 -0.341492
vn -0.907245 0.245540 -0.341492
vn -0.647665 0.139332 -0.749077
vn -0.692567 0.215674 -0.688358
vn -0.907245 0.245540 -0.341492
vn -0.692567 0.215674 -0.688358
vn -0.787941 0.346638 -0.508912
vn -0.787941 0.346638 -0.508912
vn -0.692567 0.215674 -0.688358
vn -0.718911 -0.256169 -0.646177
vn -0.787941 0.346638 -0.508912
vn -0.718911 -0.256169 -0.646177
vn -0.814818 -0.173321 -0.553201
vn -0.814818 -0.173321 -0.553201
vn -0.718911 -0.256169 -0.646177
vn -0.722730 -0.146594 -0.675404
vn -0.814818 -0.173321 -0.553201
vn -0.722730 -0.146594 -0.675404
vn -0.822615 -0.145338 -0.549710
vn -0.822615 -0.145338 -0.549710
vn -0.722730 -0.146594 -0.675404
vn -0.654328 -0.277917 -0.703290
vn -0.822615 -0.145338 -0.549710
vn -0.654328 -0.277917 -0.703290
vn -0.734208 -0.412220 -0.539457
vn -0.734208 -0.412220 -0.539457
vn -0.654328 -0.277917 -0.703290
vn -0.670954 -0.391397 -0.629785
vn -0.734208 -0.412220 -0.539457
vn -0.670954 -0.391397 -0.629785
vn -0.685105 -0.593302 -0.422640
vn -0.685105 -0.593302 -0.422640
vn -0.670954 -0.391397 -0.629785
vn -0.389053 -0.541717 -0.745104
vn -0.685105 -0.593302 -0.422640
vn -0.389053 -0.541717 -0.745104
vn -0.549723 -0.734035 -0.398744
vn -0.549723 -0.734035 -0.398744
vn -0.389053 -0.541717 -0.745104
vn 0.362792 -0.572341 -0.735397
vn -0.549723 -0.734035 -0.398744
vn 0.362792 -0.572341 -0.735397
vn 0.075183 -0.870293 -0.486763
vn 0.075183 -0.870293 -0.486763
vn 0.362792 -0.572341 -0.735397
vn 0.009516 -0.669965 -0.742332
vn 0.075183 -0.870293 -0.486763
vn 0.009516 -0.669965 -0.742332
vn 0.193873 -0.893783 -0.404432
vn 0.193873 -0.893783 -0.404432
vn 0.009516 -0.669965 -0.742332
vn 0.349078 -0.689179 -0.634962
vn 0.193873 -0.893783 -0.404432
vn 0.349078 -0.689179 -0.634962
vn 0.303033 -0.868987 -0.391192
vn 0.303033 -0.868987 -0.391192
vn 0.349078 -0.689179 -0.634962
vn 0.521906 -0.429412 -0.737034
vn 0.303033 -0.868987 -0.391192
vn 0.521906 -0.429412 -0.737034
vn 0.436501 -0.696848 -0.569095
vn 0.436501 -0.696848 -0.569095
vn 0.521906 -0.429412 -0.737034
vn 0.356799 -0.577420 -0.734357
vn 0.436501 -0.696848 -0.569095
vn 0.356799 -0.577420 -0.734357
vn 0.938056 -0.230196 -0.258963
vn 0.938056 -0.230196 -0.258963
vn 0.356799 -0.577420 -0.734357
vn 0.935534 -0.032285 -0.351757
vn 0.938056 -0.230196 -0.258963
vn 0.935534 -0.032285 -0.351757
vn 0.893993 -0.140280 -0.425556
vn 0.893993 -0.140280 -0.425556
vn 0.935534 -0.032285 -0.351757
vn 0.881651 0.185730 -0.433816
vn 0.893993 -0.140280 -0.425556
vn 0.881651 0.185730 -0.433816
vn 0.788184 -0.101550 -0.607004
vn 0.881651 0.185730 -0.433816
vn 0.636723 0.584763 -0.502628
vn 0.442095 0.247754 -0.862073
vn 0.881651 0.185730 -0.433816
vn 0.442095 0.247754 -0.862073
vn 0.751440 -0.032585 -0.658996
vn 0.751440 -0.032585 -0.658996
vn 0.442095 0.247754 -0.862073
vn 0.557925 0.051559 -0.828289
vn 0.751440 -0.032585 -0.658996
vn 0.557925 0.051559 -0.828289
vn 0.692827 0.445031 -0.567396
vn 0.692827 0.445031 -0.567396
vn 0.557925 0.051559 -0.828289
vn 0.295469 0.376154 -0.878183
vn 0.692827 0.445031 -0.567396
vn 0.295469 0.376154 -0.878183
vn 0.761641 0.356902 -0.540855
vn 0.761641 0.356902 -0.540855
vn 0.295469 0.376154 -0.878183
vn 0.356223 0.288249 -0.888829
vn 0.761641 0.356902 -0.540855
vn 0.356223 0.288249 -0.888829
vn 0.105126 0.918712 -0.380678
vn 0.105126 0.918712 -0.380678
vn 0.356223 0.288249 -0.888829
vn -0.508544 0.704805 -0.494604
vn 0.105126 0.918712 -0.380678
vn -0.508544 0.704805 -0.494604
vn -0.051863 0.842670 -0.535926
vn -0.051863 0.842670 -0.535926
vn -0.508544 0.704805 -0.494604
vn 0.117798 0.662236 -0.739978
vn -0.051863 0.842670 -0.535926
vn 0.117798 0.662236 -0.739978
vn 0.422748 0.621195 -0.659849
vn 0.422748 0.621195 -0.659849
vn 0.117798 0.662236 -0.739978
vn -0.126909 0.383775 -0.914664
vn 0.422748 0.621195 -0.659849
vn -0.126909 0.383775 -0.914664
vn -0.467107 0.605065 -0.644754
vn -0.467107 0.605065 -0.644754
vn -0.126909 0.383775 -0.914664
vn -0.568527 0.357722 -0.740819
vn -0.467107 0.605065 -0.644754
vn -0.568527 0.357722 -0.740819
vn -0.438481 0.480872 -0.759274
vn -0.438481 0.480872 -0.759274
vn -0.568527 0.357722 -0.740819
vn -0.567036 0.305146 -0.765085
vn -0.438481 0.480872 -0.759274
vn -0.567036 0.305146 -0.765085
vn -0.647665 0.139332 -0.749077
vn -0.647665 0.139332 -0.749077
vn -0.567036 0.305146 -0.765085
vn -0.681741 0.180861 -0.708886
vn -0.647665 0.139332 -0.749077
vn -0.681741 0.180861 -0.708886
vn -0.692567 0.215674 -0.688358
vn -0.692567 0.215674 -0.688358
vn -0.681741 0.180861 -0.708886
vn -0.607180 0.021028 -0.794286
vn -0.692567 0.215674 -0.688358
vn -0.607180 0.021028 -0.794286
vn -0.718911 -0.256169 -0.646177
vn -0.718911 -0.256169 -0.646177
vn -0.607180 0.021028 -0.794286
vn -0.660646 -0.414373 -0.625973
vn -0.718911 -0.256169 -0.646177
vn -0.660646 -0.414373 -0.625973
vn -0.722730 -0.146594 -0.675404
vn -0.722730 -0.146594 -0.675404
vn -0.660646 -0.414373 -0.625973
vn -0.437563 -0.210980 -0.874086
vn -0.722730 -0.146594 -0.675404
vn -0.437563 -0.210980 -0.874086
vn -0.654328 -0.277917 -0.703290
vn -0.654328 -0.277917 -0.703290
vn -0.437563 -0.210980 -0.874086
vn -0.326964 -0.392647 -0.859606
vn -0.654328 -0.277917 -0.703290
vn -0.326964 -0.392647 -0.859606
vn -0.670954 -0.391397 -0.629785
vn -0.670954 -0.391397 -0.629785
vn -0.326964 -0.392647 -0.859606
vn -0.449873 -0.207414 -0.868674
vn -0.670954 -0.391397 -0.629785
vn -0.449873 -0.207414 -0.868674
vn -0.389053 -0.541717 -0.745104
vn -0.389053 -0.541717 -0.745104
vn -0.449873 -0.207414 -0.868674
vn 0.553751 -0.557232 -0.618750
vn -0.389053 -0.541717 -0.745104
vn 0.553751 -0.557232 -0.618750
vn 0.362792 -0.572341 -0.735397
vn 0.362792 -0.572341 -0.735397
vn 0.553751 -0.557232 -0.618750
vn -0.145060 -0.576356 -0.804221
vn 0.362792 -0.572341 -0.735397
vn -0.145060 -0.576356 -0.804221
vn 0.009516 -0.669965 -0.742332
vn 0.009516 -0.669965 -0.742332
vn -0.145060 -0.576356 -0.804221
vn -0.104339 -0.453341 -0.885209
vn 0.009516 -0.669965 -0.742332
vn -0.104339 -0.453341 -0.885209
vn 0.349078 -0.689179 -0.634962
vn 0.349078 -0.689179 -0.634962
vn -0.104339 -0.453341 -0.885209
vn 0.756753 -0.232602 -0.610918
vn 0.349078 -0.689179 -0.634962
vn 0.756753 -0.232602 -0.610918
vn 0.521906 -0.429412 -0.737034
vn 0.521906 -0.429412 -0.737034
vn 0.756753 -0.232602 -0.610918
vn 0.474108 -0.507834 -0.719254
vn 0.521906 -0.429412 -0.737034
vn 0.474108 -0.507834 -0.719254
vn 0.356799 -0.577420 -0.734357
vn 0.356799 -0.577420 -0.734357
vn 0.474108 -0.507834 -0.719254
vn 0.358591 -0.576825 -0.733952
vn 0.356799 -0.577420 -0.734357
vn 0.358591 -0.576825 -0.733952
vn 0.935534 -0.032285 -0.351757
vn 0.935534 -0.032285 -0.351757
vn 0.358591 -0.576825 -0.733952
vn 0.636723 0.584763 -0.502628
vn 0.935534 -0.032285 -0.351757
vn 0.636723 0.584763 -0.502628
vn 0.881651 0.185730 -0.433816
vn 0.636723 0.584763 -0.502628
vn 0.094158 0.187065 -0.977825
vn 0.076752 0.871083 -0.485101
vn 0.636723 0.584763 -0.502628
vn 0.076752 0.871083 -0.485101
vn 0.442095 0.247754 -0.862073
vn 0.442095 0.247754 -0.862073
vn 0.076752 0.871083 -0.485101
vn 0.488206 -0.196436 -0.850334
vn 0.442095 0.247754 -0.862073
vn 0.488206 -0.196436 -0.850334
vn 0.557925 0.051559 -0.828289
vn 0.557925 0.051559 -0.828289
vn 0.488206 -0.196436 -0.850334
vn -0.118871 0.478673 -0.869909
vn 0.557925 0.051559 -0.828289
vn -0.118871 0.478673 -0.869909
vn 0.295469 0.376154 -0.878183
vn 0.295469 0.376154 -0.878183
vn -0.118871 0.478673 -0.869909
vn 0.489262 0.150595 -0.859037
vn 0.295469 0.376154 -0.878183
vn 0.489262 0.150595 -0.859037
vn 0.356223 0.288249 -0.888829
vn 0.356223 0.288249 -0.888829
vn 0.489262 0.150595 -0.859037
vn -0.096066 0.179036 -0.979141
vn 0.356223 0.288249 -0.888829
vn -0.096066 0.179036 -0.979141
vn -0.508544 0.704805 -0.494604
vn -0.508544 0.704805 -0.494604
vn -0.096066 0.179036 -0.979141
vn -0.327795 0.592709 -0.735694
vn -0.508544 0.704805 -0.494604
vn -0.327795 0.592709 -0.735694
vn 0.117798 0.662236 -0.739978
vn 0.117798 0.662236 -0.739978
vn -0.327795 0.592709 -0.735694
vn 0.205970 0.419119 -0.884260
vn 0.117798 0.662236 -0.739978
vn 0.205970 0.419119 -0.884260
vn -0.126909 0.383775 -0.914664
vn -0.126909 0.383775 -0.914664
vn 0.205970 0.419119 -0.884260
vn -0.414930 0.289833 -0.862456
vn -0.126909 0.383775 -0.914664
vn -0.414930 0.289833 -0.862456
vn -0.568527 0.357722 -0.740819
vn -0.568527 0.357722 -0.740819
vn -0.414930 0.289833 -0.862456
vn -0.150797 0.598948 -0.786462
vn -0.568527 0.357722 -0.740819
vn -0.150797 0.598948 -0.786462
vn -0.567036 0.305146 -0.765085
vn -0.567036 0.305146 -0.765085
vn -0.150797 0.598948 -0.786462
vn -0.630414 -0.107914 -0.768722
vn -0.567036 0.305146 -0.765085
vn -0.630414 -0.107914 -0.768722
vn -0.681741 0.180861 -0.708886
vn -0.681741 0.180861 -0.708886
vn -0.630414 -0.107914 -0.768722
vn -0.397262 -0.084140 -0.913840
vn -0.681741 0.180861 -0.708886
vn -0.397262 -0.084140 -0.913840
vn -0.607180 0.021028 -0.794286
vn -0.607180 0.021028 -0.794286
vn -0.397262 -0.084140 -0.913840
vn -0.218075 -0.634783 -0.741278
vn -0.607180 0.021028 -0.794286
vn -0.218075 -0.634783 -0.741278
vn -0.660646 -0.414373 -0.625973
vn -0.660646 -0.414373 -0.625973
vn -0.218075 -0.634783 -0.741278
vn -0.058366 -0.640746 -0.765531
vn -0.660646 -0.414373 -0.625973
vn -0.058366 -0.640746 -0.765531
vn -0.437563 -0.210980 -0.874086
vn -0.437563 -0.210980 -0.874086
vn -0.058366 -0.640746 -0.765531
vn 0.158974 -0.569648 -0.806367
vn -0.437563 -0.210980 -0.874086
vn 0.158974 -0.569648 -0.806367
vn -0.326964 -0.392647 -0.859606
vn -0.326964 -0.392647 -0.859606
vn 0.158974 -0.569648 -0.806367
vn -0.570029 0.019827 -0.821385
vn -0.326964 -0.392647 -0.859606
vn -0.570029 0.019827 -0.821385
vn -0.449873 -0.207414 -0.868674
vn -0.449873 -0.207414 -0.868674
vn -0.570029 0.019827 -0.821385
vn 0.277068 -0.425840 -0.861333
vn -0.449873 -0.207414 -0.868674
vn 0.277068 -0.425840 -0.861333
vn 0.553751 -0.557232 -0.618750
vn 0.553751 -0.557232 -0.618750
vn 0.277068 -0.425840 -0.861333
vn 0.335499 -0.619368 -0.709806
vn 0.553751 -0.557232 -0.618750
vn 0.335499 -0.619368 -0.709806
vn -0.145060 -0.576356 -0.804221
vn -0.145060 -0.576356 -0.804221
vn 0.335499 -0.619368 -0.709806
vn -0.272735 -0.346205 -0.897640
vn -0.145060 -0.576356 -0.804221
vn -0.272735 -0.346205 -0.897640
vn -0.104339 -0.453341 -0.885209
vn -0.104339 -0.453341 -0.885209
vn -0.272735 -0.346205 -0.897640
vn 0.097380 -0.235433 -0.967000
vn -0.104339 -0.453341 -0.885209
vn 0.097380 -0.235433 -0.967000
vn 0.756753 -0.232602 -0.610918
vn 0.756753 -0.232602 -0.610918
vn 0.097380 -0.235433 -0.967000
vn 0.348497 -0.277166 -0.895393
vn 0.756753 -0.232602 -0.610918
vn 0.348497 -0.277166 -0.895393
vn 0.474108 -0.507834 -0.719254
vn 0.474108 -0.507834 -0.719254
vn 0.348497 -0.277166 -0.895393
vn 0.167810 -0.600091 -0.782132
vn 0.474108 -0.507834 -0.719254
vn 0.167810 -0.600091 -0.782132
vn 0.358591 -0.576825 -0.733952
vn 0.358591 -0.576825 -0.733952
vn 0.167810 -0.600091 -0.782132
vn 0.094158 0.187065 -0.977825
vn 0.358591 -0.576825 -0.733952
vn 0.094158 0.187065 -0.977825
vn 0.636723 0.584763 -0.502628
vn 0.044980 -0.166586 -0.985000
vn 0.076752 0.871083 -0.485101
vn 0.094158 0.187065 -0.977825
vn 0.044980 -0.166586 -0.985000
vn 0.488206 -0.196436 -0.850334
vn 0.076752 0.871083 -0.485101
vn 0.044980 -0.166586 -0.985000
vn -0.118871 0.478673 -0.869909
vn 0.488206 -0.196436 -0.850334
vn 0.044980 -0.166586 -0.985000
vn 0.489262 0.150595 -0.859037
vn -0.118871 0.478673 -0.869909
vn 0.044980 -0.166586 -0.985000
vn -0.096066 0.179036 -0.979141
vn 0.489262 0.150595 -0.859037
vn 0.044980 -0.166586 -0.985000
vn -0.327795 0.592709 -0.735694
vn -0.096066 0.179036 -0.979141
vn 0.044980 -0.166586 -0.985000
vn 0.205970 0.419119 -0.884260
vn -0.327795 0.592709 -0.735694
vn 0.044980 -0.166586 -0.985000
vn -0.414930 0.289833 -0.862456
vn 0.205970 0.419119 -0.884260
vn 0.044980 -0.166586 -0.985000
vn -0.150797 0.598948 -0.786462
vn -0.414930 0.289833 -0.862456
vn 0.044980 -0.166586 -0.985000
vn -0.630414 -0.107914 -0.768722
vn -0.150797 0.598948 -0.786462
vn 0.044980 -0.166586 -0.985000
vn -0.397262 -0.084140 -0.913840
vn -0.630414 -0.107914 -0.768722
vn 0.044980 -0.166586 -0.985000
vn -0.218075 -0.634783 -0.741278
vn -0.397262 -0.084140 -0.913840
vn 0.044980 -0.166586 -0.985000
vn -0.058366 -0.640746 -0.765531
vn -0.218075 -0.634783 -0.741278
vn 0.044980 -0.166586 -0.985000
vn 0.158974 -0.569648 -0.806367
vn -0.058366 -0.640746 -0.765531
vn 0.044980 -0.166586 -0.985000
vn -0.570029 0.019827 -0.821385
vn 0.158974 -0.569648 -0.806367
vn 0.044980 -0.166586 -0.985000
vn 0.277068 -0.425840 -0.861333
vn -0.570029 0.019827 -0.821385
vn 0.044980 -0.166586 -0.985000
vn 0.335499 -0.619368 -0.709806
vn 0.277068 -0.425840 -0.861333
vn 0.044980 -0.166586 -0.985000
vn -0.272735 -0.346205 -0.897640
vn 0.335499 -0.619368 -0.709806
vn 0.044980 -0.166586 -0.985000
vn 0.097380 -0.235433 -0.967000
vn -0.272735 -0.346205 -0.897640
vn 0.044980 -0.166586 -0.985000
vn 0.348497 -0.277166 -0.895393
vn 0.097380 -0.235433 -0.967000
vn 0.044980 -0.166586 -0.985000
vn 0.167810 -0.600091 -0.782132
vn 0.348497 -0.277166 -0.895393
vn 0.044980 -0.166586 -0.985000
vn 0.094158 0.187065 -0.977825
vn 0.167810 -0.600091 -0.782132
usemtl M_Rock
f 1/1/1 2/2/2 3/3/3
f 1/1/4 3/2/5 4/3/6
f 1/1/7 4/2/8 5/3/9
f 1/1/10 5/2/11 6/3/12
f 1/1/13 6/2/14 7/3/15
f 1/1/16 7/2/17 8/3/18
f 1/1/19 8/2/20 9/3/21
f 1/1/22 9/2/23 10/3/24
f 1/1/25 10/2/26 11/3/27
f 1/1/28 11/2/29 12/3/30
f 1/1/31 12/2/32 13/3/33
f 1/1/34 13/2/35 14/3/36
f 1/1/37 14/2/38 15/3/39
f 1/1/40 15/2/41 16/3/42
f 1/1/43 16/2/44 17/3/45
f 1/1/46 17/2/47 18/3/48
f 1/1/49 18/2/50 19/3/51
f 1/1/52 19/2/53 20/3/54
f 1/1/55 20/2/56 21/3/57
f 1/1/58 21/2/59 22/3/60
f 1/1/61 22/2/62 23/3/63
f 1/1/64 23/2/65 2/3/66
f 2/1/67 24/2/68 25/3/69
f 2/1/70 25/2/71 3/3/72
f 3/1/73 25/2/74 26/3/75
f 3/1/76 26/2/77 4/3/78
f 4/1/79 26/2/80 27/3/81
f 4/1/82 27/2/83 5/3/84
f 5/1/85 27/2/86 28/3/87
f 5/1/88 28/2/89 6/3/90
f 6/1/91 28/2/92 29/3/93
f 6/1/94 29/2/95 7/3/96
f 7/1/97 29/2/98 30/3/99
f 7/1/100 30/2/101 8/3/102
f 8/1/103 30/2/104 31/3/105
f 8/1/106 31/2/107 9/3/108
f 9/1/109 31/2/110 32/3/111
f 9/1/112 32/2/113 10/3/114
f 10/1/115 32/2/116 33/3/117
f 10/1/118 33/2/119 11/3/120
f 11/1/121 33/2/122 34/3/123
f 11/1/124 34/2/125 12/3/126
f 12/1/127 34/2/128 35/3/129
f 12/1/130 35/2/131 13/3/132
f 13/1/133 35/2/134 36/3/135
f 13/1/136 36/2/137 14/3/138
f 14/1/139 36/2/140 37/3/141
f 14/1/142 37/2/143 15/3/144
f 15/1/145 37/2/146 38/3/147
f 15/1/148 38/2/149 16/3/150
f 16/1/151 38/2/152 39/3/153
f 16/1/154 39/2/155 17/3/156
f 17/1/157 39/2/158 40/3/159
f 17/1/160 40/2/161 18/3/162
f 18/1/163 40/2/164 41/3/165
f 18/1/166 41/2/167 19/3/168
f 19/1/169 41/2/170 42/3/171
f 19/1/172 42/2/173 20/3/174
f 20/1/175 42/2/176 43/3/177
f 20/1/178 43/2/179 21/3/180
f 21/1/181 43/2/182 44/3/183
f 21/1/184 44/2/185 22/3/186
f 22/1/187 44/2/188 45/3/189
f 22/1/190 45/2/191 23/3/192
f 23/1/193 45/2/194 24/3/195
f 23/1/196 24/2/197 2/3/198
f 24/1/199 46/2/200 47/3/201
f 24/1/202 47/2/203 25/3/204
f 25/1/205 47/2/206 48/3/207
f 25/1/208 48/2/209 26/3/210
f 26/1/211 48/2/212 49/3/213
f 26/1/214 49/2/215 27/3/216
f 27/1/217 49/2/218 50/3/219
f 27/1/220 50/2/221 28/3/222
f 28/1/223 50/2/224 51/3/225
f 28/1/226 51/2/227 29/3/228
f 29/1/229 51/2/230 52/3/231
f 29/1/232 52/2/233 30/3/234
f 30/1/235 52/2/236 53/3/237
f 30/1/238 53/2/239 31/3/240
f 31/1/241 53/2/242 54/3/243
f 31/1/244 54/2/245 32/3/246
f 32/1/247 54/2/248 55/3/249
f 32/1/250 55/2/251 33/3/252
f 33/1/253 55/2/254 56/3/255
f 33/1/256 56/2/257 34/3/258
f 34/1/259 56/2/260 57/3/261
f 34/1/262 57/2/263 35/3/264
f 35/1/265 57/2/266 58/3/267
f 35/1/268 58/2/269 36/3/270
f 36/1/271 58/2/272 59/3/273
f 36/1/274 59/2/275 37/3/276
f 37/1/277 59/2/278 60/3/279
f 37/1/280 60/2/281 38/3/282
f 38/1/283 60/2/284 61/3/285
f 38/1/286 61/2/287 39/3/288
f 39/1/289 61/2/290 62/3/291
f 39/1/292 62/2/293 40/3/294
f 40/1/295 62/2/296 63/3/297
f 40/1/298 63/2/299 41/3/300
f 41/1/301 63/2/302 64/3/303
f 41/1/304 64/2/305 42/3/306
f 42/1/307 64/2/308 65/3/309
f 42/1/310 65/2/311 43/3/312
f 43/1/313 65/2/314 66/3/315
f 43/1/316 66/2/317 44/3/318
f 44/1/319 66/2/320 67/3/321
f 44/1/322 67/2/323 45/3/324
f 45/1/325 67/2/326 46/3/327
f 45/1/328 46/2/329 24/3/330
f 46/1/331 68/2/332 69/3/333
f 46/1/334 69/2/335 47/3/336
f 47/1/337 69/2/338 70/3/339
f 47/1/340 70/2/341 48/3/342
f 48/1/343 70/2/344 71/3/345
f 48/1/346 71/2/347 49/3/348
f 49/1/349 71/2/350 72/3/351
f 49/1/352 72/2/353 50/3/354
f 50/1/355 72/2/356 73/3/357
f 50/1/358 73/2/359 51/3/360
f 51/1/361 73/2/362 74/3/363
f 51/1/364 74/2/365 52/3/366
f 52/1/367 74/2/368 75/3/369
f 52/1/370 75/2/371 53/3/372
f 53/1/373 75/2/374 76/3/375
f 53/1/376 76/2/377 54/3/378
f 54/1/379 76/2/380 77/3/381
f 54/1/382 77/2/383 55/3/384
f 55/1/385 77/2/386 78/3/387
f 55/1/388 78/2/389 56/3/390
f 56/1/391 78/2/392 79/3/393
f 56/1/394 79/2/395 57/3/396
f 57/1/397 79/2/398 80/3/399
f 57/1/400 80/2/401 58/3/402
f 58/1/403 80/2/404 81/3/405
f 58/1/406 81/2/407 59/3/408
f 59/1/409 81/2/410 82/3/411
f 59/1/412 82/2/413 60/3/414
f 60/1/415 82/2/416 83/3/417
f 60/1/418 83/2/419 61/3/420
f 61/1/421 83/2/422 84/3/423
f 61/1/424 84/2/425 62/3/426
f 62/1/427 84/2/428 85/3/429
f 62/1/430 85/2/431 63/3/432
f 63/1/433 85/2/434 86/3/435
f 63/1/436 86/2/437 64/3/438
f 64/1/439 86/2/440 87/3/441
f 64/1/442 87/2/443 65/3/444
f 65/1/445 87/2/446 88/3/447
f 65/1/448 88/2/449 66/3/450
f 66/1/451 88/2/452 89/3/453
f 66/1/454 89/2/455 67/3/456
f 67/1/457 89/2/458 68/3/459
f 67/1/460 68/2/461 46/3/462
f 68/1/463 90/2/464 91/3/465
f 68/1/466 91/2/467 69/3/468
f 69/1/469 91/2/470 92/3/471
f 69/1/472 92/2/473 70/3/474
f 70/1/475 92/2/476 93/3/477
f 70/1/478 93/2/479 71/3/480
f 71/1/481 93/2/482 94/3/483
f 71/1/484 94/2/485 72/3/486
f 72/1/487 94/2/488 95/3/489
f 72/1/490 95/2/491 73/3/492
f 73/1/493 95/2/494 96/3/495
f 73/1/496 96/2/497 74/3/498
f 74/1/499 96/2/500 97/3/501
f 74/1/502 97/2/503 75/3/504
f 75/1/505 97/2/506 98/3/507
f 75/1/508 98/2/509 76/3/510
f 76/1/511 98/2/512 99/3/513
f 76/1/514 99/2/515 77/3/516
f 77/1/517 99/2/518 100/3/519
f 77/1/520 100/2/521 78/3/522
f 78/1/523 100/2/524 101/3/525
f 78/1/526 101/2/527 79/3/528
f 79/1/529 101/2/530 102/3/531
f 79/1/532 102/2/533 80/3/534
f 80/1/535 102/2/536 103/3/537
f 80/1/538 103/2/539 81/3/540
f 81/1/541 103/2/542 104/3/543
f 81/1/544 104/2/545 82/3/546
f 82/1/547 104/2/548 105/3/549
f 82/1/550 105/2/551 83/3/552
f 83/1/553 105/2/554 106/3/555
f 83/1/556 106/2/557 84/3/558
f 84/1/559 106/2/560 107/3/561
f 84/1/562 107/2/563 85/3/564
f 85/1/565 107/2/566 108/3/567
f 85/1/568 108/2/569 86/3/570
f 86/1/571 108/2/572 109/3/573
f 86/1/574 109/2/575 87/3/576
f 87/1/577 109/2/578 110/3/579
f 87/1/580 110/2/581 88/3/582
f 88/1/583 110/2/584 111/3/585
f 88/1/586 111/2/587 89/3/588
f 89/1/589 111/2/590 90/3/591
f 89/1/592 90/2/593 68/3/594
f 90/1/595 112/2/596 113/3/597
f 90/1/598 113/2/599 91/3/600
f 91/1/601 113/2/602 114/3/603
f 91/1/604 114/2/605 92/3/606
f 92/1/607 114/2/608 115/3/609
f 92/1/610 115/2/611 93/3/612
f 93/1/613 115/2/614 116/3/615
f 93/1/616 116/2/617 94/3/618
f 94/1/619 116/2/620 117/3/621
f 94/1/622 117/2/623 95/3/624
f 95/1/625 117/2/626 118/3/627
f 95/1/628 118/2/629 96/3/630
f 96/1/631 118/2/632 119/3/633
f 96/1/634 119/2/635 97/3/636
f 97/1/637 119/2/638 120/3/639
f 97/1/640 120/2/641 98/3/642
f 98/1/643 120/2/644 121/3/645
f 98/1/646 121/2/647 99/3/648
f 99/1/649 121/2/650 122/3/651
f 99/1/652 122/2/653 100/3/654
f 100/1/655 122/2/656 123/3/657
f 100/1/658 123/2/659 101/3/660
f 101/1/661 123/2/662 124/3/663
f 101/1/664 124/2/665 102/3/666
f 102/1/667 124/2/668 125/3/669
f 102/1/670 125/2/671 103/3/672
f 103/1/673 125/2/674 126/3/675
f 103/1/676 126/2/677 104/3/678
f 104/1/679 126/2/680 127/3/681
f 104/1/682 127/2/683 105/3/684
f 105/1/685 127/2/686 128/3/687
f 105/1/688 128/2/689 106/3/690
f 106/1/691 128/2/692 129/3/693
f 106/1/694 129/2/695 107/3/696
f 107/1/697 129/2/698 130/3/699
f 107/1/700 130/2/701 108/3/702
f 108/1/703 130/2/704 131/3/705
f 108/1/706 131/2/707 109/3/708
f 109/1/709 131/2/710 132/3/711
f 109/1/712 132/2/713 110/3/714
f 110/1/715 132/2/716 133/3/717
f 110/1/718 133/2/719 111/3/720
f 111/1/721 133/2/722 112/3/723
f 111/1/724 112/2/725 90/3/726
f 112/1/727 134/2/728 135/3/729
f 112/1/730 135/2/731 113/3/732
f 113/1/733 135/2/734 136/3/735
f 113/1/736 136/2/737 114/3/738
f 114/1/739 136/2/740 137/3/741
f 114/1/742 137/2/743 115/3/744
f 115/1/745 137/2/746 138/3/747
f 115/1/748 138/2/749 116/3/750
f 116/1/751 138/2/752 139/3/753
f 116/1/754 139/2/755 117/3/756
f 117/1/757 139/2/758 140/3/759
f 117/1/760 140/2/761 118/3/762
f 118/1/763 140/2/764 141/3/765
f 118/1/766 141/2/767 119/3/768
f 119/1/769 141/2/770 142/3/771
f 119/1/772 142/2/773 120/3/774
f 120/1/775 142/2/776 143/3/777
f 120/1/778 143/2/779 121/3/780
f 121/1/781 143/2/782 144/3/783
f 121/1/784 144/2/785 122/3/786
f 122/1/787 144/2/788 145/3/789
f 122/1/790 145/2/791 123/3/792
f 123/1/793 145/2/794 146/3/795
f 123/1/796 146/2/797 124/3/798
f 124/1/799 146/2/800 147/3/801
f 124/1/802 147/2/803 125/3/804
f 125/1/805 147/2/806 148/3/807
f 125/1/808 148/2/809 126/3/810
f 126/1/811 148/2/812 149/3/813
f 126/1/814 149/2/815 127/3/816
f 127/1/817 149/2/818 150/3/819
f 127/1/820 150/2/821 128/3/822
f 128/1/823 150/2/824 151/3/825
f 128/1/826 151/2/827 129/3/828
f 129/1/829 151/2/830 152/3/831
f 129/1/832 152/2/833 130/3/834
f 130/1/835 152/2/836 153/3/837
f 130/1/838 153/2/839 131/3/840
f 131/1/841 153/2/842 154/3/843
f 131/1/844 154/2/845 132/3/846
f 132/1/847 154/2/848 155/3/849
f 132/1/850 155/2/851 133/3/852
f 133/1/853 155/2/854 134/3/855
f 133/1/856 134/2/857 112/3/858
f 134/1/859 156/2/860 157/3/861
f 134/1/862 157/2/863 135/3/864
f 135/1/865 157/2/866 158/3/867
f 135/1/868 158/2/869 136/3/870
f 136/1/871 158/2/872 159/3/873
f 136/1/874 159/2/875 137/3/876
f 137/1/877 159/2/878 160/3/879
f 137/1/880 160/2/881 138/3/882
f 138/1/883 160/2/884 161/3/885
f 138/1/886 161/2/887 139/3/888
f 139/1/889 161/2/890 162/3/891
f 139/1/892 162/2/893 140/3/894
f 140/1/895 162/2/896 163/3/897
f 140/1/898 163/2/899 141/3/900
f 141/1/901 163/2/902 164/3/903
f 141/1/904 164/2/905 142/3/906
f 142/1/907 164/2/908 165/3/909
f 142/1/910 165/2/911 143/3/912
f 143/1/913 165/2/914 166/3/915
f 143/1/916 166/2/917 144/3/918
f 144/1/919 166/2/920 167/3/921
f 144/1/922 167/2/923 145/3/924
f 145/1/925 167/2/926 168/3/927
f 145/1/928 168/2/929 146/3/930
f 146/1/931 168/2/932 169/3/933
f 146/1/934 169/2/935 147/3/936
f 147/1/937 169/2/938 170/3/939
f 147/1/940 170/2/941 148/3/942
f 148/1/943 170/2/944 171/3/945
f 148/1/946 171/2/947 149/3/948
f 149/1/949 171/2/950 172/3/951
f 149/1/952 172/2/953 150/3/954
f 150/1/955 172/2/956 173/3/957
f 150/1/958 173/2/959 151/3/960
f 151/1/961 173/2/962 174/3/963
f 151/1/964 174/2/965 152/3/966
f 152/1/967 174/2/968 175/3/969
f 152/1/970 175/2/971 153/3/972
f 153/1/973 175/2/974 176/3/975
f 153/1/976 176/2/977 154/3/978
f 154/1/979 176/2/980 177/3/981
f 154/1/982 177/2/983 155/3/984
f 155/1/985 177/2/986 156/3/987
f 155/1/988 156/2/989 134/3/990
f 156/1/991 178/2/992 179/3/993
f 156/1/994 179/2/995 157/3/996
f 157/1/997 179/2/998 180/3/999
f 157/1/1000 180/2/1001 158/3/1002
f 158/1/1003 180/2/1004 181/3/1005
f 158/1/1006 181/2/1007 159/3/1008
f 159/1/1009 181/2/1010 182/3/1011
f 159/1/1012 182/2/1013 160/3/1014
f 160/1/1015 182/2/1016 183/3/1017
f 160/1/1018 183/2/1019 161/3/1020
f 161/1/1021 183/2/1022 184/3/1023
f 161/1/1024 184/2/1025 162/3/1026
f 162/1/1027 184/2/1028 185/3/1029
f 162/1/1030 185/2/1031 163/3/1032
f 163/1/1033 185/2/1034 186/3/1035
f 163/1/1036 186/2/1037 164/3/1038
f 164/1/1039 186/2/1040 187/3/1041
f 164/1/1042 187/2/1043 165/3/1044
f 165/1/1045 187/2/1046 188/3/1047
f 165/1/1048 188/2/1049 166/3/1050
f 166/1/1051 188/2/1052 189/3/1053
f 166/1/1054 189/2/1055 167/3/1056
f 167/1/1057 189/2/1058 190/3/1059
f 167/1/1060 190/2/1061 168/3/1062
f 168/1/1063 190/2/1064 191/3/1065
f 168/1/1066 191/2/1067 169/3/1068
f 169/1/1069 191/2/1070 192/3/1071
f 169/1/1072 192/2/1073 170/3/1074
f 170/1/1075 192/2/1076 193/3/1077
f 170/1/1078 193/2/1079 171/3/1080
f 171/1/1081 193/2/1082 194/3/1083
f 171/1/1084 194/2/1085 172/3/1086
f 172/1/1087 194/2/1088 195/3/1089
f 172/1/1090 195/2/1091 173/3/1092
f 173/1/1093 195/2/1094 196/3/1095
f 173/1/1096 196/2/1097 174/3/1098
f 174/1/1099 196/2/1100 197/3/1101
f 174/1/1102 197/2/1103 175/3/1104
f 175/1/1105 197/2/1106 198/3/1107
f 175/1/1108 198/2/1109 176/3/1110
f 176/1/1111 198/2/1112 199/3/1113
f 176/1/1114 199/2/1115 177/3/1116
f 177/1/1117 199/2/1118 178/3/1119
f 177/1/1120 178/2/1121 156/3/1122
f 178/1/1123 200/2/1124 201/3/1125
f 178/1/1126 201/2/1127 179/3/1128
f 179/1/1129 201/2/1130 202/3/1131
f 179/1/1132 202/2/1133 180/3/1134
f 180/1/1135 202/2/1136 203/3/1137
f 180/1/1138 203/2/1139 181/3/1140
f 181/1/1141 203/2/1142 204/3/1143
f 181/1/1144 204/2/1145 182/3/1146
f 182/1/1147 204/2/1148 205/3/1149
f 182/1/1150 205/2/1151 183/3/1152
f 183/1/1153 205/2/1154 206/3/1155
f 183/1/1156 206/2/1157 184/3/1158
f 184/1/1159 206/2/1160 207/3/1161
f 184/1/1162 207/2/1163 185/3/1164
f 185/1/1165 207/2/1166 208/3/1167
f 185/1/1168 208/2/1169 186/3/1170
f 186/1/1171 208/2/1172 209/3/1173
f 186/1/1174 209/2/1175 187/3/1176
f 187/1/1177 209/2/1178 210/3/1179
f 187/1/1180 210/2/1181 188/3/1182
f 188/1/1183 210/2/1184 211/3/1185
f 188/1/1186 211/2/1187 189/3/1188
f 189/1/1189 211/2/1190 212/3/1191
f 189/1/1192 212/2/1193 190/3/1194
f 190/1/1195 212/2/1196 213/3/1197
f 190/1/1198 213/2/1199 191/3/1200
f 191/1/1201 213/2/1202 214/3/1203
f 191/1/1204 214/2/1205 192/3/1206
f 192/1/1207 214/2/1208 215/3/1209
f 192/1/1210 215/2/1211 193/3/1212
f 193/1/1213 215/2/1214 216/3/1215
f 193/1/1216 216/2/1217 194/3/1218
f 194/1/1219 216/2/1220 217/3/1221
f 194/1/1222 217/2/1223 195/3/1224
f 195/1/1225 217/2/1226 218/3/1227
f 195/1/1228 218/2/1229 196/3/1230
f 196/1/1231 218/2/1232 219/3/1233
f 196/1/1234 219/2/1235 197/3/1236
f 197/1/1237 219/2/1238 220/3/1239
f 197/1/1240 220/2/1241 198/3/1242
f 198/1/1243 220/2/1244 221/3/1245
f 198/1/1246 221/2/1247 199/3/1248
f 199/1/1249 221/2/1250 200/3/1251
f 199/1/1252 200/2/1253 178/3/1254
f 222/1/1255 201/2/1256 200/3/1257
f 222/1/1258 202/2/1259 201/3/1260
f 222/1/1261 203/2/1262 202/3/1263
f 222/1/1264 204/2/1265 203/3/1266
f 222/1/1267 205/2/1268 204/3/1269
f 222/1/1270 206/2/1271 205/3/1272
f 222/1/1273 207/2/1274 206/3/1275
f 222/1/1276 208/2/1277 207/3/1278
f 222/1/1279 209/2/1280 208/3/1281
f 222/1/1282 210/2/1283 209/3/1284
f 222/1/1285 211/2/1286 210/3/1287
f 222/1/1288 212/2/1289 211/3/1290
f 222/1/1291 213/2/1292 212/3/1293
f 222/1/1294 214/2/1295 213/3/1296
f 222/1/1297 215/2/1298 214/3/1299
f 222/1/1300 216/2/1301 215/3/1302
f 222/1/1303 217/2/1304 216/3/1305
f 222/1/1306 218/2/1307 217/3/1308
f 222/1/1309 219/2/1310 218/3/1311
f 222/1/1312 220/2/1313 219/3/1314
f 222/1/1315 221/2/1316 220/3/1317
f 222/1/1318 200/2/1319 221/3/1320
