# Original SpaceSurvival generated source; centimeters; X forward; Z up
mtllib Palette.mtl
o SM_AsteroidMassive
v 0.000000 0.000000 104.000000
v 23.683226 0.000000 80.657660
v 27.480025 8.068863 97.539400
v 23.461542 15.077818 94.980493
v 14.547378 16.788570 75.655507
v 11.691265 25.600299 95.848224
v 3.703420 25.757854 88.625272
v -2.941210 20.456568 70.385092
v -11.995610 26.266723 98.343334
v -14.793203 17.072266 76.933948
v -19.384649 12.457757 78.475809
v -23.131470 6.792012 82.104356
v -25.590458 0.000000 87.153096
v -20.539089 -6.030821 72.902787
v -22.272560 -14.313705 90.167080
v -18.197113 -21.000588 94.636420
v -10.345299 -22.653045 84.813623
v -3.906138 -27.167787 93.476440
v 3.688689 -25.655394 88.272738
v 11.515634 -25.215721 94.408352
v 14.351919 -16.562998 74.638998
v 19.784919 -12.714995 80.096242
v 23.523450 -6.907108 83.495674
v 40.725117 0.000000 63.369519
v 53.502646 15.709794 86.766390
v 42.003597 26.994073 77.692241
v 26.604041 30.702700 63.214504
v 20.358851 44.579664 76.258654
v 6.560133 45.626728 71.726649
v -6.006084 41.773229 65.668827
v -17.327107 37.941071 64.902575
v -30.711158 35.442565 72.973522
v -33.770923 21.703254 62.464619
v -46.696287 13.711267 75.728373
v -47.834651 0.000000 74.432170
v -39.458847 -11.586163 63.991260
v -45.483945 -29.230757 84.129691
v -25.950343 -29.948292 61.661234
v -17.407166 -38.116376 65.202454
v -7.551757 -52.523624 82.568786
v 6.083441 -42.311263 66.514633
v 19.219304 -42.084405 71.990225
v 31.830947 -36.734871 75.634280
v 39.085960 -25.119021 72.295614
v 45.551870 -13.375236 73.872447
v 66.620383 0.000000 57.726891
v 63.411464 18.619286 57.266023
v 46.947997 30.171646 48.357207
v 48.562010 56.043547 64.256748
v 25.445993 55.718952 53.077230
v 7.908223 55.002900 48.150386
v -9.149123 63.633548 55.705788
v -30.786605 67.413261 64.217093
v -45.592382 52.616414 60.327367
v -55.078313 35.396682 56.731565
v -63.301503 18.586998 57.166719
v -59.725396 0.000000 51.752350
v -66.551557 -19.541300 60.101798
v -52.905940 -34.000583 54.493985
v -36.650136 -42.296511 48.495079
v -23.911518 -52.358921 49.876504
v -8.062702 -56.077321 49.090950
v 10.099784 -70.245541 61.494028
v 31.467253 -68.903672 65.636842
v 47.598470 -54.931562 62.981801
v 50.241200 -32.288059 51.749260
v 55.622903 -16.332358 50.232280
v 93.161988 0.000000 42.545654
v 73.285550 21.518579 34.881328
v 59.191197 38.039873 32.132660
v 53.781800 62.067506 37.506181
v 34.688886 75.958064 38.135076
v 11.560686 80.406334 37.097946
v -11.192886 77.848231 35.917686
v -30.880215 67.618238 33.948030
v -52.318440 60.378699 36.485668
v -66.300027 42.608440 35.991775
v -81.869686 24.039109 38.967073
v -78.541604 0.000000 35.868749
v -72.753118 -21.362243 34.627909
v -79.244955 -50.927640 43.019087
v -44.999740 -51.932468 31.381776
v -36.343877 -79.581990 39.954484
v -11.049218 -76.849001 35.456661
v 12.657079 -88.031918 40.616245
v 35.770459 -78.326379 39.324099
v 53.680837 -61.950989 37.435772
v 70.037311 -45.010247 38.020605
v 69.251553 -20.334091 32.961288
v 71.775661 0.000000 10.319782
v 91.068780 26.740206 13.646493
v 66.851312 42.962730 11.425530
v 48.974545 56.519638 10.752632
v 40.281546 88.204283 13.941749
v 12.806319 89.069906 12.938009
v -10.288202 71.556020 10.393998
v -36.440613 79.793811 12.612373
v -50.062817 57.775570 10.991568
v -83.009424 53.346918 14.187106
v -76.615999 22.496487 11.480769
v -101.035719 0.000000 14.526743
v -86.996227 -25.544397 13.036228
v -62.040964 -39.871307 10.603396
v -55.150244 -63.646774 12.108541
v -42.322489 -92.673324 14.648135
v -13.302178 -92.518679 13.438967
v 10.840615 -75.398132 10.952091
v 34.446174 -75.426599 11.922083
v 52.347588 -60.412338 11.493202
v 62.442332 -40.129250 10.671993
v 86.422637 -25.375976 12.950277
v 93.280011 0.000000 -13.411641
v 74.970572 22.013346 -11.234205
v 74.658737 47.980257 -12.759894
v 64.532680 74.474683 -14.168507
v 41.347023 90.537351 -14.310519
v 10.914551 75.912367 -11.026787
v -10.480051 72.890358 -10.587820
v -41.610341 91.113938 -14.401655
v -53.441587 61.674879 -11.733396
v -64.378135 41.373315 -11.002841
v -92.658456 27.206977 -13.884703
v -79.635432 0.000000 -11.449847
v -90.201903 -26.485668 -13.516593
v -78.363691 -50.361286 -13.393106
v -52.740291 -60.865541 -11.579422
v -35.671757 -78.110251 -12.346266
v -11.447005 -79.615667 -11.564717
v 13.777434 -95.824159 -13.919111
v 33.342324 -73.009506 -11.540032
v 52.349581 -60.414637 -11.493640
v 82.802259 -53.213781 -14.151700
v 76.779266 -22.544427 -11.505235
v 78.202339 0.000000 -35.713811
v 77.249506 22.682502 -36.768031
v 55.145909 35.440124 -29.936626
v 48.355916 55.805702 -33.722295
v 36.198421 79.263487 -39.794578
v 13.385396 93.097472 -42.953394
v -10.736526 74.674177 -34.453238
v -32.973761 72.202464 -36.249561
v -43.975036 50.749897 -30.667171
v -67.047931 43.089089 -36.397783
v -72.887326 21.401650 -34.691788
v -80.108980 0.000000 -36.584545
v -71.180598 -20.900509 -33.879445
v -62.784398 -40.349083 -34.083273
v -60.296671 -69.586067 -42.049500
v -36.604461 -80.152589 -40.240956
v -10.812258 -75.200906 -34.696261
v 9.611180 -66.847228 -30.842034
v 27.837187 -60.954938 -30.602692
v 44.728806 -51.619794 -31.192833
v 58.291295 -37.461540 -31.644137
v 79.113327 -23.229769 -37.655144
v 67.014589 0.000000 -58.068472
v 55.224761 16.215453 -49.872724
v 63.642759 40.900718 -65.553086
v 46.250315 53.375709 -61.197937
v 29.732498 65.105090 -62.018357
v 10.826186 75.297780 -65.916836
v -8.824068 61.372742 -53.726644
v -31.674560 69.357611 -66.069259
v -51.092765 58.964195 -67.605417
v -64.265396 41.300862 -66.194412
v -53.273311 15.642456 -48.110396
v -74.989279 0.000000 -64.978581
v -75.050407 -22.036788 -67.776992
v -47.948190 -30.814430 -49.387421
v -49.339900 -56.941280 -65.286044
v -30.795286 -67.432271 -64.235202
v -7.854911 -54.632109 -47.825790
v 10.179396 -70.799255 -61.978758
v 30.233465 -66.202055 -63.063313
v 47.500616 -54.818633 -62.852323
v 46.951180 -30.173691 -48.360485
v 74.711104 -21.937159 -67.470572
v 40.206118 0.000000 -62.561941
v 38.754826 11.379444 -62.849534
v 46.532438 29.904582 -86.069044
v 30.941532 35.708431 -73.520920
v 17.452732 38.216153 -65.373135
v 6.511626 45.289357 -71.196290
v -7.075106 49.208442 -77.357215
v -18.098955 39.631182 -67.793705
v -35.851941 41.375346 -85.188662
v -42.583542 27.366781 -78.764941
v -43.763119 12.850011 -70.971590
v -45.269898 0.000000 -70.441336
v -39.268782 -11.530355 -63.683027
v -47.094384 -30.265723 -87.108452
v -28.972812 -33.436407 -68.842996
v -22.897481 -50.138490 -85.767666
v -6.869274 -47.776853 -75.106713
v 6.862855 -47.732208 -75.036529
v 17.432625 -38.172124 -65.297819
v 31.185705 -35.990222 -74.101105
v 34.181723 -21.967259 -63.224458
v 44.786303 -13.150445 -72.630910
v 25.814887 0.000000 -87.917432
v 27.471449 8.066345 -97.508960
v 18.740347 12.043690 -75.867452
v 14.355548 16.567186 -74.657870
v 11.376829 24.911781 -93.270395
v 3.056540 21.258700 -73.144995
v -3.136490 21.814768 -75.058264
v -10.217936 22.374158 -83.769464
v -15.807612 18.242957 -82.209516
v -24.594814 15.806127 -99.568373
v -20.027969 5.880742 -71.088585
v -28.137565 0.000000 -95.827747
v -23.464923 -6.889923 -83.287937
v -18.112979 -11.640505 -73.327646
v -14.690205 -16.953400 -76.398296
v -11.830438 -25.905046 -96.989206
v -3.113729 -21.656461 -74.513573
v 3.429652 -23.853754 -82.073818
v 8.572504 -18.771165 -70.279760
v 16.157228 -18.646436 -84.027739
v 22.375024 -14.379555 -90.581888
v 25.831377 -7.584777 -91.687582
v 0.000000 0.000000 -94.000000
vt 0.05 0.05
vt 0.95 0.05
vt 0.05 0.95
vn -0.134708 0.021033 0.990662
vn 0.614267 -0.514228 0.598536
vn 0.393234 -0.047559 0.918208
vn -0.134708 0.021033 0.990662
vn 0.393234 -0.047559 0.918208
vn -0.154915 0.773732 0.614281
vn -0.134708 0.021033 0.990662
vn -0.154915 0.773732 0.614281
vn 0.658291 0.360175 0.661005
vn -0.134708 0.021033 0.990662
vn 0.658291 0.360175 0.661005
vn 0.208794 0.458925 0.863593
vn -0.134708 0.021033 0.990662
vn 0.208794 0.458925 0.863593
vn -0.740963 0.406506 0.534534
vn -0.134708 0.021033 0.990662
vn -0.740963 0.406506 0.534534
vn -0.148111 0.621088 0.769619
vn -0.134708 0.021033 0.990662
vn -0.148111 0.621088 0.769619
vn 0.003468 0.669172 0.743099
vn -0.134708 0.021033 0.990662
vn 0.003468 0.669172 0.743099
vn -0.759292 -0.014858 0.650580
vn -0.134708 0.021033 0.990662
vn -0.759292 -0.014858 0.650580
vn -0.262623 0.687542 0.676990
vn -0.134708 0.021033 0.990662
vn -0.262623 0.687542 0.676990
vn -0.327655 0.516876 0.790873
vn -0.134708 0.021033 0.990662
vn -0.327655 0.516876 0.790873
vn -0.398165 -0.412148 0.819511
vn -0.134708 0.021033 0.990662
vn -0.398165 -0.412148 0.819511
vn -0.693948 0.146743 0.704914
vn -0.134708 0.021033 0.990662
vn -0.693948 0.146743 0.704914
vn -0.729274 0.156539 0.666074
vn -0.134708 0.021033 0.990662
vn -0.729274 0.156539 0.666074
vn -0.360452 -0.635267 0.683015
vn -0.134708 0.021033 0.990662
vn -0.360452 -0.635267 0.683015
vn -0.464040 -0.513765 0.721604
vn -0.134708 0.021033 0.990662
vn -0.464040 -0.513765 0.721604
vn 0.076294 -0.474896 0.876729
vn -0.134708 0.021033 0.990662
vn 0.076294 -0.474896 0.876729
vn 0.001155 -0.714057 0.700086
vn -0.134708 0.021033 0.990662
vn 0.001155 -0.714057 0.700086
vn 0.314081 -0.400193 0.860929
vn -0.134708 0.021033 0.990662
vn 0.314081 -0.400193 0.860929
vn 0.503699 -0.135329 0.853214
vn -0.134708 0.021033 0.990662
vn 0.503699 -0.135329 0.853214
vn 0.144803 -0.636739 0.757361
vn -0.134708 0.021033 0.990662
vn 0.144803 -0.636739 0.757361
vn 0.570890 -0.010613 0.820958
vn -0.134708 0.021033 0.990662
vn 0.570890 -0.010613 0.820958
vn 0.614267 -0.514228 0.598536
vn 0.614267 -0.514228 0.598536
vn 0.585173 0.003857 0.810899
vn 0.791939 -0.047409 0.608757
vn 0.614267 -0.514228 0.598536
vn 0.791939 -0.047409 0.608757
vn 0.393234 -0.047559 0.918208
vn 0.393234 -0.047559 0.918208
vn 0.791939 -0.047409 0.608757
vn 0.297817 0.696483 0.652853
vn 0.393234 -0.047559 0.918208
vn 0.297817 0.696483 0.652853
vn -0.154915 0.773732 0.614281
vn -0.154915 0.773732 0.614281
vn 0.297817 0.696483 0.652853
vn 0.011088 0.607545 0.794208
vn -0.154915 0.773732 0.614281
vn 0.011088 0.607545 0.794208
vn 0.658291 0.360175 0.661005
vn 0.658291 0.360175 0.661005
vn 0.011088 0.607545 0.794208
vn 0.563559 0.565926 0.601772
vn 0.658291 0.360175 0.661005
vn 0.563559 0.565926 0.601772
vn 0.208794 0.458925 0.863593
vn 0.208794 0.458925 0.863593
vn 0.563559 0.565926 0.601772
vn -0.220604 0.738020 0.637700
vn 0.208794 0.458925 0.863593
vn -0.220604 0.738020 0.637700
vn -0.740963 0.406506 0.534534
vn -0.740963 0.406506 0.534534
vn -0.220604 0.738020 0.637700
vn -0.334934 0.287499 0.897309
vn -0.740963 0.406506 0.534534
vn -0.334934 0.287499 0.897309
vn -0.148111 0.621088 0.769619
vn -0.148111 0.621088 0.769619
vn -0.334934 0.287499 0.897309
vn 0.135408 0.510921 0.848896
vn -0.148111 0.621088 0.769619
vn 0.135408 0.510921 0.848896
vn 0.003468 0.669172 0.743099
vn 0.003468 0.669172 0.743099
vn 0.135408 0.510921 0.848896
vn -0.508475 0.088523 0.856515
vn 0.003468 0.669172 0.743099
vn -0.508475 0.088523 0.856515
vn -0.759292 -0.014858 0.650580
vn -0.759292 -0.014858 0.650580
vn -0.508475 0.088523 0.856515
vn -0.394521 0.351715 0.848911
vn -0.759292 -0.014858 0.650580
vn -0.394521 0.351715 0.848911
vn -0.262623 0.687542 0.676990
vn -0.262623 0.687542 0.676990
vn -0.394521 0.351715 0.848911
vn -0.453146 0.418698 0.786988
vn -0.262623 0.687542 0.676990
vn -0.453146 0.418698 0.786988
vn -0.327655 0.516876 0.790873
vn -0.327655 0.516876 0.790873
vn -0.453146 0.418698 0.786988
vn -0.556778 -0.072530 0.827489
vn -0.327655 0.516876 0.790873
vn -0.556778 -0.072530 0.827489
vn -0.398165 -0.412148 0.819511
vn -0.398165 -0.412148 0.819511
vn -0.556778 -0.072530 0.827489
vn -0.386730 -0.374846 0.842574
vn -0.398165 -0.412148 0.819511
vn -0.386730 -0.374846 0.842574
vn -0.693948 0.146743 0.704914
vn -0.693948 0.146743 0.704914
vn -0.386730 -0.374846 0.842574
vn -0.563430 -0.224230 0.795152
vn -0.693948 0.146743 0.704914
vn -0.563430 -0.224230 0.795152
vn -0.729274 0.156539 0.666074
vn -0.729274 0.156539 0.666074
vn -0.563430 -0.224230 0.795152
vn -0.382147 -0.709133 0.592533
vn -0.729274 0.156539 0.666074
vn -0.382147 -0.709133 0.592533
vn -0.360452 -0.635267 0.683015
vn -0.360452 -0.635267 0.683015
vn -0.382147 -0.709133 0.592533
vn -0.572181 -0.625860 0.530008
vn -0.360452 -0.635267 0.683015
vn -0.572181 -0.625860 0.530008
vn -0.464040 -0.513765 0.721604
vn -0.464040 -0.513765 0.721604
vn -0.572181 -0.625860 0.530008
vn -0.496670 -0.546598 0.674203
vn -0.464040 -0.513765 0.721604
vn -0.496670 -0.546598 0.674203
vn 0.076294 -0.474896 0.876729
vn 0.076294 -0.474896 0.876729
vn -0.496670 -0.546598 0.674203
vn 0.272803 -0.477014 0.835485
vn 0.076294 -0.474896 0.876729
vn 0.272803 -0.477014 0.835485
vn 0.001155 -0.714057 0.700086
vn 0.001155 -0.714057 0.700086
vn 0.272803 -0.477014 0.835485
vn -0.093094 -0.614500 0.783405
vn 0.001155 -0.714057 0.700086
vn -0.093094 -0.614500 0.783405
vn 0.314081 -0.400193 0.860929
vn 0.314081 -0.400193 0.860929
vn -0.093094 -0.614500 0.783405
vn 0.533715 -0.136262 0.834614
vn 0.314081 -0.400193 0.860929
vn 0.533715 -0.136262 0.834614
vn 0.503699 -0.135329 0.853214
vn 0.503699 -0.135329 0.853214
vn 0.533715 -0.136262 0.834614
vn 0.501682 -0.354097 0.789260
vn 0.503699 -0.135329 0.853214
vn 0.501682 -0.354097 0.789260
vn 0.144803 -0.636739 0.757361
vn 0.144803 -0.636739 0.757361
vn 0.501682 -0.354097 0.789260
vn 0.535660 -0.140361 0.832687
vn 0.144803 -0.636739 0.757361
vn 0.535660 -0.140361 0.832687
vn 0.570890 -0.010613 0.820958
vn 0.570890 -0.010613 0.820958
vn 0.535660 -0.140361 0.832687
vn 0.585173 0.003857 0.810899
vn 0.570890 -0.010613 0.820958
vn 0.585173 0.003857 0.810899
vn 0.614267 -0.514228 0.598536
vn 0.585173 0.003857 0.810899
vn 0.575392 0.054144 0.816084
vn 0.696335 0.388685 0.603358
vn 0.585173 0.003857 0.810899
vn 0.696335 0.388685 0.603358
vn 0.791939 -0.047409 0.608757
vn 0.791939 -0.047409 0.608757
vn 0.696335 0.388685 0.603358
vn 0.816812 0.430300 0.384265
vn 0.791939 -0.047409 0.608757
vn 0.816812 0.430300 0.384265
vn 0.297817 0.696483 0.652853
vn 0.297817 0.696483 0.652853
vn 0.816812 0.430300 0.384265
vn 0.337958 0.524463 0.781488
vn 0.297817 0.696483 0.652853
vn 0.337958 0.524463 0.781488
vn 0.011088 0.607545 0.794208
vn 0.011088 0.607545 0.794208
vn 0.337958 0.524463 0.781488
vn -0.029310 0.612963 0.789568
vn 0.011088 0.607545 0.794208
vn -0.029310 0.612963 0.789568
vn 0.563559 0.565926 0.601772
vn 0.563559 0.565926 0.601772
vn -0.029310 0.612963 0.789568
vn 0.101061 0.774415 0.624554
vn 0.563559 0.565926 0.601772
vn 0.101061 0.774415 0.624554
vn -0.220604 0.738020 0.637700
vn -0.220604 0.738020 0.637700
vn 0.101061 0.774415 0.624554
vn 0.150700 0.785700 0.599971
vn -0.220604 0.738020 0.637700
vn 0.150700 0.785700 0.599971
vn -0.334934 0.287499 0.897309
vn -0.334934 0.287499 0.897309
vn 0.150700 0.785700 0.599971
vn -0.162145 0.661267 0.732417
vn -0.334934 0.287499 0.897309
vn -0.162145 0.661267 0.732417
vn 0.135408 0.510921 0.848896
vn 0.135408 0.510921 0.848896
vn -0.162145 0.661267 0.732417
vn -0.522178 0.437387 0.732136
vn 0.135408 0.510921 0.848896
vn -0.522178 0.437387 0.732136
vn -0.508475 0.088523 0.856515
vn -0.508475 0.088523 0.856515
vn -0.522178 0.437387 0.732136
vn -0.587620 0.185788 0.787518
vn -0.508475 0.088523 0.856515
vn -0.587620 0.185788 0.787518
vn -0.394521 0.351715 0.848911
vn -0.394521 0.351715 0.848911
vn -0.587620 0.185788 0.787518
vn -0.595569 0.101108 0.796916
vn -0.394521 0.351715 0.848911
vn -0.595569 0.101108 0.796916
vn -0.453146 0.418698 0.786988
vn -0.453146 0.418698 0.786988
vn -0.595569 0.101108 0.796916
vn -0.825072 0.003916 0.565013
vn -0.453146 0.418698 0.786988
vn -0.825072 0.003916 0.565013
vn -0.556778 -0.072530 0.827489
vn -0.556778 -0.072530 0.827489
vn -0.825072 0.003916 0.565013
vn -0.616947 -0.079299 0.782999
vn -0.556778 -0.072530 0.827489
vn -0.616947 -0.079299 0.782999
vn -0.386730 -0.374846 0.842574
vn -0.386730 -0.374846 0.842574
vn -0.616947 -0.079299 0.782999
vn -0.299119 -0.607680 0.735699
vn -0.386730 -0.374846 0.842574
vn -0.299119 -0.607680 0.735699
vn -0.563430 -0.224230 0.795152
vn -0.563430 -0.224230 0.795152
vn -0.299119 -0.607680 0.735699
vn -0.341454 -0.654173 0.674882
vn -0.563430 -0.224230 0.795152
vn -0.341454 -0.654173 0.674882
vn -0.382147 -0.709133 0.592533
vn -0.382147 -0.709133 0.592533
vn -0.341454 -0.654173 0.674882
vn -0.241873 -0.478731 0.843987
vn -0.382147 -0.709133 0.592533
vn -0.241873 -0.478731 0.843987
vn -0.572181 -0.625860 0.530008
vn -0.572181 -0.625860 0.530008
vn -0.241873 -0.478731 0.843987
vn -0.527139 -0.657667 0.538144
vn -0.572181 -0.625860 0.530008
vn -0.527139 -0.657667 0.538144
vn -0.496670 -0.546598 0.674203
vn -0.496670 -0.546598 0.674203
vn -0.527139 -0.657667 0.538144
vn -0.102635 -0.714620 0.691943
vn -0.496670 -0.546598 0.674203
vn -0.102635 -0.714620 0.691943
vn 0.272803 -0.477014 0.835485
vn 0.272803 -0.477014 0.835485
vn -0.102635 -0.714620 0.691943
vn 0.206540 -0.601600 0.771634
vn 0.272803 -0.477014 0.835485
vn 0.206540 -0.601600 0.771634
vn -0.093094 -0.614500 0.783405
vn -0.093094 -0.614500 0.783405
vn 0.206540 -0.601600 0.771634
vn 0.590394 -0.302393 0.748327
vn -0.093094 -0.614500 0.783405
vn 0.590394 -0.302393 0.748327
vn 0.533715 -0.136262 0.834614
vn 0.533715 -0.136262 0.834614
vn 0.590394 -0.302393 0.748327
vn 0.758600 -0.014514 0.651395
vn 0.533715 -0.136262 0.834614
vn 0.758600 -0.014514 0.651395
vn 0.501682 -0.354097 0.789260
vn 0.501682 -0.354097 0.789260
vn 0.758600 -0.014514 0.651395
vn 0.672773 -0.499460 0.545817
vn 0.501682 -0.354097 0.789260
vn 0.672773 -0.499460 0.545817
vn 0.535660 -0.140361 0.832687
vn 0.535660 -0.140361 0.832687
vn 0.672773 -0.499460 0.545817
vn 0.575392 0.054144 0.816084
vn 0.535660 -0.140361 0.832687
vn 0.575392 0.054144 0.816084
vn 0.585173 0.003857 0.810899
vn 0.575392 0.054144 0.816084
vn 0.854209 -0.307122 0.419527
vn 0.615461 0.593240 0.518916
vn 0.575392 0.054144 0.816084
vn 0.615461 0.593240 0.518916
vn 0.696335 0.388685 0.603358
vn 0.696335 0.388685 0.603358
vn 0.615461 0.593240 0.518916
vn 0.716920 0.576105 0.392591
vn 0.696335 0.388685 0.603358
vn 0.716920 0.576105 0.392591
vn 0.816812 0.430300 0.384265
vn 0.816812 0.430300 0.384265
vn 0.716920 0.576105 0.392591
vn 0.907936 0.363973 0.207786
vn 0.816812 0.430300 0.384265
vn 0.907936 0.363973 0.207786
vn 0.337958 0.524463 0.781488
vn 0.337958 0.524463 0.781488
vn 0.907936 0.363973 0.207786
vn 0.181827 0.814674 0.550677
vn 0.337958 0.524463 0.781488
vn 0.181827 0.814674 0.550677
vn -0.029310 0.612963 0.789568
vn -0.029310 0.612963 0.789568
vn 0.181827 0.814674 0.550677
vn -0.161406 0.798718 0.579653
vn -0.029310 0.612963 0.789568
vn -0.161406 0.798718 0.579653
vn 0.101061 0.774415 0.624554
vn 0.101061 0.774415 0.624554
vn -0.161406 0.798718 0.579653
vn -0.044702 0.912998 0.405508
vn 0.101061 0.774415 0.624554
vn -0.044702 0.912998 0.405508
vn 0.150700 0.785700 0.599971
vn 0.150700 0.785700 0.599971
vn -0.044702 0.912998 0.405508
vn -0.390470 0.881661 0.264965
vn 0.150700 0.785700 0.599971
vn -0.390470 0.881661 0.264965
vn -0.162145 0.661267 0.732417
vn -0.162145 0.661267 0.732417
vn -0.390470 0.881661 0.264965
vn -0.518645 0.824722 0.225479
vn -0.162145 0.661267 0.732417
vn -0.518645 0.824722 0.225479
vn -0.522178 0.437387 0.732136
vn -0.522178 0.437387 0.732136
vn -0.518645 0.824722 0.225479
vn -0.785241 0.423610 0.451610
vn -0.522178 0.437387 0.732136
vn -0.785241 0.423610 0.451610
vn -0.587620 0.185788 0.787518
vn -0.587620 0.185788 0.787518
vn -0.785241 0.423610 0.451610
vn -0.808183 0.372282 0.456339
vn -0.587620 0.185788 0.787518
vn -0.808183 0.372282 0.456339
vn -0.595569 0.101108 0.796916
vn -0.595569 0.101108 0.796916
vn -0.808183 0.372282 0.456339
vn -0.679665 -0.259453 0.686105
vn -0.595569 0.101108 0.796916
vn -0.679665 -0.259453 0.686105
vn -0.825072 0.003916 0.565013
vn -0.825072 0.003916 0.565013
vn -0.679665 -0.259453 0.686105
vn -0.931963 -0.108415 0.345963
vn -0.825072 0.003916 0.565013
vn -0.931963 -0.108415 0.345963
vn -0.616947 -0.079299 0.782999
vn -0.616947 -0.079299 0.782999
vn -0.931963 -0.108415 0.345963
vn -0.717617 -0.592056 0.366736
vn -0.616947 -0.079299 0.782999
vn -0.717617 -0.592056 0.366736
vn -0.299119 -0.607680 0.735699
vn -0.299119 -0.607680 0.735699
vn -0.717617 -0.592056 0.366736
vn -0.493743 -0.612573 0.617229
vn -0.299119 -0.607680 0.735699
vn -0.493743 -0.612573 0.617229
vn -0.341454 -0.654173 0.674882
vn -0.341454 -0.654173 0.674882
vn -0.493743 -0.612573 0.617229
vn -0.344716 -0.551246 0.759801
vn -0.341454 -0.654173 0.674882
vn -0.344716 -0.551246 0.759801
vn -0.241873 -0.478731 0.843987
vn -0.241873 -0.478731 0.843987
vn -0.344716 -0.551246 0.759801
vn 0.025044 -0.768233 0.639681
vn -0.241873 -0.478731 0.843987
vn 0.025044 -0.768233 0.639681
vn -0.527139 -0.657667 0.538144
vn -0.527139 -0.657667 0.538144
vn 0.025044 -0.768233 0.639681
vn -0.156801 -0.965010 0.210166
vn -0.527139 -0.657667 0.538144
vn -0.156801 -0.965010 0.210166
vn -0.102635 -0.714620 0.691943
vn -0.102635 -0.714620 0.691943
vn -0.156801 -0.965010 0.210166
vn 0.481425 -0.857039 0.183615
vn -0.102635 -0.714620 0.691943
vn 0.481425 -0.857039 0.183615
vn 0.206540 -0.601600 0.771634
vn 0.206540 -0.601600 0.771634
vn 0.481425 -0.857039 0.183615
vn 0.734492 -0.671299 0.099394
vn 0.206540 -0.601600 0.771634
vn 0.734492 -0.671299 0.099394
vn 0.590394 -0.302393 0.748327
vn 0.590394 -0.302393 0.748327
vn 0.734492 -0.671299 0.099394
vn 0.857095 -0.330336 0.395304
vn 0.590394 -0.302393 0.748327
vn 0.857095 -0.330336 0.395304
vn 0.758600 -0.014514 0.651395
vn 0.758600 -0.014514 0.651395
vn 0.857095 -0.330336 0.395304
vn 0.830092 -0.150933 0.536811
vn 0.758600 -0.014514 0.651395
vn 0.830092 -0.150933 0.536811
vn 0.672773 -0.499460 0.545817
vn 0.672773 -0.499460 0.545817
vn 0.830092 -0.150933 0.536811
vn 0.854209 -0.307122 0.419527
vn 0.672773 -0.499460 0.545817
vn 0.854209 -0.307122 0.419527
vn 0.575392 0.054144 0.816084
vn 0.854209 -0.307122 0.419527
vn 0.995753 -0.037573 0.084046
vn 0.954232 0.299049 0.003265
vn 0.854209 -0.307122 0.419527
vn 0.954232 0.299049 0.003265
vn 0.615461 0.593240 0.518916
vn 0.615461 0.593240 0.518916
vn 0.954232 0.299049 0.003265
vn 0.592148 0.660088 0.462217
vn 0.615461 0.593240 0.518916
vn 0.592148 0.660088 0.462217
vn 0.716920 0.576105 0.392591
vn 0.716920 0.576105 0.392591
vn 0.592148 0.660088 0.462217
vn 0.810048 0.524475 0.262198
vn 0.716920 0.576105 0.392591
vn 0.810048 0.524475 0.262198
vn 0.907936 0.363973 0.207786
vn 0.907936 0.363973 0.207786
vn 0.810048 0.524475 0.262198
vn 0.463930 0.882569 0.076423
vn 0.907936 0.363973 0.207786
vn 0.463930 0.882569 0.076423
vn 0.181827 0.814674 0.550677
vn 0.181827 0.814674 0.550677
vn 0.463930 0.882569 0.076423
vn -0.214412 0.976382 0.026562
vn 0.181827 0.814674 0.550677
vn -0.214412 0.976382 0.026562
vn -0.161406 0.798718 0.579653
vn -0.161406 0.798718 0.579653
vn -0.214412 0.976382 0.026562
vn -0.042340 0.998353 0.038699
vn -0.161406 0.798718 0.579653
vn -0.042340 0.998353 0.038699
vn -0.044702 0.912998 0.405508
vn -0.044702 0.912998 0.405508
vn -0.042340 0.998353 0.038699
vn -0.483390 0.808419 0.335846
vn -0.044702 0.912998 0.405508
vn -0.483390 0.808419 0.335846
vn -0.390470 0.881661 0.264965
vn -0.390470 0.881661 0.264965
vn -0.483390 0.808419 0.335846
vn -0.596680 0.802167 0.022393
vn -0.390470 0.881661 0.264965
vn -0.596680 0.802167 0.022393
vn -0.518645 0.824722 0.225479
vn -0.518645 0.824722 0.225479
vn -0.596680 0.802167 0.022393
vn -0.739070 0.662730 0.120680
vn -0.518645 0.824722 0.225479
vn -0.739070 0.662730 0.120680
vn -0.785241 0.423610 0.451610
vn -0.785241 0.423610 0.451610
vn -0.739070 0.662730 0.120680
vn -0.961722 0.241751 0.129026
vn -0.785241 0.423610 0.451610
vn -0.961722 0.241751 0.129026
vn -0.808183 0.372282 0.456339
vn -0.808183 0.372282 0.456339
vn -0.961722 0.241751 0.129026
vn -0.988710 0.140036 0.053307
vn -0.808183 0.372282 0.456339
vn -0.988710 0.140036 0.053307
vn -0.679665 -0.259453 0.686105
vn -0.679665 -0.259453 0.686105
vn -0.988710 0.140036 0.053307
vn -0.706753 -0.551864 0.442658
vn -0.679665 -0.259453 0.686105
vn -0.706753 -0.551864 0.442658
vn -0.931963 -0.108415 0.345963
vn -0.931963 -0.108415 0.345963
vn -0.706753 -0.551864 0.442658
vn -0.803017 -0.587762 0.098487
vn -0.931963 -0.108415 0.345963
vn -0.803017 -0.587762 0.098487
vn -0.717617 -0.592056 0.366736
vn -0.717617 -0.592056 0.366736
vn -0.803017 -0.587762 0.098487
vn -0.812466 -0.581813 -0.037322
vn -0.717617 -0.592056 0.366736
vn -0.812466 -0.581813 -0.037322
vn -0.493743 -0.612573 0.617229
vn -0.493743 -0.612573 0.617229
vn -0.812466 -0.581813 -0.037322
vn -0.583984 -0.811764 -0.001518
vn -0.493743 -0.612573 0.617229
vn -0.583984 -0.811764 -0.001518
vn -0.344716 -0.551246 0.759801
vn -0.344716 -0.551246 0.759801
vn -0.583984 -0.811764 -0.001518
vn 0.151003 -0.959491 0.237856
vn -0.344716 -0.551246 0.759801
vn 0.151003 -0.959491 0.237856
vn 0.025044 -0.768233 0.639681
vn 0.025044 -0.768233 0.639681
vn 0.151003 -0.959491 0.237856
vn 0.272057 -0.950988 0.146990
vn 0.025044 -0.768233 0.639681
vn 0.272057 -0.950988 0.146990
vn -0.156801 -0.965010 0.210166
vn -0.156801 -0.965010 0.210166
vn 0.272057 -0.950988 0.146990
vn 0.389962 -0.909188 -0.145971
vn -0.156801 -0.965010 0.210166
vn 0.389962 -0.909188 -0.145971
vn 0.481425 -0.857039 0.183615
vn 0.481425 -0.857039 0.183615
vn 0.389962 -0.909188 -0.145971
vn 0.680574 -0.728404 0.079030
vn 0.481425 -0.857039 0.183615
vn 0.680574 -0.728404 0.079030
vn 0.734492 -0.671299 0.099394
vn 0.734492 -0.671299 0.099394
vn 0.680574 -0.728404 0.079030
vn 0.813097 -0.578511 0.064787
vn 0.734492 -0.671299 0.099394
vn 0.813097 -0.578511 0.064787
vn 0.857095 -0.330336 0.395304
vn 0.857095 -0.330336 0.395304
vn 0.813097 -0.578511 0.064787
vn 0.945566 -0.265737 0.187850
vn 0.857095 -0.330336 0.395304
vn 0.945566 -0.265737 0.187850
vn 0.830092 -0.150933 0.536811
vn 0.830092 -0.150933 0.536811
vn 0.945566 -0.265737 0.187850
vn 0.995753 -0.037573 0.084046
vn 0.830092 -0.150933 0.536811
vn 0.995753 -0.037573 0.084046
vn 0.854209 -0.307122 0.419527
vn 0.995753 -0.037573 0.084046
vn 0.994358 0.102967 -0.025511
vn 0.927997 0.310228 -0.206349
vn 0.995753 -0.037573 0.084046
vn 0.927997 0.310228 -0.206349
vn 0.954232 0.299049 0.003265
vn 0.954232 0.299049 0.003265
vn 0.927997 0.310228 -0.206349
vn 0.856832 0.281299 -0.432099
vn 0.954232 0.299049 0.003265
vn 0.856832 0.281299 -0.432099
vn 0.592148 0.660088 0.462217
vn 0.592148 0.660088 0.462217
vn 0.856832 0.281299 -0.432099
vn 0.799669 0.599432 -0.034789
vn 0.592148 0.660088 0.462217
vn 0.799669 0.599432 -0.034789
vn 0.810048 0.524475 0.262198
vn 0.810048 0.524475 0.262198
vn 0.799669 0.599432 -0.034789
vn 0.367617 0.926340 0.082173
vn 0.810048 0.524475 0.262198
vn 0.367617 0.926340 0.082173
vn 0.463930 0.882569 0.076423
vn 0.463930 0.882569 0.076423
vn 0.367617 0.926340 0.082173
vn -0.270027 0.962852 -0.001218
vn 0.463930 0.882569 0.076423
vn -0.270027 0.962852 -0.001218
vn -0.214412 0.976382 0.026562
vn -0.214412 0.976382 0.026562
vn -0.270027 0.962852 -0.001218
vn -0.000545 0.992137 -0.125159
vn -0.214412 0.976382 0.026562
vn -0.000545 0.992137 -0.125159
vn -0.042340 0.998353 0.038699
vn -0.042340 0.998353 0.038699
vn -0.000545 0.992137 -0.125159
vn -0.310918 0.922082 -0.230422
vn -0.042340 0.998353 0.038699
vn -0.310918 0.922082 -0.230422
vn -0.483390 0.808419 0.335846
vn -0.483390 0.808419 0.335846
vn -0.310918 0.922082 -0.230422
vn -0.830461 0.555369 -0.043587
vn -0.483390 0.808419 0.335846
vn -0.830461 0.555369 -0.043587
vn -0.596680 0.802167 0.022393
vn -0.596680 0.802167 0.022393
vn -0.830461 0.555369 -0.043587
vn -0.680612 0.695068 -0.231618
vn -0.596680 0.802167 0.022393
vn -0.680612 0.695068 -0.231618
vn -0.739070 0.662730 0.120680
vn -0.739070 0.662730 0.120680
vn -0.680612 0.695068 -0.231618
vn -0.956588 0.199239 -0.212706
vn -0.739070 0.662730 0.120680
vn -0.956588 0.199239 -0.212706
vn -0.961722 0.241751 0.129026
vn -0.961722 0.241751 0.129026
vn -0.956588 0.199239 -0.212706
vn -0.968387 0.021100 -0.248557
vn -0.961722 0.241751 0.129026
vn -0.968387 0.021100 -0.248557
vn -0.988710 0.140036 0.053307
vn -0.988710 0.140036 0.053307
vn -0.968387 0.021100 -0.248557
vn -0.879367 -0.166813 -0.445968
vn -0.988710 0.140036 0.053307
vn -0.879367 -0.166813 -0.445968
vn -0.706753 -0.551864 0.442658
vn -0.706753 -0.551864 0.442658
vn -0.879367 -0.166813 -0.445968
vn -0.749879 -0.656959 0.078012
vn -0.706753 -0.551864 0.442658
vn -0.749879 -0.656959 0.078012
vn -0.803017 -0.587762 0.098487
vn -0.803017 -0.587762 0.098487
vn -0.749879 -0.656959 0.078012
vn -0.633396 -0.750526 0.188467
vn -0.803017 -0.587762 0.098487
vn -0.633396 -0.750526 0.188467
vn -0.812466 -0.581813 -0.037322
vn -0.812466 -0.581813 -0.037322
vn -0.633396 -0.750526 0.188467
vn -0.411644 -0.886747 -0.210308
vn -0.812466 -0.581813 -0.037322
vn -0.411644 -0.886747 -0.210308
vn -0.583984 -0.811764 -0.001518
vn -0.583984 -0.811764 -0.001518
vn -0.411644 -0.886747 -0.210308
vn -0.112642 -0.886347 -0.449112
vn -0.583984 -0.811764 -0.001518
vn -0.112642 -0.886347 -0.449112
vn 0.151003 -0.959491 0.237856
vn 0.151003 -0.959491 0.237856
vn -0.112642 -0.886347 -0.449112
vn 0.267532 -0.888902 -0.371861
vn 0.151003 -0.959491 0.237856
vn 0.267532 -0.888902 -0.371861
vn 0.272057 -0.950988 0.146990
vn 0.272057 -0.950988 0.146990
vn 0.267532 -0.888902 -0.371861
vn 0.509186 -0.826542 -0.239914
vn 0.272057 -0.950988 0.146990
vn 0.509186 -0.826542 -0.239914
vn 0.389962 -0.909188 -0.145971
vn 0.389962 -0.909188 -0.145971
vn 0.509186 -0.826542 -0.239914
vn 0.467881 -0.818376 -0.333689
vn 0.389962 -0.909188 -0.145971
vn 0.467881 -0.818376 -0.333689
vn 0.680574 -0.728404 0.079030
vn 0.680574 -0.728404 0.079030
vn 0.467881 -0.818376 -0.333689
vn 0.793455 -0.607334 -0.039685
vn 0.680574 -0.728404 0.079030
vn 0.793455 -0.607334 -0.039685
vn 0.813097 -0.578511 0.064787
vn 0.813097 -0.578511 0.064787
vn 0.793455 -0.607334 -0.039685
vn 0.944907 -0.319474 -0.071326
vn 0.813097 -0.578511 0.064787
vn 0.944907 -0.319474 -0.071326
vn 0.945566 -0.265737 0.187850
vn 0.945566 -0.265737 0.187850
vn 0.944907 -0.319474 -0.071326
vn 0.994358 0.102967 -0.025511
vn 0.945566 -0.265737 0.187850
vn 0.994358 0.102967 -0.025511
vn 0.995753 -0.037573 0.084046
vn 0.994358 0.102967 -0.025511
vn 0.871329 0.039136 -0.489137
vn 0.843700 0.388115 -0.370859
vn 0.994358 0.102967 -0.025511
vn 0.843700 0.388115 -0.370859
vn 0.927997 0.310228 -0.206349
vn 0.927997 0.310228 -0.206349
vn 0.843700 0.388115 -0.370859
vn 0.801019 0.560513 -0.210222
vn 0.927997 0.310228 -0.206349
vn 0.801019 0.560513 -0.210222
vn 0.856832 0.281299 -0.432099
vn 0.856832 0.281299 -0.432099
vn 0.801019 0.560513 -0.210222
vn 0.783072 0.337831 -0.522177
vn 0.856832 0.281299 -0.432099
vn 0.783072 0.337831 -0.522177
vn 0.799669 0.599432 -0.034789
vn 0.799669 0.599432 -0.034789
vn 0.783072 0.337831 -0.522177
vn 0.607773 0.573522 -0.549259
vn 0.799669 0.599432 -0.034789
vn 0.607773 0.573522 -0.549259
vn 0.367617 0.926340 0.082173
vn 0.367617 0.926340 0.082173
vn 0.607773 0.573522 -0.549259
vn -0.252509 0.938384 -0.235955
vn 0.367617 0.926340 0.082173
vn -0.252509 0.938384 -0.235955
vn -0.270027 0.962852 -0.001218
vn -0.270027 0.962852 -0.001218
vn -0.252509 0.938384 -0.235955
vn -0.182975 0.978509 -0.095084
vn -0.270027 0.962852 -0.001218
vn -0.182975 0.978509 -0.095084
vn -0.000545 0.992137 -0.125159
vn -0.000545 0.992137 -0.125159
vn -0.182975 0.978509 -0.095084
vn -0.377177 0.908913 -0.177806
vn -0.000545 0.992137 -0.125159
vn -0.377177 0.908913 -0.177806
vn -0.310918 0.922082 -0.230422
vn -0.310918 0.922082 -0.230422
vn -0.377177 0.908913 -0.177806
vn -0.708339 0.666790 -0.231618
vn -0.310918 0.922082 -0.230422
vn -0.708339 0.666790 -0.231618
vn -0.830461 0.555369 -0.043587
vn -0.830461 0.555369 -0.043587
vn -0.708339 0.666790 -0.231618
vn -0.827023 0.484301 -0.285456
vn -0.830461 0.555369 -0.043587
vn -0.827023 0.484301 -0.285456
vn -0.680612 0.695068 -0.231618
vn -0.680612 0.695068 -0.231618
vn -0.827023 0.484301 -0.285456
vn -0.694234 0.495807 -0.521742
vn -0.680612 0.695068 -0.231618
vn -0.694234 0.495807 -0.521742
vn -0.956588 0.199239 -0.212706
vn -0.956588 0.199239 -0.212706
vn -0.694234 0.495807 -0.521742
vn -0.980787 -0.103803 -0.165170
vn -0.956588 0.199239 -0.212706
vn -0.980787 -0.103803 -0.165170
vn -0.968387 0.021100 -0.248557
vn -0.968387 0.021100 -0.248557
vn -0.980787 -0.103803 -0.165170
vn -0.846607 -0.383053 -0.369496
vn -0.968387 0.021100 -0.248557
vn -0.846607 -0.383053 -0.369496
vn -0.879367 -0.166813 -0.445968
vn -0.879367 -0.166813 -0.445968
vn -0.846607 -0.383053 -0.369496
vn -0.773396 -0.067567 -0.630312
vn -0.879367 -0.166813 -0.445968
vn -0.773396 -0.067567 -0.630312
vn -0.749879 -0.656959 0.078012
vn -0.749879 -0.656959 0.078012
vn -0.773396 -0.067567 -0.630312
vn -0.685199 -0.666276 -0.294241
vn -0.749879 -0.656959 0.078012
vn -0.685199 -0.666276 -0.294241
vn -0.633396 -0.750526 0.188467
vn -0.633396 -0.750526 0.188467
vn -0.685199 -0.666276 -0.294241
vn -0.079229 -0.971545 -0.223210
vn -0.633396 -0.750526 0.188467
vn -0.079229 -0.971545 -0.223210
vn -0.411644 -0.886747 -0.210308
vn -0.411644 -0.886747 -0.210308
vn -0.079229 -0.971545 -0.223210
vn 0.084274 -0.943830 -0.319505
vn -0.411644 -0.886747 -0.210308
vn 0.084274 -0.943830 -0.319505
vn -0.112642 -0.886347 -0.449112
vn -0.112642 -0.886347 -0.449112
vn 0.084274 -0.943830 -0.319505
vn 0.209957 -0.939140 -0.271908
vn -0.112642 -0.886347 -0.449112
vn 0.209957 -0.939140 -0.271908
vn 0.267532 -0.888902 -0.371861
vn 0.267532 -0.888902 -0.371861
vn 0.209957 -0.939140 -0.271908
vn 0.484166 -0.828468 -0.281467
vn 0.267532 -0.888902 -0.371861
vn 0.484166 -0.828468 -0.281467
vn 0.509186 -0.826542 -0.239914
vn 0.509186 -0.826542 -0.239914
vn 0.484166 -0.828468 -0.281467
vn 0.657352 -0.655740 -0.371340
vn 0.509186 -0.826542 -0.239914
vn 0.657352 -0.655740 -0.371340
vn 0.467881 -0.818376 -0.333689
vn 0.467881 -0.818376 -0.333689
vn 0.657352 -0.655740 -0.371340
vn 0.353669 -0.745637 -0.564750
vn 0.467881 -0.818376 -0.333689
vn 0.353669 -0.745637 -0.564750
vn 0.793455 -0.607334 -0.039685
vn 0.793455 -0.607334 -0.039685
vn 0.353669 -0.745637 -0.564750
vn 0.948426 -0.161221 -0.272938
vn 0.793455 -0.607334 -0.039685
vn 0.948426 -0.161221 -0.272938
vn 0.944907 -0.319474 -0.071326
vn 0.944907 -0.319474 -0.071326
vn 0.948426 -0.161221 -0.272938
vn 0.871329 0.039136 -0.489137
vn 0.944907 -0.319474 -0.071326
vn 0.871329 0.039136 -0.489137
vn 0.994358 0.102967 -0.025511
vn 0.871329 0.039136 -0.489137
vn 0.612353 0.416502 -0.671975
vn 0.714028 -0.117055 -0.690262
vn 0.871329 0.039136 -0.489137
vn 0.714028 -0.117055 -0.690262
vn 0.843700 0.388115 -0.370859
vn 0.843700 0.388115 -0.370859
vn 0.714028 -0.117055 -0.690262
vn 0.704056 0.509774 -0.494404
vn 0.843700 0.388115 -0.370859
vn 0.704056 0.509774 -0.494404
vn 0.801019 0.560513 -0.210222
vn 0.801019 0.560513 -0.210222
vn 0.704056 0.509774 -0.494404
vn 0.466399 0.693069 -0.549661
vn 0.801019 0.560513 -0.210222
vn 0.466399 0.693069 -0.549661
vn 0.783072 0.337831 -0.522177
vn 0.783072 0.337831 -0.522177
vn 0.466399 0.693069 -0.549661
vn 0.520380 0.371324 -0.768975
vn 0.783072 0.337831 -0.522177
vn 0.520380 0.371324 -0.768975
vn 0.607773 0.573522 -0.549259
vn 0.607773 0.573522 -0.549259
vn 0.520380 0.371324 -0.768975
vn 0.063821 0.596585 -0.800008
vn 0.607773 0.573522 -0.549259
vn 0.063821 0.596585 -0.800008
vn -0.252509 0.938384 -0.235955
vn -0.252509 0.938384 -0.235955
vn 0.063821 0.596585 -0.800008
vn -0.361942 0.716393 -0.596472
vn -0.252509 0.938384 -0.235955
vn -0.361942 0.716393 -0.596472
vn -0.182975 0.978509 -0.095084
vn -0.182975 0.978509 -0.095084
vn -0.361942 0.716393 -0.596472
vn 0.184714 0.782769 -0.594268
vn -0.182975 0.978509 -0.095084
vn 0.184714 0.782769 -0.594268
vn -0.377177 0.908913 -0.177806
vn -0.377177 0.908913 -0.177806
vn 0.184714 0.782769 -0.594268
vn -0.709668 0.580649 -0.399023
vn -0.377177 0.908913 -0.177806
vn -0.709668 0.580649 -0.399023
vn -0.708339 0.666790 -0.231618
vn -0.708339 0.666790 -0.231618
vn -0.709668 0.580649 -0.399023
vn -0.901946 0.111052 -0.417326
vn -0.708339 0.666790 -0.231618
vn -0.901946 0.111052 -0.417326
vn -0.827023 0.484301 -0.285456
vn -0.827023 0.484301 -0.285456
vn -0.901946 0.111052 -0.417326
vn -0.770241 0.184459 -0.610494
vn -0.827023 0.484301 -0.285456
vn -0.770241 0.184459 -0.610494
vn -0.694234 0.495807 -0.521742
vn -0.694234 0.495807 -0.521742
vn -0.770241 0.184459 -0.610494
vn -0.523970 0.357251 -0.773193
vn -0.694234 0.495807 -0.521742
vn -0.523970 0.357251 -0.773193
vn -0.980787 -0.103803 -0.165170
vn -0.980787 -0.103803 -0.165170
vn -0.523970 0.357251 -0.773193
vn -0.788685 -0.394089 -0.471878
vn -0.980787 -0.103803 -0.165170
vn -0.788685 -0.394089 -0.471878
vn -0.846607 -0.383053 -0.369496
vn -0.846607 -0.383053 -0.369496
vn -0.788685 -0.394089 -0.471878
vn -0.680465 -0.568751 -0.462049
vn -0.846607 -0.383053 -0.369496
vn -0.680465 -0.568751 -0.462049
vn -0.773396 -0.067567 -0.630312
vn -0.773396 -0.067567 -0.630312
vn -0.680465 -0.568751 -0.462049
vn -0.721968 -0.025757 -0.691447
vn -0.773396 -0.067567 -0.630312
vn -0.721968 -0.025757 -0.691447
vn -0.685199 -0.666276 -0.294241
vn -0.685199 -0.666276 -0.294241
vn -0.721968 -0.025757 -0.691447
vn 0.107036 -0.858914 -0.500809
vn -0.685199 -0.666276 -0.294241
vn 0.107036 -0.858914 -0.500809
vn -0.079229 -0.971545 -0.223210
vn -0.079229 -0.971545 -0.223210
vn 0.107036 -0.858914 -0.500809
vn -0.008715 -0.822521 -0.568668
vn -0.079229 -0.971545 -0.223210
vn -0.008715 -0.822521 -0.568668
vn 0.084274 -0.943830 -0.319505
vn 0.084274 -0.943830 -0.319505
vn -0.008715 -0.822521 -0.568668
vn -0.047576 -0.760347 -0.647772
vn 0.084274 -0.943830 -0.319505
vn -0.047576 -0.760347 -0.647772
vn 0.209957 -0.939140 -0.271908
vn 0.209957 -0.939140 -0.271908
vn -0.047576 -0.760347 -0.647772
vn 0.188010 -0.821505 -0.538314
vn 0.209957 -0.939140 -0.271908
vn 0.188010 -0.821505 -0.538314
vn 0.484166 -0.828468 -0.281467
vn 0.484166 -0.828468 -0.281467
vn 0.188010 -0.821505 -0.538314
vn 0.868658 -0.329897 -0.369596
vn 0.484166 -0.828468 -0.281467
vn 0.868658 -0.329897 -0.369596
vn 0.657352 -0.655740 -0.371340
vn 0.657352 -0.655740 -0.371340
vn 0.868658 -0.329897 -0.369596
vn 0.527365 -0.625658 -0.574838
vn 0.657352 -0.655740 -0.371340
vn 0.527365 -0.625658 -0.574838
vn 0.353669 -0.745637 -0.564750
vn 0.353669 -0.745637 -0.564750
vn 0.527365 -0.625658 -0.574838
vn 0.508515 -0.321031 -0.798969
vn 0.353669 -0.745637 -0.564750
vn 0.508515 -0.321031 -0.798969
vn 0.948426 -0.161221 -0.272938
vn 0.948426 -0.161221 -0.272938
vn 0.508515 -0.321031 -0.798969
vn 0.612353 0.416502 -0.671975
vn 0.948426 -0.161221 -0.272938
vn 0.612353 0.416502 -0.671975
vn 0.871329 0.039136 -0.489137
vn 0.612353 0.416502 -0.671975
vn 0.610051 0.233778 -0.757090
vn 0.623078 0.046425 -0.780780
vn 0.612353 0.416502 -0.671975
vn 0.623078 0.046425 -0.780780
vn 0.714028 -0.117055 -0.690262
vn 0.714028 -0.117055 -0.690262
vn 0.623078 0.046425 -0.780780
vn 0.226119 -0.205288 -0.952222
vn 0.714028 -0.117055 -0.690262
vn 0.226119 -0.205288 -0.952222
vn 0.704056 0.509774 -0.494404
vn 0.704056 0.509774 -0.494404
vn 0.226119 -0.205288 -0.952222
vn 0.000440 0.624149 -0.781305
vn 0.704056 0.509774 -0.494404
vn 0.000440 0.624149 -0.781305
vn 0.466399 0.693069 -0.549661
vn 0.466399 0.693069 -0.549661
vn 0.000440 0.624149 -0.781305
vn -0.013549 0.493678 -0.869539
vn 0.466399 0.693069 -0.549661
vn -0.013549 0.493678 -0.869539
vn 0.520380 0.371324 -0.768975
vn 0.520380 0.371324 -0.768975
vn -0.013549 0.493678 -0.869539
vn 0.386369 0.027329 -0.921939
vn 0.520380 0.371324 -0.768975
vn 0.386369 0.027329 -0.921939
vn 0.063821 0.596585 -0.800008
vn 0.063821 0.596585 -0.800008
vn 0.386369 0.027329 -0.921939
vn -0.139243 0.376202 -0.916015
vn 0.063821 0.596585 -0.800008
vn -0.139243 0.376202 -0.916015
vn -0.361942 0.716393 -0.596472
vn -0.361942 0.716393 -0.596472
vn -0.139243 0.376202 -0.916015
vn -0.044104 0.527423 -0.848457
vn -0.361942 0.716393 -0.596472
vn -0.044104 0.527423 -0.848457
vn 0.184714 0.782769 -0.594268
vn 0.184714 0.782769 -0.594268
vn -0.044104 0.527423 -0.848457
vn 0.069127 0.469784 -0.880071
vn 0.184714 0.782769 -0.594268
vn 0.069127 0.469784 -0.880071
vn -0.709668 0.580649 -0.399023
vn -0.709668 0.580649 -0.399023
vn 0.069127 0.469784 -0.880071
vn -0.617748 -0.231082 -0.751657
vn -0.709668 0.580649 -0.399023
vn -0.617748 -0.231082 -0.751657
vn -0.901946 0.111052 -0.417326
vn -0.901946 0.111052 -0.417326
vn -0.617748 -0.231082 -0.751657
vn -0.697967 -0.055869 -0.713947
vn -0.901946 0.111052 -0.417326
vn -0.697967 -0.055869 -0.713947
vn -0.770241 0.184459 -0.610494
vn -0.770241 0.184459 -0.610494
vn -0.697967 -0.055869 -0.713947
vn -0.658270 -0.233806 -0.715552
vn -0.770241 0.184459 -0.610494
vn -0.658270 -0.233806 -0.715552
vn -0.523970 0.357251 -0.773193
vn -0.523970 0.357251 -0.773193
vn -0.658270 -0.233806 -0.715552
vn -0.292523 -0.093085 -0.951717
vn -0.523970 0.357251 -0.773193
vn -0.292523 -0.093085 -0.951717
vn -0.788685 -0.394089 -0.471878
vn -0.788685 -0.394089 -0.471878
vn -0.292523 -0.093085 -0.951717
vn -0.126513 -0.184315 -0.974691
vn -0.788685 -0.394089 -0.471878
vn -0.126513 -0.184315 -0.974691
vn -0.680465 -0.568751 -0.462049
vn -0.680465 -0.568751 -0.462049
vn -0.126513 -0.184315 -0.974691
vn -0.685577 -0.024311 -0.727594
vn -0.680465 -0.568751 -0.462049
vn -0.685577 -0.024311 -0.727594
vn -0.721968 -0.025757 -0.691447
vn -0.721968 -0.025757 -0.691447
vn -0.685577 -0.024311 -0.727594
vn 0.000932 -0.385673 -0.922635
vn -0.721968 -0.025757 -0.691447
vn 0.000932 -0.385673 -0.922635
vn 0.107036 -0.858914 -0.500809
vn 0.107036 -0.858914 -0.500809
vn 0.000932 -0.385673 -0.922635
vn 0.188947 -0.625767 -0.756779
vn 0.107036 -0.858914 -0.500809
vn 0.188947 -0.625767 -0.756779
vn -0.008715 -0.822521 -0.568668
vn -0.008715 -0.822521 -0.568668
vn 0.188947 -0.625767 -0.756779
vn 0.369379 -0.421954 -0.827957
vn -0.008715 -0.822521 -0.568668
vn 0.369379 -0.421954 -0.827957
vn -0.047576 -0.760347 -0.647772
vn -0.047576 -0.760347 -0.647772
vn 0.369379 -0.421954 -0.827957
vn -0.047798 -0.358365 -0.932357
vn -0.047576 -0.760347 -0.647772
vn -0.047798 -0.358365 -0.932357
vn 0.188010 -0.821505 -0.538314
vn 0.188010 -0.821505 -0.538314
vn -0.047798 -0.358365 -0.932357
vn 0.182748 -0.350776 -0.918455
vn 0.188010 -0.821505 -0.538314
vn 0.182748 -0.350776 -0.918455
vn 0.868658 -0.329897 -0.369596
vn 0.868658 -0.329897 -0.369596
vn 0.182748 -0.350776 -0.918455
vn 0.740383 -0.282079 -0.610135
vn 0.868658 -0.329897 -0.369596
vn 0.740383 -0.282079 -0.610135
vn 0.527365 -0.625658 -0.574838
vn 0.527365 -0.625658 -0.574838
vn 0.740383 -0.282079 -0.610135
vn 0.499543 -0.231527 -0.834777
vn 0.527365 -0.625658 -0.574838
vn 0.499543 -0.231527 -0.834777
vn 0.508515 -0.321031 -0.798969
vn 0.508515 -0.321031 -0.798969
vn 0.499543 -0.231527 -0.834777
vn 0.610051 0.233778 -0.757090
vn 0.508515 -0.321031 -0.798969
vn 0.610051 0.233778 -0.757090
vn 0.612353 0.416502 -0.671975
vn 0.610051 0.233778 -0.757090
vn 0.647161 -0.017582 -0.762151
vn 0.650441 0.255656 -0.715239
vn 0.610051 0.233778 -0.757090
vn 0.650441 0.255656 -0.715239
vn 0.623078 0.046425 -0.780780
vn 0.623078 0.046425 -0.780780
vn 0.650441 0.255656 -0.715239
vn 0.058891 0.518171 -0.853247
vn 0.623078 0.046425 -0.780780
vn 0.058891 0.518171 -0.853247
vn 0.226119 -0.205288 -0.952222
vn 0.226119 -0.205288 -0.952222
vn 0.058891 0.518171 -0.853247
vn 0.347956 -0.010389 -0.937453
vn 0.226119 -0.205288 -0.952222
vn 0.347956 -0.010389 -0.937453
vn 0.000440 0.624149 -0.781305
vn 0.000440 0.624149 -0.781305
vn 0.347956 -0.010389 -0.937453
vn -0.045022 0.543682 -0.838083
vn 0.000440 0.624149 -0.781305
vn -0.045022 0.543682 -0.838083
vn -0.013549 0.493678 -0.869539
vn -0.013549 0.493678 -0.869539
vn -0.045022 0.543682 -0.838083
vn -0.151421 0.504236 -0.850187
vn -0.013549 0.493678 -0.869539
vn -0.151421 0.504236 -0.850187
vn 0.386369 0.027329 -0.921939
vn 0.386369 0.027329 -0.921939
vn -0.151421 0.504236 -0.850187
vn 0.526798 0.274802 -0.804343
vn 0.386369 0.027329 -0.921939
vn 0.526798 0.274802 -0.804343
vn -0.139243 0.376202 -0.916015
vn -0.139243 0.376202 -0.916015
vn 0.526798 0.274802 -0.804343
vn -0.063249 0.402607 -0.913185
vn -0.139243 0.376202 -0.916015
vn -0.063249 0.402607 -0.913185
vn -0.044104 0.527423 -0.848457
vn -0.044104 0.527423 -0.848457
vn -0.063249 0.402607 -0.913185
vn 0.242137 0.604020 -0.759296
vn -0.044104 0.527423 -0.848457
vn 0.242137 0.604020 -0.759296
vn 0.069127 0.469784 -0.880071
vn 0.069127 0.469784 -0.880071
vn 0.242137 0.604020 -0.759296
vn -0.315020 -0.123494 -0.941016
vn 0.069127 0.469784 -0.880071
vn -0.315020 -0.123494 -0.941016
vn -0.617748 -0.231082 -0.751657
vn -0.617748 -0.231082 -0.751657
vn -0.315020 -0.123494 -0.941016
vn -0.488502 -0.076781 -0.869178
vn -0.617748 -0.231082 -0.751657
vn -0.488502 -0.076781 -0.869178
vn -0.697967 -0.055869 -0.713947
vn -0.697967 -0.055869 -0.713947
vn -0.488502 -0.076781 -0.869178
vn -0.448644 0.114461 -0.886350
vn -0.697967 -0.055869 -0.713947
vn -0.448644 0.114461 -0.886350
vn -0.658270 -0.233806 -0.715552
vn -0.658270 -0.233806 -0.715552
vn -0.448644 0.114461 -0.886350
vn -0.220379 -0.864004 -0.452692
vn -0.658270 -0.233806 -0.715552
vn -0.220379 -0.864004 -0.452692
vn -0.292523 -0.093085 -0.951717
vn -0.292523 -0.093085 -0.951717
vn -0.220379 -0.864004 -0.452692
vn -0.329241 -0.180758 -0.926783
vn -0.292523 -0.093085 -0.951717
vn -0.329241 -0.180758 -0.926783
vn -0.126513 -0.184315 -0.974691
vn -0.126513 -0.184315 -0.974691
vn -0.329241 -0.180758 -0.926783
vn -0.542652 0.216603 -0.811549
vn -0.126513 -0.184315 -0.974691
vn -0.542652 0.216603 -0.811549
vn -0.685577 -0.024311 -0.727594
vn -0.685577 -0.024311 -0.727594
vn -0.542652 0.216603 -0.811549
vn -0.424533 0.140812 -0.894396
vn -0.685577 -0.024311 -0.727594
vn -0.424533 0.140812 -0.894396
vn 0.000932 -0.385673 -0.922635
vn 0.000932 -0.385673 -0.922635
vn -0.424533 0.140812 -0.894396
vn 0.274445 -0.405838 -0.871766
vn 0.000932 -0.385673 -0.922635
vn 0.274445 -0.405838 -0.871766
vn 0.188947 -0.625767 -0.756779
vn 0.188947 -0.625767 -0.756779
vn 0.274445 -0.405838 -0.871766
vn 0.118714 -0.192581 -0.974074
vn 0.188947 -0.625767 -0.756779
vn 0.118714 -0.192581 -0.974074
vn 0.369379 -0.421954 -0.827957
vn 0.369379 -0.421954 -0.827957
vn 0.118714 -0.192581 -0.974074
vn 0.386025 -0.403210 -0.829702
vn 0.369379 -0.421954 -0.827957
vn 0.386025 -0.403210 -0.829702
vn -0.047798 -0.358365 -0.932357
vn -0.047798 -0.358365 -0.932357
vn 0.386025 -0.403210 -0.829702
vn -0.477488 -0.650010 -0.591178
vn -0.047798 -0.358365 -0.932357
vn -0.477488 -0.650010 -0.591178
vn 0.182748 -0.350776 -0.918455
vn 0.182748 -0.350776 -0.918455
vn -0.477488 -0.650010 -0.591178
vn 0.290548 -0.475014 -0.830628
vn 0.182748 -0.350776 -0.918455
vn 0.290548 -0.475014 -0.830628
vn 0.740383 -0.282079 -0.610135
vn 0.740383 -0.282079 -0.610135
vn 0.290548 -0.475014 -0.830628
vn 0.490261 -0.179856 -0.852816
vn 0.740383 -0.282079 -0.610135
vn 0.490261 -0.179856 -0.852816
vn 0.499543 -0.231527 -0.834777
vn 0.499543 -0.231527 -0.834777
vn 0.490261 -0.179856 -0.852816
vn 0.647161 -0.017582 -0.762151
vn 0.499543 -0.231527 -0.834777
vn 0.647161 -0.017582 -0.762151
vn 0.610051 0.233778 -0.757090
vn -0.025122 -0.029551 -0.999248
vn 0.650441 0.255656 -0.715239
vn 0.647161 -0.017582 -0.762151
vn -0.025122 -0.029551 -0.999248
vn 0.058891 0.518171 -0.853247
vn 0.650441 0.255656 -0.715239
vn -0.025122 -0.029551 -0.999248
vn 0.347956 -0.010389 -0.937453
vn 0.058891 0.518171 -0.853247
vn -0.025122 -0.029551 -0.999248
vn -0.045022 0.543682 -0.838083
vn 0.347956 -0.010389 -0.937453
vn -0.025122 -0.029551 -0.999248
vn -0.151421 0.504236 -0.850187
vn -0.045022 0.543682 -0.838083
vn -0.025122 -0.029551 -0.999248
vn 0.526798 0.274802 -0.804343
vn -0.151421 0.504236 -0.850187
vn -0.025122 -0.029551 -0.999248
vn -0.063249 0.402607 -0.913185
vn 0.526798 0.274802 -0.804343
vn -0.025122 -0.029551 -0.999248
vn 0.242137 0.604020 -0.759296
vn -0.063249 0.402607 -0.913185
vn -0.025122 -0.029551 -0.999248
vn -0.315020 -0.123494 -0.941016
vn 0.242137 0.604020 -0.759296
vn -0.025122 -0.029551 -0.999248
vn -0.488502 -0.076781 -0.869178
vn -0.315020 -0.123494 -0.941016
vn -0.025122 -0.029551 -0.999248
vn -0.448644 0.114461 -0.886350
vn -0.488502 -0.076781 -0.869178
vn -0.025122 -0.029551 -0.999248
vn -0.220379 -0.864004 -0.452692
vn -0.448644 0.114461 -0.886350
vn -0.025122 -0.029551 -0.999248
vn -0.329241 -0.180758 -0.926783
vn -0.220379 -0.864004 -0.452692
vn -0.025122 -0.029551 -0.999248
vn -0.542652 0.216603 -0.811549
vn -0.329241 -0.180758 -0.926783
vn -0.025122 -0.029551 -0.999248
vn -0.424533 0.140812 -0.894396
vn -0.542652 0.216603 -0.811549
vn -0.025122 -0.029551 -0.999248
vn 0.274445 -0.405838 -0.871766
vn -0.424533 0.140812 -0.894396
vn -0.025122 -0.029551 -0.999248
vn 0.118714 -0.192581 -0.974074
vn 0.274445 -0.405838 -0.871766
vn -0.025122 -0.029551 -0.999248
vn 0.386025 -0.403210 -0.829702
vn 0.118714 -0.192581 -0.974074
vn -0.025122 -0.029551 -0.999248
vn -0.477488 -0.650010 -0.591178
vn 0.386025 -0.403210 -0.829702
vn -0.025122 -0.029551 -0.999248
vn 0.290548 -0.475014 -0.830628
vn -0.477488 -0.650010 -0.591178
vn -0.025122 -0.029551 -0.999248
vn 0.490261 -0.179856 -0.852816
vn 0.290548 -0.475014 -0.830628
vn -0.025122 -0.029551 -0.999248
vn 0.647161 -0.017582 -0.762151
vn 0.490261 -0.179856 -0.852816
usemtl M_Rock
f 1/1/1 2/2/2 3/3/3
f 1/1/4 3/2/5 4/3/6
f 1/1/7 4/2/8 5/3/9
f 1/1/10 5/2/11 6/3/12
f 1/1/13 6/2/14 7/3/15
f 1/1/16 7/2/17 8/3/18
f 1/1/19 8/2/20 9/3/21
f 1/1/22 9/2/23 10/3/24
f 1/1/25 10/2/26 11/3/27
f 1/1/28 11/2/29 12/3/30
f 1/1/31 12/2/32 13/3/33
f 1/1/34 13/2/35 14/3/36
f 1/1/37 14/2/38 15/3/39
f 1/1/40 15/2/41 16/3/42
f 1/1/43 16/2/44 17/3/45
f 1/1/46 17/2/47 18/3/48
f 1/1/49 18/2/50 19/3/51
f 1/1/52 19/2/53 20/3/54
f 1/1/55 20/2/56 21/3/57
f 1/1/58 21/2/59 22/3/60
f 1/1/61 22/2/62 23/3/63
f 1/1/64 23/2/65 2/3/66
f 2/1/67 24/2/68 25/3/69
f 2/1/70 25/2/71 3/3/72
f 3/1/73 25/2/74 26/3/75
f 3/1/76 26/2/77 4/3/78
f 4/1/79 26/2/80 27/3/81
f 4/1/82 27/2/83 5/3/84
f 5/1/85 27/2/86 28/3/87
f 5/1/88 28/2/89 6/3/90
f 6/1/91 28/2/92 29/3/93
f 6/1/94 29/2/95 7/3/96
f 7/1/97 29/2/98 30/3/99
f 7/1/100 30/2/101 8/3/102
f 8/1/103 30/2/104 31/3/105
f 8/1/106 31/2/107 9/3/108
f 9/1/109 31/2/110 32/3/111
f 9/1/112 32/2/113 10/3/114
f 10/1/115 32/2/116 33/3/117
f 10/1/118 33/2/119 11/3/120
f 11/1/121 33/2/122 34/3/123
f 11/1/124 34/2/125 12/3/126
f 12/1/127 34/2/128 35/3/129
f 12/1/130 35/2/131 13/3/132
f 13/1/133 35/2/134 36/3/135
f 13/1/136 36/2/137 14/3/138
f 14/1/139 36/2/140 37/3/141
f 14/1/142 37/2/143 15/3/144
f 15/1/145 37/2/146 38/3/147
f 15/1/148 38/2/149 16/3/150
f 16/1/151 38/2/152 39/3/153
f 16/1/154 39/2/155 17/3/156
f 17/1/157 39/2/158 40/3/159
f 17/1/160 40/2/161 18/3/162
f 18/1/163 40/2/164 41/3/165
f 18/1/166 41/2/167 19/3/168
f 19/1/169 41/2/170 42/3/171
f 19/1/172 42/2/173 20/3/174
f 20/1/175 42/2/176 43/3/177
f 20/1/178 43/2/179 21/3/180
f 21/1/181 43/2/182 44/3/183
f 21/1/184 44/2/185 22/3/186
f 22/1/187 44/2/188 45/3/189
f 22/1/190 45/2/191 23/3/192
f 23/1/193 45/2/194 24/3/195
f 23/1/196 24/2/197 2/3/198
f 24/1/199 46/2/200 47/3/201
f 24/1/202 47/2/203 25/3/204
f 25/1/205 47/2/206 48/3/207
f 25/1/208 48/2/209 26/3/210
f 26/1/211 48/2/212 49/3/213
f 26/1/214 49/2/215 27/3/216
f 27/1/217 49/2/218 50/3/219
f 27/1/220 50/2/221 28/3/222
f 28/1/223 50/2/224 51/3/225
f 28/1/226 51/2/227 29/3/228
f 29/1/229 51/2/230 52/3/231
f 29/1/232 52/2/233 30/3/234
f 30/1/235 52/2/236 53/3/237
f 30/1/238 53/2/239 31/3/240
f 31/1/241 53/2/242 54/3/243
f 31/1/244 54/2/245 32/3/246
f 32/1/247 54/2/248 55/3/249
f 32/1/250 55/2/251 33/3/252
f 33/1/253 55/2/254 56/3/255
f 33/1/256 56/2/257 34/3/258
f 34/1/259 56/2/260 57/3/261
f 34/1/262 57/2/263 35/3/264
f 35/1/265 57/2/266 58/3/267
f 35/1/268 58/2/269 36/3/270
f 36/1/271 58/2/272 59/3/273
f 36/1/274 59/2/275 37/3/276
f 37/1/277 59/2/278 60/3/279
f 37/1/280 60/2/281 38/3/282
f 38/1/283 60/2/284 61/3/285
f 38/1/286 61/2/287 39/3/288
f 39/1/289 61/2/290 62/3/291
f 39/1/292 62/2/293 40/3/294
f 40/1/295 62/2/296 63/3/297
f 40/1/298 63/2/299 41/3/300
f 41/1/301 63/2/302 64/3/303
f 41/1/304 64/2/305 42/3/306
f 42/1/307 64/2/308 65/3/309
f 42/1/310 65/2/311 43/3/312
f 43/1/313 65/2/314 66/3/315
f 43/1/316 66/2/317 44/3/318
f 44/1/319 66/2/320 67/3/321
f 44/1/322 67/2/323 45/3/324
f 45/1/325 67/2/326 46/3/327
f 45/1/328 46/2/329 24/3/330
f 46/1/331 68/2/332 69/3/333
f 46/1/334 69/2/335 47/3/336
f 47/1/337 69/2/338 70/3/339
f 47/1/340 70/2/341 48/3/342
f 48/1/343 70/2/344 71/3/345
f 48/1/346 71/2/347 49/3/348
f 49/1/349 71/2/350 72/3/351
f 49/1/352 72/2/353 50/3/354
f 50/1/355 72/2/356 73/3/357
f 50/1/358 73/2/359 51/3/360
f 51/1/361 73/2/362 74/3/363
f 51/1/364 74/2/365 52/3/366
f 52/1/367 74/2/368 75/3/369
f 52/1/370 75/2/371 53/3/372
f 53/1/373 75/2/374 76/3/375
f 53/1/376 76/2/377 54/3/378
f 54/1/379 76/2/380 77/3/381
f 54/1/382 77/2/383 55/3/384
f 55/1/385 77/2/386 78/3/387
f 55/1/388 78/2/389 56/3/390
f 56/1/391 78/2/392 79/3/393
f 56/1/394 79/2/395 57/3/396
f 57/1/397 79/2/398 80/3/399
f 57/1/400 80/2/401 58/3/402
f 58/1/403 80/2/404 81/3/405
f 58/1/406 81/2/407 59/3/408
f 59/1/409 81/2/410 82/3/411
f 59/1/412 82/2/413 60/3/414
f 60/1/415 82/2/416 83/3/417
f 60/1/418 83/2/419 61/3/420
f 61/1/421 83/2/422 84/3/423
f 61/1/424 84/2/425 62/3/426
f 62/1/427 84/2/428 85/3/429
f 62/1/430 85/2/431 63/3/432
f 63/1/433 85/2/434 86/3/435
f 63/1/436 86/2/437 64/3/438
f 64/1/439 86/2/440 87/3/441
f 64/1/442 87/2/443 65/3/444
f 65/1/445 87/2/446 88/3/447
f 65/1/448 88/2/449 66/3/450
f 66/1/451 88/2/452 89/3/453
f 66/1/454 89/2/455 67/3/456
f 67/1/457 89/2/458 68/3/459
f 67/1/460 68/2/461 46/3/462
f 68/1/463 90/2/464 91/3/465
f 68/1/466 91/2/467 69/3/468
f 69/1/469 91/2/470 92/3/471
f 69/1/472 92/2/473 70/3/474
f 70/1/475 92/2/476 93/3/477
f 70/1/478 93/2/479 71/3/480
f 71/1/481 93/2/482 94/3/483
f 71/1/484 94/2/485 72/3/486
f 72/1/487 94/2/488 95/3/489
f 72/1/490 95/2/491 73/3/492
f 73/1/493 95/2/494 96/3/495
f 73/1/496 96/2/497 74/3/498
f 74/1/499 96/2/500 97/3/501
f 74/1/502 97/2/503 75/3/504
f 75/1/505 97/2/506 98/3/507
f 75/1/508 98/2/509 76/3/510
f 76/1/511 98/2/512 99/3/513
f 76/1/514 99/2/515 77/3/516
f 77/1/517 99/2/518 100/3/519
f 77/1/520 100/2/521 78/3/522
f 78/1/523 100/2/524 101/3/525
f 78/1/526 101/2/527 79/3/528
f 79/1/529 101/2/530 102/3/531
f 79/1/532 102/2/533 80/3/534
f 80/1/535 102/2/536 103/3/537
f 80/1/538 103/2/539 81/3/540
f 81/1/541 103/2/542 104/3/543
f 81/1/544 104/2/545 82/3/546
f 82/1/547 104/2/548 105/3/549
f 82/1/550 105/2/551 83/3/552
f 83/1/553 105/2/554 106/3/555
f 83/1/556 106/2/557 84/3/558
f 84/1/559 106/2/560 107/3/561
f 84/1/562 107/2/563 85/3/564
f 85/1/565 107/2/566 108/3/567
f 85/1/568 108/2/569 86/3/570
f 86/1/571 108/2/572 109/3/573
f 86/1/574 109/2/575 87/3/576
f 87/1/577 109/2/578 110/3/579
f 87/1/580 110/2/581 88/3/582
f 88/1/583 110/2/584 111/3/585
f 88/1/586 111/2/587 89/3/588
f 89/1/589 111/2/590 90/3/591
f 89/1/592 90/2/593 68/3/594
f 90/1/595 112/2/596 113/3/597
f 90/1/598 113/2/599 91/3/600
f 91/1/601 113/2/602 114/3/603
f 91/1/604 114/2/605 92/3/606
f 92/1/607 114/2/608 115/3/609
f 92/1/610 115/2/611 93/3/612
f 93/1/613 115/2/614 116/3/615
f 93/1/616 116/2/617 94/3/618
f 94/1/619 116/2/620 117/3/621
f 94/1/622 117/2/623 95/3/624
f 95/1/625 117/2/626 118/3/627
f 95/1/628 118/2/629 96/3/630
f 96/1/631 118/2/632 119/3/633
f 96/1/634 119/2/635 97/3/636
f 97/1/637 119/2/638 120/3/639
f 97/1/640 120/2/641 98/3/642
f 98/1/643 120/2/644 121/3/645
f 98/1/646 121/2/647 99/3/648
f 99/1/649 121/2/650 122/3/651
f 99/1/652 122/2/653 100/3/654
f 100/1/655 122/2/656 123/3/657
f 100/1/658 123/2/659 101/3/660
f 101/1/661 123/2/662 124/3/663
f 101/1/664 124/2/665 102/3/666
f 102/1/667 124/2/668 125/3/669
f 102/1/670 125/2/671 103/3/672
f 103/1/673 125/2/674 126/3/675
f 103/1/676 126/2/677 104/3/678
f 104/1/679 126/2/680 127/3/681
f 104/1/682 127/2/683 105/3/684
f 105/1/685 127/2/686 128/3/687
f 105/1/688 128/2/689 106/3/690
f 106/1/691 128/2/692 129/3/693
f 106/1/694 129/2/695 107/3/696
f 107/1/697 129/2/698 130/3/699
f 107/1/700 130/2/701 108/3/702
f 108/1/703 130/2/704 131/3/705
f 108/1/706 131/2/707 109/3/708
f 109/1/709 131/2/710 132/3/711
f 109/1/712 132/2/713 110/3/714
f 110/1/715 132/2/716 133/3/717
f 110/1/718 133/2/719 111/3/720
f 111/1/721 133/2/722 112/3/723
f 111/1/724 112/2/725 90/3/726
f 112/1/727 134/2/728 135/3/729
f 112/1/730 135/2/731 113/3/732
f 113/1/733 135/2/734 136/3/735
f 113/1/736 136/2/737 114/3/738
f 114/1/739 136/2/740 137/3/741
f 114/1/742 137/2/743 115/3/744
f 115/1/745 137/2/746 138/3/747
f 115/1/748 138/2/749 116/3/750
f 116/1/751 138/2/752 139/3/753
f 116/1/754 139/2/755 117/3/756
f 117/1/757 139/2/758 140/3/759
f 117/1/760 140/2/761 118/3/762
f 118/1/763 140/2/764 141/3/765
f 118/1/766 141/2/767 119/3/768
f 119/1/769 141/2/770 142/3/771
f 119/1/772 142/2/773 120/3/774
f 120/1/775 142/2/776 143/3/777
f 120/1/778 143/2/779 121/3/780
f 121/1/781 143/2/782 144/3/783
f 121/1/784 144/2/785 122/3/786
f 122/1/787 144/2/788 145/3/789
f 122/1/790 145/2/791 123/3/792
f 123/1/793 145/2/794 146/3/795
f 123/1/796 146/2/797 124/3/798
f 124/1/799 146/2/800 147/3/801
f 124/1/802 147/2/803 125/3/804
f 125/1/805 147/2/806 148/3/807
f 125/1/808 148/2/809 126/3/810
f 126/1/811 148/2/812 149/3/813
f 126/1/814 149/2/815 127/3/816
f 127/1/817 149/2/818 150/3/819
f 127/1/820 150/2/821 128/3/822
f 128/1/823 150/2/824 151/3/825
f 128/1/826 151/2/827 129/3/828
f 129/1/829 151/2/830 152/3/831
f 129/1/832 152/2/833 130/3/834
f 130/1/835 152/2/836 153/3/837
f 130/1/838 153/2/839 131/3/840
f 131/1/841 153/2/842 154/3/843
f 131/1/844 154/2/845 132/3/846
f 132/1/847 154/2/848 155/3/849
f 132/1/850 155/2/851 133/3/852
f 133/1/853 155/2/854 134/3/855
f 133/1/856 134/2/857 112/3/858
f 134/1/859 156/2/860 157/3/861
f 134/1/862 157/2/863 135/3/864
f 135/1/865 157/2/866 158/3/867
f 135/1/868 158/2/869 136/3/870
f 136/1/871 158/2/872 159/3/873
f 136/1/874 159/2/875 137/3/876
f 137/1/877 159/2/878 160/3/879
f 137/1/880 160/2/881 138/3/882
f 138/1/883 160/2/884 161/3/885
f 138/1/886 161/2/887 139/3/888
f 139/1/889 161/2/890 162/3/891
f 139/1/892 162/2/893 140/3/894
f 140/1/895 162/2/896 163/3/897
f 140/1/898 163/2/899 141/3/900
f 141/1/901 163/2/902 164/3/903
f 141/1/904 164/2/905 142/3/906
f 142/1/907 164/2/908 165/3/909
f 142/1/910 165/2/911 143/3/912
f 143/1/913 165/2/914 166/3/915
f 143/1/916 166/2/917 144/3/918
f 144/1/919 166/2/920 167/3/921
f 144/1/922 167/2/923 145/3/924
f 145/1/925 167/2/926 168/3/927
f 145/1/928 168/2/929 146/3/930
f 146/1/931 168/2/932 169/3/933
f 146/1/934 169/2/935 147/3/936
f 147/1/937 169/2/938 170/3/939
f 147/1/940 170/2/941 148/3/942
f 148/1/943 170/2/944 171/3/945
f 148/1/946 171/2/947 149/3/948
f 149/1/949 171/2/950 172/3/951
f 149/1/952 172/2/953 150/3/954
f 150/1/955 172/2/956 173/3/957
f 150/1/958 173/2/959 151/3/960
f 151/1/961 173/2/962 174/3/963
f 151/1/964 174/2/965 152/3/966
f 152/1/967 174/2/968 175/3/969
f 152/1/970 175/2/971 153/3/972
f 153/1/973 175/2/974 176/3/975
f 153/1/976 176/2/977 154/3/978
f 154/1/979 176/2/980 177/3/981
f 154/1/982 177/2/983 155/3/984
f 155/1/985 177/2/986 156/3/987
f 155/1/988 156/2/989 134/3/990
f 156/1/991 178/2/992 179/3/993
f 156/1/994 179/2/995 157/3/996
f 157/1/997 179/2/998 180/3/999
f 157/1/1000 180/2/1001 158/3/1002
f 158/1/1003 180/2/1004 181/3/1005
f 158/1/1006 181/2/1007 159/3/1008
f 159/1/1009 181/2/1010 182/3/1011
f 159/1/1012 182/2/1013 160/3/1014
f 160/1/1015 182/2/1016 183/3/1017
f 160/1/1018 183/2/1019 161/3/1020
f 161/1/1021 183/2/1022 184/3/1023
f 161/1/1024 184/2/1025 162/3/1026
f 162/1/1027 184/2/1028 185/3/1029
f 162/1/1030 185/2/1031 163/3/1032
f 163/1/1033 185/2/1034 186/3/1035
f 163/1/1036 186/2/1037 164/3/1038
f 164/1/1039 186/2/1040 187/3/1041
f 164/1/1042 187/2/1043 165/3/1044
f 165/1/1045 187/2/1046 188/3/1047
f 165/1/1048 188/2/1049 166/3/1050
f 166/1/1051 188/2/1052 189/3/1053
f 166/1/1054 189/2/1055 167/3/1056
f 167/1/1057 189/2/1058 190/3/1059
f 167/1/1060 190/2/1061 168/3/1062
f 168/1/1063 190/2/1064 191/3/1065
f 168/1/1066 191/2/1067 169/3/1068
f 169/1/1069 191/2/1070 192/3/1071
f 169/1/1072 192/2/1073 170/3/1074
f 170/1/1075 192/2/1076 193/3/1077
f 170/1/1078 193/2/1079 171/3/1080
f 171/1/1081 193/2/1082 194/3/1083
f 171/1/1084 194/2/1085 172/3/1086
f 172/1/1087 194/2/1088 195/3/1089
f 172/1/1090 195/2/1091 173/3/1092
f 173/1/1093 195/2/1094 196/3/1095
f 173/1/1096 196/2/1097 174/3/1098
f 174/1/1099 196/2/1100 197/3/1101
f 174/1/1102 197/2/1103 175/3/1104
f 175/1/1105 197/2/1106 198/3/1107
f 175/1/1108 198/2/1109 176/3/1110
f 176/1/1111 198/2/1112 199/3/1113
f 176/1/1114 199/2/1115 177/3/1116
f 177/1/1117 199/2/1118 178/3/1119
f 177/1/1120 178/2/1121 156/3/1122
f 178/1/1123 200/2/1124 201/3/1125
f 178/1/1126 201/2/1127 179/3/1128
f 179/1/1129 201/2/1130 202/3/1131
f 179/1/1132 202/2/1133 180/3/1134
f 180/1/1135 202/2/1136 203/3/1137
f 180/1/1138 203/2/1139 181/3/1140
f 181/1/1141 203/2/1142 204/3/1143
f 181/1/1144 204/2/1145 182/3/1146
f 182/1/1147 204/2/1148 205/3/1149
f 182/1/1150 205/2/1151 183/3/1152
f 183/1/1153 205/2/1154 206/3/1155
f 183/1/1156 206/2/1157 184/3/1158
f 184/1/1159 206/2/1160 207/3/1161
f 184/1/1162 207/2/1163 185/3/1164
f 185/1/1165 207/2/1166 208/3/1167
f 185/1/1168 208/2/1169 186/3/1170
f 186/1/1171 208/2/1172 209/3/1173
f 186/1/1174 209/2/1175 187/3/1176
f 187/1/1177 209/2/1178 210/3/1179
f 187/1/1180 210/2/1181 188/3/1182
f 188/1/1183 210/2/1184 211/3/1185
f 188/1/1186 211/2/1187 189/3/1188
f 189/1/1189 211/2/1190 212/3/1191
f 189/1/1192 212/2/1193 190/3/1194
f 190/1/1195 212/2/1196 213/3/1197
f 190/1/1198 213/2/1199 191/3/1200
f 191/1/1201 213/2/1202 214/3/1203
f 191/1/1204 214/2/1205 192/3/1206
f 192/1/1207 214/2/1208 215/3/1209
f 192/1/1210 215/2/1211 193/3/1212
f 193/1/1213 215/2/1214 216/3/1215
f 193/1/1216 216/2/1217 194/3/1218
f 194/1/1219 216/2/1220 217/3/1221
f 194/1/1222 217/2/1223 195/3/1224
f 195/1/1225 217/2/1226 218/3/1227
f 195/1/1228 218/2/1229 196/3/1230
f 196/1/1231 218/2/1232 219/3/1233
f 196/1/1234 219/2/1235 197/3/1236
f 197/1/1237 219/2/1238 220/3/1239
f 197/1/1240 220/2/1241 198/3/1242
f 198/1/1243 220/2/1244 221/3/1245
f 198/1/1246 221/2/1247 199/3/1248
f 199/1/1249 221/2/1250 200/3/1251
f 199/1/1252 200/2/1253 178/3/1254
f 222/1/1255 201/2/1256 200/3/1257
f 222/1/1258 202/2/1259 201/3/1260
f 222/1/1261 203/2/1262 202/3/1263
f 222/1/1264 204/2/1265 203/3/1266
f 222/1/1267 205/2/1268 204/3/1269
f 222/1/1270 206/2/1271 205/3/1272
f 222/1/1273 207/2/1274 206/3/1275
f 222/1/1276 208/2/1277 207/3/1278
f 222/1/1279 209/2/1280 208/3/1281
f 222/1/1282 210/2/1283 209/3/1284
f 222/1/1285 211/2/1286 210/3/1287
f 222/1/1288 212/2/1289 211/3/1290
f 222/1/1291 213/2/1292 212/3/1293
f 222/1/1294 214/2/1295 213/3/1296
f 222/1/1297 215/2/1298 214/3/1299
f 222/1/1300 216/2/1301 215/3/1302
f 222/1/1303 217/2/1304 216/3/1305
f 222/1/1306 218/2/1307 217/3/1308
f 222/1/1309 219/2/1310 218/3/1311
f 222/1/1312 220/2/1313 219/3/1314
f 222/1/1315 221/2/1316 220/3/1317
f 222/1/1318 200/2/1319 221/3/1320
