# Original SpaceSurvival generated source; centimeters; X forward; Z up
mtllib Palette.mtl
o SM_Crate
v -42.500000 -32.500000 0.000000
v 42.500000 -32.500000 0.000000
v 42.500000 32.500000 0.000000
v -42.500000 32.500000 0.000000
v -42.500000 -32.500000 70.000000
v 42.500000 -32.500000 70.000000
v 42.500000 32.500000 70.000000
v -42.500000 32.500000 70.000000
v -37.000000 -34.500000 -1.000000
v -29.000000 -34.500000 -1.000000
v -29.000000 34.500000 -1.000000
v -37.000000 34.500000 -1.000000
v -37.000000 -34.500000 73.000000
v -29.000000 -34.500000 73.000000
v -29.000000 34.500000 73.000000
v -37.000000 34.500000 73.000000
v 29.000000 -34.500000 -1.000000
v 37.000000 -34.500000 -1.000000
v 37.000000 34.500000 -1.000000
v 29.000000 34.500000 -1.000000
v 29.000000 -34.500000 73.000000
v 37.000000 -34.500000 73.000000
v 37.000000 34.500000 73.000000
v 29.000000 34.500000 73.000000
v -16.000000 -35.500000 32.500000
v 16.000000 -35.500000 32.500000
v 16.000000 -32.500000 32.500000
v -16.000000 -32.500000 32.500000
v -16.000000 -35.500000 47.500000
v 16.000000 -35.500000 47.500000
v 16.000000 -32.500000 47.500000
v -16.000000 -32.500000 47.500000
vt 0.05 0.05
vt 0.95 0.05
vt 0.05 0.95
vn 0.000000 0.000000 -1.000000
vn 0.000000 0.000000 -1.000000
vn 0.000000 0.000000 -1.000000
vn 0.000000 0.000000 -1.000000
vn 0.000000 0.000000 -1.000000
vn 0.000000 0.000000 -1.000000
vn 0.000000 0.000000 1.000000
vn 0.000000 0.000000 1.000000
vn 0.000000 0.000000 1.000000
vn 0.000000 0.000000 1.000000
vn 0.000000 0.000000 1.000000
vn 0.000000 0.000000 1.000000
vn 0.000000 -1.000000 0.000000
vn 0.000000 -1.000000 0.000000
vn 0.000000 -1.000000 0.000000
vn 0.000000 -1.000000 0.000000
vn 0.000000 -1.000000 0.000000
vn 0.000000 -1.000000 0.000000
vn 1.000000 0.000000 0.000000
vn 1.000000 0.000000 0.000000
vn 1.000000 0.000000 0.000000
vn 1.000000 0.000000 0.000000
vn 1.000000 0.000000 0.000000
vn 1.000000 0.000000 0.000000
vn 0.000000 1.000000 0.000000
vn 0.000000 1.000000 0.000000
vn 0.000000 1.000000 0.000000
vn 0.000000 1.000000 -0.000000
vn 0.000000 1.000000 -0.000000
vn 0.000000 1.000000 -0.000000
vn -1.000000 0.000000 0.000000
vn -1.000000 0.000000 0.000000
vn -1.000000 0.000000 0.000000
vn -1.000000 0.000000 0.000000
vn -1.000000 0.000000 0.000000
vn -1.000000 0.000000 0.000000
vn 0.000000 0.000000 -1.000000
vn 0.000000 0.000000 -1.000000
vn 0.000000 0.000000 -1.000000
vn 0.000000 0.000000 -1.000000
vn 0.000000 0.000000 -1.000000
vn 0.000000 0.000000 -1.000000
vn 0.000000 0.000000 1.000000
vn 0.000000 0.000000 1.000000
vn 0.000000 0.000000 1.000000
vn 0.000000 0.000000 1.000000
vn 0.000000 0.000000 1.000000
vn 0.000000 0.000000 1.000000
vn 0.000000 -1.000000 0.000000
vn 0.000000 -1.000000 0.000000
vn 0.000000 -1.000000 0.000000
vn 0.000000 -1.000000 0.000000
vn 0.000000 -1.000000 0.000000
vn 0.000000 -1.000000 0.000000
vn 1.000000 0.000000 0.000000
vn 1.000000 0.000000 0.000000
vn 1.000000 0.000000 0.000000
vn 1.000000 0.000000 0.000000
vn 1.000000 0.000000 0.000000
vn 1.000000 0.000000 0.000000
vn 0.000000 1.000000 0.000000
vn 0.000000 1.000000 0.000000
vn 0.000000 1.000000 0.000000
vn 0.000000 1.000000 -0.000000
vn 0.000000 1.000000 -0.000000
vn 0.000000 1.000000 -0.000000
vn -1.000000 0.000000 0.000000
vn -1.000000 0.000000 0.000000
vn -1.000000 0.000000 0.000000
vn -1.000000 0.000000 0.000000
vn -1.000000 0.000000 0.000000
vn -1.000000 0.000000 0.000000
vn 0.000000 0.000000 -1.000000
vn 0.000000 0.000000 -1.000000
vn 0.000000 0.000000 -1.000000
vn 0.000000 0.000000 -1.000000
vn 0.000000 0.000000 -1.000000
vn 0.000000 0.000000 -1.000000
vn 0.000000 0.000000 1.000000
vn 0.000000 0.000000 1.000000
vn 0.000000 0.000000 1.000000
vn 0.000000 0.000000 1.000000
vn 0.000000 0.000000 1.000000
vn 0.000000 0.000000 1.000000
vn 0.000000 -1.000000 0.000000
vn 0.000000 -1.000000 0.000000
vn 0.000000 -1.000000 0.000000
vn 0.000000 -1.000000 0.000000
vn 0.000000 -1.000000 0.000000
vn 0.000000 -1.000000 0.000000
vn 1.000000 0.000000 0.000000
vn 1.000000 0.000000 0.000000
vn 1.000000 0.000000 0.000000
vn 1.000000 0.000000 0.000000
vn 1.000000 0.000000 0.000000
vn 1.000000 0.000000 0.000000
vn 0.000000 1.000000 0.000000
vn 0.000000 1.000000 0.000000
vn 0.000000 1.000000 0.000000
vn 0.000000 1.000000 -0.000000
vn 0.000000 1.000000 -0.000000
vn 0.000000 1.000000 -0.000000
vn -1.000000 0.000000 0.000000
vn -1.000000 0.000000 0.000000
vn -1.000000 0.000000 0.000000
vn -1.000000 0.000000 0.000000
vn -1.000000 0.000000 0.000000
vn -1.000000 0.000000 0.000000
vn 0.000000 0.000000 -1.000000
vn 0.000000 0.000000 -1.000000
vn 0.000000 0.000000 -1.000000
vn 0.000000 0.000000 -1.000000
vn 0.000000 0.000000 -1.000000
vn 0.000000 0.000000 -1.000000
vn 0.000000 0.000000 1.000000
vn 0.000000 0.000000 1.000000
vn 0.000000 0.000000 1.000000
vn 0.000000 0.000000 1.000000
vn 0.000000 0.000000 1.000000
vn 0.000000 0.000000 1.000000
vn 0.000000 -1.000000 0.000000
vn 0.000000 -1.000000 0.000000
vn 0.000000 -1.000000 0.000000
vn 0.000000 -1.000000 0.000000
vn 0.000000 -1.000000 0.000000
vn 0.000000 -1.000000 0.000000
vn 1.000000 0.000000 0.000000
vn 1.000000 0.000000 0.000000
vn 1.000000 0.000000 0.000000
vn 1.000000 0.000000 0.000000
vn 1.000000 0.000000 0.000000
vn 1.000000 0.000000 0.000000
vn 0.000000 1.000000 0.000000
vn 0.000000 1.000000 0.000000
vn 0.000000 1.000000 0.000000
vn 0.000000 1.000000 -0.000000
vn 0.000000 1.000000 -0.000000
vn 0.000000 1.000000 -0.000000
vn -1.000000 0.000000 0.000000
vn -1.000000 0.000000 0.000000
vn -1.000000 0.000000 0.000000
vn -1.000000 0.000000 0.000000
vn -1.000000 0.000000 0.000000
vn -1.000000 0.000000 0.000000
usemtl M_Hull
f 4/1/1 3/2/2 2/3/3
f 4/1/4 2/2/5 1/3/6
f 5/1/7 6/2/8 7/3/9
f 5/1/10 7/2/11 8/3/12
f 1/1/13 2/2/14 6/3/15
f 1/1/16 6/2/17 5/3/18
f 2/1/19 3/2/20 7/3/21
f 2/1/22 7/2/23 6/3/24
f 3/1/25 4/2/26 8/3/27
f 3/1/28 8/2/29 7/3/30
f 4/1/31 1/2/32 5/3/33
f 4/1/34 5/2/35 8/3/36
usemtl M_Gold
f 12/1/37 11/2/38 10/3/39
f 12/1/40 10/2/41 9/3/42
f 13/1/43 14/2/44 15/3/45
f 13/1/46 15/2/47 16/3/48
f 9/1/49 10/2/50 14/3/51
f 9/1/52 14/2/53 13/3/54
f 10/1/55 11/2/56 15/3/57
f 10/1/58 15/2/59 14/3/60
f 11/1/61 12/2/62 16/3/63
f 11/1/64 16/2/65 15/3/66
f 12/1/67 9/2/68 13/3/69
f 12/1/70 13/2/71 16/3/72
f 20/1/73 19/2/74 18/3/75
f 20/1/76 18/2/77 17/3/78
f 21/1/79 22/2/80 23/3/81
f 21/1/82 23/2/83 24/3/84
f 17/1/85 18/2/86 22/3/87
f 17/1/88 22/2/89 21/3/90
f 18/1/91 19/2/92 23/3/93
f 18/1/94 23/2/95 22/3/96
f 19/1/97 20/2/98 24/3/99
f 19/1/100 24/2/101 23/3/102
f 20/1/103 17/2/104 21/3/105
f 20/1/106 21/2/107 24/3/108
usemtl M_Amber
f 28/1/109 27/2/110 26/3/111
f 28/1/112 26/2/113 25/3/114
f 29/1/115 30/2/116 31/3/117
f 29/1/118 31/2/119 32/3/120
f 25/1/121 26/2/122 30/3/123
f 25/1/124 30/2/125 29/3/126
f 26/1/127 27/2/128 31/3/129
f 26/1/130 31/2/131 30/3/132
f 27/1/133 28/2/134 32/3/135
f 27/1/136 32/2/137 31/3/138
f 28/1/139 25/2/140 29/3/141
f 28/1/142 29/2/143 32/3/144
