# Original SpaceSurvival generated source; centimeters; X forward; Z up
mtllib Palette.mtl
o SM_MobileDepot
v -80.000000 -42.500000 -35.000000
v 80.000000 -42.500000 -35.000000
v 80.000000 42.500000 -35.000000
v -80.000000 42.500000 -35.000000
v -80.000000 -42.500000 35.000000
v 80.000000 -42.500000 35.000000
v 80.000000 42.500000 35.000000
v -80.000000 42.500000 35.000000
v -77.500000 -65.500000 -27.500000
v 47.500000 -65.500000 -27.500000
v 47.500000 -40.500000 -27.500000
v -77.500000 -40.500000 -27.500000
v -77.500000 -65.500000 17.500000
v 47.500000 -65.500000 17.500000
v 47.500000 -40.500000 17.500000
v -77.500000 -40.500000 17.500000
v 17.500000 -56.000000 18.000000
v 62.500000 -56.000000 18.000000
v 62.500000 -50.000000 18.000000
v 17.500000 -50.000000 18.000000
v 17.500000 -56.000000 22.000000
v 62.500000 -56.000000 22.000000
v 62.500000 -50.000000 22.000000
v 17.500000 -50.000000 22.000000
v -77.500000 40.500000 -27.500000
v 47.500000 40.500000 -27.500000
v 47.500000 65.500000 -27.500000
v -77.500000 65.500000 -27.500000
v -77.500000 40.500000 17.500000
v 47.500000 40.500000 17.500000
v 47.500000 65.500000 17.500000
v -77.500000 65.500000 17.500000
v 17.500000 50.000000 18.000000
v 62.500000 50.000000 18.000000
v 62.500000 56.000000 18.000000
v 17.500000 56.000000 18.000000
v 17.500000 50.000000 22.000000
v 62.500000 50.000000 22.000000
v 62.500000 56.000000 22.000000
v 17.500000 56.000000 22.000000
v 78.000000 0.000000 50.000000
v 76.828427 0.000000 52.828427
v 74.000000 0.000000 54.000000
v 71.171573 0.000000 52.828427
v 70.000000 0.000000 50.000000
v 71.171573 0.000000 47.171573
v 74.000000 0.000000 46.000000
v 76.828427 0.000000 47.171573
v 76.705181 9.835124 50.000000
v 75.573529 9.531898 52.828427
v 72.841478 8.799848 54.000000
v 70.109427 8.067797 52.828427
v 68.977775 7.764571 50.000000
v 70.109427 8.067797 47.171573
v 72.841478 8.799848 46.000000
v 75.573529 9.531898 47.171573
v 72.908965 19.000000 50.000000
v 71.894353 18.414214 52.828427
v 69.444864 17.000000 54.000000
v 66.995374 15.585786 52.828427
v 65.980762 15.000000 50.000000
v 66.995374 15.585786 47.171573
v 69.444864 17.000000 46.000000
v 71.894353 18.414214 47.171573
v 66.870058 26.870058 50.000000
v 66.041631 26.041631 52.828427
v 64.041631 24.041631 54.000000
v 62.041631 22.041631 52.828427
v 61.213203 21.213203 50.000000
v 62.041631 22.041631 47.171573
v 64.041631 24.041631 46.000000
v 66.041631 26.041631 47.171573
v 59.000000 32.908965 50.000000
v 58.414214 31.894353 52.828427
v 57.000000 29.444864 54.000000
v 55.585786 26.995374 52.828427
v 55.000000 25.980762 50.000000
v 55.585786 26.995374 47.171573
v 57.000000 29.444864 46.000000
v 58.414214 31.894353 47.171573
v 49.835124 36.705181 50.000000
v 49.531898 35.573529 52.828427
v 48.799848 32.841478 54.000000
v 48.067797 30.109427 52.828427
v 47.764571 28.977775 50.000000
v 48.067797 30.109427 47.171573
v 48.799848 32.841478 46.000000
v 49.531898 35.573529 47.171573
v 40.000000 38.000000 50.000000
v 40.000000 36.828427 52.828427
v 40.000000 34.000000 54.000000
v 40.000000 31.171573 52.828427
v 40.000000 30.000000 50.000000
v 40.000000 31.171573 47.171573
v 40.000000 34.000000 46.000000
v 40.000000 36.828427 47.171573
v 30.164876 36.705181 50.000000
v 30.468102 35.573529 52.828427
v 31.200152 32.841478 54.000000
v 31.932203 30.109427 52.828427
v 32.235429 28.977775 50.000000
v 31.932203 30.109427 47.171573
v 31.200152 32.841478 46.000000
v 30.468102 35.573529 47.171573
v 21.000000 32.908965 50.000000
v 21.585786 31.894353 52.828427
v 23.000000 29.444864 54.000000
v 24.414214 26.995374 52.828427
v 25.000000 25.980762 50.000000
v 24.414214 26.995374 47.171573
v 23.000000 29.444864 46.000000
v 21.585786 31.894353 47.171573
v 13.129942 26.870058 50.000000
v 13.958369 26.041631 52.828427
v 15.958369 24.041631 54.000000
v 17.958369 22.041631 52.828427
v 18.786797 21.213203 50.000000
v 17.958369 22.041631 47.171573
v 15.958369 24.041631 46.000000
v 13.958369 26.041631 47.171573
v 7.091035 19.000000 50.000000
v 8.105647 18.414214 52.828427
v 10.555136 17.000000 54.000000
v 13.004626 15.585786 52.828427
v 14.019238 15.000000 50.000000
v 13.004626 15.585786 47.171573
v 10.555136 17.000000 46.000000
v 8.105647 18.414214 47.171573
v 3.294819 9.835124 50.000000
v 4.426471 9.531898 52.828427
v 7.158522 8.799848 54.000000
v 9.890573 8.067797 52.828427
v 11.022225 7.764571 50.000000
v 9.890573 8.067797 47.171573
v 7.158522 8.799848 46.000000
v 4.426471 9.531898 47.171573
v 2.000000 0.000000 50.000000
v 3.171573 0.000000 52.828427
v 6.000000 0.000000 54.000000
v 8.828427 0.000000 52.828427
v 10.000000 0.000000 50.000000
v 8.828427 0.000000 47.171573
v 6.000000 0.000000 46.000000
v 3.171573 0.000000 47.171573
v 3.294819 -9.835124 50.000000
v 4.426471 -9.531898 52.828427
v 7.158522 -8.799848 54.000000
v 9.890573 -8.067797 52.828427
v 11.022225 -7.764571 50.000000
v 9.890573 -8.067797 47.171573
v 7.158522 -8.799848 46.000000
v 4.426471 -9.531898 47.171573
v 7.091035 -19.000000 50.000000
v 8.105647 -18.414214 52.828427
v 10.555136 -17.000000 54.000000
v 13.004626 -15.585786 52.828427
v 14.019238 -15.000000 50.000000
v 13.004626 -15.585786 47.171573
v 10.555136 -17.000000 46.000000
v 8.105647 -18.414214 47.171573
v 13.129942 -26.870058 50.000000
v 13.958369 -26.041631 52.828427
v 15.958369 -24.041631 54.000000
v 17.958369 -22.041631 52.828427
v 18.786797 -21.213203 50.000000
v 17.958369 -22.041631 47.171573
v 15.958369 -24.041631 46.000000
v 13.958369 -26.041631 47.171573
v 21.000000 -32.908965 50.000000
v 21.585786 -31.894353 52.828427
v 23.000000 -29.444864 54.000000
v 24.414214 -26.995374 52.828427
v 25.000000 -25.980762 50.000000
v 24.414214 -26.995374 47.171573
v 23.000000 -29.444864 46.000000
v 21.585786 -31.894353 47.171573
v 30.164876 -36.705181 50.000000
v 30.468102 -35.573529 52.828427
v 31.200152 -32.841478 54.000000
v 31.932203 -30.109427 52.828427
v 32.235429 -28.977775 50.000000
v 31.932203 -30.109427 47.171573
v 31.200152 -32.841478 46.000000
v 30.468102 -35.573529 47.171573
v 40.000000 -38.000000 50.000000
v 40.000000 -36.828427 52.828427
v 40.000000 -34.000000 54.000000
v 40.000000 -31.171573 52.828427
v 40.000000 -30.000000 50.000000
v 40.000000 -31.171573 47.171573
v 40.000000 -34.000000 46.000000
v 40.000000 -36.828427 47.171573
v 49.835124 -36.705181 50.000000
v 49.531898 -35.573529 52.828427
v 48.799848 -32.841478 54.000000
v 48.067797 -30.109427 52.828427
v 47.764571 -28.977775 50.000000
v 48.067797 -30.109427 47.171573
v 48.799848 -32.841478 46.000000
v 49.531898 -35.573529 47.171573
v 59.000000 -32.908965 50.000000
v 58.414214 -31.894353 52.828427
v 57.000000 -29.444864 54.000000
v 55.585786 -26.995374 52.828427
v 55.000000 -25.980762 50.000000
v 55.585786 -26.995374 47.171573
v 57.000000 -29.444864 46.000000
v 58.414214 -31.894353 47.171573
v 66.870058 -26.870058 50.000000
v 66.041631 -26.041631 52.828427
v 64.041631 -24.041631 54.000000
v 62.041631 -22.041631 52.828427
v 61.213203 -21.213203 50.000000
v 62.041631 -22.041631 47.171573
v 64.041631 -24.041631 46.000000
v 66.041631 -26.041631 47.171573
v 72.908965 -19.000000 50.000000
v 71.894353 -18.414214 52.828427
v 69.444864 -17.000000 54.000000
v 66.995374 -15.585786 52.828427
v 65.980762 -15.000000 50.000000
v 66.995374 -15.585786 47.171573
v 69.444864 -17.000000 46.000000
v 71.894353 -18.414214 47.171573
v 76.705181 -9.835124 50.000000
v 75.573529 -9.531898 52.828427
v 72.841478 -8.799848 54.000000
v 70.109427 -8.067797 52.828427
v 68.977775 -7.764571 50.000000
v 70.109427 -8.067797 47.171573
v 72.841478 -8.799848 46.000000
v 75.573529 -9.531898 47.171573
vt 0.05 0.05
vt 0.95 0.05
vt 0.05 0.95
vn 0.000000 0.000000 -1.000000
vn 0.000000 0.000000 -1.000000
vn 0.000000 0.000000 -1.000000
vn 0.000000 0.000000 -1.000000
vn 0.000000 0.000000 -1.000000
vn 0.000000 0.000000 -1.000000
vn 0.000000 0.000000 1.000000
vn 0.000000 0.000000 1.000000
vn 0.000000 0.000000 1.000000
vn 0.000000 0.000000 1.000000
vn 0.000000 0.000000 1.000000
vn 0.000000 0.000000 1.000000
vn 0.000000 -1.000000 0.000000
vn 0.000000 -1.000000 0.000000
vn 0.000000 -1.000000 0.000000
vn 0.000000 -1.000000 0.000000
vn 0.000000 -1.000000 0.000000
vn 0.000000 -1.000000 0.000000
vn 1.000000 0.000000 0.000000
vn 1.000000 0.000000 0.000000
vn 1.000000 0.000000 0.000000
vn 1.000000 0.000000 0.000000
vn 1.000000 0.000000 0.000000
vn 1.000000 0.000000 0.000000
vn 0.000000 1.000000 0.000000
vn 0.000000 1.000000 0.000000
vn 0.000000 1.000000 0.000000
vn 0.000000 1.000000 -0.000000
vn 0.000000 1.000000 -0.000000
vn 0.000000 1.000000 -0.000000
vn -1.000000 0.000000 0.000000
vn -1.000000 0.000000 0.000000
vn -1.000000 0.000000 0.000000
vn -1.000000 0.000000 0.000000
vn -1.000000 0.000000 0.000000
vn -1.000000 0.000000 0.000000
vn 0.000000 0.000000 -1.000000
vn 0.000000 0.000000 -1.000000
vn 0.000000 0.000000 -1.000000
vn 0.000000 0.000000 -1.000000
vn 0.000000 0.000000 -1.000000
vn 0.000000 0.000000 -1.000000
vn 0.000000 0.000000 1.000000
vn 0.000000 0.000000 1.000000
vn 0.000000 0.000000 1.000000
vn 0.000000 0.000000 1.000000
vn 0.000000 0.000000 1.000000
vn 0.000000 0.000000 1.000000
vn 0.000000 -1.000000 0.000000
vn 0.000000 -1.000000 0.000000
vn 0.000000 -1.000000 0.000000
vn 0.000000 -1.000000 0.000000
vn 0.000000 -1.000000 0.000000
vn 0.000000 -1.000000 0.000000
vn 1.000000 0.000000 0.000000
vn 1.000000 0.000000 0.000000
vn 1.000000 0.000000 0.000000
vn 1.000000 0.000000 0.000000
vn 1.000000 0.000000 0.000000
vn 1.000000 0.000000 0.000000
vn 0.000000 1.000000 0.000000
vn 0.000000 1.000000 0.000000
vn 0.000000 1.000000 0.000000
vn 0.000000 1.000000 -0.000000
vn 0.000000 1.000000 -0.000000
vn 0.000000 1.000000 -0.000000
vn -1.000000 0.000000 0.000000
vn -1.000000 0.000000 0.000000
vn -1.000000 0.000000 0.000000
vn -1.000000 0.000000 0.000000
vn -1.000000 0.000000 0.000000
vn -1.000000 0.000000 0.000000
vn 0.000000 0.000000 -1.000000
vn 0.000000 0.000000 -1.000000
vn 0.000000 0.000000 -1.000000
vn 0.000000 0.000000 -1.000000
vn 0.000000 0.000000 -1.000000
vn 0.000000 0.000000 -1.000000
vn 0.000000 0.000000 1.000000
vn 0.000000 0.000000 1.000000
vn 0.000000 0.000000 1.000000
vn 0.000000 0.000000 1.000000
vn 0.000000 0.000000 1.000000
vn 0.000000 0.000000 1.000000
vn 0.000000 -1.000000 0.000000
vn 0.000000 -1.000000 0.000000
vn 0.000000 -1.000000 0.000000
vn 0.000000 -1.000000 0.000000
vn 0.000000 -1.000000 0.000000
vn 0.000000 -1.000000 0.000000
vn 1.000000 0.000000 0.000000
vn 1.000000 0.000000 0.000000
vn 1.000000 0.000000 0.000000
vn 1.000000 0.000000 0.000000
vn 1.000000 0.000000 0.000000
vn 1.000000 0.000000 0.000000
vn 0.000000 1.000000 0.000000
vn 0.000000 1.000000 0.000000
vn 0.000000 1.000000 0.000000
vn 0.000000 1.000000 -0.000000
vn 0.000000 1.000000 -0.000000
vn 0.000000 1.000000 -0.000000
vn -1.000000 0.000000 0.000000
vn -1.000000 0.000000 0.000000
vn -1.000000 0.000000 0.000000
vn -1.000000 0.000000 0.000000
vn -1.000000 0.000000 0.000000
vn -1.000000 0.000000 0.000000
vn 0.000000 0.000000 -1.000000
vn 0.000000 0.000000 -1.000000
vn 0.000000 0.000000 -1.000000
vn 0.000000 0.000000 -1.000000
vn 0.000000 0.000000 -1.000000
vn 0.000000 0.000000 -1.000000
vn 0.000000 0.000000 1.000000
vn 0.000000 0.000000 1.000000
vn 0.000000 0.000000 1.000000
vn 0.000000 0.000000 1.000000
vn 0.000000 0.000000 1.000000
vn 0.000000 0.000000 1.000000
vn 0.000000 -1.000000 0.000000
vn 0.000000 -1.000000 0.000000
vn 0.000000 -1.000000 0.000000
vn 0.000000 -1.000000 0.000000
vn 0.000000 -1.000000 0.000000
vn 0.000000 -1.000000 0.000000
vn 1.000000 0.000000 0.000000
vn 1.000000 0.000000 0.000000
vn 1.000000 0.000000 0.000000
vn 1.000000 0.000000 0.000000
vn 1.000000 0.000000 0.000000
vn 1.000000 0.000000 0.000000
vn 0.000000 1.000000 0.000000
vn 0.000000 1.000000 0.000000
vn 0.000000 1.000000 0.000000
vn 0.000000 1.000000 -0.000000
vn 0.000000 1.000000 -0.000000
vn 0.000000 1.000000 -0.000000
vn -1.000000 0.000000 0.000000
vn -1.000000 0.000000 0.000000
vn -1.000000 0.000000 0.000000
vn -1.000000 0.000000 0.000000
vn -1.000000 0.000000 0.000000
vn -1.000000 0.000000 0.000000
vn 0.000000 0.000000 -1.000000
vn 0.000000 0.000000 -1.000000
vn 0.000000 0.000000 -1.000000
vn 0.000000 0.000000 -1.000000
vn 0.000000 0.000000 -1.000000
vn 0.000000 0.000000 -1.000000
vn 0.000000 0.000000 1.000000
vn 0.000000 0.000000 1.000000
vn 0.000000 0.000000 1.000000
vn 0.000000 0.000000 1.000000
vn 0.000000 0.000000 1.000000
vn 0.000000 0.000000 1.000000
vn 0.000000 -1.000000 0.000000
vn 0.000000 -1.000000 0.000000
vn 0.000000 -1.000000 0.000000
vn 0.000000 -1.000000 0.000000
vn 0.000000 -1.000000 0.000000
vn 0.000000 -1.000000 0.000000
vn 1.000000 0.000000 0.000000
vn 1.000000 0.000000 0.000000
vn 1.000000 0.000000 0.000000
vn 1.000000 0.000000 0.000000
vn 1.000000 0.000000 0.000000
vn 1.000000 0.000000 0.000000
vn 0.000000 1.000000 0.000000
vn 0.000000 1.000000 0.000000
vn 0.000000 1.000000 0.000000
vn 0.000000 1.000000 -0.000000
vn 0.000000 1.000000 -0.000000
vn 0.000000 1.000000 -0.000000
vn -1.000000 0.000000 0.000000
vn -1.000000 0.000000 0.000000
vn -1.000000 0.000000 0.000000
vn -1.000000 0.000000 0.000000
vn -1.000000 0.000000 0.000000
vn -1.000000 0.000000 0.000000
vn 1.000000 0.000000 0.000000
vn 0.965926 0.258819 -0.000000
vn 0.685399 0.170444 0.707938
vn 1.000000 0.000000 0.000000
vn 0.685399 0.170444 0.707938
vn 0.706159 -0.012758 0.707938
vn 0.706159 -0.012758 0.707938
vn 0.685399 0.170444 0.707938
vn 0.004704 -0.017555 0.999835
vn 0.706159 -0.012758 0.707938
vn 0.004704 -0.017555 0.999835
vn -0.000000 -0.018174 0.999835
vn -0.000000 -0.018174 0.999835
vn 0.004704 -0.017555 0.999835
vn -0.678795 -0.195091 0.707938
vn -0.000000 -0.018174 0.999835
vn -0.678795 -0.195091 0.707938
vn -0.706159 -0.012758 0.707938
vn -0.706159 -0.012758 0.707938
vn -0.678795 -0.195091 0.707938
vn -0.965926 -0.258819 0.000000
vn -0.706159 -0.012758 0.707938
vn -0.965926 -0.258819 0.000000
vn -1.000000 0.000000 0.000000
vn -1.000000 0.000000 0.000000
vn -0.965926 -0.258819 0.000000
vn -0.685399 -0.170444 -0.707938
vn -1.000000 0.000000 0.000000
vn -0.685399 -0.170444 -0.707938
vn -0.706159 0.012758 -0.707938
vn -0.706159 0.012758 -0.707938
vn -0.685399 -0.170444 -0.707938
vn -0.004704 0.017555 -0.999835
vn -0.706159 0.012758 -0.707938
vn -0.004704 0.017555 -0.999835
vn 0.000000 0.018174 -0.999835
vn 0.000000 0.018174 -0.999835
vn -0.004704 0.017555 -0.999835
vn 0.678795 0.195091 -0.707938
vn 0.000000 0.018174 -0.999835
vn 0.678795 0.195091 -0.707938
vn 0.706159 0.012758 -0.707938
vn 0.706159 0.012758 -0.707938
vn 0.678795 0.195091 -0.707938
vn 0.965926 0.258819 -0.000000
vn 0.706159 0.012758 -0.707938
vn 0.965926 0.258819 -0.000000
vn 1.000000 0.000000 0.000000
vn 0.965926 0.258819 -0.000000
vn 0.866025 0.500000 0.000000
vn 0.617931 0.342031 0.707938
vn 0.965926 0.258819 -0.000000
vn 0.617931 0.342031 0.707938
vn 0.685399 0.170444 0.707938
vn 0.685399 0.170444 0.707938
vn 0.617931 0.342031 0.707938
vn 0.009087 -0.015740 0.999835
vn 0.685399 0.170444 0.707938
vn 0.009087 -0.015740 0.999835
vn 0.004704 -0.017555 0.999835
vn 0.004704 -0.017555 0.999835
vn 0.009087 -0.015740 0.999835
vn -0.605173 -0.364128 0.707938
vn 0.004704 -0.017555 0.999835
vn -0.605173 -0.364128 0.707938
vn -0.678795 -0.195091 0.707938
vn -0.678795 -0.195091 0.707938
vn -0.605173 -0.364128 0.707938
vn -0.866025 -0.500000 0.000000
vn -0.678795 -0.195091 0.707938
vn -0.866025 -0.500000 0.000000
vn -0.965926 -0.258819 0.000000
vn -0.965926 -0.258819 0.000000
vn -0.866025 -0.500000 0.000000
vn -0.617931 -0.342031 -0.707938
vn -0.965926 -0.258819 0.000000
vn -0.617931 -0.342031 -0.707938
vn -0.685399 -0.170444 -0.707938
vn -0.685399 -0.170444 -0.707938
vn -0.617931 -0.342031 -0.707938
vn -0.009087 0.015740 -0.999835
vn -0.685399 -0.170444 -0.707938
vn -0.009087 0.015740 -0.999835
vn -0.004704 0.017555 -0.999835
vn -0.004704 0.017555 -0.999835
vn -0.009087 0.015740 -0.999835
vn 0.605173 0.364128 -0.707938
vn -0.004704 0.017555 -0.999835
vn 0.605173 0.364128 -0.707938
vn 0.678795 0.195091 -0.707938
vn 0.678795 0.195091 -0.707938
vn 0.605173 0.364128 -0.707938
vn 0.866025 0.500000 0.000000
vn 0.678795 0.195091 -0.707938
vn 0.866025 0.500000 0.000000
vn 0.965926 0.258819 -0.000000
vn 0.866025 0.500000 0.000000
vn 0.707107 0.707107 -0.000000
vn 0.508351 0.490309 0.707938
vn 0.866025 0.500000 0.000000
vn 0.508351 0.490309 0.707938
vn 0.617931 0.342031 0.707938
vn 0.617931 0.342031 0.707938
vn 0.508351 0.490309 0.707938
vn 0.012851 -0.012851 0.999835
vn 0.617931 0.342031 0.707938
vn 0.012851 -0.012851 0.999835
vn 0.009087 -0.015740 0.999835
vn 0.009087 -0.015740 0.999835
vn 0.012851 -0.012851 0.999835
vn -0.490309 -0.508351 0.707938
vn 0.009087 -0.015740 0.999835
vn -0.490309 -0.508351 0.707938
vn -0.605173 -0.364128 0.707938
vn -0.605173 -0.364128 0.707938
vn -0.490309 -0.508351 0.707938
vn -0.707107 -0.707107 0.000000
vn -0.605173 -0.364128 0.707938
vn -0.707107 -0.707107 0.000000
vn -0.866025 -0.500000 0.000000
vn -0.866025 -0.500000 0.000000
vn -0.707107 -0.707107 0.000000
vn -0.508351 -0.490309 -0.707938
vn -0.866025 -0.500000 0.000000
vn -0.508351 -0.490309 -0.707938
vn -0.617931 -0.342031 -0.707938
vn -0.617931 -0.342031 -0.707938
vn -0.508351 -0.490309 -0.707938
vn -0.012851 0.012851 -0.999835
vn -0.617931 -0.342031 -0.707938
vn -0.012851 0.012851 -0.999835
vn -0.009087 0.015740 -0.999835
vn -0.009087 0.015740 -0.999835
vn -0.012851 0.012851 -0.999835
vn 0.490309 0.508351 -0.707938
vn -0.009087 0.015740 -0.999835
vn 0.490309 0.508351 -0.707938
vn 0.605173 0.364128 -0.707938
vn 0.605173 0.364128 -0.707938
vn 0.490309 0.508351 -0.707938
vn 0.707107 0.707107 -0.000000
vn 0.605173 0.364128 -0.707938
vn 0.707107 0.707107 -0.000000
vn 0.866025 0.500000 0.000000
vn 0.707107 0.707107 -0.000000
vn 0.500000 0.866025 -0.000000
vn 0.364128 0.605173 0.707938
vn 0.707107 0.707107 -0.000000
vn 0.364128 0.605173 0.707938
vn 0.508351 0.490309 0.707938
vn 0.508351 0.490309 0.707938
vn 0.364128 0.605173 0.707938
vn 0.015740 -0.009087 0.999835
vn 0.508351 0.490309 0.707938
vn 0.015740 -0.009087 0.999835
vn 0.012851 -0.012851 0.999835
vn 0.012851 -0.012851 0.999835
vn 0.015740 -0.009087 0.999835
vn -0.342031 -0.617931 0.707938
vn 0.012851 -0.012851 0.999835
vn -0.342031 -0.617931 0.707938
vn -0.490309 -0.508351 0.707938
vn -0.490309 -0.508351 0.707938
vn -0.342031 -0.617931 0.707938
vn -0.500000 -0.866025 -0.000000
vn -0.490309 -0.508351 0.707938
vn -0.500000 -0.866025 -0.000000
vn -0.707107 -0.707107 0.000000
vn -0.707107 -0.707107 0.000000
vn -0.500000 -0.866025 -0.000000
vn -0.364128 -0.605173 -0.707938
vn -0.707107 -0.707107 0.000000
vn -0.364128 -0.605173 -0.707938
vn -0.508351 -0.490309 -0.707938
vn -0.508351 -0.490309 -0.707938
vn -0.364128 -0.605173 -0.707938
vn -0.015740 0.009087 -0.999835
vn -0.508351 -0.490309 -0.707938
vn -0.015740 0.009087 -0.999835
vn -0.012851 0.012851 -0.999835
vn -0.012851 0.012851 -0.999835
vn -0.015740 0.009087 -0.999835
vn 0.342031 0.617931 -0.707938
vn -0.012851 0.012851 -0.999835
vn 0.342031 0.617931 -0.707938
vn 0.490309 0.508351 -0.707938
vn 0.490309 0.508351 -0.707938
vn 0.342031 0.617931 -0.707938
vn 0.500000 0.866025 -0.000000
vn 0.490309 0.508351 -0.707938
vn 0.500000 0.866025 -0.000000
vn 0.707107 0.707107 -0.000000
vn 0.500000 0.866025 -0.000000
vn 0.258819 0.965926 0.000000
vn 0.195091 0.678795 0.707938
vn 0.500000 0.866025 -0.000000
vn 0.195091 0.678795 0.707938
vn 0.364128 0.605173 0.707938
vn 0.364128 0.605173 0.707938
vn 0.195091 0.678795 0.707938
vn 0.017555 -0.004704 0.999835
vn 0.364128 0.605173 0.707938
vn 0.017555 -0.004704 0.999835
vn 0.015740 -0.009087 0.999835
vn 0.015740 -0.009087 0.999835
vn 0.017555 -0.004704 0.999835
vn -0.170444 -0.685399 0.707938
vn 0.015740 -0.009087 0.999835
vn -0.170444 -0.685399 0.707938
vn -0.342031 -0.617931 0.707938
vn -0.342031 -0.617931 0.707938
vn -0.170444 -0.685399 0.707938
vn -0.258819 -0.965926 0.000000
vn -0.342031 -0.617931 0.707938
vn -0.258819 -0.965926 0.000000
vn -0.500000 -0.866025 -0.000000
vn -0.500000 -0.866025 -0.000000
vn -0.258819 -0.965926 0.000000
vn -0.195091 -0.678795 -0.707938
vn -0.500000 -0.866025 -0.000000
vn -0.195091 -0.678795 -0.707938
vn -0.364128 -0.605173 -0.707938
vn -0.364128 -0.605173 -0.707938
vn -0.195091 -0.678795 -0.707938
vn -0.017555 0.004704 -0.999835
vn -0.364128 -0.605173 -0.707938
vn -0.017555 0.004704 -0.999835
vn -0.015740 0.009087 -0.999835
vn -0.015740 0.009087 -0.999835
vn -0.017555 0.004704 -0.999835
vn 0.170444 0.685399 -0.707938
vn -0.015740 0.009087 -0.999835
vn 0.170444 0.685399 -0.707938
vn 0.342031 0.617931 -0.707938
vn 0.342031 0.617931 -0.707938
vn 0.170444 0.685399 -0.707938
vn 0.258819 0.965926 0.000000
vn 0.342031 0.617931 -0.707938
vn 0.258819 0.965926 0.000000
vn 0.500000 0.866025 -0.000000
vn 0.258819 0.965926 0.000000
vn -0.000000 1.000000 0.000000
vn 0.012758 0.706159 0.707938
vn 0.258819 0.965926 0.000000
vn 0.012758 0.706159 0.707938
vn 0.195091 0.678795 0.707938
vn 0.195091 0.678795 0.707938
vn 0.012758 0.706159 0.707938
vn 0.018174 -0.000000 0.999835
vn 0.195091 0.678795 0.707938
vn 0.018174 -0.000000 0.999835
vn 0.017555 -0.004704 0.999835
vn 0.017555 -0.004704 0.999835
vn 0.018174 -0.000000 0.999835
vn 0.012758 -0.706159 0.707938
vn 0.017555 -0.004704 0.999835
vn 0.012758 -0.706159 0.707938
vn -0.170444 -0.685399 0.707938
vn -0.170444 -0.685399 0.707938
vn 0.012758 -0.706159 0.707938
vn 0.000000 -1.000000 -0.000000
vn -0.170444 -0.685399 0.707938
vn 0.000000 -1.000000 -0.000000
vn -0.258819 -0.965926 0.000000
vn -0.258819 -0.965926 0.000000
vn 0.000000 -1.000000 -0.000000
vn -0.012758 -0.706159 -0.707938
vn -0.258819 -0.965926 0.000000
vn -0.012758 -0.706159 -0.707938
vn -0.195091 -0.678795 -0.707938
vn -0.195091 -0.678795 -0.707938
vn -0.012758 -0.706159 -0.707938
vn -0.018174 -0.000000 -0.999835
vn -0.195091 -0.678795 -0.707938
vn -0.018174 -0.000000 -0.999835
vn -0.017555 0.004704 -0.999835
vn -0.017555 0.004704 -0.999835
vn -0.018174 -0.000000 -0.999835
vn -0.012758 0.706159 -0.707938
vn -0.017555 0.004704 -0.999835
vn -0.012758 0.706159 -0.707938
vn 0.170444 0.685399 -0.707938
vn 0.170444 0.685399 -0.707938
vn -0.012758 0.706159 -0.707938
vn -0.000000 1.000000 0.000000
vn 0.170444 0.685399 -0.707938
vn -0.000000 1.000000 0.000000
vn 0.258819 0.965926 0.000000
vn -0.000000 1.000000 0.000000
vn -0.258819 0.965926 0.000000
vn -0.170444 0.685399 0.707938
vn -0.000000 1.000000 0.000000
vn -0.170444 0.685399 0.707938
vn 0.012758 0.706159 0.707938
vn 0.012758 0.706159 0.707938
vn -0.170444 0.685399 0.707938
vn 0.017555 0.004704 0.999835
vn 0.012758 0.706159 0.707938
vn 0.017555 0.004704 0.999835
vn 0.018174 -0.000000 0.999835
vn 0.018174 -0.000000 0.999835
vn 0.017555 0.004704 0.999835
vn 0.195091 -0.678795 0.707938
vn 0.018174 -0.000000 0.999835
vn 0.195091 -0.678795 0.707938
vn 0.012758 -0.706159 0.707938
vn 0.012758 -0.706159 0.707938
vn 0.195091 -0.678795 0.707938
vn 0.258819 -0.965926 0.000000
vn 0.012758 -0.706159 0.707938
vn 0.258819 -0.965926 0.000000
vn 0.000000 -1.000000 -0.000000
vn 0.000000 -1.000000 -0.000000
vn 0.258819 -0.965926 0.000000
vn 0.170444 -0.685399 -0.707938
vn 0.000000 -1.000000 -0.000000
vn 0.170444 -0.685399 -0.707938
vn -0.012758 -0.706159 -0.707938
vn -0.012758 -0.706159 -0.707938
vn 0.170444 -0.685399 -0.707938
vn -0.017555 -0.004704 -0.999835
vn -0.012758 -0.706159 -0.707938
vn -0.017555 -0.004704 -0.999835
vn -0.018174 -0.000000 -0.999835
vn -0.018174 -0.000000 -0.999835
vn -0.017555 -0.004704 -0.999835
vn -0.195091 0.678795 -0.707938
vn -0.018174 -0.000000 -0.999835
vn -0.195091 0.678795 -0.707938
vn -0.012758 0.706159 -0.707938
vn -0.012758 0.706159 -0.707938
vn -0.195091 0.678795 -0.707938
vn -0.258819 0.965926 0.000000
vn -0.012758 0.706159 -0.707938
vn -0.258819 0.965926 0.000000
vn -0.000000 1.000000 0.000000
vn -0.258819 0.965926 0.000000
vn -0.500000 0.866025 0.000000
vn -0.342031 0.617931 0.707938
vn -0.258819 0.965926 0.000000
vn -0.342031 0.617931 0.707938
vn -0.170444 0.685399 0.707938
vn -0.170444 0.685399 0.707938
vn -0.342031 0.617931 0.707938
vn 0.015740 0.009087 0.999835
vn -0.170444 0.685399 0.707938
vn 0.015740 0.009087 0.999835
vn 0.017555 0.004704 0.999835
vn 0.017555 0.004704 0.999835
vn 0.015740 0.009087 0.999835
vn 0.364128 -0.605173 0.707938
vn 0.017555 0.004704 0.999835
vn 0.364128 -0.605173 0.707938
vn 0.195091 -0.678795 0.707938
vn 0.195091 -0.678795 0.707938
vn 0.364128 -0.605173 0.707938
vn 0.500000 -0.866025 0.000000
vn 0.195091 -0.678795 0.707938
vn 0.500000 -0.866025 0.000000
vn 0.258819 -0.965926 0.000000
vn 0.258819 -0.965926 0.000000
vn 0.500000 -0.866025 0.000000
vn 0.342031 -0.617931 -0.707938
vn 0.258819 -0.965926 0.000000
vn 0.342031 -0.617931 -0.707938
vn 0.170444 -0.685399 -0.707938
vn 0.170444 -0.685399 -0.707938
vn 0.342031 -0.617931 -0.707938
vn -0.015740 -0.009087 -0.999835
vn 0.170444 -0.685399 -0.707938
vn -0.015740 -0.009087 -0.999835
vn -0.017555 -0.004704 -0.999835
vn -0.017555 -0.004704 -0.999835
vn -0.015740 -0.009087 -0.999835
vn -0.364128 0.605173 -0.707938
vn -0.017555 -0.004704 -0.999835
vn -0.364128 0.605173 -0.707938
vn -0.195091 0.678795 -0.707938
vn -0.195091 0.678795 -0.707938
vn -0.364128 0.605173 -0.707938
vn -0.500000 0.866025 0.000000
vn -0.195091 0.678795 -0.707938
vn -0.500000 0.866025 0.000000
vn -0.258819 0.965926 0.000000
vn -0.500000 0.866025 0.000000
vn -0.707107 0.707107 -0.000000
vn -0.490309 0.508351 0.707938
vn -0.500000 0.866025 0.000000
vn -0.490309 0.508351 0.707938
vn -0.342031 0.617931 0.707938
vn -0.342031 0.617931 0.707938
vn -0.490309 0.508351 0.707938
vn 0.012851 0.012851 0.999835
vn -0.342031 0.617931 0.707938
vn 0.012851 0.012851 0.999835
vn 0.015740 0.009087 0.999835
vn 0.015740 0.009087 0.999835
vn 0.012851 0.012851 0.999835
vn 0.508351 -0.490309 0.707938
vn 0.015740 0.009087 0.999835
vn 0.508351 -0.490309 0.707938
vn 0.364128 -0.605173 0.707938
vn 0.364128 -0.605173 0.707938
vn 0.508351 -0.490309 0.707938
vn 0.707107 -0.707107 0.000000
vn 0.364128 -0.605173 0.707938
vn 0.707107 -0.707107 0.000000
vn 0.500000 -0.866025 0.000000
vn 0.500000 -0.866025 0.000000
vn 0.707107 -0.707107 0.000000
vn 0.490309 -0.508351 -0.707938
vn 0.500000 -0.866025 0.000000
vn 0.490309 -0.508351 -0.707938
vn 0.342031 -0.617931 -0.707938
vn 0.342031 -0.617931 -0.707938
vn 0.490309 -0.508351 -0.707938
vn -0.012851 -0.012851 -0.999835
vn 0.342031 -0.617931 -0.707938
vn -0.012851 -0.012851 -0.999835
vn -0.015740 -0.009087 -0.999835
vn -0.015740 -0.009087 -0.999835
vn -0.012851 -0.012851 -0.999835
vn -0.508351 0.490309 -0.707938
vn -0.015740 -0.009087 -0.999835
vn -0.508351 0.490309 -0.707938
vn -0.364128 0.605173 -0.707938
vn -0.364128 0.605173 -0.707938
vn -0.508351 0.490309 -0.707938
vn -0.707107 0.707107 -0.000000
vn -0.364128 0.605173 -0.707938
vn -0.707107 0.707107 -0.000000
vn -0.500000 0.866025 0.000000
vn -0.707107 0.707107 -0.000000
vn -0.866025 0.500000 0.000000
vn -0.605173 0.364128 0.707938
vn -0.707107 0.707107 -0.000000
vn -0.605173 0.364128 0.707938
vn -0.490309 0.508351 0.707938
vn -0.490309 0.508351 0.707938
vn -0.605173 0.364128 0.707938
vn 0.009087 0.015740 0.999835
vn -0.490309 0.508351 0.707938
vn 0.009087 0.015740 0.999835
vn 0.012851 0.012851 0.999835
vn 0.012851 0.012851 0.999835
vn 0.009087 0.015740 0.999835
vn 0.617931 -0.342031 0.707938
vn 0.012851 0.012851 0.999835
vn 0.617931 -0.342031 0.707938
vn 0.508351 -0.490309 0.707938
vn 0.508351 -0.490309 0.707938
vn 0.617931 -0.342031 0.707938
vn 0.866025 -0.500000 0.000000
vn 0.508351 -0.490309 0.707938
vn 0.866025 -0.500000 0.000000
vn 0.707107 -0.707107 0.000000
vn 0.707107 -0.707107 0.000000
vn 0.866025 -0.500000 0.000000
vn 0.605173 -0.364128 -0.707938
vn 0.707107 -0.707107 0.000000
vn 0.605173 -0.364128 -0.707938
vn 0.490309 -0.508351 -0.707938
vn 0.490309 -0.508351 -0.707938
vn 0.605173 -0.364128 -0.707938
vn -0.009087 -0.015740 -0.999835
vn 0.490309 -0.508351 -0.707938
vn -0.009087 -0.015740 -0.999835
vn -0.012851 -0.012851 -0.999835
vn -0.012851 -0.012851 -0.999835
vn -0.009087 -0.015740 -0.999835
vn -0.617931 0.342031 -0.707938
vn -0.012851 -0.012851 -0.999835
vn -0.617931 0.342031 -0.707938
vn -0.508351 0.490309 -0.707938
vn -0.508351 0.490309 -0.707938
vn -0.617931 0.342031 -0.707938
vn -0.866025 0.500000 0.000000
vn -0.508351 0.490309 -0.707938
vn -0.866025 0.500000 0.000000
vn -0.707107 0.707107 -0.000000
vn -0.866025 0.500000 0.000000
vn -0.965926 0.258819 -0.000000
vn -0.678795 0.195091 0.707938
vn -0.866025 0.500000 0.000000
vn -0.678795 0.195091 0.707938
vn -0.605173 0.364128 0.707938
vn -0.605173 0.364128 0.707938
vn -0.678795 0.195091 0.707938
vn 0.004704 0.017555 0.999835
vn -0.605173 0.364128 0.707938
vn 0.004704 0.017555 0.999835
vn 0.009087 0.015740 0.999835
vn 0.009087 0.015740 0.999835
vn 0.004704 0.017555 0.999835
vn 0.685399 -0.170444 0.707938
vn 0.009087 0.015740 0.999835
vn 0.685399 -0.170444 0.707938
vn 0.617931 -0.342031 0.707938
vn 0.617931 -0.342031 0.707938
vn 0.685399 -0.170444 0.707938
vn 0.965926 -0.258819 -0.000000
vn 0.617931 -0.342031 0.707938
vn 0.965926 -0.258819 -0.000000
vn 0.866025 -0.500000 0.000000
vn 0.866025 -0.500000 0.000000
vn 0.965926 -0.258819 -0.000000
vn 0.678795 -0.195091 -0.707938
vn 0.866025 -0.500000 0.000000
vn 0.678795 -0.195091 -0.707938
vn 0.605173 -0.364128 -0.707938
vn 0.605173 -0.364128 -0.707938
vn 0.678795 -0.195091 -0.707938
vn -0.004704 -0.017555 -0.999835
vn 0.605173 -0.364128 -0.707938
vn -0.004704 -0.017555 -0.999835
vn -0.009087 -0.015740 -0.999835
vn -0.009087 -0.015740 -0.999835
vn -0.004704 -0.017555 -0.999835
vn -0.685399 0.170444 -0.707938
vn -0.009087 -0.015740 -0.999835
vn -0.685399 0.170444 -0.707938
vn -0.617931 0.342031 -0.707938
vn -0.617931 0.342031 -0.707938
vn -0.685399 0.170444 -0.707938
vn -0.965926 0.258819 -0.000000
vn -0.617931 0.342031 -0.707938
vn -0.965926 0.258819 -0.000000
vn -0.866025 0.500000 0.000000
vn -0.965926 0.258819 -0.000000
vn -1.000000 0.000000 -0.000000
vn -0.706159 0.012758 0.707938
vn -0.965926 0.258819 -0.000000
vn -0.706159 0.012758 0.707938
vn -0.678795 0.195091 0.707938
vn -0.678795 0.195091 0.707938
vn -0.706159 0.012758 0.707938
vn -0.000000 0.018174 0.999835
vn -0.678795 0.195091 0.707938
vn -0.000000 0.018174 0.999835
vn 0.004704 0.017555 0.999835
vn 0.004704 0.017555 0.999835
vn -0.000000 0.018174 0.999835
vn 0.706159 0.012758 0.707938
vn 0.004704 0.017555 0.999835
vn 0.706159 0.012758 0.707938
vn 0.685399 -0.170444 0.707938
vn 0.685399 -0.170444 0.707938
vn 0.706159 0.012758 0.707938
vn 1.000000 -0.000000 -0.000000
vn 0.685399 -0.170444 0.707938
vn 1.000000 -0.000000 -0.000000
vn 0.965926 -0.258819 -0.000000
vn 0.965926 -0.258819 -0.000000
vn 1.000000 -0.000000 -0.000000
vn 0.706159 -0.012758 -0.707938
vn 0.965926 -0.258819 -0.000000
vn 0.706159 -0.012758 -0.707938
vn 0.678795 -0.195091 -0.707938
vn 0.678795 -0.195091 -0.707938
vn 0.706159 -0.012758 -0.707938
vn 0.000000 -0.018174 -0.999835
vn 0.678795 -0.195091 -0.707938
vn 0.000000 -0.018174 -0.999835
vn -0.004704 -0.017555 -0.999835
vn -0.004704 -0.017555 -0.999835
vn 0.000000 -0.018174 -0.999835
vn -0.706159 -0.012758 -0.707938
vn -0.004704 -0.017555 -0.999835
vn -0.706159 -0.012758 -0.707938
vn -0.685399 0.170444 -0.707938
vn -0.685399 0.170444 -0.707938
vn -0.706159 -0.012758 -0.707938
vn -1.000000 0.000000 -0.000000
vn -0.685399 0.170444 -0.707938
vn -1.000000 0.000000 -0.000000
vn -0.965926 0.258819 -0.000000
vn -1.000000 0.000000 -0.000000
vn -0.965926 -0.258819 -0.000000
vn -0.685399 -0.170444 0.707938
vn -1.000000 0.000000 -0.000000
vn -0.685399 -0.170444 0.707938
vn -0.706159 0.012758 0.707938
vn -0.706159 0.012758 0.707938
vn -0.685399 -0.170444 0.707938
vn -0.004704 0.017555 0.999835
vn -0.706159 0.012758 0.707938
vn -0.004704 0.017555 0.999835
vn -0.000000 0.018174 0.999835
vn -0.000000 0.018174 0.999835
vn -0.004704 0.017555 0.999835
vn 0.678795 0.195091 0.707938
vn -0.000000 0.018174 0.999835
vn 0.678795 0.195091 0.707938
vn 0.706159 0.012758 0.707938
vn 0.706159 0.012758 0.707938
vn 0.678795 0.195091 0.707938
vn 0.965926 0.258819 0.000000
vn 0.706159 0.012758 0.707938
vn 0.965926 0.258819 0.000000
vn 1.000000 -0.000000 -0.000000
vn 1.000000 -0.000000 -0.000000
vn 0.965926 0.258819 0.000000
vn 0.685399 0.170444 -0.707938
vn 1.000000 -0.000000 -0.000000
vn 0.685399 0.170444 -0.707938
vn 0.706159 -0.012758 -0.707938
vn 0.706159 -0.012758 -0.707938
vn 0.685399 0.170444 -0.707938
vn 0.004704 -0.017555 -0.999835
vn 0.706159 -0.012758 -0.707938
vn 0.004704 -0.017555 -0.999835
vn 0.000000 -0.018174 -0.999835
vn 0.000000 -0.018174 -0.999835
vn 0.004704 -0.017555 -0.999835
vn -0.678795 -0.195091 -0.707938
vn 0.000000 -0.018174 -0.999835
vn -0.678795 -0.195091 -0.707938
vn -0.706159 -0.012758 -0.707938
vn -0.706159 -0.012758 -0.707938
vn -0.678795 -0.195091 -0.707938
vn -0.965926 -0.258819 -0.000000
vn -0.706159 -0.012758 -0.707938
vn -0.965926 -0.258819 -0.000000
vn -1.000000 0.000000 -0.000000
vn -0.965926 -0.258819 -0.000000
vn -0.866025 -0.500000 0.000000
vn -0.617931 -0.342031 0.707938
vn -0.965926 -0.258819 -0.000000
vn -0.617931 -0.342031 0.707938
vn -0.685399 -0.170444 0.707938
vn -0.685399 -0.170444 0.707938
vn -0.617931 -0.342031 0.707938
vn -0.009087 0.015740 0.999835
vn -0.685399 -0.170444 0.707938
vn -0.009087 0.015740 0.999835
vn -0.004704 0.017555 0.999835
vn -0.004704 0.017555 0.999835
vn -0.009087 0.015740 0.999835
vn 0.605173 0.364128 0.707938
vn -0.004704 0.017555 0.999835
vn 0.605173 0.364128 0.707938
vn 0.678795 0.195091 0.707938
vn 0.678795 0.195091 0.707938
vn 0.605173 0.364128 0.707938
vn 0.866025 0.500000 -0.000000
vn 0.678795 0.195091 0.707938
vn 0.866025 0.500000 -0.000000
vn 0.965926 0.258819 0.000000
vn 0.965926 0.258819 0.000000
vn 0.866025 0.500000 -0.000000
vn 0.617931 0.342031 -0.707938
vn 0.965926 0.258819 0.000000
vn 0.617931 0.342031 -0.707938
vn 0.685399 0.170444 -0.707938
vn 0.685399 0.170444 -0.707938
vn 0.617931 0.342031 -0.707938
vn 0.009087 -0.015740 -0.999835
vn 0.685399 0.170444 -0.707938
vn 0.009087 -0.015740 -0.999835
vn 0.004704 -0.017555 -0.999835
vn 0.004704 -0.017555 -0.999835
vn 0.009087 -0.015740 -0.999835
vn -0.605173 -0.364128 -0.707938
vn 0.004704 -0.017555 -0.999835
vn -0.605173 -0.364128 -0.707938
vn -0.678795 -0.195091 -0.707938
vn -0.678795 -0.195091 -0.707938
vn -0.605173 -0.364128 -0.707938
vn -0.866025 -0.500000 0.000000
vn -0.678795 -0.195091 -0.707938
vn -0.866025 -0.500000 0.000000
vn -0.965926 -0.258819 -0.000000
vn -0.866025 -0.500000 0.000000
vn -0.707107 -0.707107 -0.000000
vn -0.508351 -0.490309 0.707938
vn -0.866025 -0.500000 0.000000
vn -0.508351 -0.490309 0.707938
vn -0.617931 -0.342031 0.707938
vn -0.617931 -0.342031 0.707938
vn -0.508351 -0.490309 0.707938
vn -0.012851 0.012851 0.999835
vn -0.617931 -0.342031 0.707938
vn -0.012851 0.012851 0.999835
vn -0.009087 0.015740 0.999835
vn -0.009087 0.015740 0.999835
vn -0.012851 0.012851 0.999835
vn 0.490309 0.508351 0.707938
vn -0.009087 0.015740 0.999835
vn 0.490309 0.508351 0.707938
vn 0.605173 0.364128 0.707938
vn 0.605173 0.364128 0.707938
vn 0.490309 0.508351 0.707938
vn 0.707107 0.707107 -0.000000
vn 0.605173 0.364128 0.707938
vn 0.707107 0.707107 -0.000000
vn 0.866025 0.500000 -0.000000
vn 0.866025 0.500000 -0.000000
vn 0.707107 0.707107 -0.000000
vn 0.508351 0.490309 -0.707938
vn 0.866025 0.500000 -0.000000
vn 0.508351 0.490309 -0.707938
vn 0.617931 0.342031 -0.707938
vn 0.617931 0.342031 -0.707938
vn 0.508351 0.490309 -0.707938
vn 0.012851 -0.012851 -0.999835
vn 0.617931 0.342031 -0.707938
vn 0.012851 -0.012851 -0.999835
vn 0.009087 -0.015740 -0.999835
vn 0.009087 -0.015740 -0.999835
vn 0.012851 -0.012851 -0.999835
vn -0.490309 -0.508351 -0.707938
vn 0.009087 -0.015740 -0.999835
vn -0.490309 -0.508351 -0.707938
vn -0.605173 -0.364128 -0.707938
vn -0.605173 -0.364128 -0.707938
vn -0.490309 -0.508351 -0.707938
vn -0.707107 -0.707107 -0.000000
vn -0.605173 -0.364128 -0.707938
vn -0.707107 -0.707107 -0.000000
vn -0.866025 -0.500000 0.000000
vn -0.707107 -0.707107 -0.000000
vn -0.500000 -0.866025 -0.000000
vn -0.364128 -0.605173 0.707938
vn -0.707107 -0.707107 -0.000000
vn -0.364128 -0.605173 0.707938
vn -0.508351 -0.490309 0.707938
vn -0.508351 -0.490309 0.707938
vn -0.364128 -0.605173 0.707938
vn -0.015740 0.009087 0.999835
vn -0.508351 -0.490309 0.707938
vn -0.015740 0.009087 0.999835
vn -0.012851 0.012851 0.999835
vn -0.012851 0.012851 0.999835
vn -0.015740 0.009087 0.999835
vn 0.342031 0.617931 0.707938
vn -0.012851 0.012851 0.999835
vn 0.342031 0.617931 0.707938
vn 0.490309 0.508351 0.707938
vn 0.490309 0.508351 0.707938
vn 0.342031 0.617931 0.707938
vn 0.500000 0.866025 0.000000
vn 0.490309 0.508351 0.707938
vn 0.500000 0.866025 0.000000
vn 0.707107 0.707107 -0.000000
vn 0.707107 0.707107 -0.000000
vn 0.500000 0.866025 0.000000
vn 0.364128 0.605173 -0.707938
vn 0.707107 0.707107 -0.000000
vn 0.364128 0.605173 -0.707938
vn 0.508351 0.490309 -0.707938
vn 0.508351 0.490309 -0.707938
vn 0.364128 0.605173 -0.707938
vn 0.015740 -0.009087 -0.999835
vn 0.508351 0.490309 -0.707938
vn 0.015740 -0.009087 -0.999835
vn 0.012851 -0.012851 -0.999835
vn 0.012851 -0.012851 -0.999835
vn 0.015740 -0.009087 -0.999835
vn -0.342031 -0.617931 -0.707938
vn 0.012851 -0.012851 -0.999835
vn -0.342031 -0.617931 -0.707938
vn -0.490309 -0.508351 -0.707938
vn -0.490309 -0.508351 -0.707938
vn -0.342031 -0.617931 -0.707938
vn -0.500000 -0.866025 -0.000000
vn -0.490309 -0.508351 -0.707938
vn -0.500000 -0.866025 -0.000000
vn -0.707107 -0.707107 -0.000000
vn -0.500000 -0.866025 -0.000000
vn -0.258819 -0.965926 0.000000
vn -0.195091 -0.678795 0.707938
vn -0.500000 -0.866025 -0.000000
vn -0.195091 -0.678795 0.707938
vn -0.364128 -0.605173 0.707938
vn -0.364128 -0.605173 0.707938
vn -0.195091 -0.678795 0.707938
vn -0.017555 0.004704 0.999835
vn -0.364128 -0.605173 0.707938
vn -0.017555 0.004704 0.999835
vn -0.015740 0.009087 0.999835
vn -0.015740 0.009087 0.999835
vn -0.017555 0.004704 0.999835
vn 0.170444 0.685399 0.707938
vn -0.015740 0.009087 0.999835
vn 0.170444 0.685399 0.707938
vn 0.342031 0.617931 0.707938
vn 0.342031 0.617931 0.707938
vn 0.170444 0.685399 0.707938
vn 0.258819 0.965926 0.000000
vn 0.342031 0.617931 0.707938
vn 0.258819 0.965926 0.000000
vn 0.500000 0.866025 0.000000
vn 0.500000 0.866025 0.000000
vn 0.258819 0.965926 0.000000
vn 0.195091 0.678795 -0.707938
vn 0.500000 0.866025 0.000000
vn 0.195091 0.678795 -0.707938
vn 0.364128 0.605173 -0.707938
vn 0.364128 0.605173 -0.707938
vn 0.195091 0.678795 -0.707938
vn 0.017555 -0.004704 -0.999835
vn 0.364128 0.605173 -0.707938
vn 0.017555 -0.004704 -0.999835
vn 0.015740 -0.009087 -0.999835
vn 0.015740 -0.009087 -0.999835
vn 0.017555 -0.004704 -0.999835
vn -0.170444 -0.685399 -0.707938
vn 0.015740 -0.009087 -0.999835
vn -0.170444 -0.685399 -0.707938
vn -0.342031 -0.617931 -0.707938
vn -0.342031 -0.617931 -0.707938
vn -0.170444 -0.685399 -0.707938
vn -0.258819 -0.965926 0.000000
vn -0.342031 -0.617931 -0.707938
vn -0.258819 -0.965926 0.000000
vn -0.500000 -0.866025 -0.000000
vn -0.258819 -0.965926 0.000000
vn -0.000000 -1.000000 0.000000
vn -0.012758 -0.706159 0.707938
vn -0.258819 -0.965926 0.000000
vn -0.012758 -0.706159 0.707938
vn -0.195091 -0.678795 0.707938
vn -0.195091 -0.678795 0.707938
vn -0.012758 -0.706159 0.707938
vn -0.018174 -0.000000 0.999835
vn -0.195091 -0.678795 0.707938
vn -0.018174 -0.000000 0.999835
vn -0.017555 0.004704 0.999835
vn -0.017555 0.004704 0.999835
vn -0.018174 -0.000000 0.999835
vn -0.012758 0.706159 0.707938
vn -0.017555 0.004704 0.999835
vn -0.012758 0.706159 0.707938
vn 0.170444 0.685399 0.707938
vn 0.170444 0.685399 0.707938
vn -0.012758 0.706159 0.707938
vn 0.000000 1.000000 0.000000
vn 0.170444 0.685399 0.707938
vn 0.000000 1.000000 0.000000
vn 0.258819 0.965926 0.000000
vn 0.258819 0.965926 0.000000
vn 0.000000 1.000000 0.000000
vn 0.012758 0.706159 -0.707938
vn 0.258819 0.965926 0.000000
vn 0.012758 0.706159 -0.707938
vn 0.195091 0.678795 -0.707938
vn 0.195091 0.678795 -0.707938
vn 0.012758 0.706159 -0.707938
vn 0.018174 -0.000000 -0.999835
vn 0.195091 0.678795 -0.707938
vn 0.018174 -0.000000 -0.999835
vn 0.017555 -0.004704 -0.999835
vn 0.017555 -0.004704 -0.999835
vn 0.018174 -0.000000 -0.999835
vn 0.012758 -0.706159 -0.707938
vn 0.017555 -0.004704 -0.999835
vn 0.012758 -0.706159 -0.707938
vn -0.170444 -0.685399 -0.707938
vn -0.170444 -0.685399 -0.707938
vn 0.012758 -0.706159 -0.707938
vn -0.000000 -1.000000 0.000000
vn -0.170444 -0.685399 -0.707938
vn -0.000000 -1.000000 0.000000
vn -0.258819 -0.965926 0.000000
vn -0.000000 -1.000000 0.000000
vn 0.258819 -0.965926 -0.000000
vn 0.170444 -0.685399 0.707938
vn -0.000000 -1.000000 0.000000
vn 0.170444 -0.685399 0.707938
vn -0.012758 -0.706159 0.707938
vn -0.012758 -0.706159 0.707938
vn 0.170444 -0.685399 0.707938
vn -0.017555 -0.004704 0.999835
vn -0.012758 -0.706159 0.707938
vn -0.017555 -0.004704 0.999835
vn -0.018174 -0.000000 0.999835
vn -0.018174 -0.000000 0.999835
vn -0.017555 -0.004704 0.999835
vn -0.195091 0.678795 0.707938
vn -0.018174 -0.000000 0.999835
vn -0.195091 0.678795 0.707938
vn -0.012758 0.706159 0.707938
vn -0.012758 0.706159 0.707938
vn -0.195091 0.678795 0.707938
vn -0.258819 0.965926 -0.000000
vn -0.012758 0.706159 0.707938
vn -0.258819 0.965926 -0.000000
vn 0.000000 1.000000 0.000000
vn 0.000000 1.000000 0.000000
vn -0.258819 0.965926 -0.000000
vn -0.170444 0.685399 -0.707938
vn 0.000000 1.000000 0.000000
vn -0.170444 0.685399 -0.707938
vn 0.012758 0.706159 -0.707938
vn 0.012758 0.706159 -0.707938
vn -0.170444 0.685399 -0.707938
vn 0.017555 0.004704 -0.999835
vn 0.012758 0.706159 -0.707938
vn 0.017555 0.004704 -0.999835
vn 0.018174 -0.000000 -0.999835
vn 0.018174 -0.000000 -0.999835
vn 0.017555 0.004704 -0.999835
vn 0.195091 -0.678795 -0.707938
vn 0.018174 -0.000000 -0.999835
vn 0.195091 -0.678795 -0.707938
vn 0.012758 -0.706159 -0.707938
vn 0.012758 -0.706159 -0.707938
vn 0.195091 -0.678795 -0.707938
vn 0.258819 -0.965926 -0.000000
vn 0.012758 -0.706159 -0.707938
vn 0.258819 -0.965926 -0.000000
vn -0.000000 -1.000000 0.000000
vn 0.258819 -0.965926 -0.000000
vn 0.500000 -0.866025 -0.000000
vn 0.342031 -0.617931 0.707938
vn 0.258819 -0.965926 -0.000000
vn 0.342031 -0.617931 0.707938
vn 0.170444 -0.685399 0.707938
vn 0.170444 -0.685399 0.707938
vn 0.342031 -0.617931 0.707938
vn -0.015740 -0.009087 0.999835
vn 0.170444 -0.685399 0.707938
vn -0.015740 -0.009087 0.999835
vn -0.017555 -0.004704 0.999835
vn -0.017555 -0.004704 0.999835
vn -0.015740 -0.009087 0.999835
vn -0.364128 0.605173 0.707938
vn -0.017555 -0.004704 0.999835
vn -0.364128 0.605173 0.707938
vn -0.195091 0.678795 0.707938
vn -0.195091 0.678795 0.707938
vn -0.364128 0.605173 0.707938
vn -0.500000 0.866025 -0.000000
vn -0.195091 0.678795 0.707938
vn -0.500000 0.866025 -0.000000
vn -0.258819 0.965926 -0.000000
vn -0.258819 0.965926 -0.000000
vn -0.500000 0.866025 -0.000000
vn -0.342031 0.617931 -0.707938
vn -0.258819 0.965926 -0.000000
vn -0.342031 0.617931 -0.707938
vn -0.170444 0.685399 -0.707938
vn -0.170444 0.685399 -0.707938
vn -0.342031 0.617931 -0.707938
vn 0.015740 0.009087 -0.999835
vn -0.170444 0.685399 -0.707938
vn 0.015740 0.009087 -0.999835
vn 0.017555 0.004704 -0.999835
vn 0.017555 0.004704 -0.999835
vn 0.015740 0.009087 -0.999835
vn 0.364128 -0.605173 -0.707938
vn 0.017555 0.004704 -0.999835
vn 0.364128 -0.605173 -0.707938
vn 0.195091 -0.678795 -0.707938
vn 0.195091 -0.678795 -0.707938
vn 0.364128 -0.605173 -0.707938
vn 0.500000 -0.866025 -0.000000
vn 0.195091 -0.678795 -0.707938
vn 0.500000 -0.866025 -0.000000
vn 0.258819 -0.965926 -0.000000
vn 0.500000 -0.866025 -0.000000
vn 0.707107 -0.707107 0.000000
vn 0.490309 -0.508351 0.707938
vn 0.500000 -0.866025 -0.000000
vn 0.490309 -0.508351 0.707938
vn 0.342031 -0.617931 0.707938
vn 0.342031 -0.617931 0.707938
vn 0.490309 -0.508351 0.707938
vn -0.012851 -0.012851 0.999835
vn 0.342031 -0.617931 0.707938
vn -0.012851 -0.012851 0.999835
vn -0.015740 -0.009087 0.999835
vn -0.015740 -0.009087 0.999835
vn -0.012851 -0.012851 0.999835
vn -0.508351 0.490309 0.707938
vn -0.015740 -0.009087 0.999835
vn -0.508351 0.490309 0.707938
vn -0.364128 0.605173 0.707938
vn -0.364128 0.605173 0.707938
vn -0.508351 0.490309 0.707938
vn -0.707107 0.707107 0.000000
vn -0.364128 0.605173 0.707938
vn -0.707107 0.707107 0.000000
vn -0.500000 0.866025 -0.000000
vn -0.500000 0.866025 -0.000000
vn -0.707107 0.707107 0.000000
vn -0.490309 0.508351 -0.707938
vn -0.500000 0.866025 -0.000000
vn -0.490309 0.508351 -0.707938
vn -0.342031 0.617931 -0.707938
vn -0.342031 0.617931 -0.707938
vn -0.490309 0.508351 -0.707938
vn 0.012851 0.012851 -0.999835
vn -0.342031 0.617931 -0.707938
vn 0.012851 0.012851 -0.999835
vn 0.015740 0.009087 -0.999835
vn 0.015740 0.009087 -0.999835
vn 0.012851 0.012851 -0.999835
vn 0.508351 -0.490309 -0.707938
vn 0.015740 0.009087 -0.999835
vn 0.508351 -0.490309 -0.707938
vn 0.364128 -0.605173 -0.707938
vn 0.364128 -0.605173 -0.707938
vn 0.508351 -0.490309 -0.707938
vn 0.707107 -0.707107 0.000000
vn 0.364128 -0.605173 -0.707938
vn 0.707107 -0.707107 0.000000
vn 0.500000 -0.866025 -0.000000
vn 0.707107 -0.707107 0.000000
vn 0.866025 -0.500000 0.000000
vn 0.605173 -0.364128 0.707938
vn 0.707107 -0.707107 0.000000
vn 0.605173 -0.364128 0.707938
vn 0.490309 -0.508351 0.707938
vn 0.490309 -0.508351 0.707938
vn 0.605173 -0.364128 0.707938
vn -0.009087 -0.015740 0.999835
vn 0.490309 -0.508351 0.707938
vn -0.009087 -0.015740 0.999835
vn -0.012851 -0.012851 0.999835
vn -0.012851 -0.012851 0.999835
vn -0.009087 -0.015740 0.999835
vn -0.617931 0.342031 0.707938
vn -0.012851 -0.012851 0.999835
vn -0.617931 0.342031 0.707938
vn -0.508351 0.490309 0.707938
vn -0.508351 0.490309 0.707938
vn -0.617931 0.342031 0.707938
vn -0.866025 0.500000 -0.000000
vn -0.508351 0.490309 0.707938
vn -0.866025 0.500000 -0.000000
vn -0.707107 0.707107 0.000000
vn -0.707107 0.707107 0.000000
vn -0.866025 0.500000 -0.000000
vn -0.605173 0.364128 -0.707938
vn -0.707107 0.707107 0.000000
vn -0.605173 0.364128 -0.707938
vn -0.490309 0.508351 -0.707938
vn -0.490309 0.508351 -0.707938
vn -0.605173 0.364128 -0.707938
vn 0.009087 0.015740 -0.999835
vn -0.490309 0.508351 -0.707938
vn 0.009087 0.015740 -0.999835
vn 0.012851 0.012851 -0.999835
vn 0.012851 0.012851 -0.999835
vn 0.009087 0.015740 -0.999835
vn 0.617931 -0.342031 -0.707938
vn 0.012851 0.012851 -0.999835
vn 0.617931 -0.342031 -0.707938
vn 0.508351 -0.490309 -0.707938
vn 0.508351 -0.490309 -0.707938
vn 0.617931 -0.342031 -0.707938
vn 0.866025 -0.500000 0.000000
vn 0.508351 -0.490309 -0.707938
vn 0.866025 -0.500000 0.000000
vn 0.707107 -0.707107 0.000000
vn 0.866025 -0.500000 0.000000
vn 0.965926 -0.258819 0.000000
vn 0.678795 -0.195091 0.707938
vn 0.866025 -0.500000 0.000000
vn 0.678795 -0.195091 0.707938
vn 0.605173 -0.364128 0.707938
vn 0.605173 -0.364128 0.707938
vn 0.678795 -0.195091 0.707938
vn -0.004704 -0.017555 0.999835
vn 0.605173 -0.364128 0.707938
vn -0.004704 -0.017555 0.999835
vn -0.009087 -0.015740 0.999835
vn -0.009087 -0.015740 0.999835
vn -0.004704 -0.017555 0.999835
vn -0.685399 0.170444 0.707938
vn -0.009087 -0.015740 0.999835
vn -0.685399 0.170444 0.707938
vn -0.617931 0.342031 0.707938
vn -0.617931 0.342031 0.707938
vn -0.685399 0.170444 0.707938
vn -0.965926 0.258819 -0.000000
vn -0.617931 0.342031 0.707938
vn -0.965926 0.258819 -0.000000
vn -0.866025 0.500000 -0.000000
vn -0.866025 0.500000 -0.000000
vn -0.965926 0.258819 -0.000000
vn -0.678795 0.195091 -0.707938
vn -0.866025 0.500000 -0.000000
vn -0.678795 0.195091 -0.707938
vn -0.605173 0.364128 -0.707938
vn -0.605173 0.364128 -0.707938
vn -0.678795 0.195091 -0.707938
vn 0.004704 0.017555 -0.999835
vn -0.605173 0.364128 -0.707938
vn 0.004704 0.017555 -0.999835
vn 0.009087 0.015740 -0.999835
vn 0.009087 0.015740 -0.999835
vn 0.004704 0.017555 -0.999835
vn 0.685399 -0.170444 -0.707938
vn 0.009087 0.015740 -0.999835
vn 0.685399 -0.170444 -0.707938
vn 0.617931 -0.342031 -0.707938
vn 0.617931 -0.342031 -0.707938
vn 0.685399 -0.170444 -0.707938
vn 0.965926 -0.258819 0.000000
vn 0.617931 -0.342031 -0.707938
vn 0.965926 -0.258819 0.000000
vn 0.866025 -0.500000 0.000000
vn 0.965926 -0.258819 0.000000
vn 1.000000 0.000000 0.000000
vn 0.706159 -0.012758 0.707938
vn 0.965926 -0.258819 0.000000
vn 0.706159 -0.012758 0.707938
vn 0.678795 -0.195091 0.707938
vn 0.678795 -0.195091 0.707938
vn 0.706159 -0.012758 0.707938
vn -0.000000 -0.018174 0.999835
vn 0.678795 -0.195091 0.707938
vn -0.000000 -0.018174 0.999835
vn -0.004704 -0.017555 0.999835
vn -0.004704 -0.017555 0.999835
vn -0.000000 -0.018174 0.999835
vn -0.706159 -0.012758 0.707938
vn -0.004704 -0.017555 0.999835
vn -0.706159 -0.012758 0.707938
vn -0.685399 0.170444 0.707938
vn -0.685399 0.170444 0.707938
vn -0.706159 -0.012758 0.707938
vn -1.000000 0.000000 0.000000
vn -0.685399 0.170444 0.707938
vn -1.000000 0.000000 0.000000
vn -0.965926 0.258819 -0.000000
vn -0.965926 0.258819 -0.000000
vn -1.000000 0.000000 0.000000
vn -0.706159 0.012758 -0.707938
vn -0.965926 0.258819 -0.000000
vn -0.706159 0.012758 -0.707938
vn -0.678795 0.195091 -0.707938
vn -0.678795 0.195091 -0.707938
vn -0.706159 0.012758 -0.707938
vn 0.000000 0.018174 -0.999835
vn -0.678795 0.195091 -0.707938
vn 0.000000 0.018174 -0.999835
vn 0.004704 0.017555 -0.999835
vn 0.004704 0.017555 -0.999835
vn 0.000000 0.018174 -0.999835
vn 0.706159 0.012758 -0.707938
vn 0.004704 0.017555 -0.999835
vn 0.706159 0.012758 -0.707938
vn 0.685399 -0.170444 -0.707938
vn 0.685399 -0.170444 -0.707938
vn 0.706159 0.012758 -0.707938
vn 1.000000 0.000000 0.000000
vn 0.685399 -0.170444 -0.707938
vn 1.000000 0.000000 0.000000
vn 0.965926 -0.258819 0.000000
usemtl M_Hull
f 4/1/1 3/2/2 2/3/3
f 4/1/4 2/2/5 1/3/6
f 5/1/7 6/2/8 7/3/9
f 5/1/10 7/2/11 8/3/12
f 1/1/13 2/2/14 6/3/15
f 1/1/16 6/2/17 5/3/18
f 2/1/19 3/2/20 7/3/21
f 2/1/22 7/2/23 6/3/24
f 3/1/25 4/2/26 8/3/27
f 3/1/28 8/2/29 7/3/30
f 4/1/31 1/2/32 5/3/33
f 4/1/34 5/2/35 8/3/36
usemtl M_Gold
f 12/1/37 11/2/38 10/3/39
f 12/1/40 10/2/41 9/3/42
f 13/1/43 14/2/44 15/3/45
f 13/1/46 15/2/47 16/3/48
f 9/1/49 10/2/50 14/3/51
f 9/1/52 14/2/53 13/3/54
f 10/1/55 11/2/56 15/3/57
f 10/1/58 15/2/59 14/3/60
f 11/1/61 12/2/62 16/3/63
f 11/1/64 16/2/65 15/3/66
f 12/1/67 9/2/68 13/3/69
f 12/1/70 13/2/71 16/3/72
usemtl M_Cyan
f 20/1/73 19/2/74 18/3/75
f 20/1/76 18/2/77 17/3/78
f 21/1/79 22/2/80 23/3/81
f 21/1/82 23/2/83 24/3/84
f 17/1/85 18/2/86 22/3/87
f 17/1/88 22/2/89 21/3/90
f 18/1/91 19/2/92 23/3/93
f 18/1/94 23/2/95 22/3/96
f 19/1/97 20/2/98 24/3/99
f 19/1/100 24/2/101 23/3/102
f 20/1/103 17/2/104 21/3/105
f 20/1/106 21/2/107 24/3/108
usemtl M_Gold
f 28/1/109 27/2/110 26/3/111
f 28/1/112 26/2/113 25/3/114
f 29/1/115 30/2/116 31/3/117
f 29/1/118 31/2/119 32/3/120
f 25/1/121 26/2/122 30/3/123
f 25/1/124 30/2/125 29/3/126
f 26/1/127 27/2/128 31/3/129
f 26/1/130 31/2/131 30/3/132
f 27/1/133 28/2/134 32/3/135
f 27/1/136 32/2/137 31/3/138
f 28/1/139 25/2/140 29/3/141
f 28/1/142 29/2/143 32/3/144
usemtl M_Cyan
f 36/1/145 35/2/146 34/3/147
f 36/1/148 34/2/149 33/3/150
f 37/1/151 38/2/152 39/3/153
f 37/1/154 39/2/155 40/3/156
f 33/1/157 34/2/158 38/3/159
f 33/1/160 38/2/161 37/3/162
f 34/1/163 35/2/164 39/3/165
f 34/1/166 39/2/167 38/3/168
f 35/1/169 36/2/170 40/3/171
f 35/1/172 40/2/173 39/3/174
f 36/1/175 33/2/176 37/3/177
f 36/1/178 37/2/179 40/3/180
f 41/1/181 49/2/182 50/3/183
f 41/1/184 50/2/185 42/3/186
f 42/1/187 50/2/188 51/3/189
f 42/1/190 51/2/191 43/3/192
f 43/1/193 51/2/194 52/3/195
f 43/1/196 52/2/197 44/3/198
f 44/1/199 52/2/200 53/3/201
f 44/1/202 53/2/203 45/3/204
f 45/1/205 53/2/206 54/3/207
f 45/1/208 54/2/209 46/3/210
f 46/1/211 54/2/212 55/3/213
f 46/1/214 55/2/215 47/3/216
f 47/1/217 55/2/218 56/3/219
f 47/1/220 56/2/221 48/3/222
f 48/1/223 56/2/224 49/3/225
f 48/1/226 49/2/227 41/3/228
f 49/1/229 57/2/230 58/3/231
f 49/1/232 58/2/233 50/3/234
f 50/1/235 58/2/236 59/3/237
f 50/1/238 59/2/239 51/3/240
f 51/1/241 59/2/242 60/3/243
f 51/1/244 60/2/245 52/3/246
f 52/1/247 60/2/248 61/3/249
f 52/1/250 61/2/251 53/3/252
f 53/1/253 61/2/254 62/3/255
f 53/1/256 62/2/257 54/3/258
f 54/1/259 62/2/260 63/3/261
f 54/1/262 63/2/263 55/3/264
f 55/1/265 63/2/266 64/3/267
f 55/1/268 64/2/269 56/3/270
f 56/1/271 64/2/272 57/3/273
f 56/1/274 57/2/275 49/3/276
f 57/1/277 65/2/278 66/3/279
f 57/1/280 66/2/281 58/3/282
f 58/1/283 66/2/284 67/3/285
f 58/1/286 67/2/287 59/3/288
f 59/1/289 67/2/290 68/3/291
f 59/1/292 68/2/293 60/3/294
f 60/1/295 68/2/296 69/3/297
f 60/1/298 69/2/299 61/3/300
f 61/1/301 69/2/302 70/3/303
f 61/1/304 70/2/305 62/3/306
f 62/1/307 70/2/308 71/3/309
f 62/1/310 71/2/311 63/3/312
f 63/1/313 71/2/314 72/3/315
f 63/1/316 72/2/317 64/3/318
f 64/1/319 72/2/320 65/3/321
f 64/1/322 65/2/323 57/3/324
f 65/1/325 73/2/326 74/3/327
f 65/1/328 74/2/329 66/3/330
f 66/1/331 74/2/332 75/3/333
f 66/1/334 75/2/335 67/3/336
f 67/1/337 75/2/338 76/3/339
f 67/1/340 76/2/341 68/3/342
f 68/1/343 76/2/344 77/3/345
f 68/1/346 77/2/347 69/3/348
f 69/1/349 77/2/350 78/3/351
f 69/1/352 78/2/353 70/3/354
f 70/1/355 78/2/356 79/3/357
f 70/1/358 79/2/359 71/3/360
f 71/1/361 79/2/362 80/3/363
f 71/1/364 80/2/365 72/3/366
f 72/1/367 80/2/368 73/3/369
f 72/1/370 73/2/371 65/3/372
f 73/1/373 81/2/374 82/3/375
f 73/1/376 82/2/377 74/3/378
f 74/1/379 82/2/380 83/3/381
f 74/1/382 83/2/383 75/3/384
f 75/1/385 83/2/386 84/3/387
f 75/1/388 84/2/389 76/3/390
f 76/1/391 84/2/392 85/3/393
f 76/1/394 85/2/395 77/3/396
f 77/1/397 85/2/398 86/3/399
f 77/1/400 86/2/401 78/3/402
f 78/1/403 86/2/404 87/3/405
f 78/1/406 87/2/407 79/3/408
f 79/1/409 87/2/410 88/3/411
f 79/1/412 88/2/413 80/3/414
f 80/1/415 88/2/416 81/3/417
f 80/1/418 81/2/419 73/3/420
f 81/1/421 89/2/422 90/3/423
f 81/1/424 90/2/425 82/3/426
f 82/1/427 90/2/428 91/3/429
f 82/1/430 91/2/431 83/3/432
f 83/1/433 91/2/434 92/3/435
f 83/1/436 92/2/437 84/3/438
f 84/1/439 92/2/440 93/3/441
f 84/1/442 93/2/443 85/3/444
f 85/1/445 93/2/446 94/3/447
f 85/1/448 94/2/449 86/3/450
f 86/1/451 94/2/452 95/3/453
f 86/1/454 95/2/455 87/3/456
f 87/1/457 95/2/458 96/3/459
f 87/1/460 96/2/461 88/3/462
f 88/1/463 96/2/464 89/3/465
f 88/1/466 89/2/467 81/3/468
f 89/1/469 97/2/470 98/3/471
f 89/1/472 98/2/473 90/3/474
f 90/1/475 98/2/476 99/3/477
f 90/1/478 99/2/479 91/3/480
f 91/1/481 99/2/482 100/3/483
f 91/1/484 100/2/485 92/3/486
f 92/1/487 100/2/488 101/3/489
f 92/1/490 101/2/491 93/3/492
f 93/1/493 101/2/494 102/3/495
f 93/1/496 102/2/497 94/3/498
f 94/1/499 102/2/500 103/3/501
f 94/1/502 103/2/503 95/3/504
f 95/1/505 103/2/506 104/3/507
f 95/1/508 104/2/509 96/3/510
f 96/1/511 104/2/512 97/3/513
f 96/1/514 97/2/515 89/3/516
f 97/1/517 105/2/518 106/3/519
f 97/1/520 106/2/521 98/3/522
f 98/1/523 106/2/524 107/3/525
f 98/1/526 107/2/527 99/3/528
f 99/1/529 107/2/530 108/3/531
f 99/1/532 108/2/533 100/3/534
f 100/1/535 108/2/536 109/3/537
f 100/1/538 109/2/539 101/3/540
f 101/1/541 109/2/542 110/3/543
f 101/1/544 110/2/545 102/3/546
f 102/1/547 110/2/548 111/3/549
f 102/1/550 111/2/551 103/3/552
f 103/1/553 111/2/554 112/3/555
f 103/1/556 112/2/557 104/3/558
f 104/1/559 112/2/560 105/3/561
f 104/1/562 105/2/563 97/3/564
f 105/1/565 113/2/566 114/3/567
f 105/1/568 114/2/569 106/3/570
f 106/1/571 114/2/572 115/3/573
f 106/1/574 115/2/575 107/3/576
f 107/1/577 115/2/578 116/3/579
f 107/1/580 116/2/581 108/3/582
f 108/1/583 116/2/584 117/3/585
f 108/1/586 117/2/587 109/3/588
f 109/1/589 117/2/590 118/3/591
f 109/1/592 118/2/593 110/3/594
f 110/1/595 118/2/596 119/3/597
f 110/1/598 119/2/599 111/3/600
f 111/1/601 119/2/602 120/3/603
f 111/1/604 120/2/605 112/3/606
f 112/1/607 120/2/608 113/3/609
f 112/1/610 113/2/611 105/3/612
f 113/1/613 121/2/614 122/3/615
f 113/1/616 122/2/617 114/3/618
f 114/1/619 122/2/620 123/3/621
f 114/1/622 123/2/623 115/3/624
f 115/1/625 123/2/626 124/3/627
f 115/1/628 124/2/629 116/3/630
f 116/1/631 124/2/632 125/3/633
f 116/1/634 125/2/635 117/3/636
f 117/1/637 125/2/638 126/3/639
f 117/1/640 126/2/641 118/3/642
f 118/1/643 126/2/644 127/3/645
f 118/1/646 127/2/647 119/3/648
f 119/1/649 127/2/650 128/3/651
f 119/1/652 128/2/653 120/3/654
f 120/1/655 128/2/656 121/3/657
f 120/1/658 121/2/659 113/3/660
f 121/1/661 129/2/662 130/3/663
f 121/1/664 130/2/665 122/3/666
f 122/1/667 130/2/668 131/3/669
f 122/1/670 131/2/671 123/3/672
f 123/1/673 131/2/674 132/3/675
f 123/1/676 132/2/677 124/3/678
f 124/1/679 132/2/680 133/3/681
f 124/1/682 133/2/683 125/3/684
f 125/1/685 133/2/686 134/3/687
f 125/1/688 134/2/689 126/3/690
f 126/1/691 134/2/692 135/3/693
f 126/1/694 135/2/695 127/3/696
f 127/1/697 135/2/698 136/3/699
f 127/1/700 136/2/701 128/3/702
f 128/1/703 136/2/704 129/3/705
f 128/1/706 129/2/707 121/3/708
f 129/1/709 137/2/710 138/3/711
f 129/1/712 138/2/713 130/3/714
f 130/1/715 138/2/716 139/3/717
f 130/1/718 139/2/719 131/3/720
f 131/1/721 139/2/722 140/3/723
f 131/1/724 140/2/725 132/3/726
f 132/1/727 140/2/728 141/3/729
f 132/1/730 141/2/731 133/3/732
f 133/1/733 141/2/734 142/3/735
f 133/1/736 142/2/737 134/3/738
f 134/1/739 142/2/740 143/3/741
f 134/1/742 143/2/743 135/3/744
f 135/1/745 143/2/746 144/3/747
f 135/1/748 144/2/749 136/3/750
f 136/1/751 144/2/752 137/3/753
f 136/1/754 137/2/755 129/3/756
f 137/1/757 145/2/758 146/3/759
f 137/1/760 146/2/761 138/3/762
f 138/1/763 146/2/764 147/3/765
f 138/1/766 147/2/767 139/3/768
f 139/1/769 147/2/770 148/3/771
f 139/1/772 148/2/773 140/3/774
f 140/1/775 148/2/776 149/3/777
f 140/1/778 149/2/779 141/3/780
f 141/1/781 149/2/782 150/3/783
f 141/1/784 150/2/785 142/3/786
f 142/1/787 150/2/788 151/3/789
f 142/1/790 151/2/791 143/3/792
f 143/1/793 151/2/794 152/3/795
f 143/1/796 152/2/797 144/3/798
f 144/1/799 152/2/800 145/3/801
f 144/1/802 145/2/803 137/3/804
f 145/1/805 153/2/806 154/3/807
f 145/1/808 154/2/809 146/3/810
f 146/1/811 154/2/812 155/3/813
f 146/1/814 155/2/815 147/3/816
f 147/1/817 155/2/818 156/3/819
f 147/1/820 156/2/821 148/3/822
f 148/1/823 156/2/824 157/3/825
f 148/1/826 157/2/827 149/3/828
f 149/1/829 157/2/830 158/3/831
f 149/1/832 158/2/833 150/3/834
f 150/1/835 158/2/836 159/3/837
f 150/1/838 159/2/839 151/3/840
f 151/1/841 159/2/842 160/3/843
f 151/1/844 160/2/845 152/3/846
f 152/1/847 160/2/848 153/3/849
f 152/1/850 153/2/851 145/3/852
f 153/1/853 161/2/854 162/3/855
f 153/1/856 162/2/857 154/3/858
f 154/1/859 162/2/860 163/3/861
f 154/1/862 163/2/863 155/3/864
f 155/1/865 163/2/866 164/3/867
f 155/1/868 164/2/869 156/3/870
f 156/1/871 164/2/872 165/3/873
f 156/1/874 165/2/875 157/3/876
f 157/1/877 165/2/878 166/3/879
f 157/1/880 166/2/881 158/3/882
f 158/1/883 166/2/884 167/3/885
f 158/1/886 167/2/887 159/3/888
f 159/1/889 167/2/890 168/3/891
f 159/1/892 168/2/893 160/3/894
f 160/1/895 168/2/896 161/3/897
f 160/1/898 161/2/899 153/3/900
f 161/1/901 169/2/902 170/3/903
f 161/1/904 170/2/905 162/3/906
f 162/1/907 170/2/908 171/3/909
f 162/1/910 171/2/911 163/3/912
f 163/1/913 171/2/914 172/3/915
f 163/1/916 172/2/917 164/3/918
f 164/1/919 172/2/920 173/3/921
f 164/1/922 173/2/923 165/3/924
f 165/1/925 173/2/926 174/3/927
f 165/1/928 174/2/929 166/3/930
f 166/1/931 174/2/932 175/3/933
f 166/1/934 175/2/935 167/3/936
f 167/1/937 175/2/938 176/3/939
f 167/1/940 176/2/941 168/3/942
f 168/1/943 176/2/944 169/3/945
f 168/1/946 169/2/947 161/3/948
f 169/1/949 177/2/950 178/3/951
f 169/1/952 178/2/953 170/3/954
f 170/1/955 178/2/956 179/3/957
f 170/1/958 179/2/959 171/3/960
f 171/1/961 179/2/962 180/3/963
f 171/1/964 180/2/965 172/3/966
f 172/1/967 180/2/968 181/3/969
f 172/1/970 181/2/971 173/3/972
f 173/1/973 181/2/974 182/3/975
f 173/1/976 182/2/977 174/3/978
f 174/1/979 182/2/980 183/3/981
f 174/1/982 183/2/983 175/3/984
f 175/1/985 183/2/986 184/3/987
f 175/1/988 184/2/989 176/3/990
f 176/1/991 184/2/992 177/3/993
f 176/1/994 177/2/995 169/3/996
f 177/1/997 185/2/998 186/3/999
f 177/1/1000 186/2/1001 178/3/1002
f 178/1/1003 186/2/1004 187/3/1005
f 178/1/1006 187/2/1007 179/3/1008
f 179/1/1009 187/2/1010 188/3/1011
f 179/1/1012 188/2/1013 180/3/1014
f 180/1/1015 188/2/1016 189/3/1017
f 180/1/1018 189/2/1019 181/3/1020
f 181/1/1021 189/2/1022 190/3/1023
f 181/1/1024 190/2/1025 182/3/1026
f 182/1/1027 190/2/1028 191/3/1029
f 182/1/1030 191/2/1031 183/3/1032
f 183/1/1033 191/2/1034 192/3/1035
f 183/1/1036 192/2/1037 184/3/1038
f 184/1/1039 192/2/1040 185/3/1041
f 184/1/1042 185/2/1043 177/3/1044
f 185/1/1045 193/2/1046 194/3/1047
f 185/1/1048 194/2/1049 186/3/1050
f 186/1/1051 194/2/1052 195/3/1053
f 186/1/1054 195/2/1055 187/3/1056
f 187/1/1057 195/2/1058 196/3/1059
f 187/1/1060 196/2/1061 188/3/1062
f 188/1/1063 196/2/1064 197/3/1065
f 188/1/1066 197/2/1067 189/3/1068
f 189/1/1069 197/2/1070 198/3/1071
f 189/1/1072 198/2/1073 190/3/1074
f 190/1/1075 198/2/1076 199/3/1077
f 190/1/1078 199/2/1079 191/3/1080
f 191/1/1081 199/2/1082 200/3/1083
f 191/1/1084 200/2/1085 192/3/1086
f 192/1/1087 200/2/1088 193/3/1089
f 192/1/1090 193/2/1091 185/3/1092
f 193/1/1093 201/2/1094 202/3/1095
f 193/1/1096 202/2/1097 194/3/1098
f 194/1/1099 202/2/1100 203/3/1101
f 194/1/1102 203/2/1103 195/3/1104
f 195/1/1105 203/2/1106 204/3/1107
f 195/1/1108 204/2/1109 196/3/1110
f 196/1/1111 204/2/1112 205/3/1113
f 196/1/1114 205/2/1115 197/3/1116
f 197/1/1117 205/2/1118 206/3/1119
f 197/1/1120 206/2/1121 198/3/1122
f 198/1/1123 206/2/1124 207/3/1125
f 198/1/1126 207/2/1127 199/3/1128
f 199/1/1129 207/2/1130 208/3/1131
f 199/1/1132 208/2/1133 200/3/1134
f 200/1/1135 208/2/1136 201/3/1137
f 200/1/1138 201/2/1139 193/3/1140
f 201/1/1141 209/2/1142 210/3/1143
f 201/1/1144 210/2/1145 202/3/1146
f 202/1/1147 210/2/1148 211/3/1149
f 202/1/1150 211/2/1151 203/3/1152
f 203/1/1153 211/2/1154 212/3/1155
f 203/1/1156 212/2/1157 204/3/1158
f 204/1/1159 212/2/1160 213/3/1161
f 204/1/1162 213/2/1163 205/3/1164
f 205/1/1165 213/2/1166 214/3/1167
f 205/1/1168 214/2/1169 206/3/1170
f 206/1/1171 214/2/1172 215/3/1173
f 206/1/1174 215/2/1175 207/3/1176
f 207/1/1177 215/2/1178 216/3/1179
f 207/1/1180 216/2/1181 208/3/1182
f 208/1/1183 216/2/1184 209/3/1185
f 208/1/1186 209/2/1187 201/3/1188
f 209/1/1189 217/2/1190 218/3/1191
f 209/1/1192 218/2/1193 210/3/1194
f 210/1/1195 218/2/1196 219/3/1197
f 210/1/1198 219/2/1199 211/3/1200
f 211/1/1201 219/2/1202 220/3/1203
f 211/1/1204 220/2/1205 212/3/1206
f 212/1/1207 220/2/1208 221/3/1209
f 212/1/1210 221/2/1211 213/3/1212
f 213/1/1213 221/2/1214 222/3/1215
f 213/1/1216 222/2/1217 214/3/1218
f 214/1/1219 222/2/1220 223/3/1221
f 214/1/1222 223/2/1223 215/3/1224
f 215/1/1225 223/2/1226 224/3/1227
f 215/1/1228 224/2/1229 216/3/1230
f 216/1/1231 224/2/1232 217/3/1233
f 216/1/1234 217/2/1235 209/3/1236
f 217/1/1237 225/2/1238 226/3/1239
f 217/1/1240 226/2/1241 218/3/1242
f 218/1/1243 226/2/1244 227/3/1245
f 218/1/1246 227/2/1247 219/3/1248
f 219/1/1249 227/2/1250 228/3/1251
f 219/1/1252 228/2/1253 220/3/1254
f 220/1/1255 228/2/1256 229/3/1257
f 220/1/1258 229/2/1259 221/3/1260
f 221/1/1261 229/2/1262 230/3/1263
f 221/1/1264 230/2/1265 222/3/1266
f 222/1/1267 230/2/1268 231/3/1269
f 222/1/1270 231/2/1271 223/3/1272
f 223/1/1273 231/2/1274 232/3/1275
f 223/1/1276 232/2/1277 224/3/1278
f 224/1/1279 232/2/1280 225/3/1281
f 224/1/1282 225/2/1283 217/3/1284
f 225/1/1285 41/2/1286 42/3/1287
f 225/1/1288 42/2/1289 226/3/1290
f 226/1/1291 42/2/1292 43/3/1293
f 226/1/1294 43/2/1295 227/3/1296
f 227/1/1297 43/2/1298 44/3/1299
f 227/1/1300 44/2/1301 228/3/1302
f 228/1/1303 44/2/1304 45/3/1305
f 228/1/1306 45/2/1307 229/3/1308
f 229/1/1309 45/2/1310 46/3/1311
f 229/1/1312 46/2/1313 230/3/1314
f 230/1/1315 46/2/1316 47/3/1317
f 230/1/1318 47/2/1319 231/3/1320
f 231/1/1321 47/2/1322 48/3/1323
f 231/1/1324 48/2/1325 232/3/1326
f 232/1/1327 48/2/1328 41/3/1329
f 232/1/1330 41/2/1331 225/3/1332
