# Original SpaceSurvival generated source; centimeters; X forward; Z up
mtllib Palette.mtl
o SM_Pursuer
v -80.000000 15.000000 0.000000
v -80.000000 14.488887 2.329371
v -80.000000 12.990381 4.500000
v -80.000000 10.606602 6.363961
v -80.000000 7.500000 7.794229
v -80.000000 3.882286 8.693332
v -80.000000 0.000000 9.000000
v -80.000000 -3.882286 8.693332
v -80.000000 -7.500000 7.794229
v -80.000000 -10.606602 6.363961
v -80.000000 -12.990381 4.500000
v -80.000000 -14.488887 2.329371
v -80.000000 -15.000000 0.000000
v -80.000000 -14.488887 -2.329371
v -80.000000 -12.990381 -4.500000
v -80.000000 -10.606602 -6.363961
v -80.000000 -7.500000 -7.794229
v -80.000000 -3.882286 -8.693332
v -80.000000 0.000000 -9.000000
v -80.000000 3.882286 -8.693332
v -80.000000 7.500000 -7.794229
v -80.000000 10.606602 -6.363961
v -80.000000 12.990381 -4.500000
v -80.000000 14.488887 -2.329371
v -45.000000 28.000000 0.000000
v -45.000000 27.045923 4.348160
v -45.000000 24.248711 8.400000
v -45.000000 19.798990 11.879394
v -45.000000 14.000000 14.549227
v -45.000000 7.246933 16.227554
v -45.000000 0.000000 16.800000
v -45.000000 -7.246933 16.227554
v -45.000000 -14.000000 14.549227
v -45.000000 -19.798990 11.879394
v -45.000000 -24.248711 8.400000
v -45.000000 -27.045923 4.348160
v -45.000000 -28.000000 0.000000
v -45.000000 -27.045923 -4.348160
v -45.000000 -24.248711 -8.400000
v -45.000000 -19.798990 -11.879394
v -45.000000 -14.000000 -14.549227
v -45.000000 -7.246933 -16.227554
v -45.000000 0.000000 -16.800000
v -45.000000 7.246933 -16.227554
v -45.000000 14.000000 -14.549227
v -45.000000 19.798990 -11.879394
v -45.000000 24.248711 -8.400000
v -45.000000 27.045923 -4.348160
v 40.000000 23.000000 0.000000
v 40.000000 22.216294 3.571703
v 40.000000 19.918584 6.900000
v 40.000000 16.263456 9.758074
v 40.000000 11.500000 11.951151
v 40.000000 5.952838 13.329776
v 40.000000 0.000000 13.800000
v 40.000000 -5.952838 13.329776
v 40.000000 -11.500000 11.951151
v 40.000000 -16.263456 9.758074
v 40.000000 -19.918584 6.900000
v 40.000000 -22.216294 3.571703
v 40.000000 -23.000000 0.000000
v 40.000000 -22.216294 -3.571703
v 40.000000 -19.918584 -6.900000
v 40.000000 -16.263456 -9.758074
v 40.000000 -11.500000 -11.951151
v 40.000000 -5.952838 -13.329776
v 40.000000 0.000000 -13.800000
v 40.000000 5.952838 -13.329776
v 40.000000 11.500000 -11.951151
v 40.000000 16.263456 -9.758074
v 40.000000 19.918584 -6.900000
v 40.000000 22.216294 -3.571703
v 110.000000 2.000000 0.000000
v 110.000000 1.931852 0.310583
v 110.000000 1.732051 0.600000
v 110.000000 1.414214 0.848528
v 110.000000 1.000000 1.039230
v 110.000000 0.517638 1.159111
v 110.000000 0.000000 1.200000
v 110.000000 -0.517638 1.159111
v 110.000000 -1.000000 1.039230
v 110.000000 -1.414214 0.848528
v 110.000000 -1.732051 0.600000
v 110.000000 -1.931852 0.310583
v 110.000000 -2.000000 0.000000
v 110.000000 -1.931852 -0.310583
v 110.000000 -1.732051 -0.600000
v 110.000000 -1.414214 -0.848528
v 110.000000 -1.000000 -1.039230
v 110.000000 -0.517638 -1.159111
v 110.000000 0.000000 -1.200000
v 110.000000 0.517638 -1.159111
v 110.000000 1.000000 -1.039230
v 110.000000 1.414214 -0.848528
v 110.000000 1.732051 -0.600000
v 110.000000 1.931852 -0.310583
v -80.000000 0.000000 0.000000
v 110.000000 0.000000 0.000000
v -90.000000 -14.000000 -8.000000
v -35.000000 -70.000000 -8.000000
v 90.000000 -28.000000 -8.000000
v 30.000000 -18.000000 -8.000000
v -90.000000 -14.000000 8.000000
v -35.000000 -70.000000 8.000000
v 90.000000 -28.000000 8.000000
v 30.000000 -18.000000 8.000000
v -58.000000 -38.000000 5.500000
v -6.000000 -38.000000 5.500000
v -6.000000 -32.000000 5.500000
v -58.000000 -32.000000 5.500000
v -58.000000 -38.000000 10.500000
v -6.000000 -38.000000 10.500000
v -6.000000 -32.000000 10.500000
v -58.000000 -32.000000 10.500000
v -100.000000 -11.000000 0.000000
v -100.000000 -11.685084 3.444151
v -100.000000 -13.636039 6.363961
v -100.000000 -16.555849 8.314916
v -100.000000 -20.000000 9.000000
v -100.000000 -23.444151 8.314916
v -100.000000 -26.363961 6.363961
v -100.000000 -28.314916 3.444151
v -100.000000 -29.000000 0.000000
v -100.000000 -28.314916 -3.444151
v -100.000000 -26.363961 -6.363961
v -100.000000 -23.444151 -8.314916
v -100.000000 -20.000000 -9.000000
v -100.000000 -16.555849 -8.314916
v -100.000000 -13.636039 -6.363961
v -100.000000 -11.685084 -3.444151
v -97.000000 -11.000000 0.000000
v -97.000000 -11.685084 3.444151
v -97.000000 -13.636039 6.363961
v -97.000000 -16.555849 8.314916
v -97.000000 -20.000000 9.000000
v -97.000000 -23.444151 8.314916
v -97.000000 -26.363961 6.363961
v -97.000000 -28.314916 3.444151
v -97.000000 -29.000000 0.000000
v -97.000000 -28.314916 -3.444151
v -97.000000 -26.363961 -6.363961
v -97.000000 -23.444151 -8.314916
v -97.000000 -20.000000 -9.000000
v -97.000000 -16.555849 -8.314916
v -97.000000 -13.636039 -6.363961
v -97.000000 -11.685084 -3.444151
v -100.000000 -20.000000 0.000000
v -97.000000 -20.000000 0.000000
v 30.000000 18.000000 -8.000000
v 90.000000 28.000000 -8.000000
v -35.000000 70.000000 -8.000000
v -90.000000 14.000000 -8.000000
v 30.000000 18.000000 8.000000
v 90.000000 28.000000 8.000000
v -35.000000 70.000000 8.000000
v -90.000000 14.000000 8.000000
v -58.000000 32.000000 5.500000
v -6.000000 32.000000 5.500000
v -6.000000 38.000000 5.500000
v -58.000000 38.000000 5.500000
v -58.000000 32.000000 10.500000
v -6.000000 32.000000 10.500000
v -6.000000 38.000000 10.500000
v -58.000000 38.000000 10.500000
v -100.000000 29.000000 0.000000
v -100.000000 28.314916 3.444151
v -100.000000 26.363961 6.363961
v -100.000000 23.444151 8.314916
v -100.000000 20.000000 9.000000
v -100.000000 16.555849 8.314916
v -100.000000 13.636039 6.363961
v -100.000000 11.685084 3.444151
v -100.000000 11.000000 0.000000
v -100.000000 11.685084 -3.444151
v -100.000000 13.636039 -6.363961
v -100.000000 16.555849 -8.314916
v -100.000000 20.000000 -9.000000
v -100.000000 23.444151 -8.314916
v -100.000000 26.363961 -6.363961
v -100.000000 28.314916 -3.444151
v -97.000000 29.000000 0.000000
v -97.000000 28.314916 3.444151
v -97.000000 26.363961 6.363961
v -97.000000 23.444151 8.314916
v -97.000000 20.000000 9.000000
v -97.000000 16.555849 8.314916
v -97.000000 13.636039 6.363961
v -97.000000 11.685084 3.444151
v -97.000000 11.000000 0.000000
v -97.000000 11.685084 -3.444151
v -97.000000 13.636039 -6.363961
v -97.000000 16.555849 -8.314916
v -97.000000 20.000000 -9.000000
v -97.000000 23.444151 -8.314916
v -97.000000 26.363961 -6.363961
v -97.000000 28.314916 -3.444151
v -100.000000 20.000000 0.000000
v -97.000000 20.000000 0.000000
vt 0.05 0.05
vt 0.95 0.05
vt 0.05 0.95
vn -0.738278 0.672700 0.049201
vn -0.727808 0.609395 0.314535
vn -0.144136 0.906579 0.396661
vn -0.738278 0.672700 0.049201
vn -0.144136 0.906579 0.396661
vn -0.148177 0.988958 0.002176
vn -0.727808 0.609395 0.314535
vn -0.709268 0.487416 0.509279
vn -0.129426 0.720602 0.681162
vn -0.727808 0.609395 0.314535
vn -0.129426 0.720602 0.681162
vn -0.144136 0.906579 0.396661
vn -0.709268 0.487416 0.509279
vn -0.692224 0.351219 0.630453
vn -0.113743 0.516444 0.848733
vn -0.709268 0.487416 0.509279
vn -0.113743 0.516444 0.848733
vn -0.129426 0.720602 0.681162
vn -0.692224 0.351219 0.630453
vn -0.680282 0.220754 0.698916
vn -0.101949 0.328913 0.938841
vn -0.692224 0.351219 0.630453
vn -0.101949 0.328913 0.938841
vn -0.113743 0.516444 0.848733
vn -0.680282 0.220754 0.698916
vn -0.673697 0.098449 0.732420
vn -0.094785 0.159415 0.982651
vn -0.680282 0.220754 0.698916
vn -0.094785 0.159415 0.982651
vn -0.101949 0.328913 0.938841
vn -0.673697 0.098449 0.732420
vn -0.672064 -0.019491 0.740236
vn -0.091877 -0.000308 0.995770
vn -0.673697 0.098449 0.732420
vn -0.091877 -0.000308 0.995770
vn -0.094785 0.159415 0.982651
vn -0.672064 -0.019491 0.740236
vn -0.675232 -0.138324 0.724519
vn -0.092951 -0.160105 0.982714
vn -0.672064 -0.019491 0.740236
vn -0.092951 -0.160105 0.982714
vn -0.091877 -0.000308 0.995770
vn -0.675232 -0.138324 0.724519
vn -0.683452 -0.263109 0.680932
vn -0.098114 -0.329863 0.938916
vn -0.675232 -0.138324 0.724519
vn -0.098114 -0.329863 0.938916
vn -0.092951 -0.160105 0.982714
vn -0.683452 -0.263109 0.680932
vn -0.697061 -0.396512 0.597398
vn -0.107754 -0.517921 0.848615
vn -0.683452 -0.263109 0.680932
vn -0.107754 -0.517921 0.848615
vn -0.098114 -0.329863 0.938916
vn -0.697061 -0.396512 0.597398
vn -0.715159 -0.532039 0.453302
vn -0.121881 -0.722821 0.680202
vn -0.697061 -0.396512 0.597398
vn -0.121881 -0.722821 0.680202
vn -0.107754 -0.517921 0.848615
vn -0.715159 -0.532039 0.453302
vn -0.732430 -0.640584 0.230650
vn -0.137992 -0.908804 0.393742
vn -0.715159 -0.532039 0.453302
vn -0.137992 -0.908804 0.393742
vn -0.121881 -0.722821 0.680202
vn -0.732430 -0.640584 0.230650
vn -0.738278 -0.672700 -0.049201
vn -0.148177 -0.988958 -0.002176
vn -0.732430 -0.640584 0.230650
vn -0.148177 -0.988958 -0.002176
vn -0.137992 -0.908804 0.393742
vn -0.738278 -0.672700 -0.049201
vn -0.727808 -0.609395 -0.314535
vn -0.144136 -0.906579 -0.396661
vn -0.738278 -0.672700 -0.049201
vn -0.144136 -0.906579 -0.396661
vn -0.148177 -0.988958 -0.002176
vn -0.727808 -0.609395 -0.314535
vn -0.709268 -0.487416 -0.509279
vn -0.129426 -0.720602 -0.681162
vn -0.727808 -0.609395 -0.314535
vn -0.129426 -0.720602 -0.681162
vn -0.144136 -0.906579 -0.396661
vn -0.709268 -0.487416 -0.509279
vn -0.692224 -0.351219 -0.630453
vn -0.113743 -0.516444 -0.848733
vn -0.709268 -0.487416 -0.509279
vn -0.113743 -0.516444 -0.848733
vn -0.129426 -0.720602 -0.681162
vn -0.692224 -0.351219 -0.630453
vn -0.680282 -0.220754 -0.698916
vn -0.101949 -0.328913 -0.938841
vn -0.692224 -0.351219 -0.630453
vn -0.101949 -0.328913 -0.938841
vn -0.113743 -0.516444 -0.848733
vn -0.680282 -0.220754 -0.698916
vn -0.673697 -0.098449 -0.732420
vn -0.094785 -0.159415 -0.982651
vn -0.680282 -0.220754 -0.698916
vn -0.094785 -0.159415 -0.982651
vn -0.101949 -0.328913 -0.938841
vn -0.673697 -0.098449 -0.732420
vn -0.672064 0.019491 -0.740236
vn -0.091877 0.000308 -0.995770
vn -0.673697 -0.098449 -0.732420
vn -0.091877 0.000308 -0.995770
vn -0.094785 -0.159415 -0.982651
vn -0.672064 0.019491 -0.740236
vn -0.675232 0.138324 -0.724519
vn -0.092951 0.160105 -0.982714
vn -0.672064 0.019491 -0.740236
vn -0.092951 0.160105 -0.982714
vn -0.091877 0.000308 -0.995770
vn -0.675232 0.138324 -0.724519
vn -0.683452 0.263109 -0.680932
vn -0.098114 0.329863 -0.938916
vn -0.675232 0.138324 -0.724519
vn -0.098114 0.329863 -0.938916
vn -0.092951 0.160105 -0.982714
vn -0.683452 0.263109 -0.680932
vn -0.697061 0.396512 -0.597398
vn -0.107754 0.517921 -0.848615
vn -0.683452 0.263109 -0.680932
vn -0.107754 0.517921 -0.848615
vn -0.098114 0.329863 -0.938916
vn -0.697061 0.396512 -0.597398
vn -0.715159 0.532039 -0.453302
vn -0.121881 0.722821 -0.680202
vn -0.697061 0.396512 -0.597398
vn -0.121881 0.722821 -0.680202
vn -0.107754 0.517921 -0.848615
vn -0.715159 0.532039 -0.453302
vn -0.732430 0.640584 -0.230650
vn -0.137992 0.908804 -0.393742
vn -0.715159 0.532039 -0.453302
vn -0.137992 0.908804 -0.393742
vn -0.121881 0.722821 -0.680202
vn -0.732430 0.640584 -0.230650
vn -0.738278 0.672700 0.049201
vn -0.148177 0.988958 0.002176
vn -0.732430 0.640584 -0.230650
vn -0.148177 0.988958 0.002176
vn -0.137992 0.908804 -0.393742
vn -0.148177 0.988958 0.002176
vn -0.144136 0.906579 0.396661
vn 0.163910 0.904993 0.392581
vn -0.148177 0.988958 0.002176
vn 0.163910 0.904993 0.392581
vn 0.174317 0.984688 -0.001424
vn -0.144136 0.906579 0.396661
vn -0.129426 0.720602 0.681162
vn 0.144784 0.720411 0.678267
vn -0.144136 0.906579 0.396661
vn 0.144784 0.720411 0.678267
vn 0.163910 0.904993 0.392581
vn -0.129426 0.720602 0.681162
vn -0.113743 0.516444 0.848733
vn 0.127269 0.516587 0.846723
vn -0.129426 0.720602 0.681162
vn 0.127269 0.516587 0.846723
vn 0.144784 0.720411 0.678267
vn -0.113743 0.516444 0.848733
vn -0.101949 0.328913 0.938841
vn 0.115081 0.329151 0.937239
vn -0.113743 0.516444 0.848733
vn 0.115081 0.329151 0.937239
vn 0.127269 0.516587 0.846723
vn -0.101949 0.328913 0.938841
vn -0.094785 0.159415 0.982651
vn 0.108329 0.159753 0.981195
vn -0.101949 0.328913 0.938841
vn 0.108329 0.159753 0.981195
vn 0.115081 0.329151 0.937239
vn -0.094785 0.159415 0.982651
vn -0.091877 -0.000308 0.995770
vn 0.106487 0.000199 0.994314
vn -0.094785 0.159415 0.982651
vn 0.106487 0.000199 0.994314
vn 0.108329 0.159753 0.981195
vn -0.091877 -0.000308 0.995770
vn -0.092951 -0.160105 0.982714
vn 0.109358 -0.159306 0.981154
vn -0.091877 -0.000308 0.995770
vn 0.109358 -0.159306 0.981154
vn 0.106487 0.000199 0.994314
vn -0.092951 -0.160105 0.982714
vn -0.098114 -0.329863 0.938916
vn 0.117233 -0.328534 0.937188
vn -0.092951 -0.160105 0.982714
vn 0.117233 -0.328534 0.937188
vn 0.109358 -0.159306 0.981154
vn -0.098114 -0.329863 0.938916
vn -0.107754 -0.517921 0.848615
vn 0.130628 -0.515626 0.846797
vn -0.098114 -0.329863 0.938916
vn 0.130628 -0.515626 0.846797
vn 0.117233 -0.328534 0.937188
vn -0.107754 -0.517921 0.848615
vn -0.121881 -0.722821 0.680202
vn 0.149014 -0.718961 0.678889
vn -0.107754 -0.517921 0.848615
vn 0.149014 -0.718961 0.678889
vn 0.130628 -0.515626 0.846797
vn -0.121881 -0.722821 0.680202
vn -0.137992 -0.908804 0.393742
vn 0.167352 -0.903534 0.394487
vn -0.121881 -0.722821 0.680202
vn 0.167352 -0.903534 0.394487
vn 0.149014 -0.718961 0.678889
vn -0.137992 -0.908804 0.393742
vn -0.148177 -0.988958 -0.002176
vn 0.174317 -0.984688 0.001424
vn -0.137992 -0.908804 0.393742
vn 0.174317 -0.984688 0.001424
vn 0.167352 -0.903534 0.394487
vn -0.148177 -0.988958 -0.002176
vn -0.144136 -0.906579 -0.396661
vn 0.163910 -0.904993 -0.392581
vn -0.148177 -0.988958 -0.002176
vn 0.163910 -0.904993 -0.392581
vn 0.174317 -0.984688 0.001424
vn -0.144136 -0.906579 -0.396661
vn -0.129426 -0.720602 -0.681162
vn 0.144784 -0.720411 -0.678267
vn -0.144136 -0.906579 -0.396661
vn 0.144784 -0.720411 -0.678267
vn 0.163910 -0.904993 -0.392581
vn -0.129426 -0.720602 -0.681162
vn -0.113743 -0.516444 -0.848733
vn 0.127269 -0.516587 -0.846723
vn -0.129426 -0.720602 -0.681162
vn 0.127269 -0.516587 -0.846723
vn 0.144784 -0.720411 -0.678267
vn -0.113743 -0.516444 -0.848733
vn -0.101949 -0.328913 -0.938841
vn 0.115081 -0.329151 -0.937239
vn -0.113743 -0.516444 -0.848733
vn 0.115081 -0.329151 -0.937239
vn 0.127269 -0.516587 -0.846723
vn -0.101949 -0.328913 -0.938841
vn -0.094785 -0.159415 -0.982651
vn 0.108329 -0.159753 -0.981195
vn -0.101949 -0.328913 -0.938841
vn 0.108329 -0.159753 -0.981195
vn 0.115081 -0.329151 -0.937239
vn -0.094785 -0.159415 -0.982651
vn -0.091877 0.000308 -0.995770
vn 0.106487 -0.000199 -0.994314
vn -0.094785 -0.159415 -0.982651
vn 0.106487 -0.000199 -0.994314
vn 0.108329 -0.159753 -0.981195
vn -0.091877 0.000308 -0.995770
vn -0.092951 0.160105 -0.982714
vn 0.109358 0.159306 -0.981154
vn -0.091877 0.000308 -0.995770
vn 0.109358 0.159306 -0.981154
vn 0.106487 -0.000199 -0.994314
vn -0.092951 0.160105 -0.982714
vn -0.098114 0.329863 -0.938916
vn 0.117233 0.328534 -0.937188
vn -0.092951 0.160105 -0.982714
vn 0.117233 0.328534 -0.937188
vn 0.109358 0.159306 -0.981154
vn -0.098114 0.329863 -0.938916
vn -0.107754 0.517921 -0.848615
vn 0.130628 0.515626 -0.846797
vn -0.098114 0.329863 -0.938916
vn 0.130628 0.515626 -0.846797
vn 0.117233 0.328534 -0.937188
vn -0.107754 0.517921 -0.848615
vn -0.121881 0.722821 -0.680202
vn 0.149014 0.718961 -0.678889
vn -0.107754 0.517921 -0.848615
vn 0.149014 0.718961 -0.678889
vn 0.130628 0.515626 -0.846797
vn -0.121881 0.722821 -0.680202
vn -0.137992 0.908804 -0.393742
vn 0.167352 0.903534 -0.394487
vn -0.121881 0.722821 -0.680202
vn 0.167352 0.903534 -0.394487
vn 0.149014 0.718961 -0.678889
vn -0.137992 0.908804 -0.393742
vn -0.148177 0.988958 0.002176
vn 0.174317 0.984688 -0.001424
vn -0.137992 0.908804 -0.393742
vn 0.174317 0.984688 -0.001424
vn 0.167352 0.903534 -0.394487
vn 0.174317 0.984688 -0.001424
vn 0.163910 0.904993 0.392581
vn 0.704704 0.667621 0.240157
vn 0.174317 0.984688 -0.001424
vn 0.704704 0.667621 0.240157
vn 0.710104 0.702221 -0.051361
vn 0.163910 0.904993 0.392581
vn 0.144784 0.720411 0.678267
vn 0.689162 0.551683 0.469790
vn 0.163910 0.904993 0.392581
vn 0.689162 0.551683 0.469790
vn 0.704704 0.667621 0.240157
vn 0.144784 0.720411 0.678267
vn 0.127269 0.516587 0.846723
vn 0.673218 0.409004 0.616030
vn 0.144784 0.720411 0.678267
vn 0.673218 0.409004 0.616030
vn 0.689162 0.551683 0.469790
vn 0.127269 0.516587 0.846723
vn 0.115081 0.329151 0.937239
vn 0.661419 0.270372 0.699589
vn 0.127269 0.516587 0.846723
vn 0.661419 0.270372 0.699589
vn 0.673218 0.409004 0.616030
vn 0.115081 0.329151 0.937239
vn 0.108329 0.159753 0.981195
vn 0.654363 0.141827 0.742761
vn 0.115081 0.329151 0.937239
vn 0.654363 0.141827 0.742761
vn 0.661419 0.270372 0.699589
vn 0.108329 0.159753 0.981195
vn 0.106487 0.000199 0.994314
vn 0.651658 0.019965 0.758250
vn 0.108329 0.159753 0.981195
vn 0.651658 0.019965 0.758250
vn 0.654363 0.141827 0.742761
vn 0.106487 0.000199 0.994314
vn 0.109358 -0.159306 0.981154
vn 0.653060 -0.100907 0.750554
vn 0.106487 0.000199 0.994314
vn 0.653060 -0.100907 0.750554
vn 0.651658 0.019965 0.758250
vn 0.109358 -0.159306 0.981154
vn 0.117233 -0.328534 0.937188
vn 0.658716 -0.226657 0.717440
vn 0.109358 -0.159306 0.981154
vn 0.658716 -0.226657 0.717440
vn 0.653060 -0.100907 0.750554
vn 0.117233 -0.328534 0.937188
vn 0.130628 -0.515626 0.846797
vn 0.669060 -0.361787 0.649206
vn 0.117233 -0.328534 0.937188
vn 0.669060 -0.361787 0.649206
vn 0.658716 -0.226657 0.717440
vn 0.130628 -0.515626 0.846797
vn 0.149014 -0.718961 0.678889
vn 0.684035 -0.504500 0.526854
vn 0.130628 -0.515626 0.846797
vn 0.684035 -0.504500 0.526854
vn 0.669060 -0.361787 0.649206
vn 0.149014 -0.718961 0.678889
vn 0.167352 -0.903534 0.394487
vn 0.700630 -0.634147 0.327070
vn 0.149014 -0.718961 0.678889
vn 0.700630 -0.634147 0.327070
vn 0.684035 -0.504500 0.526854
vn 0.167352 -0.903534 0.394487
vn 0.174317 -0.984688 0.001424
vn 0.710104 -0.702221 0.051361
vn 0.167352 -0.903534 0.394487
vn 0.710104 -0.702221 0.051361
vn 0.700630 -0.634147 0.327070
vn 0.174317 -0.984688 0.001424
vn 0.163910 -0.904993 -0.392581
vn 0.704704 -0.667621 -0.240157
vn 0.174317 -0.984688 0.001424
vn 0.704704 -0.667621 -0.240157
vn 0.710104 -0.702221 0.051361
vn 0.163910 -0.904993 -0.392581
vn 0.144784 -0.720411 -0.678267
vn 0.689162 -0.551683 -0.469790
vn 0.163910 -0.904993 -0.392581
vn 0.689162 -0.551683 -0.469790
vn 0.704704 -0.667621 -0.240157
vn 0.144784 -0.720411 -0.678267
vn 0.127269 -0.516587 -0.846723
vn 0.673218 -0.409004 -0.616030
vn 0.144784 -0.720411 -0.678267
vn 0.673218 -0.409004 -0.616030
vn 0.689162 -0.551683 -0.469790
vn 0.127269 -0.516587 -0.846723
vn 0.115081 -0.329151 -0.937239
vn 0.661419 -0.270372 -0.699589
vn 0.127269 -0.516587 -0.846723
vn 0.661419 -0.270372 -0.699589
vn 0.673218 -0.409004 -0.616030
vn 0.115081 -0.329151 -0.937239
vn 0.108329 -0.159753 -0.981195
vn 0.654363 -0.141827 -0.742761
vn 0.115081 -0.329151 -0.937239
vn 0.654363 -0.141827 -0.742761
vn 0.661419 -0.270372 -0.699589
vn 0.108329 -0.159753 -0.981195
vn 0.106487 -0.000199 -0.994314
vn 0.651658 -0.019965 -0.758250
vn 0.108329 -0.159753 -0.981195
vn 0.651658 -0.019965 -0.758250
vn 0.654363 -0.141827 -0.742761
vn 0.106487 -0.000199 -0.994314
vn 0.109358 0.159306 -0.981154
vn 0.653060 0.100907 -0.750554
vn 0.106487 -0.000199 -0.994314
vn 0.653060 0.100907 -0.750554
vn 0.651658 -0.019965 -0.758250
vn 0.109358 0.159306 -0.981154
vn 0.117233 0.328534 -0.937188
vn 0.658716 0.226657 -0.717440
vn 0.109358 0.159306 -0.981154
vn 0.658716 0.226657 -0.717440
vn 0.653060 0.100907 -0.750554
vn 0.117233 0.328534 -0.937188
vn 0.130628 0.515626 -0.846797
vn 0.669060 0.361787 -0.649206
vn 0.117233 0.328534 -0.937188
vn 0.669060 0.361787 -0.649206
vn 0.658716 0.226657 -0.717440
vn 0.130628 0.515626 -0.846797
vn 0.149014 0.718961 -0.678889
vn 0.684035 0.504500 -0.526854
vn 0.130628 0.515626 -0.846797
vn 0.684035 0.504500 -0.526854
vn 0.669060 0.361787 -0.649206
vn 0.149014 0.718961 -0.678889
vn 0.167352 0.903534 -0.394487
vn 0.700630 0.634147 -0.327070
vn 0.149014 0.718961 -0.678889
vn 0.700630 0.634147 -0.327070
vn 0.684035 0.504500 -0.526854
vn 0.167352 0.903534 -0.394487
vn 0.174317 0.984688 -0.001424
vn 0.710104 0.702221 -0.051361
vn 0.167352 0.903534 -0.394487
vn 0.710104 0.702221 -0.051361
vn 0.700630 0.634147 -0.327070
vn -0.727808 0.609395 0.314535
vn -0.738278 0.672700 0.049201
vn -1.000000 0.000000 0.000000
vn -0.709268 0.487416 0.509279
vn -0.727808 0.609395 0.314535
vn -1.000000 0.000000 0.000000
vn -0.692224 0.351219 0.630453
vn -0.709268 0.487416 0.509279
vn -1.000000 0.000000 0.000000
vn -0.680282 0.220754 0.698916
vn -0.692224 0.351219 0.630453
vn -1.000000 0.000000 0.000000
vn -0.673697 0.098449 0.732420
vn -0.680282 0.220754 0.698916
vn -1.000000 0.000000 0.000000
vn -0.672064 -0.019491 0.740236
vn -0.673697 0.098449 0.732420
vn -1.000000 0.000000 0.000000
vn -0.675232 -0.138324 0.724519
vn -0.672064 -0.019491 0.740236
vn -1.000000 0.000000 0.000000
vn -0.683452 -0.263109 0.680932
vn -0.675232 -0.138324 0.724519
vn -1.000000 0.000000 0.000000
vn -0.697061 -0.396512 0.597398
vn -0.683452 -0.263109 0.680932
vn -1.000000 0.000000 0.000000
vn -0.715159 -0.532039 0.453302
vn -0.697061 -0.396512 0.597398
vn -1.000000 0.000000 0.000000
vn -0.732430 -0.640584 0.230650
vn -0.715159 -0.532039 0.453302
vn -1.000000 0.000000 0.000000
vn -0.738278 -0.672700 -0.049201
vn -0.732430 -0.640584 0.230650
vn -1.000000 0.000000 0.000000
vn -0.727808 -0.609395 -0.314535
vn -0.738278 -0.672700 -0.049201
vn -1.000000 0.000000 0.000000
vn -0.709268 -0.487416 -0.509279
vn -0.727808 -0.609395 -0.314535
vn -1.000000 0.000000 0.000000
vn -0.692224 -0.351219 -0.630453
vn -0.709268 -0.487416 -0.509279
vn -1.000000 0.000000 0.000000
vn -0.680282 -0.220754 -0.698916
vn -0.692224 -0.351219 -0.630453
vn -1.000000 0.000000 0.000000
vn -0.673697 -0.098449 -0.732420
vn -0.680282 -0.220754 -0.698916
vn -1.000000 0.000000 0.000000
vn -0.672064 0.019491 -0.740236
vn -0.673697 -0.098449 -0.732420
vn -1.000000 0.000000 0.000000
vn -0.675232 0.138324 -0.724519
vn -0.672064 0.019491 -0.740236
vn -1.000000 0.000000 0.000000
vn -0.683452 0.263109 -0.680932
vn -0.675232 0.138324 -0.724519
vn -1.000000 0.000000 0.000000
vn -0.697061 0.396512 -0.597398
vn -0.683452 0.263109 -0.680932
vn -1.000000 0.000000 0.000000
vn -0.715159 0.532039 -0.453302
vn -0.697061 0.396512 -0.597398
vn -1.000000 0.000000 0.000000
vn -0.732430 0.640584 -0.230650
vn -0.715159 0.532039 -0.453302
vn -1.000000 0.000000 0.000000
vn -0.738278 0.672700 0.049201
vn -0.732430 0.640584 -0.230650
vn -1.000000 0.000000 0.000000
vn 1.000000 0.000000 0.000000
vn 0.710104 0.702221 -0.051361
vn 0.704704 0.667621 0.240157
vn 1.000000 0.000000 0.000000
vn 0.704704 0.667621 0.240157
vn 0.689162 0.551683 0.469790
vn 1.000000 0.000000 0.000000
vn 0.689162 0.551683 0.469790
vn 0.673218 0.409004 0.616030
vn 1.000000 0.000000 0.000000
vn 0.673218 0.409004 0.616030
vn 0.661419 0.270372 0.699589
vn 1.000000 0.000000 0.000000
vn 0.661419 0.270372 0.699589
vn 0.654363 0.141827 0.742761
vn 1.000000 0.000000 0.000000
vn 0.654363 0.141827 0.742761
vn 0.651658 0.019965 0.758250
vn 1.000000 0.000000 0.000000
vn 0.651658 0.019965 0.758250
vn 0.653060 -0.100907 0.750554
vn 1.000000 0.000000 0.000000
vn 0.653060 -0.100907 0.750554
vn 0.658716 -0.226657 0.717440
vn 1.000000 0.000000 0.000000
vn 0.658716 -0.226657 0.717440
vn 0.669060 -0.361787 0.649206
vn 1.000000 0.000000 0.000000
vn 0.669060 -0.361787 0.649206
vn 0.684035 -0.504500 0.526854
vn 1.000000 0.000000 0.000000
vn 0.684035 -0.504500 0.526854
vn 0.700630 -0.634147 0.327070
vn 1.000000 0.000000 0.000000
vn 0.700630 -0.634147 0.327070
vn 0.710104 -0.702221 0.051361
vn 1.000000 0.000000 0.000000
vn 0.710104 -0.702221 0.051361
vn 0.704704 -0.667621 -0.240157
vn 1.000000 0.000000 0.000000
vn 0.704704 -0.667621 -0.240157
vn 0.689162 -0.551683 -0.469790
vn 1.000000 0.000000 0.000000
vn 0.689162 -0.551683 -0.469790
vn 0.673218 -0.409004 -0.616030
vn 1.000000 0.000000 0.000000
vn 0.673218 -0.409004 -0.616030
vn 0.661419 -0.270372 -0.699589
vn 1.000000 0.000000 0.000000
vn 0.661419 -0.270372 -0.699589
vn 0.654363 -0.141827 -0.742761
vn 1.000000 0.000000 0.000000
vn 0.654363 -0.141827 -0.742761
vn 0.651658 -0.019965 -0.758250
vn 1.000000 0.000000 0.000000
vn 0.651658 -0.019965 -0.758250
vn 0.653060 0.100907 -0.750554
vn 1.000000 0.000000 0.000000
vn 0.653060 0.100907 -0.750554
vn 0.658716 0.226657 -0.717440
vn 1.000000 0.000000 0.000000
vn 0.658716 0.226657 -0.717440
vn 0.669060 0.361787 -0.649206
vn 1.000000 0.000000 0.000000
vn 0.669060 0.361787 -0.649206
vn 0.684035 0.504500 -0.526854
vn 1.000000 0.000000 0.000000
vn 0.684035 0.504500 -0.526854
vn 0.700630 0.634147 -0.327070
vn 1.000000 0.000000 0.000000
vn 0.700630 0.634147 -0.327070
vn 0.710104 0.702221 -0.051361
vn 0.000000 0.000000 -1.000000
vn 0.000000 0.000000 -1.000000
vn 0.000000 0.000000 -1.000000
vn 0.000000 0.000000 -1.000000
vn 0.000000 0.000000 -1.000000
vn 0.000000 0.000000 -1.000000
vn 0.000000 0.000000 1.000000
vn 0.000000 0.000000 1.000000
vn 0.000000 0.000000 1.000000
vn 0.000000 0.000000 1.000000
vn 0.000000 0.000000 1.000000
vn 0.000000 0.000000 1.000000
vn -0.713448 -0.700708 0.000000
vn -0.713448 -0.700708 0.000000
vn -0.713448 -0.700708 0.000000
vn -0.713448 -0.700708 0.000000
vn -0.713448 -0.700708 0.000000
vn -0.713448 -0.700708 0.000000
vn 0.318502 -0.947922 0.000000
vn 0.318502 -0.947922 0.000000
vn 0.318502 -0.947922 0.000000
vn 0.318502 -0.947922 0.000000
vn 0.318502 -0.947922 0.000000
vn 0.318502 -0.947922 0.000000
vn 0.164399 0.986394 0.000000
vn 0.164399 0.986394 0.000000
vn 0.164399 0.986394 0.000000
vn 0.164399 0.986394 0.000000
vn 0.164399 0.986394 0.000000
vn 0.164399 0.986394 0.000000
vn 0.033315 0.999445 0.000000
vn 0.033315 0.999445 0.000000
vn 0.033315 0.999445 0.000000
vn 0.033315 0.999445 0.000000
vn 0.033315 0.999445 0.000000
vn 0.033315 0.999445 0.000000
vn 0.000000 0.000000 -1.000000
vn 0.000000 0.000000 -1.000000
vn 0.000000 0.000000 -1.000000
vn 0.000000 0.000000 -1.000000
vn 0.000000 0.000000 -1.000000
vn 0.000000 0.000000 -1.000000
vn 0.000000 0.000000 1.000000
vn 0.000000 0.000000 1.000000
vn 0.000000 0.000000 1.000000
vn 0.000000 0.000000 1.000000
vn 0.000000 0.000000 1.000000
vn 0.000000 0.000000 1.000000
vn 0.000000 -1.000000 0.000000
vn 0.000000 -1.000000 0.000000
vn 0.000000 -1.000000 0.000000
vn 0.000000 -1.000000 0.000000
vn 0.000000 -1.000000 0.000000
vn 0.000000 -1.000000 0.000000
vn 1.000000 0.000000 0.000000
vn 1.000000 0.000000 0.000000
vn 1.000000 0.000000 0.000000
vn 1.000000 0.000000 0.000000
vn 1.000000 0.000000 0.000000
vn 1.000000 0.000000 0.000000
vn 0.000000 1.000000 0.000000
vn 0.000000 1.000000 0.000000
vn 0.000000 1.000000 0.000000
vn 0.000000 1.000000 0.000000
vn 0.000000 1.000000 0.000000
vn 0.000000 1.000000 0.000000
vn -1.000000 0.000000 0.000000
vn -1.000000 0.000000 0.000000
vn -1.000000 0.000000 0.000000
vn -1.000000 0.000000 0.000000
vn -1.000000 0.000000 0.000000
vn -1.000000 0.000000 0.000000
vn -0.561313 0.825791 0.054753
vn -0.561313 0.741978 0.366602
vn 0.561313 0.783884 0.265431
vn -0.561313 0.825791 0.054753
vn 0.561313 0.783884 0.265431
vn 0.561313 0.825791 -0.054753
vn -0.561313 0.741978 0.366602
vn -0.561313 0.545206 0.622639
vn 0.561313 0.622639 0.545206
vn -0.561313 0.741978 0.366602
vn 0.561313 0.622639 0.545206
vn 0.561313 0.783884 0.265431
vn -0.561313 0.545206 0.622639
vn -0.561313 0.265431 0.783884
vn 0.561313 0.366602 0.741978
vn -0.561313 0.545206 0.622639
vn 0.561313 0.366602 0.741978
vn 0.561313 0.622639 0.545206
vn -0.561313 0.265431 0.783884
vn -0.561313 -0.054753 0.825791
vn 0.561313 0.054753 0.825791
vn -0.561313 0.265431 0.783884
vn 0.561313 0.054753 0.825791
vn 0.561313 0.366602 0.741978
vn -0.561313 -0.054753 0.825791
vn -0.561313 -0.366602 0.741978
vn 0.561313 -0.265431 0.783884
vn -0.561313 -0.054753 0.825791
vn 0.561313 -0.265431 0.783884
vn 0.561313 0.054753 0.825791
vn -0.561313 -0.366602 0.741978
vn -0.561313 -0.622639 0.545206
vn 0.561313 -0.545206 0.622639
vn -0.561313 -0.366602 0.741978
vn 0.561313 -0.545206 0.622639
vn 0.561313 -0.265431 0.783884
vn -0.561313 -0.622639 0.545206
vn -0.561313 -0.783884 0.265431
vn 0.561313 -0.741978 0.366602
vn -0.561313 -0.622639 0.545206
vn 0.561313 -0.741978 0.366602
vn 0.561313 -0.545206 0.622639
vn -0.561313 -0.783884 0.265431
vn -0.561313 -0.825791 -0.054753
vn 0.561313 -0.825791 0.054753
vn -0.561313 -0.783884 0.265431
vn 0.561313 -0.825791 0.054753
vn 0.561313 -0.741978 0.366602
vn -0.561313 -0.825791 -0.054753
vn -0.561313 -0.741978 -0.366602
vn 0.561313 -0.783884 -0.265431
vn -0.561313 -0.825791 -0.054753
vn 0.561313 -0.783884 -0.265431
vn 0.561313 -0.825791 0.054753
vn -0.561313 -0.741978 -0.366602
vn -0.561313 -0.545206 -0.622639
vn 0.561313 -0.622639 -0.545206
vn -0.561313 -0.741978 -0.366602
vn 0.561313 -0.622639 -0.545206
vn 0.561313 -0.783884 -0.265431
vn -0.561313 -0.545206 -0.622639
vn -0.561313 -0.265431 -0.783884
vn 0.561313 -0.366602 -0.741978
vn -0.561313 -0.545206 -0.622639
vn 0.561313 -0.366602 -0.741978
vn 0.561313 -0.622639 -0.545206
vn -0.561313 -0.265431 -0.783884
vn -0.561313 0.054753 -0.825791
vn 0.561313 -0.054753 -0.825791
vn -0.561313 -0.265431 -0.783884
vn 0.561313 -0.054753 -0.825791
vn 0.561313 -0.366602 -0.741978
vn -0.561313 0.054753 -0.825791
vn -0.561313 0.366602 -0.741978
vn 0.561313 0.265431 -0.783884
vn -0.561313 0.054753 -0.825791
vn 0.561313 0.265431 -0.783884
vn 0.561313 -0.054753 -0.825791
vn -0.561313 0.366602 -0.741978
vn -0.561313 0.622639 -0.545206
vn 0.561313 0.545206 -0.622639
vn -0.561313 0.366602 -0.741978
vn 0.561313 0.545206 -0.622639
vn 0.561313 0.265431 -0.783884
vn -0.561313 0.622639 -0.545206
vn -0.561313 0.783884 -0.265431
vn 0.561313 0.741978 -0.366602
vn -0.561313 0.622639 -0.545206
vn 0.561313 0.741978 -0.366602
vn 0.561313 0.545206 -0.622639
vn -0.561313 0.783884 -0.265431
vn -0.561313 0.825791 0.054753
vn 0.561313 0.825791 -0.054753
vn -0.561313 0.783884 -0.265431
vn 0.561313 0.825791 -0.054753
vn 0.561313 0.741978 -0.366602
vn -0.561313 0.741978 0.366602
vn -0.561313 0.825791 0.054753
vn -1.000000 0.000000 0.000000
vn -0.561313 0.545206 0.622639
vn -0.561313 0.741978 0.366602
vn -1.000000 0.000000 0.000000
vn -0.561313 0.265431 0.783884
vn -0.561313 0.545206 0.622639
vn -1.000000 0.000000 0.000000
vn -0.561313 -0.054753 0.825791
vn -0.561313 0.265431 0.783884
vn -1.000000 0.000000 0.000000
vn -0.561313 -0.366602 0.741978
vn -0.561313 -0.054753 0.825791
vn -1.000000 0.000000 0.000000
vn -0.561313 -0.622639 0.545206
vn -0.561313 -0.366602 0.741978
vn -1.000000 0.000000 0.000000
vn -0.561313 -0.783884 0.265431
vn -0.561313 -0.622639 0.545206
vn -1.000000 0.000000 0.000000
vn -0.561313 -0.825791 -0.054753
vn -0.561313 -0.783884 0.265431
vn -1.000000 0.000000 0.000000
vn -0.561313 -0.741978 -0.366602
vn -0.561313 -0.825791 -0.054753
vn -1.000000 0.000000 0.000000
vn -0.561313 -0.545206 -0.622639
vn -0.561313 -0.741978 -0.366602
vn -1.000000 0.000000 0.000000
vn -0.561313 -0.265431 -0.783884
vn -0.561313 -0.545206 -0.622639
vn -1.000000 0.000000 0.000000
vn -0.561313 0.054753 -0.825791
vn -0.561313 -0.265431 -0.783884
vn -1.000000 0.000000 0.000000
vn -0.561313 0.366602 -0.741978
vn -0.561313 0.054753 -0.825791
vn -1.000000 0.000000 0.000000
vn -0.561313 0.622639 -0.545206
vn -0.561313 0.366602 -0.741978
vn -1.000000 0.000000 0.000000
vn -0.561313 0.783884 -0.265431
vn -0.561313 0.622639 -0.545206
vn -1.000000 0.000000 0.000000
vn -0.561313 0.825791 0.054753
vn -0.561313 0.783884 -0.265431
vn -1.000000 0.000000 0.000000
vn 1.000000 0.000000 0.000000
vn 0.561313 0.825791 -0.054753
vn 0.561313 0.783884 0.265431
vn 1.000000 0.000000 0.000000
vn 0.561313 0.783884 0.265431
vn 0.561313 0.622639 0.545206
vn 1.000000 0.000000 0.000000
vn 0.561313 0.622639 0.545206
vn 0.561313 0.366602 0.741978
vn 1.000000 0.000000 0.000000
vn 0.561313 0.366602 0.741978
vn 0.561313 0.054753 0.825791
vn 1.000000 0.000000 0.000000
vn 0.561313 0.054753 0.825791
vn 0.561313 -0.265431 0.783884
vn 1.000000 0.000000 0.000000
vn 0.561313 -0.265431 0.783884
vn 0.561313 -0.545206 0.622639
vn 1.000000 0.000000 0.000000
vn 0.561313 -0.545206 0.622639
vn 0.561313 -0.741978 0.366602
vn 1.000000 0.000000 0.000000
vn 0.561313 -0.741978 0.366602
vn 0.561313 -0.825791 0.054753
vn 1.000000 0.000000 0.000000
vn 0.561313 -0.825791 0.054753
vn 0.561313 -0.783884 -0.265431
vn 1.000000 0.000000 0.000000
vn 0.561313 -0.783884 -0.265431
vn 0.561313 -0.622639 -0.545206
vn 1.000000 0.000000 0.000000
vn 0.561313 -0.622639 -0.545206
vn 0.561313 -0.366602 -0.741978
vn 1.000000 0.000000 0.000000
vn 0.561313 -0.366602 -0.741978
vn 0.561313 -0.054753 -0.825791
vn 1.000000 0.000000 0.000000
vn 0.561313 -0.054753 -0.825791
vn 0.561313 0.265431 -0.783884
vn 1.000000 0.000000 0.000000
vn 0.561313 0.265431 -0.783884
vn 0.561313 0.545206 -0.622639
vn 1.000000 0.000000 0.000000
vn 0.561313 0.545206 -0.622639
vn 0.561313 0.741978 -0.366602
vn 1.000000 0.000000 0.000000
vn 0.561313 0.741978 -0.366602
vn 0.561313 0.825791 -0.054753
vn 0.000000 0.000000 -1.000000
vn 0.000000 0.000000 -1.000000
vn 0.000000 0.000000 -1.000000
vn 0.000000 0.000000 -1.000000
vn 0.000000 0.000000 -1.000000
vn 0.000000 0.000000 -1.000000
vn 0.000000 0.000000 1.000000
vn 0.000000 0.000000 1.000000
vn 0.000000 0.000000 1.000000
vn 0.000000 0.000000 1.000000
vn 0.000000 0.000000 1.000000
vn 0.000000 0.000000 1.000000
vn 0.164399 -0.986394 0.000000
vn 0.164399 -0.986394 0.000000
vn 0.164399 -0.986394 0.000000
vn 0.164399 -0.986394 0.000000
vn 0.164399 -0.986394 0.000000
vn 0.164399 -0.986394 0.000000
vn 0.318502 0.947922 0.000000
vn 0.318502 0.947922 0.000000
vn 0.318502 0.947922 0.000000
vn 0.318502 0.947922 0.000000
vn 0.318502 0.947922 0.000000
vn 0.318502 0.947922 0.000000
vn -0.713448 0.700708 0.000000
vn -0.713448 0.700708 0.000000
vn -0.713448 0.700708 0.000000
vn -0.713448 0.700708 0.000000
vn -0.713448 0.700708 0.000000
vn -0.713448 0.700708 0.000000
vn 0.033315 -0.999445 0.000000
vn 0.033315 -0.999445 0.000000
vn 0.033315 -0.999445 0.000000
vn 0.033315 -0.999445 0.000000
vn 0.033315 -0.999445 0.000000
vn 0.033315 -0.999445 0.000000
vn 0.000000 0.000000 -1.000000
vn 0.000000 0.000000 -1.000000
vn 0.000000 0.000000 -1.000000
vn 0.000000 0.000000 -1.000000
vn 0.000000 0.000000 -1.000000
vn 0.000000 0.000000 -1.000000
vn 0.000000 0.000000 1.000000
vn 0.000000 0.000000 1.000000
vn 0.000000 0.000000 1.000000
vn 0.000000 0.000000 1.000000
vn 0.000000 0.000000 1.000000
vn 0.000000 0.000000 1.000000
vn 0.000000 -1.000000 0.000000
vn 0.000000 -1.000000 0.000000
vn 0.000000 -1.000000 0.000000
vn 0.000000 -1.000000 0.000000
vn 0.000000 -1.000000 0.000000
vn 0.000000 -1.000000 0.000000
vn 1.000000 0.000000 0.000000
vn 1.000000 0.000000 0.000000
vn 1.000000 0.000000 0.000000
vn 1.000000 0.000000 0.000000
vn 1.000000 0.000000 0.000000
vn 1.000000 0.000000 0.000000
vn 0.000000 1.000000 0.000000
vn 0.000000 1.000000 0.000000
vn 0.000000 1.000000 0.000000
vn 0.000000 1.000000 0.000000
vn 0.000000 1.000000 0.000000
vn 0.000000 1.000000 0.000000
vn -1.000000 0.000000 0.000000
vn -1.000000 0.000000 0.000000
vn -1.000000 0.000000 0.000000
vn -1.000000 0.000000 0.000000
vn -1.000000 0.000000 0.000000
vn -1.000000 0.000000 0.000000
vn -0.561313 0.825791 0.054753
vn -0.561313 0.741978 0.366602
vn 0.561313 0.783884 0.265431
vn -0.561313 0.825791 0.054753
vn 0.561313 0.783884 0.265431
vn 0.561313 0.825791 -0.054753
vn -0.561313 0.741978 0.366602
vn -0.561313 0.545206 0.622639
vn 0.561313 0.622639 0.545206
vn -0.561313 0.741978 0.366602
vn 0.561313 0.622639 0.545206
vn 0.561313 0.783884 0.265431
vn -0.561313 0.545206 0.622639
vn -0.561313 0.265431 0.783884
vn 0.561313 0.366602 0.741978
vn -0.561313 0.545206 0.622639
vn 0.561313 0.366602 0.741978
vn 0.561313 0.622639 0.545206
vn -0.561313 0.265431 0.783884
vn -0.561313 -0.054753 0.825791
vn 0.561313 0.054753 0.825791
vn -0.561313 0.265431 0.783884
vn 0.561313 0.054753 0.825791
vn 0.561313 0.366602 0.741978
vn -0.561313 -0.054753 0.825791
vn -0.561313 -0.366602 0.741978
vn 0.561313 -0.265431 0.783884
vn -0.561313 -0.054753 0.825791
vn 0.561313 -0.265431 0.783884
vn 0.561313 0.054753 0.825791
vn -0.561313 -0.366602 0.741978
vn -0.561313 -0.622639 0.545206
vn 0.561313 -0.545206 0.622639
vn -0.561313 -0.366602 0.741978
vn 0.561313 -0.545206 0.622639
vn 0.561313 -0.265431 0.783884
vn -0.561313 -0.622639 0.545206
vn -0.561313 -0.783884 0.265431
vn 0.561313 -0.741978 0.366602
vn -0.561313 -0.622639 0.545206
vn 0.561313 -0.741978 0.366602
vn 0.561313 -0.545206 0.622639
vn -0.561313 -0.783884 0.265431
vn -0.561313 -0.825791 -0.054753
vn 0.561313 -0.825791 0.054753
vn -0.561313 -0.783884 0.265431
vn 0.561313 -0.825791 0.054753
vn 0.561313 -0.741978 0.366602
vn -0.561313 -0.825791 -0.054753
vn -0.561313 -0.741978 -0.366602
vn 0.561313 -0.783884 -0.265431
vn -0.561313 -0.825791 -0.054753
vn 0.561313 -0.783884 -0.265431
vn 0.561313 -0.825791 0.054753
vn -0.561313 -0.741978 -0.366602
vn -0.561313 -0.545206 -0.622639
vn 0.561313 -0.622639 -0.545206
vn -0.561313 -0.741978 -0.366602
vn 0.561313 -0.622639 -0.545206
vn 0.561313 -0.783884 -0.265431
vn -0.561313 -0.545206 -0.622639
vn -0.561313 -0.265431 -0.783884
vn 0.561313 -0.366602 -0.741978
vn -0.561313 -0.545206 -0.622639
vn 0.561313 -0.366602 -0.741978
vn 0.561313 -0.622639 -0.545206
vn -0.561313 -0.265431 -0.783884
vn -0.561313 0.054753 -0.825791
vn 0.561313 -0.054753 -0.825791
vn -0.561313 -0.265431 -0.783884
vn 0.561313 -0.054753 -0.825791
vn 0.561313 -0.366602 -0.741978
vn -0.561313 0.054753 -0.825791
vn -0.561313 0.366602 -0.741978
vn 0.561313 0.265431 -0.783884
vn -0.561313 0.054753 -0.825791
vn 0.561313 0.265431 -0.783884
vn 0.561313 -0.054753 -0.825791
vn -0.561313 0.366602 -0.741978
vn -0.561313 0.622639 -0.545206
vn 0.561313 0.545206 -0.622639
vn -0.561313 0.366602 -0.741978
vn 0.561313 0.545206 -0.622639
vn 0.561313 0.265431 -0.783884
vn -0.561313 0.622639 -0.545206
vn -0.561313 0.783884 -0.265431
vn 0.561313 0.741978 -0.366602
vn -0.561313 0.622639 -0.545206
vn 0.561313 0.741978 -0.366602
vn 0.561313 0.545206 -0.622639
vn -0.561313 0.783884 -0.265431
vn -0.561313 0.825791 0.054753
vn 0.561313 0.825791 -0.054753
vn -0.561313 0.783884 -0.265431
vn 0.561313 0.825791 -0.054753
vn 0.561313 0.741978 -0.366602
vn -0.561313 0.741978 0.366602
vn -0.561313 0.825791 0.054753
vn -1.000000 0.000000 0.000000
vn -0.561313 0.545206 0.622639
vn -0.561313 0.741978 0.366602
vn -1.000000 0.000000 0.000000
vn -0.561313 0.265431 0.783884
vn -0.561313 0.545206 0.622639
vn -1.000000 0.000000 0.000000
vn -0.561313 -0.054753 0.825791
vn -0.561313 0.265431 0.783884
vn -1.000000 0.000000 0.000000
vn -0.561313 -0.366602 0.741978
vn -0.561313 -0.054753 0.825791
vn -1.000000 0.000000 0.000000
vn -0.561313 -0.622639 0.545206
vn -0.561313 -0.366602 0.741978
vn -1.000000 0.000000 0.000000
vn -0.561313 -0.783884 0.265431
vn -0.561313 -0.622639 0.545206
vn -1.000000 0.000000 0.000000
vn -0.561313 -0.825791 -0.054753
vn -0.561313 -0.783884 0.265431
vn -1.000000 0.000000 0.000000
vn -0.561313 -0.741978 -0.366602
vn -0.561313 -0.825791 -0.054753
vn -1.000000 0.000000 0.000000
vn -0.561313 -0.545206 -0.622639
vn -0.561313 -0.741978 -0.366602
vn -1.000000 0.000000 0.000000
vn -0.561313 -0.265431 -0.783884
vn -0.561313 -0.545206 -0.622639
vn -1.000000 0.000000 0.000000
vn -0.561313 0.054753 -0.825791
vn -0.561313 -0.265431 -0.783884
vn -1.000000 0.000000 0.000000
vn -0.561313 0.366602 -0.741978
vn -0.561313 0.054753 -0.825791
vn -1.000000 0.000000 0.000000
vn -0.561313 0.622639 -0.545206
vn -0.561313 0.366602 -0.741978
vn -1.000000 0.000000 0.000000
vn -0.561313 0.783884 -0.265431
vn -0.561313 0.622639 -0.545206
vn -1.000000 0.000000 0.000000
vn -0.561313 0.825791 0.054753
vn -0.561313 0.783884 -0.265431
vn -1.000000 0.000000 0.000000
vn 1.000000 0.000000 0.000000
vn 0.561313 0.825791 -0.054753
vn 0.561313 0.783884 0.265431
vn 1.000000 0.000000 0.000000
vn 0.561313 0.783884 0.265431
vn 0.561313 0.622639 0.545206
vn 1.000000 0.000000 0.000000
vn 0.561313 0.622639 0.545206
vn 0.561313 0.366602 0.741978
vn 1.000000 0.000000 0.000000
vn 0.561313 0.366602 0.741978
vn 0.561313 0.054753 0.825791
vn 1.000000 0.000000 0.000000
vn 0.561313 0.054753 0.825791
vn 0.561313 -0.265431 0.783884
vn 1.000000 0.000000 0.000000
vn 0.561313 -0.265431 0.783884
vn 0.561313 -0.545206 0.622639
vn 1.000000 0.000000 0.000000
vn 0.561313 -0.545206 0.622639
vn 0.561313 -0.741978 0.366602
vn 1.000000 0.000000 0.000000
vn 0.561313 -0.741978 0.366602
vn 0.561313 -0.825791 0.054753
vn 1.000000 0.000000 0.000000
vn 0.561313 -0.825791 0.054753
vn 0.561313 -0.783884 -0.265431
vn 1.000000 0.000000 0.000000
vn 0.561313 -0.783884 -0.265431
vn 0.561313 -0.622639 -0.545206
vn 1.000000 0.000000 0.000000
vn 0.561313 -0.622639 -0.545206
vn 0.561313 -0.366602 -0.741978
vn 1.000000 0.000000 0.000000
vn 0.561313 -0.366602 -0.741978
vn 0.561313 -0.054753 -0.825791
vn 1.000000 0.000000 0.000000
vn 0.561313 -0.054753 -0.825791
vn 0.561313 0.265431 -0.783884
vn 1.000000 0.000000 0.000000
vn 0.561313 0.265431 -0.783884
vn 0.561313 0.545206 -0.622639
vn 1.000000 0.000000 0.000000
vn 0.561313 0.545206 -0.622639
vn 0.561313 0.741978 -0.366602
vn 1.000000 0.000000 0.000000
vn 0.561313 0.741978 -0.366602
vn 0.561313 0.825791 -0.054753
usemtl M_Hull
f 1/1/1 2/2/2 26/3/3
f 1/1/4 26/2/5 25/3/6
f 2/1/7 3/2/8 27/3/9
f 2/1/10 27/2/11 26/3/12
f 3/1/13 4/2/14 28/3/15
f 3/1/16 28/2/17 27/3/18
f 4/1/19 5/2/20 29/3/21
f 4/1/22 29/2/23 28/3/24
f 5/1/25 6/2/26 30/3/27
f 5/1/28 30/2/29 29/3/30
f 6/1/31 7/2/32 31/3/33
f 6/1/34 31/2/35 30/3/36
f 7/1/37 8/2/38 32/3/39
f 7/1/40 32/2/41 31/3/42
f 8/1/43 9/2/44 33/3/45
f 8/1/46 33/2/47 32/3/48
f 9/1/49 10/2/50 34/3/51
f 9/1/52 34/2/53 33/3/54
f 10/1/55 11/2/56 35/3/57
f 10/1/58 35/2/59 34/3/60
f 11/1/61 12/2/62 36/3/63
f 11/1/64 36/2/65 35/3/66
f 12/1/67 13/2/68 37/3/69
f 12/1/70 37/2/71 36/3/72
f 13/1/73 14/2/74 38/3/75
f 13/1/76 38/2/77 37/3/78
f 14/1/79 15/2/80 39/3/81
f 14/1/82 39/2/83 38/3/84
f 15/1/85 16/2/86 40/3/87
f 15/1/88 40/2/89 39/3/90
f 16/1/91 17/2/92 41/3/93
f 16/1/94 41/2/95 40/3/96
f 17/1/97 18/2/98 42/3/99
f 17/1/100 42/2/101 41/3/102
f 18/1/103 19/2/104 43/3/105
f 18/1/106 43/2/107 42/3/108
f 19/1/109 20/2/110 44/3/111
f 19/1/112 44/2/113 43/3/114
f 20/1/115 21/2/116 45/3/117
f 20/1/118 45/2/119 44/3/120
f 21/1/121 22/2/122 46/3/123
f 21/1/124 46/2/125 45/3/126
f 22/1/127 23/2/128 47/3/129
f 22/1/130 47/2/131 46/3/132
f 23/1/133 24/2/134 48/3/135
f 23/1/136 48/2/137 47/3/138
f 24/1/139 1/2/140 25/3/141
f 24/1/142 25/2/143 48/3/144
f 25/1/145 26/2/146 50/3/147
f 25/1/148 50/2/149 49/3/150
f 26/1/151 27/2/152 51/3/153
f 26/1/154 51/2/155 50/3/156
f 27/1/157 28/2/158 52/3/159
f 27/1/160 52/2/161 51/3/162
f 28/1/163 29/2/164 53/3/165
f 28/1/166 53/2/167 52/3/168
f 29/1/169 30/2/170 54/3/171
f 29/1/172 54/2/173 53/3/174
f 30/1/175 31/2/176 55/3/177
f 30/1/178 55/2/179 54/3/180
f 31/1/181 32/2/182 56/3/183
f 31/1/184 56/2/185 55/3/186
f 32/1/187 33/2/188 57/3/189
f 32/1/190 57/2/191 56/3/192
f 33/1/193 34/2/194 58/3/195
f 33/1/196 58/2/197 57/3/198
f 34/1/199 35/2/200 59/3/201
f 34/1/202 59/2/203 58/3/204
f 35/1/205 36/2/206 60/3/207
f 35/1/208 60/2/209 59/3/210
f 36/1/211 37/2/212 61/3/213
f 36/1/214 61/2/215 60/3/216
f 37/1/217 38/2/218 62/3/219
f 37/1/220 62/2/221 61/3/222
f 38/1/223 39/2/224 63/3/225
f 38/1/226 63/2/227 62/3/228
f 39/1/229 40/2/230 64/3/231
f 39/1/232 64/2/233 63/3/234
f 40/1/235 41/2/236 65/3/237
f 40/1/238 65/2/239 64/3/240
f 41/1/241 42/2/242 66/3/243
f 41/1/244 66/2/245 65/3/246
f 42/1/247 43/2/248 67/3/249
f 42/1/250 67/2/251 66/3/252
f 43/1/253 44/2/254 68/3/255
f 43/1/256 68/2/257 67/3/258
f 44/1/259 45/2/260 69/3/261
f 44/1/262 69/2/263 68/3/264
f 45/1/265 46/2/266 70/3/267
f 45/1/268 70/2/269 69/3/270
f 46/1/271 47/2/272 71/3/273
f 46/1/274 71/2/275 70/3/276
f 47/1/277 48/2/278 72/3/279
f 47/1/280 72/2/281 71/3/282
f 48/1/283 25/2/284 49/3/285
f 48/1/286 49/2/287 72/3/288
f 49/1/289 50/2/290 74/3/291
f 49/1/292 74/2/293 73/3/294
f 50/1/295 51/2/296 75/3/297
f 50/1/298 75/2/299 74/3/300
f 51/1/301 52/2/302 76/3/303
f 51/1/304 76/2/305 75/3/306
f 52/1/307 53/2/308 77/3/309
f 52/1/310 77/2/311 76/3/312
f 53/1/313 54/2/314 78/3/315
f 53/1/316 78/2/317 77/3/318
f 54/1/319 55/2/320 79/3/321
f 54/1/322 79/2/323 78/3/324
f 55/1/325 56/2/326 80/3/327
f 55/1/328 80/2/329 79/3/330
f 56/1/331 57/2/332 81/3/333
f 56/1/334 81/2/335 80/3/336
f 57/1/337 58/2/338 82/3/339
f 57/1/340 82/2/341 81/3/342
f 58/1/343 59/2/344 83/3/345
f 58/1/346 83/2/347 82/3/348
f 59/1/349 60/2/350 84/3/351
f 59/1/352 84/2/353 83/3/354
f 60/1/355 61/2/356 85/3/357
f 60/1/358 85/2/359 84/3/360
f 61/1/361 62/2/362 86/3/363
f 61/1/364 86/2/365 85/3/366
f 62/1/367 63/2/368 87/3/369
f 62/1/370 87/2/371 86/3/372
f 63/1/373 64/2/374 88/3/375
f 63/1/376 88/2/377 87/3/378
f 64/1/379 65/2/380 89/3/381
f 64/1/382 89/2/383 88/3/384
f 65/1/385 66/2/386 90/3/387
f 65/1/388 90/2/389 89/3/390
f 66/1/391 67/2/392 91/3/393
f 66/1/394 91/2/395 90/3/396
f 67/1/397 68/2/398 92/3/399
f 67/1/400 92/2/401 91/3/402
f 68/1/403 69/2/404 93/3/405
f 68/1/406 93/2/407 92/3/408
f 69/1/409 70/2/410 94/3/411
f 69/1/412 94/2/413 93/3/414
f 70/1/415 71/2/416 95/3/417
f 70/1/418 95/2/419 94/3/420
f 71/1/421 72/2/422 96/3/423
f 71/1/424 96/2/425 95/3/426
f 72/1/427 49/2/428 73/3/429
f 72/1/430 73/2/431 96/3/432
f 2/1/433 1/2/434 97/3/435
f 3/1/436 2/2/437 97/3/438
f 4/1/439 3/2/440 97/3/441
f 5/1/442 4/2/443 97/3/444
f 6/1/445 5/2/446 97/3/447
f 7/1/448 6/2/449 97/3/450
f 8/1/451 7/2/452 97/3/453
f 9/1/454 8/2/455 97/3/456
f 10/1/457 9/2/458 97/3/459
f 11/1/460 10/2/461 97/3/462
f 12/1/463 11/2/464 97/3/465
f 13/1/466 12/2/467 97/3/468
f 14/1/469 13/2/470 97/3/471
f 15/1/472 14/2/473 97/3/474
f 16/1/475 15/2/476 97/3/477
f 17/1/478 16/2/479 97/3/480
f 18/1/481 17/2/482 97/3/483
f 19/1/484 18/2/485 97/3/486
f 20/1/487 19/2/488 97/3/489
f 21/1/490 20/2/491 97/3/492
f 22/1/493 21/2/494 97/3/495
f 23/1/496 22/2/497 97/3/498
f 24/1/499 23/2/500 97/3/501
f 1/1/502 24/2/503 97/3/504
f 98/1/505 73/2/506 74/3/507
f 98/1/508 74/2/509 75/3/510
f 98/1/511 75/2/512 76/3/513
f 98/1/514 76/2/515 77/3/516
f 98/1/517 77/2/518 78/3/519
f 98/1/520 78/2/521 79/3/522
f 98/1/523 79/2/524 80/3/525
f 98/1/526 80/2/527 81/3/528
f 98/1/529 81/2/530 82/3/531
f 98/1/532 82/2/533 83/3/534
f 98/1/535 83/2/536 84/3/537
f 98/1/538 84/2/539 85/3/540
f 98/1/541 85/2/542 86/3/543
f 98/1/544 86/2/545 87/3/546
f 98/1/547 87/2/548 88/3/549
f 98/1/550 88/2/551 89/3/552
f 98/1/553 89/2/554 90/3/555
f 98/1/556 90/2/557 91/3/558
f 98/1/559 91/2/560 92/3/561
f 98/1/562 92/2/563 93/3/564
f 98/1/565 93/2/566 94/3/567
f 98/1/568 94/2/569 95/3/570
f 98/1/571 95/2/572 96/3/573
f 98/1/574 96/2/575 73/3/576
f 102/1/577 101/2/578 100/3/579
f 102/1/580 100/2/581 99/3/582
f 103/1/583 104/2/584 105/3/585
f 103/1/586 105/2/587 106/3/588
f 99/1/589 100/2/590 104/3/591
f 99/1/592 104/2/593 103/3/594
f 100/1/595 101/2/596 105/3/597
f 100/1/598 105/2/599 104/3/600
f 101/1/601 102/2/602 106/3/603
f 101/1/604 106/2/605 105/3/606
f 102/1/607 99/2/608 103/3/609
f 102/1/610 103/2/611 106/3/612
usemtl M_Amber
f 110/1/613 109/2/614 108/3/615
f 110/1/616 108/2/617 107/3/618
f 111/1/619 112/2/620 113/3/621
f 111/1/622 113/2/623 114/3/624
f 107/1/625 108/2/626 112/3/627
f 107/1/628 112/2/629 111/3/630
f 108/1/631 109/2/632 113/3/633
f 108/1/634 113/2/635 112/3/636
f 109/1/637 110/2/638 114/3/639
f 109/1/640 114/2/641 113/3/642
f 110/1/643 107/2/644 111/3/645
f 110/1/646 111/2/647 114/3/648
f 115/1/649 116/2/650 132/3/651
f 115/1/652 132/2/653 131/3/654
f 116/1/655 117/2/656 133/3/657
f 116/1/658 133/2/659 132/3/660
f 117/1/661 118/2/662 134/3/663
f 117/1/664 134/2/665 133/3/666
f 118/1/667 119/2/668 135/3/669
f 118/1/670 135/2/671 134/3/672
f 119/1/673 120/2/674 136/3/675
f 119/1/676 136/2/677 135/3/678
f 120/1/679 121/2/680 137/3/681
f 120/1/682 137/2/683 136/3/684
f 121/1/685 122/2/686 138/3/687
f 121/1/688 138/2/689 137/3/690
f 122/1/691 123/2/692 139/3/693
f 122/1/694 139/2/695 138/3/696
f 123/1/697 124/2/698 140/3/699
f 123/1/700 140/2/701 139/3/702
f 124/1/703 125/2/704 141/3/705
f 124/1/706 141/2/707 140/3/708
f 125/1/709 126/2/710 142/3/711
f 125/1/712 142/2/713 141/3/714
f 126/1/715 127/2/716 143/3/717
f 126/1/718 143/2/719 142/3/720
f 127/1/721 128/2/722 144/3/723
f 127/1/724 144/2/725 143/3/726
f 128/1/727 129/2/728 145/3/729
f 128/1/730 145/2/731 144/3/732
f 129/1/733 130/2/734 146/3/735
f 129/1/736 146/2/737 145/3/738
f 130/1/739 115/2/740 131/3/741
f 130/1/742 131/2/743 146/3/744
f 116/1/745 115/2/746 147/3/747
f 117/1/748 116/2/749 147/3/750
f 118/1/751 117/2/752 147/3/753
f 119/1/754 118/2/755 147/3/756
f 120/1/757 119/2/758 147/3/759
f 121/1/760 120/2/761 147/3/762
f 122/1/763 121/2/764 147/3/765
f 123/1/766 122/2/767 147/3/768
f 124/1/769 123/2/770 147/3/771
f 125/1/772 124/2/773 147/3/774
f 126/1/775 125/2/776 147/3/777
f 127/1/778 126/2/779 147/3/780
f 128/1/781 127/2/782 147/3/783
f 129/1/784 128/2/785 147/3/786
f 130/1/787 129/2/788 147/3/789
f 115/1/790 130/2/791 147/3/792
f 148/1/793 131/2/794 132/3/795
f 148/1/796 132/2/797 133/3/798
f 148/1/799 133/2/800 134/3/801
f 148/1/802 134/2/803 135/3/804
f 148/1/805 135/2/806 136/3/807
f 148/1/808 136/2/809 137/3/810
f 148/1/811 137/2/812 138/3/813
f 148/1/814 138/2/815 139/3/816
f 148/1/817 139/2/818 140/3/819
f 148/1/820 140/2/821 141/3/822
f 148/1/823 141/2/824 142/3/825
f 148/1/826 142/2/827 143/3/828
f 148/1/829 143/2/830 144/3/831
f 148/1/832 144/2/833 145/3/834
f 148/1/835 145/2/836 146/3/837
f 148/1/838 146/2/839 131/3/840
usemtl M_Hull
f 152/1/841 151/2/842 150/3/843
f 152/1/844 150/2/845 149/3/846
f 153/1/847 154/2/848 155/3/849
f 153/1/850 155/2/851 156/3/852
f 149/1/853 150/2/854 154/3/855
f 149/1/856 154/2/857 153/3/858
f 150/1/859 151/2/860 155/3/861
f 150/1/862 155/2/863 154/3/864
f 151/1/865 152/2/866 156/3/867
f 151/1/868 156/2/869 155/3/870
f 152/1/871 149/2/872 153/3/873
f 152/1/874 153/2/875 156/3/876
usemtl M_Amber
f 160/1/877 159/2/878 158/3/879
f 160/1/880 158/2/881 157/3/882
f 161/1/883 162/2/884 163/3/885
f 161/1/886 163/2/887 164/3/888
f 157/1/889 158/2/890 162/3/891
f 157/1/892 162/2/893 161/3/894
f 158/1/895 159/2/896 163/3/897
f 158/1/898 163/2/899 162/3/900
f 159/1/901 160/2/902 164/3/903
f 159/1/904 164/2/905 163/3/906
f 160/1/907 157/2/908 161/3/909
f 160/1/910 161/2/911 164/3/912
f 165/1/913 166/2/914 182/3/915
f 165/1/916 182/2/917 181/3/918
f 166/1/919 167/2/920 183/3/921
f 166/1/922 183/2/923 182/3/924
f 167/1/925 168/2/926 184/3/927
f 167/1/928 184/2/929 183/3/930
f 168/1/931 169/2/932 185/3/933
f 168/1/934 185/2/935 184/3/936
f 169/1/937 170/2/938 186/3/939
f 169/1/940 186/2/941 185/3/942
f 170/1/943 171/2/944 187/3/945
f 170/1/946 187/2/947 186/3/948
f 171/1/949 172/2/950 188/3/951
f 171/1/952 188/2/953 187/3/954
f 172/1/955 173/2/956 189/3/957
f 172/1/958 189/2/959 188/3/960
f 173/1/961 174/2/962 190/3/963
f 173/1/964 190/2/965 189/3/966
f 174/1/967 175/2/968 191/3/969
f 174/1/970 191/2/971 190/3/972
f 175/1/973 176/2/974 192/3/975
f 175/1/976 192/2/977 191/3/978
f 176/1/979 177/2/980 193/3/981
f 176/1/982 193/2/983 192/3/984
f 177/1/985 178/2/986 194/3/987
f 177/1/988 194/2/989 193/3/990
f 178/1/991 179/2/992 195/3/993
f 178/1/994 195/2/995 194/3/996
f 179/1/997 180/2/998 196/3/999
f 179/1/1000 196/2/1001 195/3/1002
f 180/1/1003 165/2/1004 181/3/1005
f 180/1/1006 181/2/1007 196/3/1008
f 166/1/1009 165/2/1010 197/3/1011
f 167/1/1012 166/2/1013 197/3/1014
f 168/1/1015 167/2/1016 197/3/1017
f 169/1/1018 168/2/1019 197/3/1020
f 170/1/1021 169/2/1022 197/3/1023
f 171/1/1024 170/2/1025 197/3/1026
f 172/1/1027 171/2/1028 197/3/1029
f 173/1/1030 172/2/1031 197/3/1032
f 174/1/1033 173/2/1034 197/3/1035
f 175/1/1036 174/2/1037 197/3/1038
f 176/1/1039 175/2/1040 197/3/1041
f 177/1/1042 176/2/1043 197/3/1044
f 178/1/1045 177/2/1046 197/3/1047
f 179/1/1048 178/2/1049 197/3/1050
f 180/1/1051 179/2/1052 197/3/1053
f 165/1/1054 180/2/1055 197/3/1056
f 198/1/1057 181/2/1058 182/3/1059
f 198/1/1060 182/2/1061 183/3/1062
f 198/1/1063 183/2/1064 184/3/1065
f 198/1/1066 184/2/1067 185/3/1068
f 198/1/1069 185/2/1070 186/3/1071
f 198/1/1072 186/2/1073 187/3/1074
f 198/1/1075 187/2/1076 188/3/1077
f 198/1/1078 188/2/1079 189/3/1080
f 198/1/1081 189/2/1082 190/3/1083
f 198/1/1084 190/2/1085 191/3/1086
f 198/1/1087 191/2/1088 192/3/1089
f 198/1/1090 192/2/1091 193/3/1092
f 198/1/1093 193/2/1094 194/3/1095
f 198/1/1096 194/2/1097 195/3/1098
f 198/1/1099 195/2/1100 196/3/1101
f 198/1/1102 196/2/1103 181/3/1104
