# Original SpaceSurvival generated source; centimeters; X forward; Z up
mtllib Palette.mtl
o SM_PickupBuff
v -25.000000 -22.000000 -7.000000
v 29.000000 -3.000000 -7.000000
v 29.000000 4.000000 -7.000000
v -25.000000 -15.000000 -7.000000
v -25.000000 -22.000000 7.000000
v 29.000000 -3.000000 7.000000
v 29.000000 4.000000 7.000000
v -25.000000 -15.000000 7.000000
v -25.000000 15.000000 -7.000000
v 29.000000 -4.000000 -7.000000
v 29.000000 3.000000 -7.000000
v -25.000000 22.000000 -7.000000
v -25.000000 15.000000 7.000000
v 29.000000 -4.000000 7.000000
v 29.000000 3.000000 7.000000
v -25.000000 22.000000 7.000000
vt 0.05 0.05
vt 0.95 0.05
vt 0.05 0.95
vn 0.000000 0.000000 -1.000000
vn 0.000000 0.000000 -1.000000
vn 0.000000 0.000000 -1.000000
vn 0.000000 0.000000 -1.000000
vn 0.000000 0.000000 -1.000000
vn 0.000000 0.000000 -1.000000
vn 0.000000 0.000000 1.000000
vn 0.000000 0.000000 1.000000
vn 0.000000 0.000000 1.000000
vn 0.000000 0.000000 1.000000
vn 0.000000 0.000000 1.000000
vn 0.000000 0.000000 1.000000
vn 0.331906 -0.943312 0.000000
vn 0.331906 -0.943312 0.000000
vn 0.331906 -0.943312 0.000000
vn 0.331906 -0.943312 0.000000
vn 0.331906 -0.943312 0.000000
vn 0.331906 -0.943312 0.000000
vn 1.000000 0.000000 0.000000
vn 1.000000 0.000000 0.000000
vn 1.000000 0.000000 0.000000
vn 1.000000 0.000000 0.000000
vn 1.000000 0.000000 0.000000
vn 1.000000 0.000000 0.000000
vn -0.331906 0.943312 0.000000
vn -0.331906 0.943312 0.000000
vn -0.331906 0.943312 0.000000
vn -0.331906 0.943312 0.000000
vn -0.331906 0.943312 0.000000
vn -0.331906 0.943312 0.000000
vn -1.000000 0.000000 0.000000
vn -1.000000 0.000000 0.000000
vn -1.000000 0.000000 0.000000
vn -1.000000 0.000000 0.000000
vn -1.000000 0.000000 0.000000
vn -1.000000 0.000000 0.000000
vn 0.000000 0.000000 -1.000000
vn 0.000000 0.000000 -1.000000
vn 0.000000 0.000000 -1.000000
vn 0.000000 0.000000 -1.000000
vn 0.000000 0.000000 -1.000000
vn 0.000000 0.000000 -1.000000
vn 0.000000 0.000000 1.000000
vn 0.000000 0.000000 1.000000
vn 0.000000 0.000000 1.000000
vn 0.000000 0.000000 1.000000
vn 0.000000 0.000000 1.000000
vn 0.000000 0.000000 1.000000
vn -0.331906 -0.943312 0.000000
vn -0.331906 -0.943312 0.000000
vn -0.331906 -0.943312 0.000000
vn -0.331906 -0.943312 0.000000
vn -0.331906 -0.943312 0.000000
vn -0.331906 -0.943312 0.000000
vn 1.000000 0.000000 0.000000
vn 1.000000 0.000000 0.000000
vn 1.000000 0.000000 0.000000
vn 1.000000 0.000000 0.000000
vn 1.000000 0.000000 0.000000
vn 1.000000 0.000000 0.000000
vn 0.331906 0.943312 0.000000
vn 0.331906 0.943312 0.000000
vn 0.331906 0.943312 0.000000
vn 0.331906 0.943312 0.000000
vn 0.331906 0.943312 0.000000
vn 0.331906 0.943312 0.000000
vn -1.000000 0.000000 0.000000
vn -1.000000 0.000000 0.000000
vn -1.000000 0.000000 0.000000
vn -1.000000 0.000000 0.000000
vn -1.000000 0.000000 0.000000
vn -1.000000 0.000000 0.000000
usemtl M_Violet
f 4/1/1 3/2/2 2/3/3
f 4/1/4 2/2/5 1/3/6
f 5/1/7 6/2/8 7/3/9
f 5/1/10 7/2/11 8/3/12
f 1/1/13 2/2/14 6/3/15
f 1/1/16 6/2/17 5/3/18
f 2/1/19 3/2/20 7/3/21
f 2/1/22 7/2/23 6/3/24
f 3/1/25 4/2/26 8/3/27
f 3/1/28 8/2/29 7/3/30
f 4/1/31 1/2/32 5/3/33
f 4/1/34 5/2/35 8/3/36
f 12/1/37 11/2/38 10/3/39
f 12/1/40 10/2/41 9/3/42
f 13/1/43 14/2/44 15/3/45
f 13/1/46 15/2/47 16/3/48
f 9/1/49 10/2/50 14/3/51
f 9/1/52 14/2/53 13/3/54
f 10/1/55 11/2/56 15/3/57
f 10/1/58 15/2/59 14/3/60
f 11/1/61 12/2/62 16/3/63
f 11/1/64 16/2/65 15/3/66
f 12/1/67 9/2/68 13/3/69
f 12/1/70 13/2/71 16/3/72
