# Original SpaceSurvival generated source; centimeters; X forward; Z up
mtllib Palette.mtl
o SM_PickupShield
v -27.000000 -20.000000 -7.000000
v 17.000000 -27.000000 -7.000000
v 33.000000 0.000000 -7.000000
v 17.000000 27.000000 -7.000000
v -27.000000 20.000000 -7.000000
v -27.000000 -20.000000 7.000000
v 17.000000 -27.000000 7.000000
v 33.000000 0.000000 7.000000
v 17.000000 27.000000 7.000000
v -27.000000 20.000000 7.000000
v -15.000000 -11.000000 7.000000
v 9.000000 -15.000000 7.000000
v 19.000000 0.000000 7.000000
v 9.000000 15.000000 7.000000
v -15.000000 11.000000 7.000000
v -15.000000 -11.000000 10.000000
v 9.000000 -15.000000 10.000000
v 19.000000 0.000000 10.000000
v 9.000000 15.000000 10.000000
v -15.000000 11.000000 10.000000
vt 0.05 0.05
vt 0.95 0.05
vt 0.05 0.95
vn 0.000000 0.000000 -1.000000
vn 0.000000 0.000000 -1.000000
vn 0.000000 0.000000 -1.000000
vn 0.000000 0.000000 -1.000000
vn 0.000000 0.000000 -1.000000
vn 0.000000 0.000000 -1.000000
vn 0.000000 0.000000 -1.000000
vn 0.000000 0.000000 -1.000000
vn 0.000000 0.000000 -1.000000
vn 0.000000 0.000000 1.000000
vn 0.000000 0.000000 1.000000
vn 0.000000 0.000000 1.000000
vn 0.000000 0.000000 1.000000
vn 0.000000 0.000000 1.000000
vn 0.000000 0.000000 1.000000
vn 0.000000 0.000000 1.000000
vn 0.000000 0.000000 1.000000
vn 0.000000 0.000000 1.000000
vn -0.157115 -0.987580 0.000000
vn -0.157115 -0.987580 0.000000
vn -0.157115 -0.987580 0.000000
vn -0.157115 -0.987580 0.000000
vn -0.157115 -0.987580 0.000000
vn -0.157115 -0.987580 0.000000
vn 0.860292 -0.509802 0.000000
vn 0.860292 -0.509802 0.000000
vn 0.860292 -0.509802 0.000000
vn 0.860292 -0.509802 0.000000
vn 0.860292 -0.509802 0.000000
vn 0.860292 -0.509802 0.000000
vn 0.860292 0.509802 0.000000
vn 0.860292 0.509802 0.000000
vn 0.860292 0.509802 0.000000
vn 0.860292 0.509802 0.000000
vn 0.860292 0.509802 0.000000
vn 0.860292 0.509802 0.000000
vn -0.157115 0.987580 0.000000
vn -0.157115 0.987580 0.000000
vn -0.157115 0.987580 0.000000
vn -0.157115 0.987580 0.000000
vn -0.157115 0.987580 0.000000
vn -0.157115 0.987580 0.000000
vn -1.000000 0.000000 0.000000
vn -1.000000 0.000000 0.000000
vn -1.000000 0.000000 0.000000
vn -1.000000 0.000000 0.000000
vn -1.000000 0.000000 0.000000
vn -1.000000 0.000000 0.000000
vn 0.000000 0.000000 -1.000000
vn 0.000000 0.000000 -1.000000
vn 0.000000 0.000000 -1.000000
vn 0.000000 0.000000 -1.000000
vn 0.000000 0.000000 -1.000000
vn 0.000000 0.000000 -1.000000
vn 0.000000 0.000000 -1.000000
vn 0.000000 0.000000 -1.000000
vn 0.000000 0.000000 -1.000000
vn 0.000000 0.000000 1.000000
vn 0.000000 0.000000 1.000000
vn 0.000000 0.000000 1.000000
vn 0.000000 0.000000 1.000000
vn 0.000000 0.000000 1.000000
vn 0.000000 0.000000 1.000000
vn 0.000000 0.000000 1.000000
vn 0.000000 0.000000 1.000000
vn 0.000000 0.000000 1.000000
vn -0.164399 -0.986394 0.000000
vn -0.164399 -0.986394 0.000000
vn -0.164399 -0.986394 0.000000
vn -0.164399 -0.986394 0.000000
vn -0.164399 -0.986394 0.000000
vn -0.164399 -0.986394 0.000000
vn 0.832050 -0.554700 0.000000
vn 0.832050 -0.554700 0.000000
vn 0.832050 -0.554700 0.000000
vn 0.832050 -0.554700 0.000000
vn 0.832050 -0.554700 0.000000
vn 0.832050 -0.554700 0.000000
vn 0.832050 0.554700 0.000000
vn 0.832050 0.554700 0.000000
vn 0.832050 0.554700 0.000000
vn 0.832050 0.554700 0.000000
vn 0.832050 0.554700 0.000000
vn 0.832050 0.554700 0.000000
vn -0.164399 0.986394 0.000000
vn -0.164399 0.986394 0.000000
vn -0.164399 0.986394 0.000000
vn -0.164399 0.986394 0.000000
vn -0.164399 0.986394 0.000000
vn -0.164399 0.986394 0.000000
vn -1.000000 0.000000 0.000000
vn -1.000000 0.000000 0.000000
vn -1.000000 0.000000 0.000000
vn -1.000000 0.000000 0.000000
vn -1.000000 0.000000 0.000000
vn -1.000000 0.000000 0.000000
usemtl M_Cyan
f 5/1/1 4/2/2 3/3/3
f 5/1/4 3/2/5 2/3/6
f 5/1/7 2/2/8 1/3/9
f 6/1/10 7/2/11 8/3/12
f 6/1/13 8/2/14 9/3/15
f 6/1/16 9/2/17 10/3/18
f 1/1/19 2/2/20 7/3/21
f 1/1/22 7/2/23 6/3/24
f 2/1/25 3/2/26 8/3/27
f 2/1/28 8/2/29 7/3/30
f 3/1/31 4/2/32 9/3/33
f 3/1/34 9/2/35 8/3/36
f 4/1/37 5/2/38 10/3/39
f 4/1/40 10/2/41 9/3/42
f 5/1/43 1/2/44 6/3/45
f 5/1/46 6/2/47 10/3/48
usemtl M_Hull
f 15/1/49 14/2/50 13/3/51
f 15/1/52 13/2/53 12/3/54
f 15/1/55 12/2/56 11/3/57
f 16/1/58 17/2/59 18/3/60
f 16/1/61 18/2/62 19/3/63
f 16/1/64 19/2/65 20/3/66
f 11/1/67 12/2/68 17/3/69
f 11/1/70 17/2/71 16/3/72
f 12/1/73 13/2/74 18/3/75
f 12/1/76 18/2/77 17/3/78
f 13/1/79 14/2/80 19/3/81
f 13/1/82 19/2/83 18/3/84
f 14/1/85 15/2/86 20/3/87
f 14/1/88 20/2/89 19/3/90
f 15/1/91 11/2/92 16/3/93
f 15/1/94 16/2/95 20/3/96
