# Original SpaceSurvival generated source; centimeters; X forward; Z up
mtllib Palette.mtl
o SM_Projectile
v -100.000000 2.000000 0.000000
v -100.000000 1.732051 1.000000
v -100.000000 1.000000 1.732051
v -100.000000 0.000000 2.000000
v -100.000000 -1.000000 1.732051
v -100.000000 -1.732051 1.000000
v -100.000000 -2.000000 0.000000
v -100.000000 -1.732051 -1.000000
v -100.000000 -1.000000 -1.732051
v -100.000000 -0.000000 -2.000000
v -100.000000 1.000000 -1.732051
v -100.000000 1.732051 -1.000000
v -65.000000 7.000000 0.000000
v -65.000000 6.062178 3.500000
v -65.000000 3.500000 6.062178
v -65.000000 0.000000 7.000000
v -65.000000 -3.500000 6.062178
v -65.000000 -6.062178 3.500000
v -65.000000 -7.000000 0.000000
v -65.000000 -6.062178 -3.500000
v -65.000000 -3.500000 -6.062178
v -65.000000 -0.000000 -7.000000
v -65.000000 3.500000 -6.062178
v -65.000000 6.062178 -3.500000
v 65.000000 7.000000 0.000000
v 65.000000 6.062178 3.500000
v 65.000000 3.500000 6.062178
v 65.000000 0.000000 7.000000
v 65.000000 -3.500000 6.062178
v 65.000000 -6.062178 3.500000
v 65.000000 -7.000000 0.000000
v 65.000000 -6.062178 -3.500000
v 65.000000 -3.500000 -6.062178
v 65.000000 -0.000000 -7.000000
v 65.000000 3.500000 -6.062178
v 65.000000 6.062178 -3.500000
v 100.000000 2.000000 0.000000
v 100.000000 1.732051 1.000000
v 100.000000 1.000000 1.732051
v 100.000000 0.000000 2.000000
v 100.000000 -1.000000 1.732051
v 100.000000 -1.732051 1.000000
v 100.000000 -2.000000 0.000000
v 100.000000 -1.732051 -1.000000
v 100.000000 -1.000000 -1.732051
v 100.000000 -0.000000 -2.000000
v 100.000000 1.000000 -1.732051
v 100.000000 1.732051 -1.000000
v -100.000000 0.000000 0.000000
v 100.000000 0.000000 0.000000
vt 0.05 0.05
vt 0.95 0.05
vt 0.05 0.95
vn -0.641505 0.764077 0.068245
vn -0.641505 0.627588 0.441140
vn -0.070913 0.863635 0.499105
vn -0.641505 0.764077 0.068245
vn -0.070913 0.863635 0.499105
vn -0.070913 0.997482 0.000420
vn -0.641505 0.627588 0.441140
vn -0.641505 0.322937 0.695833
vn -0.070913 0.498377 0.864055
vn -0.641505 0.627588 0.441140
vn -0.070913 0.498377 0.864055
vn -0.070913 0.863635 0.499105
vn -0.641505 0.322937 0.695833
vn -0.641505 -0.068245 0.764077
vn -0.070913 -0.000420 0.997482
vn -0.641505 0.322937 0.695833
vn -0.070913 -0.000420 0.997482
vn -0.070913 0.498377 0.864055
vn -0.641505 -0.068245 0.764077
vn -0.641505 -0.441140 0.627588
vn -0.070913 -0.499105 0.863635
vn -0.641505 -0.068245 0.764077
vn -0.070913 -0.499105 0.863635
vn -0.070913 -0.000420 0.997482
vn -0.641505 -0.441140 0.627588
vn -0.641505 -0.695833 0.322937
vn -0.070913 -0.864055 0.498377
vn -0.641505 -0.441140 0.627588
vn -0.070913 -0.864055 0.498377
vn -0.070913 -0.499105 0.863635
vn -0.641505 -0.695833 0.322937
vn -0.641505 -0.764077 -0.068245
vn -0.070913 -0.997482 -0.000420
vn -0.641505 -0.695833 0.322937
vn -0.070913 -0.997482 -0.000420
vn -0.070913 -0.864055 0.498377
vn -0.641505 -0.764077 -0.068245
vn -0.641505 -0.627588 -0.441140
vn -0.070913 -0.863635 -0.499105
vn -0.641505 -0.764077 -0.068245
vn -0.070913 -0.863635 -0.499105
vn -0.070913 -0.997482 -0.000420
vn -0.641505 -0.627588 -0.441140
vn -0.641505 -0.322937 -0.695833
vn -0.070913 -0.498377 -0.864055
vn -0.641505 -0.627588 -0.441140
vn -0.070913 -0.498377 -0.864055
vn -0.070913 -0.863635 -0.499105
vn -0.641505 -0.322937 -0.695833
vn -0.641505 0.068245 -0.764077
vn -0.070913 0.000420 -0.997482
vn -0.641505 -0.322937 -0.695833
vn -0.070913 0.000420 -0.997482
vn -0.070913 -0.498377 -0.864055
vn -0.641505 0.068245 -0.764077
vn -0.641505 0.441140 -0.627588
vn -0.070913 0.499105 -0.863635
vn -0.641505 0.068245 -0.764077
vn -0.070913 0.499105 -0.863635
vn -0.070913 0.000420 -0.997482
vn -0.641505 0.441140 -0.627588
vn -0.641505 0.695833 -0.322937
vn -0.070913 0.864055 -0.498377
vn -0.641505 0.441140 -0.627588
vn -0.070913 0.864055 -0.498377
vn -0.070913 0.499105 -0.863635
vn -0.641505 0.695833 -0.322937
vn -0.641505 0.764077 0.068245
vn -0.070913 0.997482 0.000420
vn -0.641505 0.695833 -0.322937
vn -0.070913 0.997482 0.000420
vn -0.070913 0.864055 -0.498377
vn -0.070913 0.997482 0.000420
vn -0.070913 0.863635 0.499105
vn 0.070913 0.864055 0.498377
vn -0.070913 0.997482 0.000420
vn 0.070913 0.864055 0.498377
vn 0.070913 0.997482 -0.000420
vn -0.070913 0.863635 0.499105
vn -0.070913 0.498377 0.864055
vn 0.070913 0.499105 0.863635
vn -0.070913 0.863635 0.499105
vn 0.070913 0.499105 0.863635
vn 0.070913 0.864055 0.498377
vn -0.070913 0.498377 0.864055
vn -0.070913 -0.000420 0.997482
vn 0.070913 0.000420 0.997482
vn -0.070913 0.498377 0.864055
vn 0.070913 0.000420 0.997482
vn 0.070913 0.499105 0.863635
vn -0.070913 -0.000420 0.997482
vn -0.070913 -0.499105 0.863635
vn 0.070913 -0.498377 0.864055
vn -0.070913 -0.000420 0.997482
vn 0.070913 -0.498377 0.864055
vn 0.070913 0.000420 0.997482
vn -0.070913 -0.499105 0.863635
vn -0.070913 -0.864055 0.498377
vn 0.070913 -0.863635 0.499105
vn -0.070913 -0.499105 0.863635
vn 0.070913 -0.863635 0.499105
vn 0.070913 -0.498377 0.864055
vn -0.070913 -0.864055 0.498377
vn -0.070913 -0.997482 -0.000420
vn 0.070913 -0.997482 0.000420
vn -0.070913 -0.864055 0.498377
vn 0.070913 -0.997482 0.000420
vn 0.070913 -0.863635 0.499105
vn -0.070913 -0.997482 -0.000420
vn -0.070913 -0.863635 -0.499105
vn 0.070913 -0.864055 -0.498377
vn -0.070913 -0.997482 -0.000420
vn 0.070913 -0.864055 -0.498377
vn 0.070913 -0.997482 0.000420
vn -0.070913 -0.863635 -0.499105
vn -0.070913 -0.498377 -0.864055
vn 0.070913 -0.499105 -0.863635
vn -0.070913 -0.863635 -0.499105
vn 0.070913 -0.499105 -0.863635
vn 0.070913 -0.864055 -0.498377
vn -0.070913 -0.498377 -0.864055
vn -0.070913 0.000420 -0.997482
vn 0.070913 -0.000420 -0.997482
vn -0.070913 -0.498377 -0.864055
vn 0.070913 -0.000420 -0.997482
vn 0.070913 -0.499105 -0.863635
vn -0.070913 0.000420 -0.997482
vn -0.070913 0.499105 -0.863635
vn 0.070913 0.498377 -0.864055
vn -0.070913 0.000420 -0.997482
vn 0.070913 0.498377 -0.864055
vn 0.070913 -0.000420 -0.997482
vn -0.070913 0.499105 -0.863635
vn -0.070913 0.864055 -0.498377
vn 0.070913 0.863635 -0.499105
vn -0.070913 0.499105 -0.863635
vn 0.070913 0.863635 -0.499105
vn 0.070913 0.498377 -0.864055
vn -0.070913 0.864055 -0.498377
vn -0.070913 0.997482 0.000420
vn 0.070913 0.997482 -0.000420
vn -0.070913 0.864055 -0.498377
vn 0.070913 0.997482 -0.000420
vn 0.070913 0.863635 -0.499105
vn 0.070913 0.997482 -0.000420
vn 0.070913 0.864055 0.498377
vn 0.641505 0.695833 0.322937
vn 0.070913 0.997482 -0.000420
vn 0.641505 0.695833 0.322937
vn 0.641505 0.764077 -0.068245
vn 0.070913 0.864055 0.498377
vn 0.070913 0.499105 0.863635
vn 0.641505 0.441140 0.627588
vn 0.070913 0.864055 0.498377
vn 0.641505 0.441140 0.627588
vn 0.641505 0.695833 0.322937
vn 0.070913 0.499105 0.863635
vn 0.070913 0.000420 0.997482
vn 0.641505 0.068245 0.764077
vn 0.070913 0.499105 0.863635
vn 0.641505 0.068245 0.764077
vn 0.641505 0.441140 0.627588
vn 0.070913 0.000420 0.997482
vn 0.070913 -0.498377 0.864055
vn 0.641505 -0.322937 0.695833
vn 0.070913 0.000420 0.997482
vn 0.641505 -0.322937 0.695833
vn 0.641505 0.068245 0.764077
vn 0.070913 -0.498377 0.864055
vn 0.070913 -0.863635 0.499105
vn 0.641505 -0.627588 0.441140
vn 0.070913 -0.498377 0.864055
vn 0.641505 -0.627588 0.441140
vn 0.641505 -0.322937 0.695833
vn 0.070913 -0.863635 0.499105
vn 0.070913 -0.997482 0.000420
vn 0.641505 -0.764077 0.068245
vn 0.070913 -0.863635 0.499105
vn 0.641505 -0.764077 0.068245
vn 0.641505 -0.627588 0.441140
vn 0.070913 -0.997482 0.000420
vn 0.070913 -0.864055 -0.498377
vn 0.641505 -0.695833 -0.322937
vn 0.070913 -0.997482 0.000420
vn 0.641505 -0.695833 -0.322937
vn 0.641505 -0.764077 0.068245
vn 0.070913 -0.864055 -0.498377
vn 0.070913 -0.499105 -0.863635
vn 0.641505 -0.441140 -0.627588
vn 0.070913 -0.864055 -0.498377
vn 0.641505 -0.441140 -0.627588
vn 0.641505 -0.695833 -0.322937
vn 0.070913 -0.499105 -0.863635
vn 0.070913 -0.000420 -0.997482
vn 0.641505 -0.068245 -0.764077
vn 0.070913 -0.499105 -0.863635
vn 0.641505 -0.068245 -0.764077
vn 0.641505 -0.441140 -0.627588
vn 0.070913 -0.000420 -0.997482
vn 0.070913 0.498377 -0.864055
vn 0.641505 0.322937 -0.695833
vn 0.070913 -0.000420 -0.997482
vn 0.641505 0.322937 -0.695833
vn 0.641505 -0.068245 -0.764077
vn 0.070913 0.498377 -0.864055
vn 0.070913 0.863635 -0.499105
vn 0.641505 0.627588 -0.441140
vn 0.070913 0.498377 -0.864055
vn 0.641505 0.627588 -0.441140
vn 0.641505 0.322937 -0.695833
vn 0.070913 0.863635 -0.499105
vn 0.070913 0.997482 -0.000420
vn 0.641505 0.764077 -0.068245
vn 0.070913 0.863635 -0.499105
vn 0.641505 0.764077 -0.068245
vn 0.641505 0.627588 -0.441140
vn -0.641505 0.627588 0.441140
vn -0.641505 0.764077 0.068245
vn -1.000000 0.000000 0.000000
vn -0.641505 0.322937 0.695833
vn -0.641505 0.627588 0.441140
vn -1.000000 0.000000 0.000000
vn -0.641505 -0.068245 0.764077
vn -0.641505 0.322937 0.695833
vn -1.000000 0.000000 0.000000
vn -0.641505 -0.441140 0.627588
vn -0.641505 -0.068245 0.764077
vn -1.000000 0.000000 0.000000
vn -0.641505 -0.695833 0.322937
vn -0.641505 -0.441140 0.627588
vn -1.000000 0.000000 0.000000
vn -0.641505 -0.764077 -0.068245
vn -0.641505 -0.695833 0.322937
vn -1.000000 0.000000 0.000000
vn -0.641505 -0.627588 -0.441140
vn -0.641505 -0.764077 -0.068245
vn -1.000000 0.000000 0.000000
vn -0.641505 -0.322937 -0.695833
vn -0.641505 -0.627588 -0.441140
vn -1.000000 0.000000 0.000000
vn -0.641505 0.068245 -0.764077
vn -0.641505 -0.322937 -0.695833
vn -1.000000 0.000000 0.000000
vn -0.641505 0.441140 -0.627588
vn -0.641505 0.068245 -0.764077
vn -1.000000 0.000000 0.000000
vn -0.641505 0.695833 -0.322937
vn -0.641505 0.441140 -0.627588
vn -1.000000 0.000000 0.000000
vn -0.641505 0.764077 0.068245
vn -0.641505 0.695833 -0.322937
vn -1.000000 0.000000 0.000000
vn 1.000000 0.000000 0.000000
vn 0.641505 0.764077 -0.068245
vn 0.641505 0.695833 0.322937
vn 1.000000 0.000000 0.000000
vn 0.641505 0.695833 0.322937
vn 0.641505 0.441140 0.627588
vn 1.000000 0.000000 0.000000
vn 0.641505 0.441140 0.627588
vn 0.641505 0.068245 0.764077
vn 1.000000 0.000000 0.000000
vn 0.641505 0.068245 0.764077
vn 0.641505 -0.322937 0.695833
vn 1.000000 0.000000 0.000000
vn 0.641505 -0.322937 0.695833
vn 0.641505 -0.627588 0.441140
vn 1.000000 0.000000 0.000000
vn 0.641505 -0.627588 0.441140
vn 0.641505 -0.764077 0.068245
vn 1.000000 0.000000 0.000000
vn 0.641505 -0.764077 0.068245
vn 0.641505 -0.695833 -0.322937
vn 1.000000 0.000000 0.000000
vn 0.641505 -0.695833 -0.322937
vn 0.641505 -0.441140 -0.627588
vn 1.000000 0.000000 0.000000
vn 0.641505 -0.441140 -0.627588
vn 0.641505 -0.068245 -0.764077
vn 1.000000 0.000000 0.000000
vn 0.641505 -0.068245 -0.764077
vn 0.641505 0.322937 -0.695833
vn 1.000000 0.000000 0.000000
vn 0.641505 0.322937 -0.695833
vn 0.641505 0.627588 -0.441140
vn 1.000000 0.000000 0.000000
vn 0.641505 0.627588 -0.441140
vn 0.641505 0.764077 -0.068245
usemtl M_Emissive
f 1/1/1 2/2/2 14/3/3
f 1/1/4 14/2/5 13/3/6
f 2/1/7 3/2/8 15/3/9
f 2/1/10 15/2/11 14/3/12
f 3/1/13 4/2/14 16/3/15
f 3/1/16 16/2/17 15/3/18
f 4/1/19 5/2/20 17/3/21
f 4/1/22 17/2/23 16/3/24
f 5/1/25 6/2/26 18/3/27
f 5/1/28 18/2/29 17/3/30
f 6/1/31 7/2/32 19/3/33
f 6/1/34 19/2/35 18/3/36
f 7/1/37 8/2/38 20/3/39
f 7/1/40 20/2/41 19/3/42
f 8/1/43 9/2/44 21/3/45
f 8/1/46 21/2/47 20/3/48
f 9/1/49 10/2/50 22/3/51
f 9/1/52 22/2/53 21/3/54
f 10/1/55 11/2/56 23/3/57
f 10/1/58 23/2/59 22/3/60
f 11/1/61 12/2/62 24/3/63
f 11/1/64 24/2/65 23/3/66
f 12/1/67 1/2/68 13/3/69
f 12/1/70 13/2/71 24/3/72
f 13/1/73 14/2/74 26/3/75
f 13/1/76 26/2/77 25/3/78
f 14/1/79 15/2/80 27/3/81
f 14/1/82 27/2/83 26/3/84
f 15/1/85 16/2/86 28/3/87
f 15/1/88 28/2/89 27/3/90
f 16/1/91 17/2/92 29/3/93
f 16/1/94 29/2/95 28/3/96
f 17/1/97 18/2/98 30/3/99
f 17/1/100 30/2/101 29/3/102
f 18/1/103 19/2/104 31/3/105
f 18/1/106 31/2/107 30/3/108
f 19/1/109 20/2/110 32/3/111
f 19/1/112 32/2/113 31/3/114
f 20/1/115 21/2/116 33/3/117
f 20/1/118 33/2/119 32/3/120
f 21/1/121 22/2/122 34/3/123
f 21/1/124 34/2/125 33/3/126
f 22/1/127 23/2/128 35/3/129
f 22/1/130 35/2/131 34/3/132
f 23/1/133 24/2/134 36/3/135
f 23/1/136 36/2/137 35/3/138
f 24/1/139 13/2/140 25/3/141
f 24/1/142 25/2/143 36/3/144
f 25/1/145 26/2/146 38/3/147
f 25/1/148 38/2/149 37/3/150
f 26/1/151 27/2/152 39/3/153
f 26/1/154 39/2/155 38/3/156
f 27/1/157 28/2/158 40/3/159
f 27/1/160 40/2/161 39/3/162
f 28/1/163 29/2/164 41/3/165
f 28/1/166 41/2/167 40/3/168
f 29/1/169 30/2/170 42/3/171
f 29/1/172 42/2/173 41/3/174
f 30/1/175 31/2/176 43/3/177
f 30/1/178 43/2/179 42/3/180
f 31/1/181 32/2/182 44/3/183
f 31/1/184 44/2/185 43/3/186
f 32/1/187 33/2/188 45/3/189
f 32/1/190 45/2/191 44/3/192
f 33/1/193 34/2/194 46/3/195
f 33/1/196 46/2/197 45/3/198
f 34/1/199 35/2/200 47/3/201
f 34/1/202 47/2/203 46/3/204
f 35/1/205 36/2/206 48/3/207
f 35/1/208 48/2/209 47/3/210
f 36/1/211 25/2/212 37/3/213
f 36/1/214 37/2/215 48/3/216
f 2/1/217 1/2/218 49/3/219
f 3/1/220 2/2/221 49/3/222
f 4/1/223 3/2/224 49/3/225
f 5/1/226 4/2/227 49/3/228
f 6/1/229 5/2/230 49/3/231
f 7/1/232 6/2/233 49/3/234
f 8/1/235 7/2/236 49/3/237
f 9/1/238 8/2/239 49/3/240
f 10/1/241 9/2/242 49/3/243
f 11/1/244 10/2/245 49/3/246
f 12/1/247 11/2/248 49/3/249
f 1/1/250 12/2/251 49/3/252
f 50/1/253 37/2/254 38/3/255
f 50/1/256 38/2/257 39/3/258
f 50/1/259 39/2/260 40/3/261
f 50/1/262 40/2/263 41/3/264
f 50/1/265 41/2/266 42/3/267
f 50/1/268 42/2/269 43/3/270
f 50/1/271 43/2/272 44/3/273
f 50/1/274 44/2/275 45/3/276
f 50/1/277 45/2/278 46/3/279
f 50/1/280 46/2/281 47/3/282
f 50/1/283 47/2/284 48/3/285
f 50/1/286 48/2/287 37/3/288
