# Original SpaceSurvival generated source; centimeters; X forward; Z up
mtllib Palette.mtl
o SM_PickupCredit
v 33.000000 0.000000 0.000000
v 30.656854 0.000000 5.656854
v 25.000000 0.000000 8.000000
v 19.343146 0.000000 5.656854
v 17.000000 0.000000 0.000000
v 19.343146 0.000000 -5.656854
v 25.000000 0.000000 -8.000000
v 30.656854 0.000000 -5.656854
v 31.875552 8.541028 0.000000
v 29.612247 7.934578 5.656854
v 24.148146 6.470476 8.000000
v 18.684044 5.006375 5.656854
v 16.420739 4.399924 0.000000
v 18.684044 5.006375 -5.656854
v 24.148146 6.470476 -8.000000
v 29.612247 7.934578 -5.656854
v 28.578838 16.500000 0.000000
v 26.549615 15.328427 5.656854
v 21.650635 12.500000 8.000000
v 16.751656 9.671573 5.656854
v 14.722432 8.500000 0.000000
v 16.751656 9.671573 -5.656854
v 21.650635 12.500000 -8.000000
v 26.549615 15.328427 -5.656854
v 23.334524 23.334524 0.000000
v 21.677670 21.677670 5.656854
v 17.677670 17.677670 8.000000
v 13.677670 13.677670 5.656854
v 12.020815 12.020815 0.000000
v 13.677670 13.677670 -5.656854
v 17.677670 17.677670 -8.000000
v 21.677670 21.677670 -5.656854
v 16.500000 28.578838 0.000000
v 15.328427 26.549615 5.656854
v 12.500000 21.650635 8.000000
v 9.671573 16.751656 5.656854
v 8.500000 14.722432 0.000000
v 9.671573 16.751656 -5.656854
v 12.500000 21.650635 -8.000000
v 15.328427 26.549615 -5.656854
v 8.541028 31.875552 0.000000
v 7.934578 29.612247 5.656854
v 6.470476 24.148146 8.000000
v 5.006375 18.684044 5.656854
v 4.399924 16.420739 0.000000
v 5.006375 18.684044 -5.656854
v 6.470476 24.148146 -8.000000
v 7.934578 29.612247 -5.656854
v 0.000000 33.000000 0.000000
v 0.000000 30.656854 5.656854
v 0.000000 25.000000 8.000000
v 0.000000 19.343146 5.656854
v 0.000000 17.000000 0.000000
v 0.000000 19.343146 -5.656854
v 0.000000 25.000000 -8.000000
v 0.000000 30.656854 -5.656854
v -8.541028 31.875552 0.000000
v -7.934578 29.612247 5.656854
v -6.470476 24.148146 8.000000
v -5.006375 18.684044 5.656854
v -4.399924 16.420739 0.000000
v -5.006375 18.684044 -5.656854
v -6.470476 24.148146 -8.000000
v -7.934578 29.612247 -5.656854
v -16.500000 28.578838 0.000000
v -15.328427 26.549615 5.656854
v -12.500000 21.650635 8.000000
v -9.671573 16.751656 5.656854
v -8.500000 14.722432 0.000000
v -9.671573 16.751656 -5.656854
v -12.500000 21.650635 -8.000000
v -15.328427 26.549615 -5.656854
v -23.334524 23.334524 0.000000
v -21.677670 21.677670 5.656854
v -17.677670 17.677670 8.000000
v -13.677670 13.677670 5.656854
v -12.020815 12.020815 0.000000
v -13.677670 13.677670 -5.656854
v -17.677670 17.677670 -8.000000
v -21.677670 21.677670 -5.656854
v -28.578838 16.500000 0.000000
v -26.549615 15.328427 5.656854
v -21.650635 12.500000 8.000000
v -16.751656 9.671573 5.656854
v -14.722432 8.500000 0.000000
v -16.751656 9.671573 -5.656854
v -21.650635 12.500000 -8.000000
v -26.549615 15.328427 -5.656854
v -31.875552 8.541028 0.000000
v -29.612247 7.934578 5.656854
v -24.148146 6.470476 8.000000
v -18.684044 5.006375 5.656854
v -16.420739 4.399924 0.000000
v -18.684044 5.006375 -5.656854
v -24.148146 6.470476 -8.000000
v -29.612247 7.934578 -5.656854
v -33.000000 0.000000 0.000000
v -30.656854 0.000000 5.656854
v -25.000000 0.000000 8.000000
v -19.343146 0.000000 5.656854
v -17.000000 0.000000 0.000000
v -19.343146 0.000000 -5.656854
v -25.000000 0.000000 -8.000000
v -30.656854 0.000000 -5.656854
v -31.875552 -8.541028 0.000000
v -29.612247 -7.934578 5.656854
v -24.148146 -6.470476 8.000000
v -18.684044 -5.006375 5.656854
v -16.420739 -4.399924 0.000000
v -18.684044 -5.006375 -5.656854
v -24.148146 -6.470476 -8.000000
v -29.612247 -7.934578 -5.656854
v -28.578838 -16.500000 0.000000
v -26.549615 -15.328427 5.656854
v -21.650635 -12.500000 8.000000
v -16.751656 -9.671573 5.656854
v -14.722432 -8.500000 0.000000
v -16.751656 -9.671573 -5.656854
v -21.650635 -12.500000 -8.000000
v -26.549615 -15.328427 -5.656854
v -23.334524 -23.334524 0.000000
v -21.677670 -21.677670 5.656854
v -17.677670 -17.677670 8.000000
v -13.677670 -13.677670 5.656854
v -12.020815 -12.020815 0.000000
v -13.677670 -13.677670 -5.656854
v -17.677670 -17.677670 -8.000000
v -21.677670 -21.677670 -5.656854
v -16.500000 -28.578838 0.000000
v -15.328427 -26.549615 5.656854
v -12.500000 -21.650635 8.000000
v -9.671573 -16.751656 5.656854
v -8.500000 -14.722432 0.000000
v -9.671573 -16.751656 -5.656854
v -12.500000 -21.650635 -8.000000
v -15.328427 -26.549615 -5.656854
v -8.541028 -31.875552 0.000000
v -7.934578 -29.612247 5.656854
v -6.470476 -24.148146 8.000000
v -5.006375 -18.684044 5.656854
v -4.399924 -16.420739 0.000000
v -5.006375 -18.684044 -5.656854
v -6.470476 -24.148146 -8.000000
v -7.934578 -29.612247 -5.656854
v 0.000000 -33.000000 0.000000
v 0.000000 -30.656854 5.656854
v 0.000000 -25.000000 8.000000
v 0.000000 -19.343146 5.656854
v 0.000000 -17.000000 0.000000
v 0.000000 -19.343146 -5.656854
v 0.000000 -25.000000 -8.000000
v 0.000000 -30.656854 -5.656854
v 8.541028 -31.875552 0.000000
v 7.934578 -29.612247 5.656854
v 6.470476 -24.148146 8.000000
v 5.006375 -18.684044 5.656854
v 4.399924 -16.420739 0.000000
v 5.006375 -18.684044 -5.656854
v 6.470476 -24.148146 -8.000000
v 7.934578 -29.612247 -5.656854
v 16.500000 -28.578838 0.000000
v 15.328427 -26.549615 5.656854
v 12.500000 -21.650635 8.000000
v 9.671573 -16.751656 5.656854
v 8.500000 -14.722432 0.000000
v 9.671573 -16.751656 -5.656854
v 12.500000 -21.650635 -8.000000
v 15.328427 -26.549615 -5.656854
v 23.334524 -23.334524 0.000000
v 21.677670 -21.677670 5.656854
v 17.677670 -17.677670 8.000000
v 13.677670 -13.677670 5.656854
v 12.020815 -12.020815 0.000000
v 13.677670 -13.677670 -5.656854
v 17.677670 -17.677670 -8.000000
v 21.677670 -21.677670 -5.656854
v 28.578838 -16.500000 0.000000
v 26.549615 -15.328427 5.656854
v 21.650635 -12.500000 8.000000
v 16.751656 -9.671573 5.656854
v 14.722432 -8.500000 0.000000
v 16.751656 -9.671573 -5.656854
v 21.650635 -12.500000 -8.000000
v 26.549615 -15.328427 -5.656854
v 31.875552 -8.541028 0.000000
v 29.612247 -7.934578 5.656854
v 24.148146 -6.470476 8.000000
v 18.684044 -5.006375 5.656854
v 16.420739 -4.399924 0.000000
v 18.684044 -5.006375 -5.656854
v 24.148146 -6.470476 -8.000000
v 29.612247 -7.934578 -5.656854
v -5.500000 -15.000000 -6.000000
v 5.500000 -15.000000 -6.000000
v 5.500000 15.000000 -6.000000
v -5.500000 15.000000 -6.000000
v -5.500000 -15.000000 6.000000
v 5.500000 -15.000000 6.000000
v 5.500000 15.000000 6.000000
v -5.500000 15.000000 6.000000
vt 0.05 0.05
vt 0.95 0.05
vt 0.05 0.95
vn 1.000000 0.000000 0.000000
vn 0.965926 0.258819 0.000000
vn 0.685399 0.170444 0.707938
vn 1.000000 0.000000 0.000000
vn 0.685399 0.170444 0.707938
vn 0.706159 -0.012758 0.707938
vn 0.706159 -0.012758 0.707938
vn 0.685399 0.170444 0.707938
vn 0.004704 -0.017555 0.999835
vn 0.706159 -0.012758 0.707938
vn 0.004704 -0.017555 0.999835
vn 0.000000 -0.018174 0.999835
vn 0.000000 -0.018174 0.999835
vn 0.004704 -0.017555 0.999835
vn -0.678795 -0.195091 0.707938
vn 0.000000 -0.018174 0.999835
vn -0.678795 -0.195091 0.707938
vn -0.706159 -0.012758 0.707938
vn -0.706159 -0.012758 0.707938
vn -0.678795 -0.195091 0.707938
vn -0.965926 -0.258819 0.000000
vn -0.706159 -0.012758 0.707938
vn -0.965926 -0.258819 0.000000
vn -1.000000 0.000000 0.000000
vn -1.000000 0.000000 0.000000
vn -0.965926 -0.258819 0.000000
vn -0.685399 -0.170444 -0.707938
vn -1.000000 0.000000 0.000000
vn -0.685399 -0.170444 -0.707938
vn -0.706159 0.012758 -0.707938
vn -0.706159 0.012758 -0.707938
vn -0.685399 -0.170444 -0.707938
vn -0.004704 0.017555 -0.999835
vn -0.706159 0.012758 -0.707938
vn -0.004704 0.017555 -0.999835
vn 0.000000 0.018174 -0.999835
vn 0.000000 0.018174 -0.999835
vn -0.004704 0.017555 -0.999835
vn 0.678795 0.195091 -0.707938
vn 0.000000 0.018174 -0.999835
vn 0.678795 0.195091 -0.707938
vn 0.706159 0.012758 -0.707938
vn 0.706159 0.012758 -0.707938
vn 0.678795 0.195091 -0.707938
vn 0.965926 0.258819 0.000000
vn 0.706159 0.012758 -0.707938
vn 0.965926 0.258819 0.000000
vn 1.000000 0.000000 0.000000
vn 0.965926 0.258819 0.000000
vn 0.866025 0.500000 0.000000
vn 0.617931 0.342031 0.707938
vn 0.965926 0.258819 0.000000
vn 0.617931 0.342031 0.707938
vn 0.685399 0.170444 0.707938
vn 0.685399 0.170444 0.707938
vn 0.617931 0.342031 0.707938
vn 0.009087 -0.015740 0.999835
vn 0.685399 0.170444 0.707938
vn 0.009087 -0.015740 0.999835
vn 0.004704 -0.017555 0.999835
vn 0.004704 -0.017555 0.999835
vn 0.009087 -0.015740 0.999835
vn -0.605173 -0.364128 0.707938
vn 0.004704 -0.017555 0.999835
vn -0.605173 -0.364128 0.707938
vn -0.678795 -0.195091 0.707938
vn -0.678795 -0.195091 0.707938
vn -0.605173 -0.364128 0.707938
vn -0.866025 -0.500000 0.000000
vn -0.678795 -0.195091 0.707938
vn -0.866025 -0.500000 0.000000
vn -0.965926 -0.258819 0.000000
vn -0.965926 -0.258819 0.000000
vn -0.866025 -0.500000 0.000000
vn -0.617931 -0.342031 -0.707938
vn -0.965926 -0.258819 0.000000
vn -0.617931 -0.342031 -0.707938
vn -0.685399 -0.170444 -0.707938
vn -0.685399 -0.170444 -0.707938
vn -0.617931 -0.342031 -0.707938
vn -0.009087 0.015740 -0.999835
vn -0.685399 -0.170444 -0.707938
vn -0.009087 0.015740 -0.999835
vn -0.004704 0.017555 -0.999835
vn -0.004704 0.017555 -0.999835
vn -0.009087 0.015740 -0.999835
vn 0.605173 0.364128 -0.707938
vn -0.004704 0.017555 -0.999835
vn 0.605173 0.364128 -0.707938
vn 0.678795 0.195091 -0.707938
vn 0.678795 0.195091 -0.707938
vn 0.605173 0.364128 -0.707938
vn 0.866025 0.500000 0.000000
vn 0.678795 0.195091 -0.707938
vn 0.866025 0.500000 0.000000
vn 0.965926 0.258819 0.000000
vn 0.866025 0.500000 0.000000
vn 0.707107 0.707107 0.000000
vn 0.508351 0.490309 0.707938
vn 0.866025 0.500000 0.000000
vn 0.508351 0.490309 0.707938
vn 0.617931 0.342031 0.707938
vn 0.617931 0.342031 0.707938
vn 0.508351 0.490309 0.707938
vn 0.012851 -0.012851 0.999835
vn 0.617931 0.342031 0.707938
vn 0.012851 -0.012851 0.999835
vn 0.009087 -0.015740 0.999835
vn 0.009087 -0.015740 0.999835
vn 0.012851 -0.012851 0.999835
vn -0.490309 -0.508351 0.707938
vn 0.009087 -0.015740 0.999835
vn -0.490309 -0.508351 0.707938
vn -0.605173 -0.364128 0.707938
vn -0.605173 -0.364128 0.707938
vn -0.490309 -0.508351 0.707938
vn -0.707107 -0.707107 0.000000
vn -0.605173 -0.364128 0.707938
vn -0.707107 -0.707107 0.000000
vn -0.866025 -0.500000 0.000000
vn -0.866025 -0.500000 0.000000
vn -0.707107 -0.707107 0.000000
vn -0.508351 -0.490309 -0.707938
vn -0.866025 -0.500000 0.000000
vn -0.508351 -0.490309 -0.707938
vn -0.617931 -0.342031 -0.707938
vn -0.617931 -0.342031 -0.707938
vn -0.508351 -0.490309 -0.707938
vn -0.012851 0.012851 -0.999835
vn -0.617931 -0.342031 -0.707938
vn -0.012851 0.012851 -0.999835
vn -0.009087 0.015740 -0.999835
vn -0.009087 0.015740 -0.999835
vn -0.012851 0.012851 -0.999835
vn 0.490309 0.508351 -0.707938
vn -0.009087 0.015740 -0.999835
vn 0.490309 0.508351 -0.707938
vn 0.605173 0.364128 -0.707938
vn 0.605173 0.364128 -0.707938
vn 0.490309 0.508351 -0.707938
vn 0.707107 0.707107 0.000000
vn 0.605173 0.364128 -0.707938
vn 0.707107 0.707107 0.000000
vn 0.866025 0.500000 0.000000
vn 0.707107 0.707107 0.000000
vn 0.500000 0.866025 0.000000
vn 0.364128 0.605173 0.707938
vn 0.707107 0.707107 0.000000
vn 0.364128 0.605173 0.707938
vn 0.508351 0.490309 0.707938
vn 0.508351 0.490309 0.707938
vn 0.364128 0.605173 0.707938
vn 0.015740 -0.009087 0.999835
vn 0.508351 0.490309 0.707938
vn 0.015740 -0.009087 0.999835
vn 0.012851 -0.012851 0.999835
vn 0.012851 -0.012851 0.999835
vn 0.015740 -0.009087 0.999835
vn -0.342031 -0.617931 0.707938
vn 0.012851 -0.012851 0.999835
vn -0.342031 -0.617931 0.707938
vn -0.490309 -0.508351 0.707938
vn -0.490309 -0.508351 0.707938
vn -0.342031 -0.617931 0.707938
vn -0.500000 -0.866025 0.000000
vn -0.490309 -0.508351 0.707938
vn -0.500000 -0.866025 0.000000
vn -0.707107 -0.707107 0.000000
vn -0.707107 -0.707107 0.000000
vn -0.500000 -0.866025 0.000000
vn -0.364128 -0.605173 -0.707938
vn -0.707107 -0.707107 0.000000
vn -0.364128 -0.605173 -0.707938
vn -0.508351 -0.490309 -0.707938
vn -0.508351 -0.490309 -0.707938
vn -0.364128 -0.605173 -0.707938
vn -0.015740 0.009087 -0.999835
vn -0.508351 -0.490309 -0.707938
vn -0.015740 0.009087 -0.999835
vn -0.012851 0.012851 -0.999835
vn -0.012851 0.012851 -0.999835
vn -0.015740 0.009087 -0.999835
vn 0.342031 0.617931 -0.707938
vn -0.012851 0.012851 -0.999835
vn 0.342031 0.617931 -0.707938
vn 0.490309 0.508351 -0.707938
vn 0.490309 0.508351 -0.707938
vn 0.342031 0.617931 -0.707938
vn 0.500000 0.866025 0.000000
vn 0.490309 0.508351 -0.707938
vn 0.500000 0.866025 0.000000
vn 0.707107 0.707107 0.000000
vn 0.500000 0.866025 0.000000
vn 0.258819 0.965926 0.000000
vn 0.195091 0.678795 0.707938
vn 0.500000 0.866025 0.000000
vn 0.195091 0.678795 0.707938
vn 0.364128 0.605173 0.707938
vn 0.364128 0.605173 0.707938
vn 0.195091 0.678795 0.707938
vn 0.017555 -0.004704 0.999835
vn 0.364128 0.605173 0.707938
vn 0.017555 -0.004704 0.999835
vn 0.015740 -0.009087 0.999835
vn 0.015740 -0.009087 0.999835
vn 0.017555 -0.004704 0.999835
vn -0.170444 -0.685399 0.707938
vn 0.015740 -0.009087 0.999835
vn -0.170444 -0.685399 0.707938
vn -0.342031 -0.617931 0.707938
vn -0.342031 -0.617931 0.707938
vn -0.170444 -0.685399 0.707938
vn -0.258819 -0.965926 0.000000
vn -0.342031 -0.617931 0.707938
vn -0.258819 -0.965926 0.000000
vn -0.500000 -0.866025 0.000000
vn -0.500000 -0.866025 0.000000
vn -0.258819 -0.965926 0.000000
vn -0.195091 -0.678795 -0.707938
vn -0.500000 -0.866025 0.000000
vn -0.195091 -0.678795 -0.707938
vn -0.364128 -0.605173 -0.707938
vn -0.364128 -0.605173 -0.707938
vn -0.195091 -0.678795 -0.707938
vn -0.017555 0.004704 -0.999835
vn -0.364128 -0.605173 -0.707938
vn -0.017555 0.004704 -0.999835
vn -0.015740 0.009087 -0.999835
vn -0.015740 0.009087 -0.999835
vn -0.017555 0.004704 -0.999835
vn 0.170444 0.685399 -0.707938
vn -0.015740 0.009087 -0.999835
vn 0.170444 0.685399 -0.707938
vn 0.342031 0.617931 -0.707938
vn 0.342031 0.617931 -0.707938
vn 0.170444 0.685399 -0.707938
vn 0.258819 0.965926 0.000000
vn 0.342031 0.617931 -0.707938
vn 0.258819 0.965926 0.000000
vn 0.500000 0.866025 0.000000
vn 0.258819 0.965926 0.000000
vn 0.000000 1.000000 0.000000
vn 0.012758 0.706159 0.707938
vn 0.258819 0.965926 0.000000
vn 0.012758 0.706159 0.707938
vn 0.195091 0.678795 0.707938
vn 0.195091 0.678795 0.707938
vn 0.012758 0.706159 0.707938
vn 0.018174 0.000000 0.999835
vn 0.195091 0.678795 0.707938
vn 0.018174 0.000000 0.999835
vn 0.017555 -0.004704 0.999835
vn 0.017555 -0.004704 0.999835
vn 0.018174 0.000000 0.999835
vn 0.012758 -0.706159 0.707938
vn 0.017555 -0.004704 0.999835
vn 0.012758 -0.706159 0.707938
vn -0.170444 -0.685399 0.707938
vn -0.170444 -0.685399 0.707938
vn 0.012758 -0.706159 0.707938
vn 0.000000 -1.000000 0.000000
vn -0.170444 -0.685399 0.707938
vn 0.000000 -1.000000 0.000000
vn -0.258819 -0.965926 0.000000
vn -0.258819 -0.965926 0.000000
vn 0.000000 -1.000000 0.000000
vn -0.012758 -0.706159 -0.707938
vn -0.258819 -0.965926 0.000000
vn -0.012758 -0.706159 -0.707938
vn -0.195091 -0.678795 -0.707938
vn -0.195091 -0.678795 -0.707938
vn -0.012758 -0.706159 -0.707938
vn -0.018174 0.000000 -0.999835
vn -0.195091 -0.678795 -0.707938
vn -0.018174 0.000000 -0.999835
vn -0.017555 0.004704 -0.999835
vn -0.017555 0.004704 -0.999835
vn -0.018174 0.000000 -0.999835
vn -0.012758 0.706159 -0.707938
vn -0.017555 0.004704 -0.999835
vn -0.012758 0.706159 -0.707938
vn 0.170444 0.685399 -0.707938
vn 0.170444 0.685399 -0.707938
vn -0.012758 0.706159 -0.707938
vn 0.000000 1.000000 0.000000
vn 0.170444 0.685399 -0.707938
vn 0.000000 1.000000 0.000000
vn 0.258819 0.965926 0.000000
vn 0.000000 1.000000 0.000000
vn -0.258819 0.965926 0.000000
vn -0.170444 0.685399 0.707938
vn 0.000000 1.000000 0.000000
vn -0.170444 0.685399 0.707938
vn 0.012758 0.706159 0.707938
vn 0.012758 0.706159 0.707938
vn -0.170444 0.685399 0.707938
vn 0.017555 0.004704 0.999835
vn 0.012758 0.706159 0.707938
vn 0.017555 0.004704 0.999835
vn 0.018174 0.000000 0.999835
vn 0.018174 0.000000 0.999835
vn 0.017555 0.004704 0.999835
vn 0.195091 -0.678795 0.707938
vn 0.018174 0.000000 0.999835
vn 0.195091 -0.678795 0.707938
vn 0.012758 -0.706159 0.707938
vn 0.012758 -0.706159 0.707938
vn 0.195091 -0.678795 0.707938
vn 0.258819 -0.965926 0.000000
vn 0.012758 -0.706159 0.707938
vn 0.258819 -0.965926 0.000000
vn 0.000000 -1.000000 0.000000
vn 0.000000 -1.000000 0.000000
vn 0.258819 -0.965926 0.000000
vn 0.170444 -0.685399 -0.707938
vn 0.000000 -1.000000 0.000000
vn 0.170444 -0.685399 -0.707938
vn -0.012758 -0.706159 -0.707938
vn -0.012758 -0.706159 -0.707938
vn 0.170444 -0.685399 -0.707938
vn -0.017555 -0.004704 -0.999835
vn -0.012758 -0.706159 -0.707938
vn -0.017555 -0.004704 -0.999835
vn -0.018174 0.000000 -0.999835
vn -0.018174 0.000000 -0.999835
vn -0.017555 -0.004704 -0.999835
vn -0.195091 0.678795 -0.707938
vn -0.018174 0.000000 -0.999835
vn -0.195091 0.678795 -0.707938
vn -0.012758 0.706159 -0.707938
vn -0.012758 0.706159 -0.707938
vn -0.195091 0.678795 -0.707938
vn -0.258819 0.965926 0.000000
vn -0.012758 0.706159 -0.707938
vn -0.258819 0.965926 0.000000
vn 0.000000 1.000000 0.000000
vn -0.258819 0.965926 0.000000
vn -0.500000 0.866025 0.000000
vn -0.342031 0.617931 0.707938
vn -0.258819 0.965926 0.000000
vn -0.342031 0.617931 0.707938
vn -0.170444 0.685399 0.707938
vn -0.170444 0.685399 0.707938
vn -0.342031 0.617931 0.707938
vn 0.015740 0.009087 0.999835
vn -0.170444 0.685399 0.707938
vn 0.015740 0.009087 0.999835
vn 0.017555 0.004704 0.999835
vn 0.017555 0.004704 0.999835
vn 0.015740 0.009087 0.999835
vn 0.364128 -0.605173 0.707938
vn 0.017555 0.004704 0.999835
vn 0.364128 -0.605173 0.707938
vn 0.195091 -0.678795 0.707938
vn 0.195091 -0.678795 0.707938
vn 0.364128 -0.605173 0.707938
vn 0.500000 -0.866025 0.000000
vn 0.195091 -0.678795 0.707938
vn 0.500000 -0.866025 0.000000
vn 0.258819 -0.965926 0.000000
vn 0.258819 -0.965926 0.000000
vn 0.500000 -0.866025 0.000000
vn 0.342031 -0.617931 -0.707938
vn 0.258819 -0.965926 0.000000
vn 0.342031 -0.617931 -0.707938
vn 0.170444 -0.685399 -0.707938
vn 0.170444 -0.685399 -0.707938
vn 0.342031 -0.617931 -0.707938
vn -0.015740 -0.009087 -0.999835
vn 0.170444 -0.685399 -0.707938
vn -0.015740 -0.009087 -0.999835
vn -0.017555 -0.004704 -0.999835
vn -0.017555 -0.004704 -0.999835
vn -0.015740 -0.009087 -0.999835
vn -0.364128 0.605173 -0.707938
vn -0.017555 -0.004704 -0.999835
vn -0.364128 0.605173 -0.707938
vn -0.195091 0.678795 -0.707938
vn -0.195091 0.678795 -0.707938
vn -0.364128 0.605173 -0.707938
vn -0.500000 0.866025 0.000000
vn -0.195091 0.678795 -0.707938
vn -0.500000 0.866025 0.000000
vn -0.258819 0.965926 0.000000
vn -0.500000 0.866025 0.000000
vn -0.707107 0.707107 0.000000
vn -0.490309 0.508351 0.707938
vn -0.500000 0.866025 0.000000
vn -0.490309 0.508351 0.707938
vn -0.342031 0.617931 0.707938
vn -0.342031 0.617931 0.707938
vn -0.490309 0.508351 0.707938
vn 0.012851 0.012851 0.999835
vn -0.342031 0.617931 0.707938
vn 0.012851 0.012851 0.999835
vn 0.015740 0.009087 0.999835
vn 0.015740 0.009087 0.999835
vn 0.012851 0.012851 0.999835
vn 0.508351 -0.490309 0.707938
vn 0.015740 0.009087 0.999835
vn 0.508351 -0.490309 0.707938
vn 0.364128 -0.605173 0.707938
vn 0.364128 -0.605173 0.707938
vn 0.508351 -0.490309 0.707938
vn 0.707107 -0.707107 0.000000
vn 0.364128 -0.605173 0.707938
vn 0.707107 -0.707107 0.000000
vn 0.500000 -0.866025 0.000000
vn 0.500000 -0.866025 0.000000
vn 0.707107 -0.707107 0.000000
vn 0.490309 -0.508351 -0.707938
vn 0.500000 -0.866025 0.000000
vn 0.490309 -0.508351 -0.707938
vn 0.342031 -0.617931 -0.707938
vn 0.342031 -0.617931 -0.707938
vn 0.490309 -0.508351 -0.707938
vn -0.012851 -0.012851 -0.999835
vn 0.342031 -0.617931 -0.707938
vn -0.012851 -0.012851 -0.999835
vn -0.015740 -0.009087 -0.999835
vn -0.015740 -0.009087 -0.999835
vn -0.012851 -0.012851 -0.999835
vn -0.508351 0.490309 -0.707938
vn -0.015740 -0.009087 -0.999835
vn -0.508351 0.490309 -0.707938
vn -0.364128 0.605173 -0.707938
vn -0.364128 0.605173 -0.707938
vn -0.508351 0.490309 -0.707938
vn -0.707107 0.707107 0.000000
vn -0.364128 0.605173 -0.707938
vn -0.707107 0.707107 0.000000
vn -0.500000 0.866025 0.000000
vn -0.707107 0.707107 0.000000
vn -0.866025 0.500000 0.000000
vn -0.605173 0.364128 0.707938
vn -0.707107 0.707107 0.000000
vn -0.605173 0.364128 0.707938
vn -0.490309 0.508351 0.707938
vn -0.490309 0.508351 0.707938
vn -0.605173 0.364128 0.707938
vn 0.009087 0.015740 0.999835
vn -0.490309 0.508351 0.707938
vn 0.009087 0.015740 0.999835
vn 0.012851 0.012851 0.999835
vn 0.012851 0.012851 0.999835
vn 0.009087 0.015740 0.999835
vn 0.617931 -0.342031 0.707938
vn 0.012851 0.012851 0.999835
vn 0.617931 -0.342031 0.707938
vn 0.508351 -0.490309 0.707938
vn 0.508351 -0.490309 0.707938
vn 0.617931 -0.342031 0.707938
vn 0.866025 -0.500000 0.000000
vn 0.508351 -0.490309 0.707938
vn 0.866025 -0.500000 0.000000
vn 0.707107 -0.707107 0.000000
vn 0.707107 -0.707107 0.000000
vn 0.866025 -0.500000 0.000000
vn 0.605173 -0.364128 -0.707938
vn 0.707107 -0.707107 0.000000
vn 0.605173 -0.364128 -0.707938
vn 0.490309 -0.508351 -0.707938
vn 0.490309 -0.508351 -0.707938
vn 0.605173 -0.364128 -0.707938
vn -0.009087 -0.015740 -0.999835
vn 0.490309 -0.508351 -0.707938
vn -0.009087 -0.015740 -0.999835
vn -0.012851 -0.012851 -0.999835
vn -0.012851 -0.012851 -0.999835
vn -0.009087 -0.015740 -0.999835
vn -0.617931 0.342031 -0.707938
vn -0.012851 -0.012851 -0.999835
vn -0.617931 0.342031 -0.707938
vn -0.508351 0.490309 -0.707938
vn -0.508351 0.490309 -0.707938
vn -0.617931 0.342031 -0.707938
vn -0.866025 0.500000 0.000000
vn -0.508351 0.490309 -0.707938
vn -0.866025 0.500000 0.000000
vn -0.707107 0.707107 0.000000
vn -0.866025 0.500000 0.000000
vn -0.965926 0.258819 0.000000
vn -0.678795 0.195091 0.707938
vn -0.866025 0.500000 0.000000
vn -0.678795 0.195091 0.707938
vn -0.605173 0.364128 0.707938
vn -0.605173 0.364128 0.707938
vn -0.678795 0.195091 0.707938
vn 0.004704 0.017555 0.999835
vn -0.605173 0.364128 0.707938
vn 0.004704 0.017555 0.999835
vn 0.009087 0.015740 0.999835
vn 0.009087 0.015740 0.999835
vn 0.004704 0.017555 0.999835
vn 0.685399 -0.170444 0.707938
vn 0.009087 0.015740 0.999835
vn 0.685399 -0.170444 0.707938
vn 0.617931 -0.342031 0.707938
vn 0.617931 -0.342031 0.707938
vn 0.685399 -0.170444 0.707938
vn 0.965926 -0.258819 0.000000
vn 0.617931 -0.342031 0.707938
vn 0.965926 -0.258819 0.000000
vn 0.866025 -0.500000 0.000000
vn 0.866025 -0.500000 0.000000
vn 0.965926 -0.258819 0.000000
vn 0.678795 -0.195091 -0.707938
vn 0.866025 -0.500000 0.000000
vn 0.678795 -0.195091 -0.707938
vn 0.605173 -0.364128 -0.707938
vn 0.605173 -0.364128 -0.707938
vn 0.678795 -0.195091 -0.707938
vn -0.004704 -0.017555 -0.999835
vn 0.605173 -0.364128 -0.707938
vn -0.004704 -0.017555 -0.999835
vn -0.009087 -0.015740 -0.999835
vn -0.009087 -0.015740 -0.999835
vn -0.004704 -0.017555 -0.999835
vn -0.685399 0.170444 -0.707938
vn -0.009087 -0.015740 -0.999835
vn -0.685399 0.170444 -0.707938
vn -0.617931 0.342031 -0.707938
vn -0.617931 0.342031 -0.707938
vn -0.685399 0.170444 -0.707938
vn -0.965926 0.258819 0.000000
vn -0.617931 0.342031 -0.707938
vn -0.965926 0.258819 0.000000
vn -0.866025 0.500000 0.000000
vn -0.965926 0.258819 0.000000
vn -1.000000 0.000000 0.000000
vn -0.706159 0.012758 0.707938
vn -0.965926 0.258819 0.000000
vn -0.706159 0.012758 0.707938
vn -0.678795 0.195091 0.707938
vn -0.678795 0.195091 0.707938
vn -0.706159 0.012758 0.707938
vn 0.000000 0.018174 0.999835
vn -0.678795 0.195091 0.707938
vn 0.000000 0.018174 0.999835
vn 0.004704 0.017555 0.999835
vn 0.004704 0.017555 0.999835
vn 0.000000 0.018174 0.999835
vn 0.706159 0.012758 0.707938
vn 0.004704 0.017555 0.999835
vn 0.706159 0.012758 0.707938
vn 0.685399 -0.170444 0.707938
vn 0.685399 -0.170444 0.707938
vn 0.706159 0.012758 0.707938
vn 1.000000 0.000000 0.000000
vn 0.685399 -0.170444 0.707938
vn 1.000000 0.000000 0.000000
vn 0.965926 -0.258819 0.000000
vn 0.965926 -0.258819 0.000000
vn 1.000000 0.000000 0.000000
vn 0.706159 -0.012758 -0.707938
vn 0.965926 -0.258819 0.000000
vn 0.706159 -0.012758 -0.707938
vn 0.678795 -0.195091 -0.707938
vn 0.678795 -0.195091 -0.707938
vn 0.706159 -0.012758 -0.707938
vn 0.000000 -0.018174 -0.999835
vn 0.678795 -0.195091 -0.707938
vn 0.000000 -0.018174 -0.999835
vn -0.004704 -0.017555 -0.999835
vn -0.004704 -0.017555 -0.999835
vn 0.000000 -0.018174 -0.999835
vn -0.706159 -0.012758 -0.707938
vn -0.004704 -0.017555 -0.999835
vn -0.706159 -0.012758 -0.707938
vn -0.685399 0.170444 -0.707938
vn -0.685399 0.170444 -0.707938
vn -0.706159 -0.012758 -0.707938
vn -1.000000 0.000000 0.000000
vn -0.685399 0.170444 -0.707938
vn -1.000000 0.000000 0.000000
vn -0.965926 0.258819 0.000000
vn -1.000000 0.000000 0.000000
vn -0.965926 -0.258819 0.000000
vn -0.685399 -0.170444 0.707938
vn -1.000000 0.000000 0.000000
vn -0.685399 -0.170444 0.707938
vn -0.706159 0.012758 0.707938
vn -0.706159 0.012758 0.707938
vn -0.685399 -0.170444 0.707938
vn -0.004704 0.017555 0.999835
vn -0.706159 0.012758 0.707938
vn -0.004704 0.017555 0.999835
vn 0.000000 0.018174 0.999835
vn 0.000000 0.018174 0.999835
vn -0.004704 0.017555 0.999835
vn 0.678795 0.195091 0.707938
vn 0.000000 0.018174 0.999835
vn 0.678795 0.195091 0.707938
vn 0.706159 0.012758 0.707938
vn 0.706159 0.012758 0.707938
vn 0.678795 0.195091 0.707938
vn 0.965926 0.258819 0.000000
vn 0.706159 0.012758 0.707938
vn 0.965926 0.258819 0.000000
vn 1.000000 0.000000 0.000000
vn 1.000000 0.000000 0.000000
vn 0.965926 0.258819 0.000000
vn 0.685399 0.170444 -0.707938
vn 1.000000 0.000000 0.000000
vn 0.685399 0.170444 -0.707938
vn 0.706159 -0.012758 -0.707938
vn 0.706159 -0.012758 -0.707938
vn 0.685399 0.170444 -0.707938
vn 0.004704 -0.017555 -0.999835
vn 0.706159 -0.012758 -0.707938
vn 0.004704 -0.017555 -0.999835
vn 0.000000 -0.018174 -0.999835
vn 0.000000 -0.018174 -0.999835
vn 0.004704 -0.017555 -0.999835
vn -0.678795 -0.195091 -0.707938
vn 0.000000 -0.018174 -0.999835
vn -0.678795 -0.195091 -0.707938
vn -0.706159 -0.012758 -0.707938
vn -0.706159 -0.012758 -0.707938
vn -0.678795 -0.195091 -0.707938
vn -0.965926 -0.258819 0.000000
vn -0.706159 -0.012758 -0.707938
vn -0.965926 -0.258819 0.000000
vn -1.000000 0.000000 0.000000
vn -0.965926 -0.258819 0.000000
vn -0.866025 -0.500000 0.000000
vn -0.617931 -0.342031 0.707938
vn -0.965926 -0.258819 0.000000
vn -0.617931 -0.342031 0.707938
vn -0.685399 -0.170444 0.707938
vn -0.685399 -0.170444 0.707938
vn -0.617931 -0.342031 0.707938
vn -0.009087 0.015740 0.999835
vn -0.685399 -0.170444 0.707938
vn -0.009087 0.015740 0.999835
vn -0.004704 0.017555 0.999835
vn -0.004704 0.017555 0.999835
vn -0.009087 0.015740 0.999835
vn 0.605173 0.364128 0.707938
vn -0.004704 0.017555 0.999835
vn 0.605173 0.364128 0.707938
vn 0.678795 0.195091 0.707938
vn 0.678795 0.195091 0.707938
vn 0.605173 0.364128 0.707938
vn 0.866025 0.500000 0.000000
vn 0.678795 0.195091 0.707938
vn 0.866025 0.500000 0.000000
vn 0.965926 0.258819 0.000000
vn 0.965926 0.258819 0.000000
vn 0.866025 0.500000 0.000000
vn 0.617931 0.342031 -0.707938
vn 0.965926 0.258819 0.000000
vn 0.617931 0.342031 -0.707938
vn 0.685399 0.170444 -0.707938
vn 0.685399 0.170444 -0.707938
vn 0.617931 0.342031 -0.707938
vn 0.009087 -0.015740 -0.999835
vn 0.685399 0.170444 -0.707938
vn 0.009087 -0.015740 -0.999835
vn 0.004704 -0.017555 -0.999835
vn 0.004704 -0.017555 -0.999835
vn 0.009087 -0.015740 -0.999835
vn -0.605173 -0.364128 -0.707938
vn 0.004704 -0.017555 -0.999835
vn -0.605173 -0.364128 -0.707938
vn -0.678795 -0.195091 -0.707938
vn -0.678795 -0.195091 -0.707938
vn -0.605173 -0.364128 -0.707938
vn -0.866025 -0.500000 0.000000
vn -0.678795 -0.195091 -0.707938
vn -0.866025 -0.500000 0.000000
vn -0.965926 -0.258819 0.000000
vn -0.866025 -0.500000 0.000000
vn -0.707107 -0.707107 0.000000
vn -0.508351 -0.490309 0.707938
vn -0.866025 -0.500000 0.000000
vn -0.508351 -0.490309 0.707938
vn -0.617931 -0.342031 0.707938
vn -0.617931 -0.342031 0.707938
vn -0.508351 -0.490309 0.707938
vn -0.012851 0.012851 0.999835
vn -0.617931 -0.342031 0.707938
vn -0.012851 0.012851 0.999835
vn -0.009087 0.015740 0.999835
vn -0.009087 0.015740 0.999835
vn -0.012851 0.012851 0.999835
vn 0.490309 0.508351 0.707938
vn -0.009087 0.015740 0.999835
vn 0.490309 0.508351 0.707938
vn 0.605173 0.364128 0.707938
vn 0.605173 0.364128 0.707938
vn 0.490309 0.508351 0.707938
vn 0.707107 0.707107 0.000000
vn 0.605173 0.364128 0.707938
vn 0.707107 0.707107 0.000000
vn 0.866025 0.500000 0.000000
vn 0.866025 0.500000 0.000000
vn 0.707107 0.707107 0.000000
vn 0.508351 0.490309 -0.707938
vn 0.866025 0.500000 0.000000
vn 0.508351 0.490309 -0.707938
vn 0.617931 0.342031 -0.707938
vn 0.617931 0.342031 -0.707938
vn 0.508351 0.490309 -0.707938
vn 0.012851 -0.012851 -0.999835
vn 0.617931 0.342031 -0.707938
vn 0.012851 -0.012851 -0.999835
vn 0.009087 -0.015740 -0.999835
vn 0.009087 -0.015740 -0.999835
vn 0.012851 -0.012851 -0.999835
vn -0.490309 -0.508351 -0.707938
vn 0.009087 -0.015740 -0.999835
vn -0.490309 -0.508351 -0.707938
vn -0.605173 -0.364128 -0.707938
vn -0.605173 -0.364128 -0.707938
vn -0.490309 -0.508351 -0.707938
vn -0.707107 -0.707107 0.000000
vn -0.605173 -0.364128 -0.707938
vn -0.707107 -0.707107 0.000000
vn -0.866025 -0.500000 0.000000
vn -0.707107 -0.707107 0.000000
vn -0.500000 -0.866025 0.000000
vn -0.364128 -0.605173 0.707938
vn -0.707107 -0.707107 0.000000
vn -0.364128 -0.605173 0.707938
vn -0.508351 -0.490309 0.707938
vn -0.508351 -0.490309 0.707938
vn -0.364128 -0.605173 0.707938
vn -0.015740 0.009087 0.999835
vn -0.508351 -0.490309 0.707938
vn -0.015740 0.009087 0.999835
vn -0.012851 0.012851 0.999835
vn -0.012851 0.012851 0.999835
vn -0.015740 0.009087 0.999835
vn 0.342031 0.617931 0.707938
vn -0.012851 0.012851 0.999835
vn 0.342031 0.617931 0.707938
vn 0.490309 0.508351 0.707938
vn 0.490309 0.508351 0.707938
vn 0.342031 0.617931 0.707938
vn 0.500000 0.866025 0.000000
vn 0.490309 0.508351 0.707938
vn 0.500000 0.866025 0.000000
vn 0.707107 0.707107 0.000000
vn 0.707107 0.707107 0.000000
vn 0.500000 0.866025 0.000000
vn 0.364128 0.605173 -0.707938
vn 0.707107 0.707107 0.000000
vn 0.364128 0.605173 -0.707938
vn 0.508351 0.490309 -0.707938
vn 0.508351 0.490309 -0.707938
vn 0.364128 0.605173 -0.707938
vn 0.015740 -0.009087 -0.999835
vn 0.508351 0.490309 -0.707938
vn 0.015740 -0.009087 -0.999835
vn 0.012851 -0.012851 -0.999835
vn 0.012851 -0.012851 -0.999835
vn 0.015740 -0.009087 -0.999835
vn -0.342031 -0.617931 -0.707938
vn 0.012851 -0.012851 -0.999835
vn -0.342031 -0.617931 -0.707938
vn -0.490309 -0.508351 -0.707938
vn -0.490309 -0.508351 -0.707938
vn -0.342031 -0.617931 -0.707938
vn -0.500000 -0.866025 0.000000
vn -0.490309 -0.508351 -0.707938
vn -0.500000 -0.866025 0.000000
vn -0.707107 -0.707107 0.000000
vn -0.500000 -0.866025 0.000000
vn -0.258819 -0.965926 0.000000
vn -0.195091 -0.678795 0.707938
vn -0.500000 -0.866025 0.000000
vn -0.195091 -0.678795 0.707938
vn -0.364128 -0.605173 0.707938
vn -0.364128 -0.605173 0.707938
vn -0.195091 -0.678795 0.707938
vn -0.017555 0.004704 0.999835
vn -0.364128 -0.605173 0.707938
vn -0.017555 0.004704 0.999835
vn -0.015740 0.009087 0.999835
vn -0.015740 0.009087 0.999835
vn -0.017555 0.004704 0.999835
vn 0.170444 0.685399 0.707938
vn -0.015740 0.009087 0.999835
vn 0.170444 0.685399 0.707938
vn 0.342031 0.617931 0.707938
vn 0.342031 0.617931 0.707938
vn 0.170444 0.685399 0.707938
vn 0.258819 0.965926 0.000000
vn 0.342031 0.617931 0.707938
vn 0.258819 0.965926 0.000000
vn 0.500000 0.866025 0.000000
vn 0.500000 0.866025 0.000000
vn 0.258819 0.965926 0.000000
vn 0.195091 0.678795 -0.707938
vn 0.500000 0.866025 0.000000
vn 0.195091 0.678795 -0.707938
vn 0.364128 0.605173 -0.707938
vn 0.364128 0.605173 -0.707938
vn 0.195091 0.678795 -0.707938
vn 0.017555 -0.004704 -0.999835
vn 0.364128 0.605173 -0.707938
vn 0.017555 -0.004704 -0.999835
vn 0.015740 -0.009087 -0.999835
vn 0.015740 -0.009087 -0.999835
vn 0.017555 -0.004704 -0.999835
vn -0.170444 -0.685399 -0.707938
vn 0.015740 -0.009087 -0.999835
vn -0.170444 -0.685399 -0.707938
vn -0.342031 -0.617931 -0.707938
vn -0.342031 -0.617931 -0.707938
vn -0.170444 -0.685399 -0.707938
vn -0.258819 -0.965926 0.000000
vn -0.342031 -0.617931 -0.707938
vn -0.258819 -0.965926 0.000000
vn -0.500000 -0.866025 0.000000
vn -0.258819 -0.965926 0.000000
vn 0.000000 -1.000000 0.000000
vn -0.012758 -0.706159 0.707938
vn -0.258819 -0.965926 0.000000
vn -0.012758 -0.706159 0.707938
vn -0.195091 -0.678795 0.707938
vn -0.195091 -0.678795 0.707938
vn -0.012758 -0.706159 0.707938
vn -0.018174 0.000000 0.999835
vn -0.195091 -0.678795 0.707938
vn -0.018174 0.000000 0.999835
vn -0.017555 0.004704 0.999835
vn -0.017555 0.004704 0.999835
vn -0.018174 0.000000 0.999835
vn -0.012758 0.706159 0.707938
vn -0.017555 0.004704 0.999835
vn -0.012758 0.706159 0.707938
vn 0.170444 0.685399 0.707938
vn 0.170444 0.685399 0.707938
vn -0.012758 0.706159 0.707938
vn 0.000000 1.000000 0.000000
vn 0.170444 0.685399 0.707938
vn 0.000000 1.000000 0.000000
vn 0.258819 0.965926 0.000000
vn 0.258819 0.965926 0.000000
vn 0.000000 1.000000 0.000000
vn 0.012758 0.706159 -0.707938
vn 0.258819 0.965926 0.000000
vn 0.012758 0.706159 -0.707938
vn 0.195091 0.678795 -0.707938
vn 0.195091 0.678795 -0.707938
vn 0.012758 0.706159 -0.707938
vn 0.018174 0.000000 -0.999835
vn 0.195091 0.678795 -0.707938
vn 0.018174 0.000000 -0.999835
vn 0.017555 -0.004704 -0.999835
vn 0.017555 -0.004704 -0.999835
vn 0.018174 0.000000 -0.999835
vn 0.012758 -0.706159 -0.707938
vn 0.017555 -0.004704 -0.999835
vn 0.012758 -0.706159 -0.707938
vn -0.170444 -0.685399 -0.707938
vn -0.170444 -0.685399 -0.707938
vn 0.012758 -0.706159 -0.707938
vn 0.000000 -1.000000 0.000000
vn -0.170444 -0.685399 -0.707938
vn 0.000000 -1.000000 0.000000
vn -0.258819 -0.965926 0.000000
vn 0.000000 -1.000000 0.000000
vn 0.258819 -0.965926 0.000000
vn 0.170444 -0.685399 0.707938
vn 0.000000 -1.000000 0.000000
vn 0.170444 -0.685399 0.707938
vn -0.012758 -0.706159 0.707938
vn -0.012758 -0.706159 0.707938
vn 0.170444 -0.685399 0.707938
vn -0.017555 -0.004704 0.999835
vn -0.012758 -0.706159 0.707938
vn -0.017555 -0.004704 0.999835
vn -0.018174 0.000000 0.999835
vn -0.018174 0.000000 0.999835
vn -0.017555 -0.004704 0.999835
vn -0.195091 0.678795 0.707938
vn -0.018174 0.000000 0.999835
vn -0.195091 0.678795 0.707938
vn -0.012758 0.706159 0.707938
vn -0.012758 0.706159 0.707938
vn -0.195091 0.678795 0.707938
vn -0.258819 0.965926 0.000000
vn -0.012758 0.706159 0.707938
vn -0.258819 0.965926 0.000000
vn 0.000000 1.000000 0.000000
vn 0.000000 1.000000 0.000000
vn -0.258819 0.965926 0.000000
vn -0.170444 0.685399 -0.707938
vn 0.000000 1.000000 0.000000
vn -0.170444 0.685399 -0.707938
vn 0.012758 0.706159 -0.707938
vn 0.012758 0.706159 -0.707938
vn -0.170444 0.685399 -0.707938
vn 0.017555 0.004704 -0.999835
vn 0.012758 0.706159 -0.707938
vn 0.017555 0.004704 -0.999835
vn 0.018174 0.000000 -0.999835
vn 0.018174 0.000000 -0.999835
vn 0.017555 0.004704 -0.999835
vn 0.195091 -0.678795 -0.707938
vn 0.018174 0.000000 -0.999835
vn 0.195091 -0.678795 -0.707938
vn 0.012758 -0.706159 -0.707938
vn 0.012758 -0.706159 -0.707938
vn 0.195091 -0.678795 -0.707938
vn 0.258819 -0.965926 0.000000
vn 0.012758 -0.706159 -0.707938
vn 0.258819 -0.965926 0.000000
vn 0.000000 -1.000000 0.000000
vn 0.258819 -0.965926 0.000000
vn 0.500000 -0.866025 0.000000
vn 0.342031 -0.617931 0.707938
vn 0.258819 -0.965926 0.000000
vn 0.342031 -0.617931 0.707938
vn 0.170444 -0.685399 0.707938
vn 0.170444 -0.685399 0.707938
vn 0.342031 -0.617931 0.707938
vn -0.015740 -0.009087 0.999835
vn 0.170444 -0.685399 0.707938
vn -0.015740 -0.009087 0.999835
vn -0.017555 -0.004704 0.999835
vn -0.017555 -0.004704 0.999835
vn -0.015740 -0.009087 0.999835
vn -0.364128 0.605173 0.707938
vn -0.017555 -0.004704 0.999835
vn -0.364128 0.605173 0.707938
vn -0.195091 0.678795 0.707938
vn -0.195091 0.678795 0.707938
vn -0.364128 0.605173 0.707938
vn -0.500000 0.866025 0.000000
vn -0.195091 0.678795 0.707938
vn -0.500000 0.866025 0.000000
vn -0.258819 0.965926 0.000000
vn -0.258819 0.965926 0.000000
vn -0.500000 0.866025 0.000000
vn -0.342031 0.617931 -0.707938
vn -0.258819 0.965926 0.000000
vn -0.342031 0.617931 -0.707938
vn -0.170444 0.685399 -0.707938
vn -0.170444 0.685399 -0.707938
vn -0.342031 0.617931 -0.707938
vn 0.015740 0.009087 -0.999835
vn -0.170444 0.685399 -0.707938
vn 0.015740 0.009087 -0.999835
vn 0.017555 0.004704 -0.999835
vn 0.017555 0.004704 -0.999835
vn 0.015740 0.009087 -0.999835
vn 0.364128 -0.605173 -0.707938
vn 0.017555 0.004704 -0.999835
vn 0.364128 -0.605173 -0.707938
vn 0.195091 -0.678795 -0.707938
vn 0.195091 -0.678795 -0.707938
vn 0.364128 -0.605173 -0.707938
vn 0.500000 -0.866025 0.000000
vn 0.195091 -0.678795 -0.707938
vn 0.500000 -0.866025 0.000000
vn 0.258819 -0.965926 0.000000
vn 0.500000 -0.866025 0.000000
vn 0.707107 -0.707107 0.000000
vn 0.490309 -0.508351 0.707938
vn 0.500000 -0.866025 0.000000
vn 0.490309 -0.508351 0.707938
vn 0.342031 -0.617931 0.707938
vn 0.342031 -0.617931 0.707938
vn 0.490309 -0.508351 0.707938
vn -0.012851 -0.012851 0.999835
vn 0.342031 -0.617931 0.707938
vn -0.012851 -0.012851 0.999835
vn -0.015740 -0.009087 0.999835
vn -0.015740 -0.009087 0.999835
vn -0.012851 -0.012851 0.999835
vn -0.508351 0.490309 0.707938
vn -0.015740 -0.009087 0.999835
vn -0.508351 0.490309 0.707938
vn -0.364128 0.605173 0.707938
vn -0.364128 0.605173 0.707938
vn -0.508351 0.490309 0.707938
vn -0.707107 0.707107 0.000000
vn -0.364128 0.605173 0.707938
vn -0.707107 0.707107 0.000000
vn -0.500000 0.866025 0.000000
vn -0.500000 0.866025 0.000000
vn -0.707107 0.707107 0.000000
vn -0.490309 0.508351 -0.707938
vn -0.500000 0.866025 0.000000
vn -0.490309 0.508351 -0.707938
vn -0.342031 0.617931 -0.707938
vn -0.342031 0.617931 -0.707938
vn -0.490309 0.508351 -0.707938
vn 0.012851 0.012851 -0.999835
vn -0.342031 0.617931 -0.707938
vn 0.012851 0.012851 -0.999835
vn 0.015740 0.009087 -0.999835
vn 0.015740 0.009087 -0.999835
vn 0.012851 0.012851 -0.999835
vn 0.508351 -0.490309 -0.707938
vn 0.015740 0.009087 -0.999835
vn 0.508351 -0.490309 -0.707938
vn 0.364128 -0.605173 -0.707938
vn 0.364128 -0.605173 -0.707938
vn 0.508351 -0.490309 -0.707938
vn 0.707107 -0.707107 0.000000
vn 0.364128 -0.605173 -0.707938
vn 0.707107 -0.707107 0.000000
vn 0.500000 -0.866025 0.000000
vn 0.707107 -0.707107 0.000000
vn 0.866025 -0.500000 0.000000
vn 0.605173 -0.364128 0.707938
vn 0.707107 -0.707107 0.000000
vn 0.605173 -0.364128 0.707938
vn 0.490309 -0.508351 0.707938
vn 0.490309 -0.508351 0.707938
vn 0.605173 -0.364128 0.707938
vn -0.009087 -0.015740 0.999835
vn 0.490309 -0.508351 0.707938
vn -0.009087 -0.015740 0.999835
vn -0.012851 -0.012851 0.999835
vn -0.012851 -0.012851 0.999835
vn -0.009087 -0.015740 0.999835
vn -0.617931 0.342031 0.707938
vn -0.012851 -0.012851 0.999835
vn -0.617931 0.342031 0.707938
vn -0.508351 0.490309 0.707938
vn -0.508351 0.490309 0.707938
vn -0.617931 0.342031 0.707938
vn -0.866025 0.500000 0.000000
vn -0.508351 0.490309 0.707938
vn -0.866025 0.500000 0.000000
vn -0.707107 0.707107 0.000000
vn -0.707107 0.707107 0.000000
vn -0.866025 0.500000 0.000000
vn -0.605173 0.364128 -0.707938
vn -0.707107 0.707107 0.000000
vn -0.605173 0.364128 -0.707938
vn -0.490309 0.508351 -0.707938
vn -0.490309 0.508351 -0.707938
vn -0.605173 0.364128 -0.707938
vn 0.009087 0.015740 -0.999835
vn -0.490309 0.508351 -0.707938
vn 0.009087 0.015740 -0.999835
vn 0.012851 0.012851 -0.999835
vn 0.012851 0.012851 -0.999835
vn 0.009087 0.015740 -0.999835
vn 0.617931 -0.342031 -0.707938
vn 0.012851 0.012851 -0.999835
vn 0.617931 -0.342031 -0.707938
vn 0.508351 -0.490309 -0.707938
vn 0.508351 -0.490309 -0.707938
vn 0.617931 -0.342031 -0.707938
vn 0.866025 -0.500000 0.000000
vn 0.508351 -0.490309 -0.707938
vn 0.866025 -0.500000 0.000000
vn 0.707107 -0.707107 0.000000
vn 0.866025 -0.500000 0.000000
vn 0.965926 -0.258819 0.000000
vn 0.678795 -0.195091 0.707938
vn 0.866025 -0.500000 0.000000
vn 0.678795 -0.195091 0.707938
vn 0.605173 -0.364128 0.707938
vn 0.605173 -0.364128 0.707938
vn 0.678795 -0.195091 0.707938
vn -0.004704 -0.017555 0.999835
vn 0.605173 -0.364128 0.707938
vn -0.004704 -0.017555 0.999835
vn -0.009087 -0.015740 0.999835
vn -0.009087 -0.015740 0.999835
vn -0.004704 -0.017555 0.999835
vn -0.685399 0.170444 0.707938
vn -0.009087 -0.015740 0.999835
vn -0.685399 0.170444 0.707938
vn -0.617931 0.342031 0.707938
vn -0.617931 0.342031 0.707938
vn -0.685399 0.170444 0.707938
vn -0.965926 0.258819 0.000000
vn -0.617931 0.342031 0.707938
vn -0.965926 0.258819 0.000000
vn -0.866025 0.500000 0.000000
vn -0.866025 0.500000 0.000000
vn -0.965926 0.258819 0.000000
vn -0.678795 0.195091 -0.707938
vn -0.866025 0.500000 0.000000
vn -0.678795 0.195091 -0.707938
vn -0.605173 0.364128 -0.707938
vn -0.605173 0.364128 -0.707938
vn -0.678795 0.195091 -0.707938
vn 0.004704 0.017555 -0.999835
vn -0.605173 0.364128 -0.707938
vn 0.004704 0.017555 -0.999835
vn 0.009087 0.015740 -0.999835
vn 0.009087 0.015740 -0.999835
vn 0.004704 0.017555 -0.999835
vn 0.685399 -0.170444 -0.707938
vn 0.009087 0.015740 -0.999835
vn 0.685399 -0.170444 -0.707938
vn 0.617931 -0.342031 -0.707938
vn 0.617931 -0.342031 -0.707938
vn 0.685399 -0.170444 -0.707938
vn 0.965926 -0.258819 0.000000
vn 0.617931 -0.342031 -0.707938
vn 0.965926 -0.258819 0.000000
vn 0.866025 -0.500000 0.000000
vn 0.965926 -0.258819 0.000000
vn 1.000000 0.000000 0.000000
vn 0.706159 -0.012758 0.707938
vn 0.965926 -0.258819 0.000000
vn 0.706159 -0.012758 0.707938
vn 0.678795 -0.195091 0.707938
vn 0.678795 -0.195091 0.707938
vn 0.706159 -0.012758 0.707938
vn 0.000000 -0.018174 0.999835
vn 0.678795 -0.195091 0.707938
vn 0.000000 -0.018174 0.999835
vn -0.004704 -0.017555 0.999835
vn -0.004704 -0.017555 0.999835
vn 0.000000 -0.018174 0.999835
vn -0.706159 -0.012758 0.707938
vn -0.004704 -0.017555 0.999835
vn -0.706159 -0.012758 0.707938
vn -0.685399 0.170444 0.707938
vn -0.685399 0.170444 0.707938
vn -0.706159 -0.012758 0.707938
vn -1.000000 0.000000 0.000000
vn -0.685399 0.170444 0.707938
vn -1.000000 0.000000 0.000000
vn -0.965926 0.258819 0.000000
vn -0.965926 0.258819 0.000000
vn -1.000000 0.000000 0.000000
vn -0.706159 0.012758 -0.707938
vn -0.965926 0.258819 0.000000
vn -0.706159 0.012758 -0.707938
vn -0.678795 0.195091 -0.707938
vn -0.678795 0.195091 -0.707938
vn -0.706159 0.012758 -0.707938
vn 0.000000 0.018174 -0.999835
vn -0.678795 0.195091 -0.707938
vn 0.000000 0.018174 -0.999835
vn 0.004704 0.017555 -0.999835
vn 0.004704 0.017555 -0.999835
vn 0.000000 0.018174 -0.999835
vn 0.706159 0.012758 -0.707938
vn 0.004704 0.017555 -0.999835
vn 0.706159 0.012758 -0.707938
vn 0.685399 -0.170444 -0.707938
vn 0.685399 -0.170444 -0.707938
vn 0.706159 0.012758 -0.707938
vn 1.000000 0.000000 0.000000
vn 0.685399 -0.170444 -0.707938
vn 1.000000 0.000000 0.000000
vn 0.965926 -0.258819 0.000000
vn 0.000000 0.000000 -1.000000
vn 0.000000 0.000000 -1.000000
vn 0.000000 0.000000 -1.000000
vn 0.000000 0.000000 -1.000000
vn 0.000000 0.000000 -1.000000
vn 0.000000 0.000000 -1.000000
vn 0.000000 0.000000 1.000000
vn 0.000000 0.000000 1.000000
vn 0.000000 0.000000 1.000000
vn 0.000000 0.000000 1.000000
vn 0.000000 0.000000 1.000000
vn 0.000000 0.000000 1.000000
vn 0.000000 -1.000000 0.000000
vn 0.000000 -1.000000 0.000000
vn 0.000000 -1.000000 0.000000
vn 0.000000 -1.000000 0.000000
vn 0.000000 -1.000000 0.000000
vn 0.000000 -1.000000 0.000000
vn 1.000000 0.000000 0.000000
vn 1.000000 0.000000 0.000000
vn 1.000000 0.000000 0.000000
vn 1.000000 0.000000 0.000000
vn 1.000000 0.000000 0.000000
vn 1.000000 0.000000 0.000000
vn 0.000000 1.000000 0.000000
vn 0.000000 1.000000 0.000000
vn 0.000000 1.000000 0.000000
vn 0.000000 1.000000 0.000000
vn 0.000000 1.000000 0.000000
vn 0.000000 1.000000 0.000000
vn -1.000000 0.000000 0.000000
vn -1.000000 0.000000 0.000000
vn -1.000000 0.000000 0.000000
vn -1.000000 0.000000 0.000000
vn -1.000000 0.000000 0.000000
vn -1.000000 0.000000 0.000000
usemtl M_Gold
f 1/1/1 9/2/2 10/3/3
f 1/1/4 10/2/5 2/3/6
f 2/1/7 10/2/8 11/3/9
f 2/1/10 11/2/11 3/3/12
f 3/1/13 11/2/14 12/3/15
f 3/1/16 12/2/17 4/3/18
f 4/1/19 12/2/20 13/3/21
f 4/1/22 13/2/23 5/3/24
f 5/1/25 13/2/26 14/3/27
f 5/1/28 14/2/29 6/3/30
f 6/1/31 14/2/32 15/3/33
f 6/1/34 15/2/35 7/3/36
f 7/1/37 15/2/38 16/3/39
f 7/1/40 16/2/41 8/3/42
f 8/1/43 16/2/44 9/3/45
f 8/1/46 9/2/47 1/3/48
f 9/1/49 17/2/50 18/3/51
f 9/1/52 18/2/53 10/3/54
f 10/1/55 18/2/56 19/3/57
f 10/1/58 19/2/59 11/3/60
f 11/1/61 19/2/62 20/3/63
f 11/1/64 20/2/65 12/3/66
f 12/1/67 20/2/68 21/3/69
f 12/1/70 21/2/71 13/3/72
f 13/1/73 21/2/74 22/3/75
f 13/1/76 22/2/77 14/3/78
f 14/1/79 22/2/80 23/3/81
f 14/1/82 23/2/83 15/3/84
f 15/1/85 23/2/86 24/3/87
f 15/1/88 24/2/89 16/3/90
f 16/1/91 24/2/92 17/3/93
f 16/1/94 17/2/95 9/3/96
f 17/1/97 25/2/98 26/3/99
f 17/1/100 26/2/101 18/3/102
f 18/1/103 26/2/104 27/3/105
f 18/1/106 27/2/107 19/3/108
f 19/1/109 27/2/110 28/3/111
f 19/1/112 28/2/113 20/3/114
f 20/1/115 28/2/116 29/3/117
f 20/1/118 29/2/119 21/3/120
f 21/1/121 29/2/122 30/3/123
f 21/1/124 30/2/125 22/3/126
f 22/1/127 30/2/128 31/3/129
f 22/1/130 31/2/131 23/3/132
f 23/1/133 31/2/134 32/3/135
f 23/1/136 32/2/137 24/3/138
f 24/1/139 32/2/140 25/3/141
f 24/1/142 25/2/143 17/3/144
f 25/1/145 33/2/146 34/3/147
f 25/1/148 34/2/149 26/3/150
f 26/1/151 34/2/152 35/3/153
f 26/1/154 35/2/155 27/3/156
f 27/1/157 35/2/158 36/3/159
f 27/1/160 36/2/161 28/3/162
f 28/1/163 36/2/164 37/3/165
f 28/1/166 37/2/167 29/3/168
f 29/1/169 37/2/170 38/3/171
f 29/1/172 38/2/173 30/3/174
f 30/1/175 38/2/176 39/3/177
f 30/1/178 39/2/179 31/3/180
f 31/1/181 39/2/182 40/3/183
f 31/1/184 40/2/185 32/3/186
f 32/1/187 40/2/188 33/3/189
f 32/1/190 33/2/191 25/3/192
f 33/1/193 41/2/194 42/3/195
f 33/1/196 42/2/197 34/3/198
f 34/1/199 42/2/200 43/3/201
f 34/1/202 43/2/203 35/3/204
f 35/1/205 43/2/206 44/3/207
f 35/1/208 44/2/209 36/3/210
f 36/1/211 44/2/212 45/3/213
f 36/1/214 45/2/215 37/3/216
f 37/1/217 45/2/218 46/3/219
f 37/1/220 46/2/221 38/3/222
f 38/1/223 46/2/224 47/3/225
f 38/1/226 47/2/227 39/3/228
f 39/1/229 47/2/230 48/3/231
f 39/1/232 48/2/233 40/3/234
f 40/1/235 48/2/236 41/3/237
f 40/1/238 41/2/239 33/3/240
f 41/1/241 49/2/242 50/3/243
f 41/1/244 50/2/245 42/3/246
f 42/1/247 50/2/248 51/3/249
f 42/1/250 51/2/251 43/3/252
f 43/1/253 51/2/254 52/3/255
f 43/1/256 52/2/257 44/3/258
f 44/1/259 52/2/260 53/3/261
f 44/1/262 53/2/263 45/3/264
f 45/1/265 53/2/266 54/3/267
f 45/1/268 54/2/269 46/3/270
f 46/1/271 54/2/272 55/3/273
f 46/1/274 55/2/275 47/3/276
f 47/1/277 55/2/278 56/3/279
f 47/1/280 56/2/281 48/3/282
f 48/1/283 56/2/284 49/3/285
f 48/1/286 49/2/287 41/3/288
f 49/1/289 57/2/290 58/3/291
f 49/1/292 58/2/293 50/3/294
f 50/1/295 58/2/296 59/3/297
f 50/1/298 59/2/299 51/3/300
f 51/1/301 59/2/302 60/3/303
f 51/1/304 60/2/305 52/3/306
f 52/1/307 60/2/308 61/3/309
f 52/1/310 61/2/311 53/3/312
f 53/1/313 61/2/314 62/3/315
f 53/1/316 62/2/317 54/3/318
f 54/1/319 62/2/320 63/3/321
f 54/1/322 63/2/323 55/3/324
f 55/1/325 63/2/326 64/3/327
f 55/1/328 64/2/329 56/3/330
f 56/1/331 64/2/332 57/3/333
f 56/1/334 57/2/335 49/3/336
f 57/1/337 65/2/338 66/3/339
f 57/1/340 66/2/341 58/3/342
f 58/1/343 66/2/344 67/3/345
f 58/1/346 67/2/347 59/3/348
f 59/1/349 67/2/350 68/3/351
f 59/1/352 68/2/353 60/3/354
f 60/1/355 68/2/356 69/3/357
f 60/1/358 69/2/359 61/3/360
f 61/1/361 69/2/362 70/3/363
f 61/1/364 70/2/365 62/3/366
f 62/1/367 70/2/368 71/3/369
f 62/1/370 71/2/371 63/3/372
f 63/1/373 71/2/374 72/3/375
f 63/1/376 72/2/377 64/3/378
f 64/1/379 72/2/380 65/3/381
f 64/1/382 65/2/383 57/3/384
f 65/1/385 73/2/386 74/3/387
f 65/1/388 74/2/389 66/3/390
f 66/1/391 74/2/392 75/3/393
f 66/1/394 75/2/395 67/3/396
f 67/1/397 75/2/398 76/3/399
f 67/1/400 76/2/401 68/3/402
f 68/1/403 76/2/404 77/3/405
f 68/1/406 77/2/407 69/3/408
f 69/1/409 77/2/410 78/3/411
f 69/1/412 78/2/413 70/3/414
f 70/1/415 78/2/416 79/3/417
f 70/1/418 79/2/419 71/3/420
f 71/1/421 79/2/422 80/3/423
f 71/1/424 80/2/425 72/3/426
f 72/1/427 80/2/428 73/3/429
f 72/1/430 73/2/431 65/3/432
f 73/1/433 81/2/434 82/3/435
f 73/1/436 82/2/437 74/3/438
f 74/1/439 82/2/440 83/3/441
f 74/1/442 83/2/443 75/3/444
f 75/1/445 83/2/446 84/3/447
f 75/1/448 84/2/449 76/3/450
f 76/1/451 84/2/452 85/3/453
f 76/1/454 85/2/455 77/3/456
f 77/1/457 85/2/458 86/3/459
f 77/1/460 86/2/461 78/3/462
f 78/1/463 86/2/464 87/3/465
f 78/1/466 87/2/467 79/3/468
f 79/1/469 87/2/470 88/3/471
f 79/1/472 88/2/473 80/3/474
f 80/1/475 88/2/476 81/3/477
f 80/1/478 81/2/479 73/3/480
f 81/1/481 89/2/482 90/3/483
f 81/1/484 90/2/485 82/3/486
f 82/1/487 90/2/488 91/3/489
f 82/1/490 91/2/491 83/3/492
f 83/1/493 91/2/494 92/3/495
f 83/1/496 92/2/497 84/3/498
f 84/1/499 92/2/500 93/3/501
f 84/1/502 93/2/503 85/3/504
f 85/1/505 93/2/506 94/3/507
f 85/1/508 94/2/509 86/3/510
f 86/1/511 94/2/512 95/3/513
f 86/1/514 95/2/515 87/3/516
f 87/1/517 95/2/518 96/3/519
f 87/1/520 96/2/521 88/3/522
f 88/1/523 96/2/524 89/3/525
f 88/1/526 89/2/527 81/3/528
f 89/1/529 97/2/530 98/3/531
f 89/1/532 98/2/533 90/3/534
f 90/1/535 98/2/536 99/3/537
f 90/1/538 99/2/539 91/3/540
f 91/1/541 99/2/542 100/3/543
f 91/1/544 100/2/545 92/3/546
f 92/1/547 100/2/548 101/3/549
f 92/1/550 101/2/551 93/3/552
f 93/1/553 101/2/554 102/3/555
f 93/1/556 102/2/557 94/3/558
f 94/1/559 102/2/560 103/3/561
f 94/1/562 103/2/563 95/3/564
f 95/1/565 103/2/566 104/3/567
f 95/1/568 104/2/569 96/3/570
f 96/1/571 104/2/572 97/3/573
f 96/1/574 97/2/575 89/3/576
f 97/1/577 105/2/578 106/3/579
f 97/1/580 106/2/581 98/3/582
f 98/1/583 106/2/584 107/3/585
f 98/1/586 107/2/587 99/3/588
f 99/1/589 107/2/590 108/3/591
f 99/1/592 108/2/593 100/3/594
f 100/1/595 108/2/596 109/3/597
f 100/1/598 109/2/599 101/3/600
f 101/1/601 109/2/602 110/3/603
f 101/1/604 110/2/605 102/3/606
f 102/1/607 110/2/608 111/3/609
f 102/1/610 111/2/611 103/3/612
f 103/1/613 111/2/614 112/3/615
f 103/1/616 112/2/617 104/3/618
f 104/1/619 112/2/620 105/3/621
f 104/1/622 105/2/623 97/3/624
f 105/1/625 113/2/626 114/3/627
f 105/1/628 114/2/629 106/3/630
f 106/1/631 114/2/632 115/3/633
f 106/1/634 115/2/635 107/3/636
f 107/1/637 115/2/638 116/3/639
f 107/1/640 116/2/641 108/3/642
f 108/1/643 116/2/644 117/3/645
f 108/1/646 117/2/647 109/3/648
f 109/1/649 117/2/650 118/3/651
f 109/1/652 118/2/653 110/3/654
f 110/1/655 118/2/656 119/3/657
f 110/1/658 119/2/659 111/3/660
f 111/1/661 119/2/662 120/3/663
f 111/1/664 120/2/665 112/3/666
f 112/1/667 120/2/668 113/3/669
f 112/1/670 113/2/671 105/3/672
f 113/1/673 121/2/674 122/3/675
f 113/1/676 122/2/677 114/3/678
f 114/1/679 122/2/680 123/3/681
f 114/1/682 123/2/683 115/3/684
f 115/1/685 123/2/686 124/3/687
f 115/1/688 124/2/689 116/3/690
f 116/1/691 124/2/692 125/3/693
f 116/1/694 125/2/695 117/3/696
f 117/1/697 125/2/698 126/3/699
f 117/1/700 126/2/701 118/3/702
f 118/1/703 126/2/704 127/3/705
f 118/1/706 127/2/707 119/3/708
f 119/1/709 127/2/710 128/3/711
f 119/1/712 128/2/713 120/3/714
f 120/1/715 128/2/716 121/3/717
f 120/1/718 121/2/719 113/3/720
f 121/1/721 129/2/722 130/3/723
f 121/1/724 130/2/725 122/3/726
f 122/1/727 130/2/728 131/3/729
f 122/1/730 131/2/731 123/3/732
f 123/1/733 131/2/734 132/3/735
f 123/1/736 132/2/737 124/3/738
f 124/1/739 132/2/740 133/3/741
f 124/1/742 133/2/743 125/3/744
f 125/1/745 133/2/746 134/3/747
f 125/1/748 134/2/749 126/3/750
f 126/1/751 134/2/752 135/3/753
f 126/1/754 135/2/755 127/3/756
f 127/1/757 135/2/758 136/3/759
f 127/1/760 136/2/761 128/3/762
f 128/1/763 136/2/764 129/3/765
f 128/1/766 129/2/767 121/3/768
f 129/1/769 137/2/770 138/3/771
f 129/1/772 138/2/773 130/3/774
f 130/1/775 138/2/776 139/3/777
f 130/1/778 139/2/779 131/3/780
f 131/1/781 139/2/782 140/3/783
f 131/1/784 140/2/785 132/3/786
f 132/1/787 140/2/788 141/3/789
f 132/1/790 141/2/791 133/3/792
f 133/1/793 141/2/794 142/3/795
f 133/1/796 142/2/797 134/3/798
f 134/1/799 142/2/800 143/3/801
f 134/1/802 143/2/803 135/3/804
f 135/1/805 143/2/806 144/3/807
f 135/1/808 144/2/809 136/3/810
f 136/1/811 144/2/812 137/3/813
f 136/1/814 137/2/815 129/3/816
f 137/1/817 145/2/818 146/3/819
f 137/1/820 146/2/821 138/3/822
f 138/1/823 146/2/824 147/3/825
f 138/1/826 147/2/827 139/3/828
f 139/1/829 147/2/830 148/3/831
f 139/1/832 148/2/833 140/3/834
f 140/1/835 148/2/836 149/3/837
f 140/1/838 149/2/839 141/3/840
f 141/1/841 149/2/842 150/3/843
f 141/1/844 150/2/845 142/3/846
f 142/1/847 150/2/848 151/3/849
f 142/1/850 151/2/851 143/3/852
f 143/1/853 151/2/854 152/3/855
f 143/1/856 152/2/857 144/3/858
f 144/1/859 152/2/860 145/3/861
f 144/1/862 145/2/863 137/3/864
f 145/1/865 153/2/866 154/3/867
f 145/1/868 154/2/869 146/3/870
f 146/1/871 154/2/872 155/3/873
f 146/1/874 155/2/875 147/3/876
f 147/1/877 155/2/878 156/3/879
f 147/1/880 156/2/881 148/3/882
f 148/1/883 156/2/884 157/3/885
f 148/1/886 157/2/887 149/3/888
f 149/1/889 157/2/890 158/3/891
f 149/1/892 158/2/893 150/3/894
f 150/1/895 158/2/896 159/3/897
f 150/1/898 159/2/899 151/3/900
f 151/1/901 159/2/902 160/3/903
f 151/1/904 160/2/905 152/3/906
f 152/1/907 160/2/908 153/3/909
f 152/1/910 153/2/911 145/3/912
f 153/1/913 161/2/914 162/3/915
f 153/1/916 162/2/917 154/3/918
f 154/1/919 162/2/920 163/3/921
f 154/1/922 163/2/923 155/3/924
f 155/1/925 163/2/926 164/3/927
f 155/1/928 164/2/929 156/3/930
f 156/1/931 164/2/932 165/3/933
f 156/1/934 165/2/935 157/3/936
f 157/1/937 165/2/938 166/3/939
f 157/1/940 166/2/941 158/3/942
f 158/1/943 166/2/944 167/3/945
f 158/1/946 167/2/947 159/3/948
f 159/1/949 167/2/950 168/3/951
f 159/1/952 168/2/953 160/3/954
f 160/1/955 168/2/956 161/3/957
f 160/1/958 161/2/959 153/3/960
f 161/1/961 169/2/962 170/3/963
f 161/1/964 170/2/965 162/3/966
f 162/1/967 170/2/968 171/3/969
f 162/1/970 171/2/971 163/3/972
f 163/1/973 171/2/974 172/3/975
f 163/1/976 172/2/977 164/3/978
f 164/1/979 172/2/980 173/3/981
f 164/1/982 173/2/983 165/3/984
f 165/1/985 173/2/986 174/3/987
f 165/1/988 174/2/989 166/3/990
f 166/1/991 174/2/992 175/3/993
f 166/1/994 175/2/995 167/3/996
f 167/1/997 175/2/998 176/3/999
f 167/1/1000 176/2/1001 168/3/1002
f 168/1/1003 176/2/1004 169/3/1005
f 168/1/1006 169/2/1007 161/3/1008
f 169/1/1009 177/2/1010 178/3/1011
f 169/1/1012 178/2/1013 170/3/1014
f 170/1/1015 178/2/1016 179/3/1017
f 170/1/1018 179/2/1019 171/3/1020
f 171/1/1021 179/2/1022 180/3/1023
f 171/1/1024 180/2/1025 172/3/1026
f 172/1/1027 180/2/1028 181/3/1029
f 172/1/1030 181/2/1031 173/3/1032
f 173/1/1033 181/2/1034 182/3/1035
f 173/1/1036 182/2/1037 174/3/1038
f 174/1/1039 182/2/1040 183/3/1041
f 174/1/1042 183/2/1043 175/3/1044
f 175/1/1045 183/2/1046 184/3/1047
f 175/1/1048 184/2/1049 176/3/1050
f 176/1/1051 184/2/1052 177/3/1053
f 176/1/1054 177/2/1055 169/3/1056
f 177/1/1057 185/2/1058 186/3/1059
f 177/1/1060 186/2/1061 178/3/1062
f 178/1/1063 186/2/1064 187/3/1065
f 178/1/1066 187/2/1067 179/3/1068
f 179/1/1069 187/2/1070 188/3/1071
f 179/1/1072 188/2/1073 180/3/1074
f 180/1/1075 188/2/1076 189/3/1077
f 180/1/1078 189/2/1079 181/3/1080
f 181/1/1081 189/2/1082 190/3/1083
f 181/1/1084 190/2/1085 182/3/1086
f 182/1/1087 190/2/1088 191/3/1089
f 182/1/1090 191/2/1091 183/3/1092
f 183/1/1093 191/2/1094 192/3/1095
f 183/1/1096 192/2/1097 184/3/1098
f 184/1/1099 192/2/1100 185/3/1101
f 184/1/1102 185/2/1103 177/3/1104
f 185/1/1105 1/2/1106 2/3/1107
f 185/1/1108 2/2/1109 186/3/1110
f 186/1/1111 2/2/1112 3/3/1113
f 186/1/1114 3/2/1115 187/3/1116
f 187/1/1117 3/2/1118 4/3/1119
f 187/1/1120 4/2/1121 188/3/1122
f 188/1/1123 4/2/1124 5/3/1125
f 188/1/1126 5/2/1127 189/3/1128
f 189/1/1129 5/2/1130 6/3/1131
f 189/1/1132 6/2/1133 190/3/1134
f 190/1/1135 6/2/1136 7/3/1137
f 190/1/1138 7/2/1139 191/3/1140
f 191/1/1141 7/2/1142 8/3/1143
f 191/1/1144 8/2/1145 192/3/1146
f 192/1/1147 8/2/1148 1/3/1149
f 192/1/1150 1/2/1151 185/3/1152
usemtl M_Amber
f 196/1/1153 195/2/1154 194/3/1155
f 196/1/1156 194/2/1157 193/3/1158
f 197/1/1159 198/2/1160 199/3/1161
f 197/1/1162 199/2/1163 200/3/1164
f 193/1/1165 194/2/1166 198/3/1167
f 193/1/1168 198/2/1169 197/3/1170
f 194/1/1171 195/2/1172 199/3/1173
f 194/1/1174 199/2/1175 198/3/1176
f 195/1/1177 196/2/1178 200/3/1179
f 195/1/1180 200/2/1181 199/3/1182
f 196/1/1183 193/2/1184 197/3/1185
f 196/1/1186 197/2/1187 200/3/1188
