# Original SpaceSurvival generated source; centimeters; X forward; Z up
mtllib Palette.mtl
o SM_VectorThrusters
v -25.000000 -11.000000 0.000000
v -25.000000 -11.391548 2.472136
v -25.000000 -12.527864 4.702282
v -25.000000 -14.297718 6.472136
v -25.000000 -16.527864 7.608452
v -25.000000 -19.000000 8.000000
v -25.000000 -21.472136 7.608452
v -25.000000 -23.702282 6.472136
v -25.000000 -25.472136 4.702282
v -25.000000 -26.608452 2.472136
v -25.000000 -27.000000 0.000000
v -25.000000 -26.608452 -2.472136
v -25.000000 -25.472136 -4.702282
v -25.000000 -23.702282 -6.472136
v -25.000000 -21.472136 -7.608452
v -25.000000 -19.000000 -8.000000
v -25.000000 -16.527864 -7.608452
v -25.000000 -14.297718 -6.472136
v -25.000000 -12.527864 -4.702282
v -25.000000 -11.391548 -2.472136
v -15.000000 -5.000000 0.000000
v -15.000000 -5.685209 4.326238
v -15.000000 -7.673762 8.228994
v -15.000000 -10.771006 11.326238
v -15.000000 -14.673762 13.314791
v -15.000000 -19.000000 14.000000
v -15.000000 -23.326238 13.314791
v -15.000000 -27.228994 11.326238
v -15.000000 -30.326238 8.228994
v -15.000000 -32.314791 4.326238
v -15.000000 -33.000000 0.000000
v -15.000000 -32.314791 -4.326238
v -15.000000 -30.326238 -8.228994
v -15.000000 -27.228994 -11.326238
v -15.000000 -23.326238 -13.314791
v -15.000000 -19.000000 -14.000000
v -15.000000 -14.673762 -13.314791
v -15.000000 -10.771006 -11.326238
v -15.000000 -7.673762 -8.228994
v -15.000000 -5.685209 -4.326238
v 20.000000 -7.000000 0.000000
v 20.000000 -7.587322 3.708204
v 20.000000 -9.291796 7.053423
v 20.000000 -11.946577 9.708204
v 20.000000 -15.291796 11.412678
v 20.000000 -19.000000 12.000000
v 20.000000 -22.708204 11.412678
v 20.000000 -26.053423 9.708204
v 20.000000 -28.708204 7.053423
v 20.000000 -30.412678 3.708204
v 20.000000 -31.000000 0.000000
v 20.000000 -30.412678 -3.708204
v 20.000000 -28.708204 -7.053423
v 20.000000 -26.053423 -9.708204
v 20.000000 -22.708204 -11.412678
v 20.000000 -19.000000 -12.000000
v 20.000000 -15.291796 -11.412678
v 20.000000 -11.946577 -9.708204
v 20.000000 -9.291796 -7.053423
v 20.000000 -7.587322 -3.708204
v 28.000000 -14.000000 0.000000
v 28.000000 -14.244717 1.545085
v 28.000000 -14.954915 2.938926
v 28.000000 -16.061074 4.045085
v 28.000000 -17.454915 4.755283
v 28.000000 -19.000000 5.000000
v 28.000000 -20.545085 4.755283
v 28.000000 -21.938926 4.045085
v 28.000000 -23.045085 2.938926
v 28.000000 -23.755283 1.545085
v 28.000000 -24.000000 0.000000
v 28.000000 -23.755283 -1.545085
v 28.000000 -23.045085 -2.938926
v 28.000000 -21.938926 -4.045085
v 28.000000 -20.545085 -4.755283
v 28.000000 -19.000000 -5.000000
v 28.000000 -17.454915 -4.755283
v 28.000000 -16.061074 -4.045085
v 28.000000 -14.954915 -2.938926
v 28.000000 -14.244717 -1.545085
v -25.000000 -19.000000 0.000000
v 28.000000 -19.000000 0.000000
v -25.000000 27.000000 0.000000
v -25.000000 26.608452 2.472136
v -25.000000 25.472136 4.702282
v -25.000000 23.702282 6.472136
v -25.000000 21.472136 7.608452
v -25.000000 19.000000 8.000000
v -25.000000 16.527864 7.608452
v -25.000000 14.297718 6.472136
v -25.000000 12.527864 4.702282
v -25.000000 11.391548 2.472136
v -25.000000 11.000000 0.000000
v -25.000000 11.391548 -2.472136
v -25.000000 12.527864 -4.702282
v -25.000000 14.297718 -6.472136
v -25.000000 16.527864 -7.608452
v -25.000000 19.000000 -8.000000
v -25.000000 21.472136 -7.608452
v -25.000000 23.702282 -6.472136
v -25.000000 25.472136 -4.702282
v -25.000000 26.608452 -2.472136
v -15.000000 33.000000 0.000000
v -15.000000 32.314791 4.326238
v -15.000000 30.326238 8.228994
v -15.000000 27.228994 11.326238
v -15.000000 23.326238 13.314791
v -15.000000 19.000000 14.000000
v -15.000000 14.673762 13.314791
v -15.000000 10.771006 11.326238
v -15.000000 7.673762 8.228994
v -15.000000 5.685209 4.326238
v -15.000000 5.000000 0.000000
v -15.000000 5.685209 -4.326238
v -15.000000 7.673762 -8.228994
v -15.000000 10.771006 -11.326238
v -15.000000 14.673762 -13.314791
v -15.000000 19.000000 -14.000000
v -15.000000 23.326238 -13.314791
v -15.000000 27.228994 -11.326238
v -15.000000 30.326238 -8.228994
v -15.000000 32.314791 -4.326238
v 20.000000 31.000000 0.000000
v 20.000000 30.412678 3.708204
v 20.000000 28.708204 7.053423
v 20.000000 26.053423 9.708204
v 20.000000 22.708204 11.412678
v 20.000000 19.000000 12.000000
v 20.000000 15.291796 11.412678
v 20.000000 11.946577 9.708204
v 20.000000 9.291796 7.053423
v 20.000000 7.587322 3.708204
v 20.000000 7.000000 0.000000
v 20.000000 7.587322 -3.708204
v 20.000000 9.291796 -7.053423
v 20.000000 11.946577 -9.708204
v 20.000000 15.291796 -11.412678
v 20.000000 19.000000 -12.000000
v 20.000000 22.708204 -11.412678
v 20.000000 26.053423 -9.708204
v 20.000000 28.708204 -7.053423
v 20.000000 30.412678 -3.708204
v 28.000000 24.000000 0.000000
v 28.000000 23.755283 1.545085
v 28.000000 23.045085 2.938926
v 28.000000 21.938926 4.045085
v 28.000000 20.545085 4.755283
v 28.000000 19.000000 5.000000
v 28.000000 17.454915 4.755283
v 28.000000 16.061074 4.045085
v 28.000000 14.954915 2.938926
v 28.000000 14.244717 1.545085
v 28.000000 14.000000 0.000000
v 28.000000 14.244717 -1.545085
v 28.000000 14.954915 -2.938926
v 28.000000 16.061074 -4.045085
v 28.000000 17.454915 -4.755283
v 28.000000 19.000000 -5.000000
v 28.000000 20.545085 -4.755283
v 28.000000 21.938926 -4.045085
v 28.000000 23.045085 -2.938926
v 28.000000 23.755283 -1.545085
v -25.000000 19.000000 0.000000
v 28.000000 19.000000 0.000000
v -7.500000 -17.500000 -6.500000
v 7.500000 -17.500000 -6.500000
v 7.500000 17.500000 -6.500000
v -7.500000 17.500000 -6.500000
v -7.500000 -17.500000 6.500000
v 7.500000 -17.500000 6.500000
v 7.500000 17.500000 6.500000
v -7.500000 17.500000 6.500000
vt 0.05 0.05
vt 0.95 0.05
vt 0.05 0.95
vn -0.810289 0.585216 0.030896
vn -0.810289 0.547026 0.210226
vn -0.239802 0.922122 0.303621
vn -0.810289 0.585216 0.030896
vn -0.239802 0.922122 0.303621
vn -0.239802 0.970814 0.003809
vn -0.810289 0.547026 0.210226
vn -0.810289 0.455289 0.368977
vn -0.239802 0.783167 0.573712
vn -0.810289 0.547026 0.210226
vn -0.239802 0.783167 0.573712
vn -0.239802 0.922122 0.303621
vn -0.810289 0.455289 0.368977
vn -0.810289 0.318986 0.491610
vn -0.239802 0.567549 0.787644
vn -0.810289 0.455289 0.368977
vn -0.239802 0.567549 0.787644
vn -0.239802 0.783167 0.573712
vn -0.810289 0.318986 0.491610
vn -0.810289 0.151457 0.566121
vn -0.239802 0.296376 0.924476
vn -0.810289 0.318986 0.491610
vn -0.239802 0.296376 0.924476
vn -0.239802 0.567549 0.787644
vn -0.810289 0.151457 0.566121
vn -0.810289 -0.030896 0.585216
vn -0.239802 -0.003809 0.970814
vn -0.810289 0.151457 0.566121
vn -0.239802 -0.003809 0.970814
vn -0.239802 0.296376 0.924476
vn -0.810289 -0.030896 0.585216
vn -0.810289 -0.210226 0.547026
vn -0.239802 -0.303621 0.922122
vn -0.810289 -0.030896 0.585216
vn -0.239802 -0.303621 0.922122
vn -0.239802 -0.003809 0.970814
vn -0.810289 -0.210226 0.547026
vn -0.810289 -0.368977 0.455289
vn -0.239802 -0.573712 0.783167
vn -0.810289 -0.210226 0.547026
vn -0.239802 -0.573712 0.783167
vn -0.239802 -0.303621 0.922122
vn -0.810289 -0.368977 0.455289
vn -0.810289 -0.491610 0.318986
vn -0.239802 -0.787644 0.567549
vn -0.810289 -0.368977 0.455289
vn -0.239802 -0.787644 0.567549
vn -0.239802 -0.573712 0.783167
vn -0.810289 -0.491610 0.318986
vn -0.810289 -0.566121 0.151457
vn -0.239802 -0.924476 0.296376
vn -0.810289 -0.491610 0.318986
vn -0.239802 -0.924476 0.296376
vn -0.239802 -0.787644 0.567549
vn -0.810289 -0.566121 0.151457
vn -0.810289 -0.585216 -0.030896
vn -0.239802 -0.970814 -0.003809
vn -0.810289 -0.566121 0.151457
vn -0.239802 -0.970814 -0.003809
vn -0.239802 -0.924476 0.296376
vn -0.810289 -0.585216 -0.030896
vn -0.810289 -0.547026 -0.210226
vn -0.239802 -0.922122 -0.303621
vn -0.810289 -0.585216 -0.030896
vn -0.239802 -0.922122 -0.303621
vn -0.239802 -0.970814 -0.003809
vn -0.810289 -0.547026 -0.210226
vn -0.810289 -0.455289 -0.368977
vn -0.239802 -0.783167 -0.573712
vn -0.810289 -0.547026 -0.210226
vn -0.239802 -0.783167 -0.573712
vn -0.239802 -0.922122 -0.303621
vn -0.810289 -0.455289 -0.368977
vn -0.810289 -0.318986 -0.491610
vn -0.239802 -0.567549 -0.787644
vn -0.810289 -0.455289 -0.368977
vn -0.239802 -0.567549 -0.787644
vn -0.239802 -0.783167 -0.573712
vn -0.810289 -0.318986 -0.491610
vn -0.810289 -0.151457 -0.566121
vn -0.239802 -0.296376 -0.924476
vn -0.810289 -0.318986 -0.491610
vn -0.239802 -0.296376 -0.924476
vn -0.239802 -0.567549 -0.787644
vn -0.810289 -0.151457 -0.566121
vn -0.810289 0.030896 -0.585216
vn -0.239802 0.003809 -0.970814
vn -0.810289 -0.151457 -0.566121
vn -0.239802 0.003809 -0.970814
vn -0.239802 -0.296376 -0.924476
vn -0.810289 0.030896 -0.585216
vn -0.810289 0.210226 -0.547026
vn -0.239802 0.303621 -0.922122
vn -0.810289 0.030896 -0.585216
vn -0.239802 0.303621 -0.922122
vn -0.239802 0.003809 -0.970814
vn -0.810289 0.210226 -0.547026
vn -0.810289 0.368977 -0.455289
vn -0.239802 0.573712 -0.783167
vn -0.810289 0.210226 -0.547026
vn -0.239802 0.573712 -0.783167
vn -0.239802 0.303621 -0.922122
vn -0.810289 0.368977 -0.455289
vn -0.810289 0.491610 -0.318986
vn -0.239802 0.787644 -0.567549
vn -0.810289 0.368977 -0.455289
vn -0.239802 0.787644 -0.567549
vn -0.239802 0.573712 -0.783167
vn -0.810289 0.491610 -0.318986
vn -0.810289 0.566121 -0.151457
vn -0.239802 0.924476 -0.296376
vn -0.810289 0.491610 -0.318986
vn -0.239802 0.924476 -0.296376
vn -0.239802 0.787644 -0.567549
vn -0.810289 0.566121 -0.151457
vn -0.810289 0.585216 0.030896
vn -0.239802 0.970814 0.003809
vn -0.810289 0.566121 -0.151457
vn -0.239802 0.970814 0.003809
vn -0.239802 0.924476 -0.296376
vn -0.239802 0.970814 0.003809
vn -0.239802 0.922122 0.303621
vn 0.379130 0.882111 0.279538
vn -0.239802 0.970814 0.003809
vn 0.379130 0.882111 0.279538
vn 0.379130 0.925319 -0.006731
vn -0.239802 0.922122 0.303621
vn -0.239802 0.783167 0.573712
vn 0.379130 0.752555 0.538443
vn -0.239802 0.922122 0.303621
vn 0.379130 0.752555 0.538443
vn 0.379130 0.882111 0.279538
vn -0.239802 0.783167 0.573712
vn -0.239802 0.567549 0.787644
vn 0.379130 0.549334 0.744643
vn -0.239802 0.783167 0.573712
vn 0.379130 0.549334 0.744643
vn 0.379130 0.752555 0.538443
vn -0.239802 0.567549 0.787644
vn -0.239802 0.296376 0.924476
vn 0.379130 0.292341 0.877951
vn -0.239802 0.567549 0.787644
vn 0.379130 0.292341 0.877951
vn 0.379130 0.549334 0.744643
vn -0.239802 0.296376 0.924476
vn -0.239802 -0.003809 0.970814
vn 0.379130 0.006731 0.925319
vn -0.239802 0.296376 0.924476
vn 0.379130 0.006731 0.925319
vn 0.379130 0.292341 0.877951
vn -0.239802 -0.003809 0.970814
vn -0.239802 -0.303621 0.922122
vn 0.379130 -0.279538 0.882111
vn -0.239802 -0.003809 0.970814
vn 0.379130 -0.279538 0.882111
vn 0.379130 0.006731 0.925319
vn -0.239802 -0.303621 0.922122
vn -0.239802 -0.573712 0.783167
vn 0.379130 -0.538443 0.752555
vn -0.239802 -0.303621 0.922122
vn 0.379130 -0.538443 0.752555
vn 0.379130 -0.279538 0.882111
vn -0.239802 -0.573712 0.783167
vn -0.239802 -0.787644 0.567549
vn 0.379130 -0.744643 0.549334
vn -0.239802 -0.573712 0.783167
vn 0.379130 -0.744643 0.549334
vn 0.379130 -0.538443 0.752555
vn -0.239802 -0.787644 0.567549
vn -0.239802 -0.924476 0.296376
vn 0.379130 -0.877951 0.292341
vn -0.239802 -0.787644 0.567549
vn 0.379130 -0.877951 0.292341
vn 0.379130 -0.744643 0.549334
vn -0.239802 -0.924476 0.296376
vn -0.239802 -0.970814 -0.003809
vn 0.379130 -0.925319 0.006731
vn -0.239802 -0.924476 0.296376
vn 0.379130 -0.925319 0.006731
vn 0.379130 -0.877951 0.292341
vn -0.239802 -0.970814 -0.003809
vn -0.239802 -0.922122 -0.303621
vn 0.379130 -0.882111 -0.279538
vn -0.239802 -0.970814 -0.003809
vn 0.379130 -0.882111 -0.279538
vn 0.379130 -0.925319 0.006731
vn -0.239802 -0.922122 -0.303621
vn -0.239802 -0.783167 -0.573712
vn 0.379130 -0.752555 -0.538443
vn -0.239802 -0.922122 -0.303621
vn 0.379130 -0.752555 -0.538443
vn 0.379130 -0.882111 -0.279538
vn -0.239802 -0.783167 -0.573712
vn -0.239802 -0.567549 -0.787644
vn 0.379130 -0.549334 -0.744643
vn -0.239802 -0.783167 -0.573712
vn 0.379130 -0.549334 -0.744643
vn 0.379130 -0.752555 -0.538443
vn -0.239802 -0.567549 -0.787644
vn -0.239802 -0.296376 -0.924476
vn 0.379130 -0.292341 -0.877951
vn -0.239802 -0.567549 -0.787644
vn 0.379130 -0.292341 -0.877951
vn 0.379130 -0.549334 -0.744643
vn -0.239802 -0.296376 -0.924476
vn -0.239802 0.003809 -0.970814
vn 0.379130 -0.006731 -0.925319
vn -0.239802 -0.296376 -0.924476
vn 0.379130 -0.006731 -0.925319
vn 0.379130 -0.292341 -0.877951
vn -0.239802 0.003809 -0.970814
vn -0.239802 0.303621 -0.922122
vn 0.379130 0.279538 -0.882111
vn -0.239802 0.003809 -0.970814
vn 0.379130 0.279538 -0.882111
vn 0.379130 -0.006731 -0.925319
vn -0.239802 0.303621 -0.922122
vn -0.239802 0.573712 -0.783167
vn 0.379130 0.538443 -0.752555
vn -0.239802 0.303621 -0.922122
vn 0.379130 0.538443 -0.752555
vn 0.379130 0.279538 -0.882111
vn -0.239802 0.573712 -0.783167
vn -0.239802 0.787644 -0.567549
vn 0.379130 0.744643 -0.549334
vn -0.239802 0.573712 -0.783167
vn 0.379130 0.744643 -0.549334
vn 0.379130 0.538443 -0.752555
vn -0.239802 0.787644 -0.567549
vn -0.239802 0.924476 -0.296376
vn 0.379130 0.877951 -0.292341
vn -0.239802 0.787644 -0.567549
vn 0.379130 0.877951 -0.292341
vn 0.379130 0.744643 -0.549334
vn -0.239802 0.924476 -0.296376
vn -0.239802 0.970814 0.003809
vn 0.379130 0.925319 -0.006731
vn -0.239802 0.924476 -0.296376
vn 0.379130 0.925319 -0.006731
vn 0.379130 0.877951 -0.292341
vn 0.379130 0.925319 -0.006731
vn 0.379130 0.882111 0.279538
vn 0.870017 0.476272 0.127420
vn 0.379130 0.925319 -0.006731
vn 0.870017 0.476272 0.127420
vn 0.870017 0.492337 -0.025993
vn 0.379130 0.882111 0.279538
vn 0.379130 0.752555 0.538443
vn 0.870017 0.413587 0.268360
vn 0.379130 0.882111 0.279538
vn 0.870017 0.413587 0.268360
vn 0.870017 0.476272 0.127420
vn 0.379130 0.752555 0.538443
vn 0.379130 0.549334 0.744643
vn 0.870017 0.310417 0.383031
vn 0.379130 0.752555 0.538443
vn 0.870017 0.310417 0.383031
vn 0.870017 0.413587 0.268360
vn 0.379130 0.549334 0.744643
vn 0.379130 0.292341 0.877951
vn 0.870017 0.176861 0.460208
vn 0.379130 0.549334 0.744643
vn 0.870017 0.176861 0.460208
vn 0.870017 0.310417 0.383031
vn 0.379130 0.292341 0.877951
vn 0.379130 0.006731 0.925319
vn 0.870017 0.025993 0.492337
vn 0.379130 0.292341 0.877951
vn 0.870017 0.025993 0.492337
vn 0.870017 0.176861 0.460208
vn 0.379130 0.006731 0.925319
vn 0.379130 -0.279538 0.882111
vn 0.870017 -0.127420 0.476272
vn 0.379130 0.006731 0.925319
vn 0.870017 -0.127420 0.476272
vn 0.870017 0.025993 0.492337
vn 0.379130 -0.279538 0.882111
vn 0.379130 -0.538443 0.752555
vn 0.870017 -0.268360 0.413587
vn 0.379130 -0.279538 0.882111
vn 0.870017 -0.268360 0.413587
vn 0.870017 -0.127420 0.476272
vn 0.379130 -0.538443 0.752555
vn 0.379130 -0.744643 0.549334
vn 0.870017 -0.383031 0.310417
vn 0.379130 -0.538443 0.752555
vn 0.870017 -0.383031 0.310417
vn 0.870017 -0.268360 0.413587
vn 0.379130 -0.744643 0.549334
vn 0.379130 -0.877951 0.292341
vn 0.870017 -0.460208 0.176861
vn 0.379130 -0.744643 0.549334
vn 0.870017 -0.460208 0.176861
vn 0.870017 -0.383031 0.310417
vn 0.379130 -0.877951 0.292341
vn 0.379130 -0.925319 0.006731
vn 0.870017 -0.492337 0.025993
vn 0.379130 -0.877951 0.292341
vn 0.870017 -0.492337 0.025993
vn 0.870017 -0.460208 0.176861
vn 0.379130 -0.925319 0.006731
vn 0.379130 -0.882111 -0.279538
vn 0.870017 -0.476272 -0.127420
vn 0.379130 -0.925319 0.006731
vn 0.870017 -0.476272 -0.127420
vn 0.870017 -0.492337 0.025993
vn 0.379130 -0.882111 -0.279538
vn 0.379130 -0.752555 -0.538443
vn 0.870017 -0.413587 -0.268360
vn 0.379130 -0.882111 -0.279538
vn 0.870017 -0.413587 -0.268360
vn 0.870017 -0.476272 -0.127420
vn 0.379130 -0.752555 -0.538443
vn 0.379130 -0.549334 -0.744643
vn 0.870017 -0.310417 -0.383031
vn 0.379130 -0.752555 -0.538443
vn 0.870017 -0.310417 -0.383031
vn 0.870017 -0.413587 -0.268360
vn 0.379130 -0.549334 -0.744643
vn 0.379130 -0.292341 -0.877951
vn 0.870017 -0.176861 -0.460208
vn 0.379130 -0.549334 -0.744643
vn 0.870017 -0.176861 -0.460208
vn 0.870017 -0.310417 -0.383031
vn 0.379130 -0.292341 -0.877951
vn 0.379130 -0.006731 -0.925319
vn 0.870017 -0.025993 -0.492337
vn 0.379130 -0.292341 -0.877951
vn 0.870017 -0.025993 -0.492337
vn 0.870017 -0.176861 -0.460208
vn 0.379130 -0.006731 -0.925319
vn 0.379130 0.279538 -0.882111
vn 0.870017 0.127420 -0.476272
vn 0.379130 -0.006731 -0.925319
vn 0.870017 0.127420 -0.476272
vn 0.870017 -0.025993 -0.492337
vn 0.379130 0.279538 -0.882111
vn 0.379130 0.538443 -0.752555
vn 0.870017 0.268360 -0.413587
vn 0.379130 0.279538 -0.882111
vn 0.870017 0.268360 -0.413587
vn 0.870017 0.127420 -0.476272
vn 0.379130 0.538443 -0.752555
vn 0.379130 0.744643 -0.549334
vn 0.870017 0.383031 -0.310417
vn 0.379130 0.538443 -0.752555
vn 0.870017 0.383031 -0.310417
vn 0.870017 0.268360 -0.413587
vn 0.379130 0.744643 -0.549334
vn 0.379130 0.877951 -0.292341
vn 0.870017 0.460208 -0.176861
vn 0.379130 0.744643 -0.549334
vn 0.870017 0.460208 -0.176861
vn 0.870017 0.383031 -0.310417
vn 0.379130 0.877951 -0.292341
vn 0.379130 0.925319 -0.006731
vn 0.870017 0.492337 -0.025993
vn 0.379130 0.877951 -0.292341
vn 0.870017 0.492337 -0.025993
vn 0.870017 0.460208 -0.176861
vn -0.810289 0.547026 0.210226
vn -0.810289 0.585216 0.030896
vn -1.000000 0.000000 0.000000
vn -0.810289 0.455289 0.368977
vn -0.810289 0.547026 0.210226
vn -1.000000 0.000000 0.000000
vn -0.810289 0.318986 0.491610
vn -0.810289 0.455289 0.368977
vn -1.000000 0.000000 0.000000
vn -0.810289 0.151457 0.566121
vn -0.810289 0.318986 0.491610
vn -1.000000 0.000000 0.000000
vn -0.810289 -0.030896 0.585216
vn -0.810289 0.151457 0.566121
vn -1.000000 0.000000 0.000000
vn -0.810289 -0.210226 0.547026
vn -0.810289 -0.030896 0.585216
vn -1.000000 0.000000 0.000000
vn -0.810289 -0.368977 0.455289
vn -0.810289 -0.210226 0.547026
vn -1.000000 0.000000 0.000000
vn -0.810289 -0.491610 0.318986
vn -0.810289 -0.368977 0.455289
vn -1.000000 0.000000 0.000000
vn -0.810289 -0.566121 0.151457
vn -0.810289 -0.491610 0.318986
vn -1.000000 0.000000 0.000000
vn -0.810289 -0.585216 -0.030896
vn -0.810289 -0.566121 0.151457
vn -1.000000 0.000000 0.000000
vn -0.810289 -0.547026 -0.210226
vn -0.810289 -0.585216 -0.030896
vn -1.000000 0.000000 0.000000
vn -0.810289 -0.455289 -0.368977
vn -0.810289 -0.547026 -0.210226
vn -1.000000 0.000000 0.000000
vn -0.810289 -0.318986 -0.491610
vn -0.810289 -0.455289 -0.368977
vn -1.000000 0.000000 0.000000
vn -0.810289 -0.151457 -0.566121
vn -0.810289 -0.318986 -0.491610
vn -1.000000 0.000000 0.000000
vn -0.810289 0.030896 -0.585216
vn -0.810289 -0.151457 -0.566121
vn -1.000000 0.000000 0.000000
vn -0.810289 0.210226 -0.547026
vn -0.810289 0.030896 -0.585216
vn -1.000000 0.000000 0.000000
vn -0.810289 0.368977 -0.455289
vn -0.810289 0.210226 -0.547026
vn -1.000000 0.000000 0.000000
vn -0.810289 0.491610 -0.318986
vn -0.810289 0.368977 -0.455289
vn -1.000000 0.000000 0.000000
vn -0.810289 0.566121 -0.151457
vn -0.810289 0.491610 -0.318986
vn -1.000000 0.000000 0.000000
vn -0.810289 0.585216 0.030896
vn -0.810289 0.566121 -0.151457
vn -1.000000 0.000000 0.000000
vn 1.000000 0.000000 0.000000
vn 0.870017 0.492337 -0.025993
vn 0.870017 0.476272 0.127420
vn 1.000000 0.000000 0.000000
vn 0.870017 0.476272 0.127420
vn 0.870017 0.413587 0.268360
vn 1.000000 0.000000 0.000000
vn 0.870017 0.413587 0.268360
vn 0.870017 0.310417 0.383031
vn 1.000000 0.000000 0.000000
vn 0.870017 0.310417 0.383031
vn 0.870017 0.176861 0.460208
vn 1.000000 0.000000 0.000000
vn 0.870017 0.176861 0.460208
vn 0.870017 0.025993 0.492337
vn 1.000000 0.000000 0.000000
vn 0.870017 0.025993 0.492337
vn 0.870017 -0.127420 0.476272
vn 1.000000 0.000000 0.000000
vn 0.870017 -0.127420 0.476272
vn 0.870017 -0.268360 0.413587
vn 1.000000 0.000000 0.000000
vn 0.870017 -0.268360 0.413587
vn 0.870017 -0.383031 0.310417
vn 1.000000 0.000000 0.000000
vn 0.870017 -0.383031 0.310417
vn 0.870017 -0.460208 0.176861
vn 1.000000 0.000000 0.000000
vn 0.870017 -0.460208 0.176861
vn 0.870017 -0.492337 0.025993
vn 1.000000 0.000000 0.000000
vn 0.870017 -0.492337 0.025993
vn 0.870017 -0.476272 -0.127420
vn 1.000000 0.000000 0.000000
vn 0.870017 -0.476272 -0.127420
vn 0.870017 -0.413587 -0.268360
vn 1.000000 0.000000 0.000000
vn 0.870017 -0.413587 -0.268360
vn 0.870017 -0.310417 -0.383031
vn 1.000000 0.000000 0.000000
vn 0.870017 -0.310417 -0.383031
vn 0.870017 -0.176861 -0.460208
vn 1.000000 0.000000 0.000000
vn 0.870017 -0.176861 -0.460208
vn 0.870017 -0.025993 -0.492337
vn 1.000000 0.000000 0.000000
vn 0.870017 -0.025993 -0.492337
vn 0.870017 0.127420 -0.476272
vn 1.000000 0.000000 0.000000
vn 0.870017 0.127420 -0.476272
vn 0.870017 0.268360 -0.413587
vn 1.000000 0.000000 0.000000
vn 0.870017 0.268360 -0.413587
vn 0.870017 0.383031 -0.310417
vn 1.000000 0.000000 0.000000
vn 0.870017 0.383031 -0.310417
vn 0.870017 0.460208 -0.176861
vn 1.000000 0.000000 0.000000
vn 0.870017 0.460208 -0.176861
vn 0.870017 0.492337 -0.025993
vn -0.810289 0.585216 0.030896
vn -0.810289 0.547026 0.210226
vn -0.239802 0.922122 0.303621
vn -0.810289 0.585216 0.030896
vn -0.239802 0.922122 0.303621
vn -0.239802 0.970814 0.003809
vn -0.810289 0.547026 0.210226
vn -0.810289 0.455289 0.368977
vn -0.239802 0.783167 0.573712
vn -0.810289 0.547026 0.210226
vn -0.239802 0.783167 0.573712
vn -0.239802 0.922122 0.303621
vn -0.810289 0.455289 0.368977
vn -0.810289 0.318986 0.491610
vn -0.239802 0.567549 0.787644
vn -0.810289 0.455289 0.368977
vn -0.239802 0.567549 0.787644
vn -0.239802 0.783167 0.573712
vn -0.810289 0.318986 0.491610
vn -0.810289 0.151457 0.566121
vn -0.239802 0.296376 0.924476
vn -0.810289 0.318986 0.491610
vn -0.239802 0.296376 0.924476
vn -0.239802 0.567549 0.787644
vn -0.810289 0.151457 0.566121
vn -0.810289 -0.030896 0.585216
vn -0.239802 -0.003809 0.970814
vn -0.810289 0.151457 0.566121
vn -0.239802 -0.003809 0.970814
vn -0.239802 0.296376 0.924476
vn -0.810289 -0.030896 0.585216
vn -0.810289 -0.210226 0.547026
vn -0.239802 -0.303621 0.922122
vn -0.810289 -0.030896 0.585216
vn -0.239802 -0.303621 0.922122
vn -0.239802 -0.003809 0.970814
vn -0.810289 -0.210226 0.547026
vn -0.810289 -0.368977 0.455289
vn -0.239802 -0.573712 0.783167
vn -0.810289 -0.210226 0.547026
vn -0.239802 -0.573712 0.783167
vn -0.239802 -0.303621 0.922122
vn -0.810289 -0.368977 0.455289
vn -0.810289 -0.491610 0.318986
vn -0.239802 -0.787644 0.567549
vn -0.810289 -0.368977 0.455289
vn -0.239802 -0.787644 0.567549
vn -0.239802 -0.573712 0.783167
vn -0.810289 -0.491610 0.318986
vn -0.810289 -0.566121 0.151457
vn -0.239802 -0.924476 0.296376
vn -0.810289 -0.491610 0.318986
vn -0.239802 -0.924476 0.296376
vn -0.239802 -0.787644 0.567549
vn -0.810289 -0.566121 0.151457
vn -0.810289 -0.585216 -0.030896
vn -0.239802 -0.970814 -0.003809
vn -0.810289 -0.566121 0.151457
vn -0.239802 -0.970814 -0.003809
vn -0.239802 -0.924476 0.296376
vn -0.810289 -0.585216 -0.030896
vn -0.810289 -0.547026 -0.210226
vn -0.239802 -0.922122 -0.303621
vn -0.810289 -0.585216 -0.030896
vn -0.239802 -0.922122 -0.303621
vn -0.239802 -0.970814 -0.003809
vn -0.810289 -0.547026 -0.210226
vn -0.810289 -0.455289 -0.368977
vn -0.239802 -0.783167 -0.573712
vn -0.810289 -0.547026 -0.210226
vn -0.239802 -0.783167 -0.573712
vn -0.239802 -0.922122 -0.303621
vn -0.810289 -0.455289 -0.368977
vn -0.810289 -0.318986 -0.491610
vn -0.239802 -0.567549 -0.787644
vn -0.810289 -0.455289 -0.368977
vn -0.239802 -0.567549 -0.787644
vn -0.239802 -0.783167 -0.573712
vn -0.810289 -0.318986 -0.491610
vn -0.810289 -0.151457 -0.566121
vn -0.239802 -0.296376 -0.924476
vn -0.810289 -0.318986 -0.491610
vn -0.239802 -0.296376 -0.924476
vn -0.239802 -0.567549 -0.787644
vn -0.810289 -0.151457 -0.566121
vn -0.810289 0.030896 -0.585216
vn -0.239802 0.003809 -0.970814
vn -0.810289 -0.151457 -0.566121
vn -0.239802 0.003809 -0.970814
vn -0.239802 -0.296376 -0.924476
vn -0.810289 0.030896 -0.585216
vn -0.810289 0.210226 -0.547026
vn -0.239802 0.303621 -0.922122
vn -0.810289 0.030896 -0.585216
vn -0.239802 0.303621 -0.922122
vn -0.239802 0.003809 -0.970814
vn -0.810289 0.210226 -0.547026
vn -0.810289 0.368977 -0.455289
vn -0.239802 0.573712 -0.783167
vn -0.810289 0.210226 -0.547026
vn -0.239802 0.573712 -0.783167
vn -0.239802 0.303621 -0.922122
vn -0.810289 0.368977 -0.455289
vn -0.810289 0.491610 -0.318986
vn -0.239802 0.787644 -0.567549
vn -0.810289 0.368977 -0.455289
vn -0.239802 0.787644 -0.567549
vn -0.239802 0.573712 -0.783167
vn -0.810289 0.491610 -0.318986
vn -0.810289 0.566121 -0.151457
vn -0.239802 0.924476 -0.296376
vn -0.810289 0.491610 -0.318986
vn -0.239802 0.924476 -0.296376
vn -0.239802 0.787644 -0.567549
vn -0.810289 0.566121 -0.151457
vn -0.810289 0.585216 0.030896
vn -0.239802 0.970814 0.003809
vn -0.810289 0.566121 -0.151457
vn -0.239802 0.970814 0.003809
vn -0.239802 0.924476 -0.296376
vn -0.239802 0.970814 0.003809
vn -0.239802 0.922122 0.303621
vn 0.379130 0.882111 0.279538
vn -0.239802 0.970814 0.003809
vn 0.379130 0.882111 0.279538
vn 0.379130 0.925319 -0.006731
vn -0.239802 0.922122 0.303621
vn -0.239802 0.783167 0.573712
vn 0.379130 0.752555 0.538443
vn -0.239802 0.922122 0.303621
vn 0.379130 0.752555 0.538443
vn 0.379130 0.882111 0.279538
vn -0.239802 0.783167 0.573712
vn -0.239802 0.567549 0.787644
vn 0.379130 0.549334 0.744643
vn -0.239802 0.783167 0.573712
vn 0.379130 0.549334 0.744643
vn 0.379130 0.752555 0.538443
vn -0.239802 0.567549 0.787644
vn -0.239802 0.296376 0.924476
vn 0.379130 0.292341 0.877951
vn -0.239802 0.567549 0.787644
vn 0.379130 0.292341 0.877951
vn 0.379130 0.549334 0.744643
vn -0.239802 0.296376 0.924476
vn -0.239802 -0.003809 0.970814
vn 0.379130 0.006731 0.925319
vn -0.239802 0.296376 0.924476
vn 0.379130 0.006731 0.925319
vn 0.379130 0.292341 0.877951
vn -0.239802 -0.003809 0.970814
vn -0.239802 -0.303621 0.922122
vn 0.379130 -0.279538 0.882111
vn -0.239802 -0.003809 0.970814
vn 0.379130 -0.279538 0.882111
vn 0.379130 0.006731 0.925319
vn -0.239802 -0.303621 0.922122
vn -0.239802 -0.573712 0.783167
vn 0.379130 -0.538443 0.752555
vn -0.239802 -0.303621 0.922122
vn 0.379130 -0.538443 0.752555
vn 0.379130 -0.279538 0.882111
vn -0.239802 -0.573712 0.783167
vn -0.239802 -0.787644 0.567549
vn 0.379130 -0.744643 0.549334
vn -0.239802 -0.573712 0.783167
vn 0.379130 -0.744643 0.549334
vn 0.379130 -0.538443 0.752555
vn -0.239802 -0.787644 0.567549
vn -0.239802 -0.924476 0.296376
vn 0.379130 -0.877951 0.292341
vn -0.239802 -0.787644 0.567549
vn 0.379130 -0.877951 0.292341
vn 0.379130 -0.744643 0.549334
vn -0.239802 -0.924476 0.296376
vn -0.239802 -0.970814 -0.003809
vn 0.379130 -0.925319 0.006731
vn -0.239802 -0.924476 0.296376
vn 0.379130 -0.925319 0.006731
vn 0.379130 -0.877951 0.292341
vn -0.239802 -0.970814 -0.003809
vn -0.239802 -0.922122 -0.303621
vn 0.379130 -0.882111 -0.279538
vn -0.239802 -0.970814 -0.003809
vn 0.379130 -0.882111 -0.279538
vn 0.379130 -0.925319 0.006731
vn -0.239802 -0.922122 -0.303621
vn -0.239802 -0.783167 -0.573712
vn 0.379130 -0.752555 -0.538443
vn -0.239802 -0.922122 -0.303621
vn 0.379130 -0.752555 -0.538443
vn 0.379130 -0.882111 -0.279538
vn -0.239802 -0.783167 -0.573712
vn -0.239802 -0.567549 -0.787644
vn 0.379130 -0.549334 -0.744643
vn -0.239802 -0.783167 -0.573712
vn 0.379130 -0.549334 -0.744643
vn 0.379130 -0.752555 -0.538443
vn -0.239802 -0.567549 -0.787644
vn -0.239802 -0.296376 -0.924476
vn 0.379130 -0.292341 -0.877951
vn -0.239802 -0.567549 -0.787644
vn 0.379130 -0.292341 -0.877951
vn 0.379130 -0.549334 -0.744643
vn -0.239802 -0.296376 -0.924476
vn -0.239802 0.003809 -0.970814
vn 0.379130 -0.006731 -0.925319
vn -0.239802 -0.296376 -0.924476
vn 0.379130 -0.006731 -0.925319
vn 0.379130 -0.292341 -0.877951
vn -0.239802 0.003809 -0.970814
vn -0.239802 0.303621 -0.922122
vn 0.379130 0.279538 -0.882111
vn -0.239802 0.003809 -0.970814
vn 0.379130 0.279538 -0.882111
vn 0.379130 -0.006731 -0.925319
vn -0.239802 0.303621 -0.922122
vn -0.239802 0.573712 -0.783167
vn 0.379130 0.538443 -0.752555
vn -0.239802 0.303621 -0.922122
vn 0.379130 0.538443 -0.752555
vn 0.379130 0.279538 -0.882111
vn -0.239802 0.573712 -0.783167
vn -0.239802 0.787644 -0.567549
vn 0.379130 0.744643 -0.549334
vn -0.239802 0.573712 -0.783167
vn 0.379130 0.744643 -0.549334
vn 0.379130 0.538443 -0.752555
vn -0.239802 0.787644 -0.567549
vn -0.239802 0.924476 -0.296376
vn 0.379130 0.877951 -0.292341
vn -0.239802 0.787644 -0.567549
vn 0.379130 0.877951 -0.292341
vn 0.379130 0.744643 -0.549334
vn -0.239802 0.924476 -0.296376
vn -0.239802 0.970814 0.003809
vn 0.379130 0.925319 -0.006731
vn -0.239802 0.924476 -0.296376
vn 0.379130 0.925319 -0.006731
vn 0.379130 0.877951 -0.292341
vn 0.379130 0.925319 -0.006731
vn 0.379130 0.882111 0.279538
vn 0.870017 0.476272 0.127420
vn 0.379130 0.925319 -0.006731
vn 0.870017 0.476272 0.127420
vn 0.870017 0.492337 -0.025993
vn 0.379130 0.882111 0.279538
vn 0.379130 0.752555 0.538443
vn 0.870017 0.413587 0.268360
vn 0.379130 0.882111 0.279538
vn 0.870017 0.413587 0.268360
vn 0.870017 0.476272 0.127420
vn 0.379130 0.752555 0.538443
vn 0.379130 0.549334 0.744643
vn 0.870017 0.310417 0.383031
vn 0.379130 0.752555 0.538443
vn 0.870017 0.310417 0.383031
vn 0.870017 0.413587 0.268360
vn 0.379130 0.549334 0.744643
vn 0.379130 0.292341 0.877951
vn 0.870017 0.176861 0.460208
vn 0.379130 0.549334 0.744643
vn 0.870017 0.176861 0.460208
vn 0.870017 0.310417 0.383031
vn 0.379130 0.292341 0.877951
vn 0.379130 0.006731 0.925319
vn 0.870017 0.025993 0.492337
vn 0.379130 0.292341 0.877951
vn 0.870017 0.025993 0.492337
vn 0.870017 0.176861 0.460208
vn 0.379130 0.006731 0.925319
vn 0.379130 -0.279538 0.882111
vn 0.870017 -0.127420 0.476272
vn 0.379130 0.006731 0.925319
vn 0.870017 -0.127420 0.476272
vn 0.870017 0.025993 0.492337
vn 0.379130 -0.279538 0.882111
vn 0.379130 -0.538443 0.752555
vn 0.870017 -0.268360 0.413587
vn 0.379130 -0.279538 0.882111
vn 0.870017 -0.268360 0.413587
vn 0.870017 -0.127420 0.476272
vn 0.379130 -0.538443 0.752555
vn 0.379130 -0.744643 0.549334
vn 0.870017 -0.383031 0.310417
vn 0.379130 -0.538443 0.752555
vn 0.870017 -0.383031 0.310417
vn 0.870017 -0.268360 0.413587
vn 0.379130 -0.744643 0.549334
vn 0.379130 -0.877951 0.292341
vn 0.870017 -0.460208 0.176861
vn 0.379130 -0.744643 0.549334
vn 0.870017 -0.460208 0.176861
vn 0.870017 -0.383031 0.310417
vn 0.379130 -0.877951 0.292341
vn 0.379130 -0.925319 0.006731
vn 0.870017 -0.492337 0.025993
vn 0.379130 -0.877951 0.292341
vn 0.870017 -0.492337 0.025993
vn 0.870017 -0.460208 0.176861
vn 0.379130 -0.925319 0.006731
vn 0.379130 -0.882111 -0.279538
vn 0.870017 -0.476272 -0.127420
vn 0.379130 -0.925319 0.006731
vn 0.870017 -0.476272 -0.127420
vn 0.870017 -0.492337 0.025993
vn 0.379130 -0.882111 -0.279538
vn 0.379130 -0.752555 -0.538443
vn 0.870017 -0.413587 -0.268360
vn 0.379130 -0.882111 -0.279538
vn 0.870017 -0.413587 -0.268360
vn 0.870017 -0.476272 -0.127420
vn 0.379130 -0.752555 -0.538443
vn 0.379130 -0.549334 -0.744643
vn 0.870017 -0.310417 -0.383031
vn 0.379130 -0.752555 -0.538443
vn 0.870017 -0.310417 -0.383031
vn 0.870017 -0.413587 -0.268360
vn 0.379130 -0.549334 -0.744643
vn 0.379130 -0.292341 -0.877951
vn 0.870017 -0.176861 -0.460208
vn 0.379130 -0.549334 -0.744643
vn 0.870017 -0.176861 -0.460208
vn 0.870017 -0.310417 -0.383031
vn 0.379130 -0.292341 -0.877951
vn 0.379130 -0.006731 -0.925319
vn 0.870017 -0.025993 -0.492337
vn 0.379130 -0.292341 -0.877951
vn 0.870017 -0.025993 -0.492337
vn 0.870017 -0.176861 -0.460208
vn 0.379130 -0.006731 -0.925319
vn 0.379130 0.279538 -0.882111
vn 0.870017 0.127420 -0.476272
vn 0.379130 -0.006731 -0.925319
vn 0.870017 0.127420 -0.476272
vn 0.870017 -0.025993 -0.492337
vn 0.379130 0.279538 -0.882111
vn 0.379130 0.538443 -0.752555
vn 0.870017 0.268360 -0.413587
vn 0.379130 0.279538 -0.882111
vn 0.870017 0.268360 -0.413587
vn 0.870017 0.127420 -0.476272
vn 0.379130 0.538443 -0.752555
vn 0.379130 0.744643 -0.549334
vn 0.870017 0.383031 -0.310417
vn 0.379130 0.538443 -0.752555
vn 0.870017 0.383031 -0.310417
vn 0.870017 0.268360 -0.413587
vn 0.379130 0.744643 -0.549334
vn 0.379130 0.877951 -0.292341
vn 0.870017 0.460208 -0.176861
vn 0.379130 0.744643 -0.549334
vn 0.870017 0.460208 -0.176861
vn 0.870017 0.383031 -0.310417
vn 0.379130 0.877951 -0.292341
vn 0.379130 0.925319 -0.006731
vn 0.870017 0.492337 -0.025993
vn 0.379130 0.877951 -0.292341
vn 0.870017 0.492337 -0.025993
vn 0.870017 0.460208 -0.176861
vn -0.810289 0.547026 0.210226
vn -0.810289 0.585216 0.030896
vn -1.000000 0.000000 0.000000
vn -0.810289 0.455289 0.368977
vn -0.810289 0.547026 0.210226
vn -1.000000 0.000000 0.000000
vn -0.810289 0.318986 0.491610
vn -0.810289 0.455289 0.368977
vn -1.000000 0.000000 0.000000
vn -0.810289 0.151457 0.566121
vn -0.810289 0.318986 0.491610
vn -1.000000 0.000000 0.000000
vn -0.810289 -0.030896 0.585216
vn -0.810289 0.151457 0.566121
vn -1.000000 0.000000 0.000000
vn -0.810289 -0.210226 0.547026
vn -0.810289 -0.030896 0.585216
vn -1.000000 0.000000 0.000000
vn -0.810289 -0.368977 0.455289
vn -0.810289 -0.210226 0.547026
vn -1.000000 0.000000 0.000000
vn -0.810289 -0.491610 0.318986
vn -0.810289 -0.368977 0.455289
vn -1.000000 0.000000 0.000000
vn -0.810289 -0.566121 0.151457
vn -0.810289 -0.491610 0.318986
vn -1.000000 0.000000 0.000000
vn -0.810289 -0.585216 -0.030896
vn -0.810289 -0.566121 0.151457
vn -1.000000 0.000000 0.000000
vn -0.810289 -0.547026 -0.210226
vn -0.810289 -0.585216 -0.030896
vn -1.000000 0.000000 0.000000
vn -0.810289 -0.455289 -0.368977
vn -0.810289 -0.547026 -0.210226
vn -1.000000 0.000000 0.000000
vn -0.810289 -0.318986 -0.491610
vn -0.810289 -0.455289 -0.368977
vn -1.000000 0.000000 0.000000
vn -0.810289 -0.151457 -0.566121
vn -0.810289 -0.318986 -0.491610
vn -1.000000 0.000000 0.000000
vn -0.810289 0.030896 -0.585216
vn -0.810289 -0.151457 -0.566121
vn -1.000000 0.000000 0.000000
vn -0.810289 0.210226 -0.547026
vn -0.810289 0.030896 -0.585216
vn -1.000000 0.000000 0.000000
vn -0.810289 0.368977 -0.455289
vn -0.810289 0.210226 -0.547026
vn -1.000000 0.000000 0.000000
vn -0.810289 0.491610 -0.318986
vn -0.810289 0.368977 -0.455289
vn -1.000000 0.000000 0.000000
vn -0.810289 0.566121 -0.151457
vn -0.810289 0.491610 -0.318986
vn -1.000000 0.000000 0.000000
vn -0.810289 0.585216 0.030896
vn -0.810289 0.566121 -0.151457
vn -1.000000 0.000000 0.000000
vn 1.000000 0.000000 0.000000
vn 0.870017 0.492337 -0.025993
vn 0.870017 0.476272 0.127420
vn 1.000000 0.000000 0.000000
vn 0.870017 0.476272 0.127420
vn 0.870017 0.413587 0.268360
vn 1.000000 0.000000 0.000000
vn 0.870017 0.413587 0.268360
vn 0.870017 0.310417 0.383031
vn 1.000000 0.000000 0.000000
vn 0.870017 0.310417 0.383031
vn 0.870017 0.176861 0.460208
vn 1.000000 0.000000 0.000000
vn 0.870017 0.176861 0.460208
vn 0.870017 0.025993 0.492337
vn 1.000000 0.000000 0.000000
vn 0.870017 0.025993 0.492337
vn 0.870017 -0.127420 0.476272
vn 1.000000 0.000000 0.000000
vn 0.870017 -0.127420 0.476272
vn 0.870017 -0.268360 0.413587
vn 1.000000 0.000000 0.000000
vn 0.870017 -0.268360 0.413587
vn 0.870017 -0.383031 0.310417
vn 1.000000 0.000000 0.000000
vn 0.870017 -0.383031 0.310417
vn 0.870017 -0.460208 0.176861
vn 1.000000 0.000000 0.000000
vn 0.870017 -0.460208 0.176861
vn 0.870017 -0.492337 0.025993
vn 1.000000 0.000000 0.000000
vn 0.870017 -0.492337 0.025993
vn 0.870017 -0.476272 -0.127420
vn 1.000000 0.000000 0.000000
vn 0.870017 -0.476272 -0.127420
vn 0.870017 -0.413587 -0.268360
vn 1.000000 0.000000 0.000000
vn 0.870017 -0.413587 -0.268360
vn 0.870017 -0.310417 -0.383031
vn 1.000000 0.000000 0.000000
vn 0.870017 -0.310417 -0.383031
vn 0.870017 -0.176861 -0.460208
vn 1.000000 0.000000 0.000000
vn 0.870017 -0.176861 -0.460208
vn 0.870017 -0.025993 -0.492337
vn 1.000000 0.000000 0.000000
vn 0.870017 -0.025993 -0.492337
vn 0.870017 0.127420 -0.476272
vn 1.000000 0.000000 0.000000
vn 0.870017 0.127420 -0.476272
vn 0.870017 0.268360 -0.413587
vn 1.000000 0.000000 0.000000
vn 0.870017 0.268360 -0.413587
vn 0.870017 0.383031 -0.310417
vn 1.000000 0.000000 0.000000
vn 0.870017 0.383031 -0.310417
vn 0.870017 0.460208 -0.176861
vn 1.000000 0.000000 0.000000
vn 0.870017 0.460208 -0.176861
vn 0.870017 0.492337 -0.025993
vn 0.000000 0.000000 -1.000000
vn 0.000000 0.000000 -1.000000
vn 0.000000 0.000000 -1.000000
vn 0.000000 0.000000 -1.000000
vn 0.000000 0.000000 -1.000000
vn 0.000000 0.000000 -1.000000
vn 0.000000 0.000000 1.000000
vn 0.000000 0.000000 1.000000
vn 0.000000 0.000000 1.000000
vn 0.000000 0.000000 1.000000
vn 0.000000 0.000000 1.000000
vn 0.000000 0.000000 1.000000
vn 0.000000 -1.000000 0.000000
vn 0.000000 -1.000000 0.000000
vn 0.000000 -1.000000 0.000000
vn 0.000000 -1.000000 0.000000
vn 0.000000 -1.000000 0.000000
vn 0.000000 -1.000000 0.000000
vn 1.000000 0.000000 0.000000
vn 1.000000 0.000000 0.000000
vn 1.000000 0.000000 0.000000
vn 1.000000 0.000000 0.000000
vn 1.000000 0.000000 0.000000
vn 1.000000 0.000000 0.000000
vn 0.000000 1.000000 0.000000
vn 0.000000 1.000000 0.000000
vn 0.000000 1.000000 0.000000
vn 0.000000 1.000000 -0.000000
vn 0.000000 1.000000 -0.000000
vn 0.000000 1.000000 -0.000000
vn -1.000000 0.000000 0.000000
vn -1.000000 0.000000 0.000000
vn -1.000000 0.000000 0.000000
vn -1.000000 0.000000 0.000000
vn -1.000000 0.000000 0.000000
vn -1.000000 0.000000 0.000000
usemtl M_Cyan
f 1/1/1 2/2/2 22/3/3
f 1/1/4 22/2/5 21/3/6
f 2/1/7 3/2/8 23/3/9
f 2/1/10 23/2/11 22/3/12
f 3/1/13 4/2/14 24/3/15
f 3/1/16 24/2/17 23/3/18
f 4/1/19 5/2/20 25/3/21
f 4/1/22 25/2/23 24/3/24
f 5/1/25 6/2/26 26/3/27
f 5/1/28 26/2/29 25/3/30
f 6/1/31 7/2/32 27/3/33
f 6/1/34 27/2/35 26/3/36
f 7/1/37 8/2/38 28/3/39
f 7/1/40 28/2/41 27/3/42
f 8/1/43 9/2/44 29/3/45
f 8/1/46 29/2/47 28/3/48
f 9/1/49 10/2/50 30/3/51
f 9/1/52 30/2/53 29/3/54
f 10/1/55 11/2/56 31/3/57
f 10/1/58 31/2/59 30/3/60
f 11/1/61 12/2/62 32/3/63
f 11/1/64 32/2/65 31/3/66
f 12/1/67 13/2/68 33/3/69
f 12/1/70 33/2/71 32/3/72
f 13/1/73 14/2/74 34/3/75
f 13/1/76 34/2/77 33/3/78
f 14/1/79 15/2/80 35/3/81
f 14/1/82 35/2/83 34/3/84
f 15/1/85 16/2/86 36/3/87
f 15/1/88 36/2/89 35/3/90
f 16/1/91 17/2/92 37/3/93
f 16/1/94 37/2/95 36/3/96
f 17/1/97 18/2/98 38/3/99
f 17/1/100 38/2/101 37/3/102
f 18/1/103 19/2/104 39/3/105
f 18/1/106 39/2/107 38/3/108
f 19/1/109 20/2/110 40/3/111
f 19/1/112 40/2/113 39/3/114
f 20/1/115 1/2/116 21/3/117
f 20/1/118 21/2/119 40/3/120
f 21/1/121 22/2/122 42/3/123
f 21/1/124 42/2/125 41/3/126
f 22/1/127 23/2/128 43/3/129
f 22/1/130 43/2/131 42/3/132
f 23/1/133 24/2/134 44/3/135
f 23/1/136 44/2/137 43/3/138
f 24/1/139 25/2/140 45/3/141
f 24/1/142 45/2/143 44/3/144
f 25/1/145 26/2/146 46/3/147
f 25/1/148 46/2/149 45/3/150
f 26/1/151 27/2/152 47/3/153
f 26/1/154 47/2/155 46/3/156
f 27/1/157 28/2/158 48/3/159
f 27/1/160 48/2/161 47/3/162
f 28/1/163 29/2/164 49/3/165
f 28/1/166 49/2/167 48/3/168
f 29/1/169 30/2/170 50/3/171
f 29/1/172 50/2/173 49/3/174
f 30/1/175 31/2/176 51/3/177
f 30/1/178 51/2/179 50/3/180
f 31/1/181 32/2/182 52/3/183
f 31/1/184 52/2/185 51/3/186
f 32/1/187 33/2/188 53/3/189
f 32/1/190 53/2/191 52/3/192
f 33/1/193 34/2/194 54/3/195
f 33/1/196 54/2/197 53/3/198
f 34/1/199 35/2/200 55/3/201
f 34/1/202 55/2/203 54/3/204
f 35/1/205 36/2/206 56/3/207
f 35/1/208 56/2/209 55/3/210
f 36/1/211 37/2/212 57/3/213
f 36/1/214 57/2/215 56/3/216
f 37/1/217 38/2/218 58/3/219
f 37/1/220 58/2/221 57/3/222
f 38/1/223 39/2/224 59/3/225
f 38/1/226 59/2/227 58/3/228
f 39/1/229 40/2/230 60/3/231
f 39/1/232 60/2/233 59/3/234
f 40/1/235 21/2/236 41/3/237
f 40/1/238 41/2/239 60/3/240
f 41/1/241 42/2/242 62/3/243
f 41/1/244 62/2/245 61/3/246
f 42/1/247 43/2/248 63/3/249
f 42/1/250 63/2/251 62/3/252
f 43/1/253 44/2/254 64/3/255
f 43/1/256 64/2/257 63/3/258
f 44/1/259 45/2/260 65/3/261
f 44/1/262 65/2/263 64/3/264
f 45/1/265 46/2/266 66/3/267
f 45/1/268 66/2/269 65/3/270
f 46/1/271 47/2/272 67/3/273
f 46/1/274 67/2/275 66/3/276
f 47/1/277 48/2/278 68/3/279
f 47/1/280 68/2/281 67/3/282
f 48/1/283 49/2/284 69/3/285
f 48/1/286 69/2/287 68/3/288
f 49/1/289 50/2/290 70/3/291
f 49/1/292 70/2/293 69/3/294
f 50/1/295 51/2/296 71/3/297
f 50/1/298 71/2/299 70/3/300
f 51/1/301 52/2/302 72/3/303
f 51/1/304 72/2/305 71/3/306
f 52/1/307 53/2/308 73/3/309
f 52/1/310 73/2/311 72/3/312
f 53/1/313 54/2/314 74/3/315
f 53/1/316 74/2/317 73/3/318
f 54/1/319 55/2/320 75/3/321
f 54/1/322 75/2/323 74/3/324
f 55/1/325 56/2/326 76/3/327
f 55/1/328 76/2/329 75/3/330
f 56/1/331 57/2/332 77/3/333
f 56/1/334 77/2/335 76/3/336
f 57/1/337 58/2/338 78/3/339
f 57/1/340 78/2/341 77/3/342
f 58/1/343 59/2/344 79/3/345
f 58/1/346 79/2/347 78/3/348
f 59/1/349 60/2/350 80/3/351
f 59/1/352 80/2/353 79/3/354
f 60/1/355 41/2/356 61/3/357
f 60/1/358 61/2/359 80/3/360
f 2/1/361 1/2/362 81/3/363
f 3/1/364 2/2/365 81/3/366
f 4/1/367 3/2/368 81/3/369
f 5/1/370 4/2/371 81/3/372
f 6/1/373 5/2/374 81/3/375
f 7/1/376 6/2/377 81/3/378
f 8/1/379 7/2/380 81/3/381
f 9/1/382 8/2/383 81/3/384
f 10/1/385 9/2/386 81/3/387
f 11/1/388 10/2/389 81/3/390
f 12/1/391 11/2/392 81/3/393
f 13/1/394 12/2/395 81/3/396
f 14/1/397 13/2/398 81/3/399
f 15/1/400 14/2/401 81/3/402
f 16/1/403 15/2/404 81/3/405
f 17/1/406 16/2/407 81/3/408
f 18/1/409 17/2/410 81/3/411
f 19/1/412 18/2/413 81/3/414
f 20/1/415 19/2/416 81/3/417
f 1/1/418 20/2/419 81/3/420
f 82/1/421 61/2/422 62/3/423
f 82/1/424 62/2/425 63/3/426
f 82/1/427 63/2/428 64/3/429
f 82/1/430 64/2/431 65/3/432
f 82/1/433 65/2/434 66/3/435
f 82/1/436 66/2/437 67/3/438
f 82/1/439 67/2/440 68/3/441
f 82/1/442 68/2/443 69/3/444
f 82/1/445 69/2/446 70/3/447
f 82/1/448 70/2/449 71/3/450
f 82/1/451 71/2/452 72/3/453
f 82/1/454 72/2/455 73/3/456
f 82/1/457 73/2/458 74/3/459
f 82/1/460 74/2/461 75/3/462
f 82/1/463 75/2/464 76/3/465
f 82/1/466 76/2/467 77/3/468
f 82/1/469 77/2/470 78/3/471
f 82/1/472 78/2/473 79/3/474
f 82/1/475 79/2/476 80/3/477
f 82/1/478 80/2/479 61/3/480
f 83/1/481 84/2/482 104/3/483
f 83/1/484 104/2/485 103/3/486
f 84/1/487 85/2/488 105/3/489
f 84/1/490 105/2/491 104/3/492
f 85/1/493 86/2/494 106/3/495
f 85/1/496 106/2/497 105/3/498
f 86/1/499 87/2/500 107/3/501
f 86/1/502 107/2/503 106/3/504
f 87/1/505 88/2/506 108/3/507
f 87/1/508 108/2/509 107/3/510
f 88/1/511 89/2/512 109/3/513
f 88/1/514 109/2/515 108/3/516
f 89/1/517 90/2/518 110/3/519
f 89/1/520 110/2/521 109/3/522
f 90/1/523 91/2/524 111/3/525
f 90/1/526 111/2/527 110/3/528
f 91/1/529 92/2/530 112/3/531
f 91/1/532 112/2/533 111/3/534
f 92/1/535 93/2/536 113/3/537
f 92/1/538 113/2/539 112/3/540
f 93/1/541 94/2/542 114/3/543
f 93/1/544 114/2/545 113/3/546
f 94/1/547 95/2/548 115/3/549
f 94/1/550 115/2/551 114/3/552
f 95/1/553 96/2/554 116/3/555
f 95/1/556 116/2/557 115/3/558
f 96/1/559 97/2/560 117/3/561
f 96/1/562 117/2/563 116/3/564
f 97/1/565 98/2/566 118/3/567
f 97/1/568 118/2/569 117/3/570
f 98/1/571 99/2/572 119/3/573
f 98/1/574 119/2/575 118/3/576
f 99/1/577 100/2/578 120/3/579
f 99/1/580 120/2/581 119/3/582
f 100/1/583 101/2/584 121/3/585
f 100/1/586 121/2/587 120/3/588
f 101/1/589 102/2/590 122/3/591
f 101/1/592 122/2/593 121/3/594
f 102/1/595 83/2/596 103/3/597
f 102/1/598 103/2/599 122/3/600
f 103/1/601 104/2/602 124/3/603
f 103/1/604 124/2/605 123/3/606
f 104/1/607 105/2/608 125/3/609
f 104/1/610 125/2/611 124/3/612
f 105/1/613 106/2/614 126/3/615
f 105/1/616 126/2/617 125/3/618
f 106/1/619 107/2/620 127/3/621
f 106/1/622 127/2/623 126/3/624
f 107/1/625 108/2/626 128/3/627
f 107/1/628 128/2/629 127/3/630
f 108/1/631 109/2/632 129/3/633
f 108/1/634 129/2/635 128/3/636
f 109/1/637 110/2/638 130/3/639
f 109/1/640 130/2/641 129/3/642
f 110/1/643 111/2/644 131/3/645
f 110/1/646 131/2/647 130/3/648
f 111/1/649 112/2/650 132/3/651
f 111/1/652 132/2/653 131/3/654
f 112/1/655 113/2/656 133/3/657
f 112/1/658 133/2/659 132/3/660
f 113/1/661 114/2/662 134/3/663
f 113/1/664 134/2/665 133/3/666
f 114/1/667 115/2/668 135/3/669
f 114/1/670 135/2/671 134/3/672
f 115/1/673 116/2/674 136/3/675
f 115/1/676 136/2/677 135/3/678
f 116/1/679 117/2/680 137/3/681
f 116/1/682 137/2/683 136/3/684
f 117/1/685 118/2/686 138/3/687
f 117/1/688 138/2/689 137/3/690
f 118/1/691 119/2/692 139/3/693
f 118/1/694 139/2/695 138/3/696
f 119/1/697 120/2/698 140/3/699
f 119/1/700 140/2/701 139/3/702
f 120/1/703 121/2/704 141/3/705
f 120/1/706 141/2/707 140/3/708
f 121/1/709 122/2/710 142/3/711
f 121/1/712 142/2/713 141/3/714
f 122/1/715 103/2/716 123/3/717
f 122/1/718 123/2/719 142/3/720
f 123/1/721 124/2/722 144/3/723
f 123/1/724 144/2/725 143/3/726
f 124/1/727 125/2/728 145/3/729
f 124/1/730 145/2/731 144/3/732
f 125/1/733 126/2/734 146/3/735
f 125/1/736 146/2/737 145/3/738
f 126/1/739 127/2/740 147/3/741
f 126/1/742 147/2/743 146/3/744
f 127/1/745 128/2/746 148/3/747
f 127/1/748 148/2/749 147/3/750
f 128/1/751 129/2/752 149/3/753
f 128/1/754 149/2/755 148/3/756
f 129/1/757 130/2/758 150/3/759
f 129/1/760 150/2/761 149/3/762
f 130/1/763 131/2/764 151/3/765
f 130/1/766 151/2/767 150/3/768
f 131/1/769 132/2/770 152/3/771
f 131/1/772 152/2/773 151/3/774
f 132/1/775 133/2/776 153/3/777
f 132/1/778 153/2/779 152/3/780
f 133/1/781 134/2/782 154/3/783
f 133/1/784 154/2/785 153/3/786
f 134/1/787 135/2/788 155/3/789
f 134/1/790 155/2/791 154/3/792
f 135/1/793 136/2/794 156/3/795
f 135/1/796 156/2/797 155/3/798
f 136/1/799 137/2/800 157/3/801
f 136/1/802 157/2/803 156/3/804
f 137/1/805 138/2/806 158/3/807
f 137/1/808 158/2/809 157/3/810
f 138/1/811 139/2/812 159/3/813
f 138/1/814 159/2/815 158/3/816
f 139/1/817 140/2/818 160/3/819
f 139/1/820 160/2/821 159/3/822
f 140/1/823 141/2/824 161/3/825
f 140/1/826 161/2/827 160/3/828
f 141/1/829 142/2/830 162/3/831
f 141/1/832 162/2/833 161/3/834
f 142/1/835 123/2/836 143/3/837
f 142/1/838 143/2/839 162/3/840
f 84/1/841 83/2/842 163/3/843
f 85/1/844 84/2/845 163/3/846
f 86/1/847 85/2/848 163/3/849
f 87/1/850 86/2/851 163/3/852
f 88/1/853 87/2/854 163/3/855
f 89/1/856 88/2/857 163/3/858
f 90/1/859 89/2/860 163/3/861
f 91/1/862 90/2/863 163/3/864
f 92/1/865 91/2/866 163/3/867
f 93/1/868 92/2/869 163/3/870
f 94/1/871 93/2/872 163/3/873
f 95/1/874 94/2/875 163/3/876
f 96/1/877 95/2/878 163/3/879
f 97/1/880 96/2/881 163/3/882
f 98/1/883 97/2/884 163/3/885
f 99/1/886 98/2/887 163/3/888
f 100/1/889 99/2/890 163/3/891
f 101/1/892 100/2/893 163/3/894
f 102/1/895 101/2/896 163/3/897
f 83/1/898 102/2/899 163/3/900
f 164/1/901 143/2/902 144/3/903
f 164/1/904 144/2/905 145/3/906
f 164/1/907 145/2/908 146/3/909
f 164/1/910 146/2/911 147/3/912
f 164/1/913 147/2/914 148/3/915
f 164/1/916 148/2/917 149/3/918
f 164/1/919 149/2/920 150/3/921
f 164/1/922 150/2/923 151/3/924
f 164/1/925 151/2/926 152/3/927
f 164/1/928 152/2/929 153/3/930
f 164/1/931 153/2/932 154/3/933
f 164/1/934 154/2/935 155/3/936
f 164/1/937 155/2/938 156/3/939
f 164/1/940 156/2/941 157/3/942
f 164/1/943 157/2/944 158/3/945
f 164/1/946 158/2/947 159/3/948
f 164/1/949 159/2/950 160/3/951
f 164/1/952 160/2/953 161/3/954
f 164/1/955 161/2/956 162/3/957
f 164/1/958 162/2/959 143/3/960
usemtl M_Gold
f 168/1/961 167/2/962 166/3/963
f 168/1/964 166/2/965 165/3/966
f 169/1/967 170/2/968 171/3/969
f 169/1/970 171/2/971 172/3/972
f 165/1/973 166/2/974 170/3/975
f 165/1/976 170/2/977 169/3/978
f 166/1/979 167/2/980 171/3/981
f 166/1/982 171/2/983 170/3/984
f 167/1/985 168/2/986 172/3/987
f 167/1/988 172/2/989 171/3/990
f 168/1/991 165/2/992 169/3/993
f 168/1/994 169/2/995 172/3/996
